<?xml version="1.0" encoding="utf-8"?>
<!-- Generator: Adobe Illustrator 16.0.4, SVG Export Plug-In . SVG Version: 6.00 Build 0)  -->
<!DOCTYPE svg PUBLIC "-//W3C//DTD SVG 1.1//EN" "http://www.w3.org/Graphics/SVG/1.1/DTD/svg11.dtd">
<svg version="1.1" id="Layer_1" xmlns="http://www.w3.org/2000/svg" xmlns:xlink="http://www.w3.org/1999/xlink" x="0px" y="0px"
	 width="500px" height="500px" viewBox="0 0 500 500" enable-background="new 0 0 500 500" xml:space="preserve">
<g>
	<g>
		<g id="XMLID_1_">
			<g>
				<path fill="#B4B4B5" d="M422.817,102.787c33.148,39.208,52.931,89.822,52.931,144.891
					c0,124.217-100.693,224.911-224.911,224.911c-124.396,0-225.089-100.693-225.089-224.911
					c0-124.218,100.693-225.089,225.089-225.089v30.119c-107.644,0-194.97,87.327-194.97,194.971
					c0,107.643,87.327,194.97,194.97,194.97s194.792-87.327,194.792-194.97c0-47.941-17.287-92.139-45.98-126l1.782-1.604
					L422.817,102.787z"/>
				<path fill="#CCAE2E" d="M422.817,102.787l-21.386,17.287l-1.782,1.604c-35.822-42.237-89.109-68.97-148.812-68.97V22.589
					C319.807,22.589,381.648,53.777,422.817,102.787z"/>
			</g>
			<g>
				<line fill="none" stroke="#A7A9AC" stroke-miterlimit="10" x1="250.836" y1="22.589" x2="250.836" y2="52.708"/>
				<polyline fill="none" stroke="#A7A9AC" stroke-miterlimit="10" points="424.955,101.005 422.817,102.787 401.431,120.074 				
					"/>
			</g>
		</g>
	</g>
	<text transform="matrix(1 0 0 1 174.3301 269.9648)"><tspan x="0" y="0" fill="#FFFFFF" font-family="'MyriadPro-Semibold'" font-size="142.5743">12</tspan><tspan x="-7.289" y="42.772" fill="#FFFFFF" font-family="'MyriadPro-Regular'" font-size="35.6436">are women</tspan></text>
</g>
</svg>
