<?xml version="1.0" encoding="utf-8"?>
<!-- Generator: Adobe Illustrator 16.0.4, SVG Export Plug-In . SVG Version: 6.00 Build 0)  -->
<!DOCTYPE svg PUBLIC "-//W3C//DTD SVG 1.1//EN" "http://www.w3.org/Graphics/SVG/1.1/DTD/svg11.dtd">
<svg version="1.1" id="Layer_1" xmlns="http://www.w3.org/2000/svg" xmlns:xlink="http://www.w3.org/1999/xlink" x="0px" y="0px"
	 width="500px" height="500px" viewBox="0 0 500 500" enable-background="new 0 0 500 500" xml:space="preserve">
<g>
	<g>
		<g id="XMLID_3_">
			<g>
				<path fill="#CCAE2E" d="M250.089,22.59C374.307,22.59,475,123.461,475,247.679c0,76.277-37.96,143.644-96.06,184.277
					l-14.792-24.594l-0.713-1.069c49.367-35.466,81.446-93.208,81.446-158.614c0-107.644-87.148-194.97-194.792-194.97V22.59z"/>
				<path fill="#B4B4B5" d="M250.089,442.649c42.238,0,81.446-13.545,113.347-36.356l0.713,1.069l14.792,24.594
					c-36.356,25.663-80.911,40.634-128.852,40.634C125.693,472.59,25,371.896,25,247.679S125.693,22.59,250.089,22.59v30.119
					c-107.644,0-194.97,87.327-194.97,194.97S142.445,442.649,250.089,442.649z"/>
			</g>
			<g>
				<line fill="none" stroke="#A7A9AC" stroke-miterlimit="10" x1="250.089" y1="22.59" x2="250.089" y2="52.708"/>
				<polyline fill="none" stroke="#A7A9AC" stroke-miterlimit="10" points="379.653,433.204 378.94,431.956 364.148,407.362 				"/>
			</g>
		</g>
	</g>
	<text transform="matrix(1 0 0 1 147.7192 265.4736)"><tspan x="0" y="0" fill="#FFFFFF" font-family="'MyriadPro-Semibold'" font-size="106.9307">38%</tspan><tspan x="11.157" y="53.466" fill="#FFFFFF" font-family="'MyriadPro-Regular'" font-size="35.6436">are converts</tspan><tspan x="40.01" y="89.109" fill="#FFFFFF" font-family="'MyriadPro-Regular'" font-size="35.6436">to Islam </tspan></text>
	<text transform="matrix(1 0 0 1 208.6562 165.9722)" fill="#FFFFFF" font-family="'MyriadPro-Regular'" font-size="26.7327">Approx</text>
</g>
</svg>
