<?xml version="1.0" encoding="utf-8"?>
<!-- Generator: Adobe Illustrator 16.0.4, SVG Export Plug-In . SVG Version: 6.00 Build 0)  -->
<!DOCTYPE svg PUBLIC "-//W3C//DTD SVG 1.1//EN" "http://www.w3.org/Graphics/SVG/1.1/DTD/svg11.dtd">
<svg version="1.1" id="Layer_1" xmlns="http://www.w3.org/2000/svg" xmlns:xlink="http://www.w3.org/1999/xlink" x="0px" y="0px"
	 width="500px" height="500px" viewBox="0 0 500 500" enable-background="new 0 0 500 500" xml:space="preserve">
<g>
	<g>
		<g id="XMLID_6_">
			<g>
				<path fill="#B4B4B5" d="M444.881,258.325c0-81.267-49.545-150.95-120.297-180.178l0.356-0.891l11.762-26.554
					c81.268,33.861,138.297,114.059,138.297,207.623c0,124.218-100.692,224.911-224.91,224.911
					C125.693,483.236,25,382.543,25,258.325C25,134.108,125.693,33.237,250.089,33.237v30.119
					c-107.644,0-194.97,87.327-194.97,194.97c0,107.644,87.326,194.971,194.97,194.971S444.881,365.969,444.881,258.325z"/>
				<path fill="#CCAE2E" d="M250.089,33.237c30.653,0,60.06,6.237,86.613,17.465L324.94,77.256l-0.356,0.891
					c-22.812-9.446-48.119-14.792-74.495-14.792V33.237z"/>
			</g>
			<g>
				<line fill="none" stroke="#939598" stroke-miterlimit="10" x1="250.089" y1="33.237" x2="250.089" y2="63.355"/>
				<polyline fill="none" stroke="#A7A9AC" stroke-miterlimit="10" points="337.237,49.455 336.702,50.702 324.94,77.256 				"/>
			</g>
		</g>
	</g>
	<text transform="matrix(1 0 0 1 194.8301 158.6777)"><tspan x="0" y="0" fill="#FFFFFF" font-family="'MyriadPro-Regular'" font-size="35.6435">At least</tspan><tspan x="17.055" y="124.752" fill="#FFFFFF" font-family="'MyriadPro-Semibold'" font-size="142.5741">3</tspan><tspan x="-0.802" y="163.752" fill="#FFFFFF" font-family="'MyriadPro-Regular'" font-size="35.6435">worked</tspan><tspan x="-18.338" y="202.752" fill="#FFFFFF" font-family="'MyriadPro-Regular'" font-size="35.6435">in schools</tspan></text>
</g>
</svg>
