<?xml version="1.0" encoding="utf-8"?>
<!-- Generator: Adobe Illustrator 16.0.4, SVG Export Plug-In . SVG Version: 6.00 Build 0)  -->
<!DOCTYPE svg PUBLIC "-//W3C//DTD SVG 1.1//EN" "http://www.w3.org/Graphics/SVG/1.1/DTD/svg11.dtd">
<svg version="1.1" id="Layer_1" xmlns="http://www.w3.org/2000/svg" xmlns:xlink="http://www.w3.org/1999/xlink" x="0px" y="0px"
	 width="500px" height="500px" viewBox="0 0 500 500" enable-background="new 0 0 500 500" xml:space="preserve">
<g>
	<g>
		<g id="XMLID_4_">
			<g>
				<path fill="#CCAE2E" d="M340.623,74.986c-27.089-14.257-57.742-22.277-90.534-22.277V22.59
					c38.495,0,74.852,9.624,106.574,26.732L340.623,74.986z"/>
				<path fill="#B4B4B5" d="M356.663,49.322c70.396,38.139,118.336,112.634,118.336,198.356c0,124.218-100.692,224.91-224.91,224.91
					C125.692,472.589,25,371.896,25,247.679S125.692,22.59,250.089,22.59v30.119c-107.644,0-194.971,87.327-194.971,194.97
					s87.327,194.97,194.971,194.97s194.792-87.326,194.792-194.97c0-74.852-42.238-140.079-104.258-172.693L356.663,49.322z"/>
			</g>
			<g>
				<line fill="none" stroke="#939598" stroke-miterlimit="10" x1="250.089" y1="22.59" x2="250.089" y2="52.708"/>
				<line fill="none" stroke="#A7A9AC" stroke-miterlimit="10" x1="356.663" y1="49.322" x2="340.623" y2="74.986"/>
			</g>
		</g>
	</g>
	<text transform="matrix(1 0 0 1 194.75 148.0703)"><tspan x="0" y="0" fill="#FFFFFF" font-family="'MyriadPro-Regular'" font-size="35.6435">At least</tspan><tspan x="17.055" y="124.752" fill="#FFFFFF" font-family="'MyriadPro-Semibold'" font-size="142.5741">5</tspan><tspan x="18.463" y="163.752" fill="#FFFFFF" font-family="'MyriadPro-Regular'" font-size="35.6435">were</tspan><tspan x="-3.867" y="202.752" fill="#FFFFFF" font-family="'MyriadPro-Regular'" font-size="35.6435">enlisted</tspan></text>
</g>
</svg>
