<?xml version="1.0" encoding="utf-8"?>
<!-- Generator: Adobe Illustrator 16.0.4, SVG Export Plug-In . SVG Version: 6.00 Build 0)  -->
<!DOCTYPE svg PUBLIC "-//W3C//DTD SVG 1.1//EN" "http://www.w3.org/Graphics/SVG/1.1/DTD/svg11.dtd">
<svg version="1.1" id="Layer_1" xmlns="http://www.w3.org/2000/svg" xmlns:xlink="http://www.w3.org/1999/xlink" x="0px" y="0px"
	 width="20px" height="10px" viewBox="0 0 20 10" enable-background="new 0 0 20 10" xml:space="preserve">
<path fill="#B4B4B5" d="M1.283,3.363C1.529,3.459,1.829,3.37,1.996,3.169c0.177-0.213,0.201-0.516,0.06-0.754
	C1.914,2.176,1.633,2.068,1.365,2.117C1.07,2.17,0.862,2.446,0.852,2.737c0,0.005,0,0.01,0,0.015
	C0.855,3.03,1.026,3.262,1.283,3.363z M1.211,2.482C1.28,2.407,1.377,2.364,1.47,2.357C1.575,2.35,1.676,2.383,1.749,2.444
	c0.08,0.066,0.132,0.161,0.143,0.249C1.907,2.81,1.88,2.898,1.813,2.994C1.761,3.068,1.667,3.121,1.568,3.141
	C1.371,3.183,1.169,3.043,1.117,2.847c-0.01-0.038-0.011-0.053-0.012-0.096C1.106,2.65,1.143,2.556,1.211,2.482z M2.025,5.307
	c-0.07,0-0.127,0.057-0.127,0.127v2.207H1.627V5.868c0-0.07-0.057-0.127-0.127-0.127c-0.07,0-0.127,0.057-0.127,0.127v1.773H1.102
	V5.434c0-0.07-0.057-0.127-0.127-0.127c-0.07,0-0.127,0.057-0.127,0.127v2.333c0,0.07,0.057,0.127,0.127,0.127h1.05
	c0.07,0,0.127-0.057,0.127-0.127V5.434C2.152,5.364,2.095,5.307,2.025,5.307z M2.058,3.594H0.942c-0.246,0-0.445,0.2-0.445,0.445
	v1.597c0,0.07,0.057,0.127,0.127,0.127c0.07,0,0.127-0.057,0.127-0.127V4.04c0-0.105,0.086-0.191,0.191-0.191h1.116
	c0.105,0,0.191,0.086,0.191,0.191v1.597c0,0.07,0.057,0.127,0.127,0.127s0.127-0.057,0.127-0.127V4.04
	C2.503,3.794,2.304,3.594,2.058,3.594z"/>
<path fill="#B4B4B5" d="M3.783,3.363C4.029,3.46,4.329,3.37,4.496,3.17c0.177-0.213,0.201-0.516,0.06-0.754
	C4.414,2.177,4.133,2.068,3.865,2.117C3.57,2.171,3.362,2.446,3.352,2.737c0,0.005,0,0.01,0,0.015
	C3.355,3.03,3.526,3.263,3.783,3.363z M3.711,2.482C3.78,2.407,3.877,2.364,3.97,2.357c0.105-0.007,0.206,0.026,0.279,0.087
	c0.08,0.066,0.132,0.161,0.143,0.249C4.407,2.811,4.38,2.898,4.313,2.994C4.261,3.068,4.167,3.121,4.068,3.142
	C3.871,3.184,3.669,3.044,3.617,2.848C3.606,2.81,3.605,2.795,3.605,2.752C3.606,2.65,3.643,2.557,3.711,2.482z M4.525,5.308
	c-0.07,0-0.127,0.057-0.127,0.127v2.206H4.127V5.868c0-0.07-0.057-0.127-0.127-0.127c-0.07,0-0.127,0.057-0.127,0.127v1.772H3.602
	V5.435c0-0.07-0.057-0.127-0.127-0.127c-0.07,0-0.127,0.057-0.127,0.127v2.333c0,0.07,0.057,0.127,0.127,0.127h1.05
	c0.07,0,0.127-0.057,0.127-0.127V5.435C4.652,5.364,4.595,5.308,4.525,5.308z M4.558,3.595H3.442c-0.246,0-0.445,0.2-0.445,0.445
	v1.597c0,0.07,0.057,0.127,0.127,0.127c0.07,0,0.127-0.057,0.127-0.127V4.04c0-0.105,0.086-0.191,0.191-0.191h1.116
	c0.105,0,0.191,0.086,0.191,0.191v1.597c0,0.07,0.057,0.127,0.127,0.127s0.127-0.057,0.127-0.127V4.04
	C5.003,3.795,4.804,3.595,4.558,3.595z"/>
<path fill="#B4B4B5" d="M6.283,3.363C6.529,3.459,6.829,3.37,6.996,3.169c0.177-0.213,0.201-0.516,0.06-0.754
	C6.914,2.176,6.633,2.068,6.365,2.117C6.07,2.17,5.862,2.446,5.852,2.737c0,0.005,0,0.01,0,0.015
	C5.855,3.03,6.026,3.262,6.283,3.363z M6.211,2.482C6.28,2.407,6.377,2.364,6.47,2.357C6.575,2.35,6.676,2.383,6.749,2.444
	c0.08,0.066,0.132,0.161,0.143,0.249C6.907,2.81,6.88,2.898,6.813,2.994C6.761,3.068,6.667,3.121,6.568,3.141
	C6.371,3.183,6.169,3.043,6.117,2.847c-0.01-0.038-0.011-0.053-0.012-0.096C6.106,2.65,6.143,2.556,6.211,2.482z M7.025,5.307
	c-0.07,0-0.127,0.057-0.127,0.127v2.207H6.627V5.868c0-0.07-0.057-0.127-0.127-0.127c-0.07,0-0.127,0.057-0.127,0.127v1.773H6.102
	V5.434c0-0.07-0.057-0.127-0.127-0.127c-0.07,0-0.127,0.057-0.127,0.127v2.333c0,0.07,0.057,0.127,0.127,0.127h1.05
	c0.07,0,0.127-0.057,0.127-0.127V5.434C7.152,5.364,7.095,5.307,7.025,5.307z M7.058,3.594H5.942c-0.246,0-0.445,0.2-0.445,0.445
	v1.597c0,0.07,0.057,0.127,0.127,0.127c0.07,0,0.127-0.057,0.127-0.127V4.04c0-0.105,0.086-0.191,0.191-0.191h1.116
	c0.105,0,0.191,0.086,0.191,0.191v1.597c0,0.07,0.057,0.127,0.127,0.127s0.127-0.057,0.127-0.127V4.04
	C7.503,3.794,7.304,3.594,7.058,3.594z"/>
</svg>
