<?xml version="1.0" encoding="utf-8"?>
<!-- Generator: Adobe Illustrator 16.0.4, SVG Export Plug-In . SVG Version: 6.00 Build 0)  -->
<!DOCTYPE svg PUBLIC "-//W3C//DTD SVG 1.1//EN" "http://www.w3.org/Graphics/SVG/1.1/DTD/svg11.dtd">
<svg version="1.1" id="Layer_1" xmlns="http://www.w3.org/2000/svg" xmlns:xlink="http://www.w3.org/1999/xlink" x="0px" y="0px"
	 width="20px" height="10px" viewBox="0 0 20 10" enable-background="new 0 0 20 10" xml:space="preserve">
<path fill="#B4B4B5" d="M1.283,3.363C1.529,3.459,1.828,3.369,1.996,3.17c0.176-0.213,0.201-0.516,0.059-0.754
	C1.914,2.176,1.633,2.068,1.365,2.117C1.07,2.17,0.861,2.446,0.852,2.737c0,0.005,0,0.01,0,0.015
	C0.855,3.029,1.025,3.262,1.283,3.363z M1.211,2.482c0.068-0.075,0.166-0.118,0.26-0.125C1.574,2.35,1.676,2.383,1.748,2.444
	c0.08,0.066,0.133,0.161,0.145,0.249c0.014,0.117-0.012,0.205-0.08,0.301C1.76,3.068,1.666,3.121,1.568,3.141
	C1.371,3.184,1.17,3.043,1.117,2.847C1.105,2.809,1.105,2.794,1.105,2.751C1.105,2.65,1.143,2.556,1.211,2.482z M2.025,5.307
	c-0.07,0-0.127,0.057-0.127,0.127v2.207H1.627V5.867c0-0.07-0.057-0.127-0.127-0.127S1.373,5.797,1.373,5.867v1.773H1.102V5.434
	c0-0.07-0.057-0.127-0.127-0.127S0.848,5.363,0.848,5.434v2.334c0,0.07,0.057,0.127,0.127,0.127h1.051
	c0.07,0,0.127-0.057,0.127-0.127V5.434C2.152,5.363,2.096,5.307,2.025,5.307z M2.059,3.594H0.941c-0.246,0-0.445,0.201-0.445,0.445
	v1.598c0,0.07,0.057,0.127,0.127,0.127S0.75,5.707,0.75,5.637V4.039c0-0.105,0.086-0.191,0.191-0.191h1.117
	c0.105,0,0.191,0.086,0.191,0.191v1.598c0,0.07,0.057,0.127,0.127,0.127s0.127-0.057,0.127-0.127V4.039
	C2.504,3.795,2.303,3.594,2.059,3.594z"/>
<path fill="#B4B4B5" d="M3.783,3.363C4.029,3.46,4.328,3.37,4.496,3.17c0.176-0.213,0.201-0.516,0.059-0.754
	C4.414,2.177,4.133,2.068,3.865,2.117C3.57,2.171,3.361,2.446,3.352,2.737c0,0.005,0,0.01,0,0.015
	C3.355,3.03,3.525,3.263,3.783,3.363z M3.711,2.482c0.068-0.075,0.166-0.118,0.26-0.125c0.104-0.007,0.205,0.026,0.277,0.087
	c0.08,0.066,0.133,0.161,0.145,0.249c0.014,0.117-0.012,0.205-0.08,0.301C4.26,3.068,4.166,3.121,4.068,3.142
	C3.871,3.184,3.67,3.044,3.617,2.848C3.605,2.81,3.605,2.795,3.605,2.752C3.605,2.65,3.643,2.557,3.711,2.482z M4.525,5.308
	c-0.07,0-0.127,0.057-0.127,0.127v2.206H4.127V5.868c0-0.07-0.057-0.127-0.127-0.127S3.873,5.798,3.873,5.868v1.772H3.602V5.435
	c0-0.07-0.057-0.127-0.127-0.127S3.348,5.364,3.348,5.435v2.333c0,0.07,0.057,0.127,0.127,0.127h1.051
	c0.07,0,0.127-0.057,0.127-0.127V5.435C4.652,5.364,4.596,5.308,4.525,5.308z M4.559,3.595H3.441c-0.246,0-0.445,0.2-0.445,0.445
	v1.597c0,0.07,0.057,0.127,0.127,0.127S3.25,5.707,3.25,5.637V4.04c0-0.105,0.086-0.191,0.191-0.191h1.117
	c0.105,0,0.191,0.086,0.191,0.191v1.597c0,0.07,0.057,0.127,0.127,0.127s0.127-0.057,0.127-0.127V4.04
	C5.004,3.795,4.803,3.595,4.559,3.595z"/>
<path fill="#B4B4B5" d="M6.283,3.363C6.529,3.459,6.828,3.369,6.996,3.17c0.176-0.213,0.201-0.516,0.059-0.754
	C6.914,2.176,6.633,2.068,6.365,2.117C6.07,2.17,5.861,2.446,5.852,2.737c0,0.005,0,0.01,0,0.015
	C5.855,3.029,6.025,3.262,6.283,3.363z M6.211,2.482c0.068-0.075,0.166-0.118,0.26-0.125C6.574,2.35,6.676,2.383,6.748,2.444
	c0.08,0.066,0.133,0.161,0.145,0.249c0.014,0.117-0.012,0.205-0.08,0.301C6.76,3.068,6.666,3.121,6.568,3.141
	C6.371,3.184,6.17,3.043,6.117,2.847C6.105,2.809,6.105,2.794,6.105,2.751C6.105,2.65,6.143,2.556,6.211,2.482z M7.025,5.307
	c-0.07,0-0.127,0.057-0.127,0.127v2.207H6.627V5.867c0-0.07-0.057-0.127-0.127-0.127S6.373,5.797,6.373,5.867v1.773H6.102V5.434
	c0-0.07-0.057-0.127-0.127-0.127S5.848,5.363,5.848,5.434v2.334c0,0.07,0.057,0.127,0.127,0.127h1.051
	c0.07,0,0.127-0.057,0.127-0.127V5.434C7.152,5.363,7.096,5.307,7.025,5.307z M7.059,3.594H5.941c-0.246,0-0.445,0.201-0.445,0.445
	v1.598c0,0.07,0.057,0.127,0.127,0.127S5.75,5.707,5.75,5.637V4.039c0-0.105,0.086-0.191,0.191-0.191h1.117
	c0.105,0,0.191,0.086,0.191,0.191v1.598c0,0.07,0.057,0.127,0.127,0.127s0.127-0.057,0.127-0.127V4.039
	C7.504,3.795,7.303,3.594,7.059,3.594z"/>
<path fill="#B4B4B5" d="M8.783,3.363C9.029,3.459,9.328,3.369,9.496,3.17c0.176-0.213,0.201-0.516,0.059-0.754
	C9.414,2.176,9.133,2.068,8.865,2.117C8.57,2.17,8.361,2.446,8.352,2.737c0,0.005,0,0.01,0,0.015
	C8.355,3.029,8.525,3.262,8.783,3.363z M8.711,2.482c0.068-0.075,0.166-0.118,0.26-0.125C9.074,2.35,9.176,2.383,9.248,2.444
	c0.08,0.066,0.133,0.161,0.145,0.249c0.014,0.117-0.012,0.205-0.08,0.301C9.26,3.068,9.166,3.121,9.068,3.141
	C8.871,3.184,8.67,3.043,8.617,2.847C8.605,2.809,8.605,2.794,8.605,2.751C8.605,2.65,8.643,2.556,8.711,2.482z M9.525,5.307
	c-0.07,0-0.127,0.057-0.127,0.127v2.207H9.127V5.867C9.127,5.797,9.07,5.74,9,5.74S8.873,5.797,8.873,5.867v1.773H8.602V5.434
	c0-0.07-0.057-0.127-0.127-0.127S8.348,5.363,8.348,5.434v2.334c0,0.07,0.057,0.127,0.127,0.127h1.051
	c0.07,0,0.127-0.057,0.127-0.127V5.434C9.652,5.363,9.596,5.307,9.525,5.307z M9.559,3.594H8.441c-0.246,0-0.445,0.201-0.445,0.445
	v1.598c0,0.07,0.057,0.127,0.127,0.127S8.25,5.707,8.25,5.637V4.039c0-0.105,0.086-0.191,0.191-0.191h1.117
	c0.105,0,0.191,0.086,0.191,0.191v1.598c0,0.07,0.057,0.127,0.127,0.127s0.127-0.057,0.127-0.127V4.039
	C10.004,3.795,9.803,3.594,9.559,3.594z"/>
<path fill="#B4B4B5" d="M11.283,3.363c0.246,0.096,0.545,0.006,0.713-0.193c0.176-0.213,0.201-0.516,0.059-0.754
	c-0.141-0.239-0.422-0.348-0.689-0.299c-0.295,0.054-0.504,0.329-0.514,0.62c0,0.005,0,0.01,0,0.015
	C10.855,3.029,11.025,3.262,11.283,3.363z M11.211,2.482c0.068-0.075,0.166-0.118,0.26-0.125c0.104-0.007,0.205,0.026,0.277,0.087
	c0.08,0.066,0.133,0.161,0.145,0.249c0.014,0.117-0.012,0.205-0.08,0.301c-0.053,0.075-0.146,0.127-0.244,0.147
	c-0.197,0.043-0.398-0.098-0.451-0.293c-0.012-0.038-0.012-0.053-0.012-0.096C11.105,2.65,11.143,2.556,11.211,2.482z M12.025,5.307
	c-0.07,0-0.127,0.057-0.127,0.127v2.207h-0.271V5.867c0-0.07-0.057-0.127-0.127-0.127s-0.127,0.057-0.127,0.127v1.773h-0.271V5.434
	c0-0.07-0.057-0.127-0.127-0.127s-0.127,0.057-0.127,0.127v2.334c0,0.07,0.057,0.127,0.127,0.127h1.051
	c0.07,0,0.127-0.057,0.127-0.127V5.434C12.152,5.363,12.096,5.307,12.025,5.307z M12.059,3.594h-1.117
	c-0.246,0-0.445,0.201-0.445,0.445v1.598c0,0.07,0.057,0.127,0.127,0.127s0.127-0.057,0.127-0.127V4.039
	c0-0.105,0.086-0.191,0.191-0.191h1.117c0.105,0,0.191,0.086,0.191,0.191v1.598c0,0.07,0.057,0.127,0.127,0.127
	s0.127-0.057,0.127-0.127V4.039C12.504,3.795,12.303,3.594,12.059,3.594z"/>
<path fill="#B4B4B5" d="M13.783,3.363c0.246,0.096,0.545,0.006,0.713-0.193c0.176-0.213,0.201-0.516,0.059-0.754
	c-0.141-0.239-0.422-0.348-0.689-0.299c-0.295,0.054-0.504,0.329-0.514,0.62c0,0.005,0,0.01,0,0.015
	C13.355,3.029,13.525,3.262,13.783,3.363z M13.711,2.482c0.068-0.075,0.166-0.118,0.26-0.125c0.104-0.007,0.205,0.026,0.277,0.087
	c0.08,0.066,0.133,0.161,0.145,0.249c0.014,0.117-0.012,0.205-0.08,0.301c-0.053,0.075-0.146,0.127-0.244,0.147
	c-0.197,0.043-0.398-0.098-0.451-0.293c-0.012-0.038-0.012-0.053-0.012-0.096C13.605,2.65,13.643,2.556,13.711,2.482z M14.525,5.307
	c-0.07,0-0.127,0.057-0.127,0.127v2.207h-0.271V5.867c0-0.07-0.057-0.127-0.127-0.127s-0.127,0.057-0.127,0.127v1.773h-0.271V5.434
	c0-0.07-0.057-0.127-0.127-0.127s-0.127,0.057-0.127,0.127v2.334c0,0.07,0.057,0.127,0.127,0.127h1.051
	c0.07,0,0.127-0.057,0.127-0.127V5.434C14.652,5.363,14.596,5.307,14.525,5.307z M14.559,3.594h-1.117
	c-0.246,0-0.445,0.201-0.445,0.445v1.598c0,0.07,0.057,0.127,0.127,0.127s0.127-0.057,0.127-0.127V4.039
	c0-0.105,0.086-0.191,0.191-0.191h1.117c0.105,0,0.191,0.086,0.191,0.191v1.598c0,0.07,0.057,0.127,0.127,0.127
	s0.127-0.057,0.127-0.127V4.039C15.004,3.795,14.803,3.594,14.559,3.594z"/>
<path fill="#B4B4B5" d="M16.283,3.363c0.246,0.096,0.545,0.006,0.713-0.193c0.176-0.213,0.201-0.516,0.059-0.754
	c-0.141-0.239-0.422-0.348-0.689-0.299c-0.295,0.054-0.504,0.329-0.514,0.62c0,0.005,0,0.01,0,0.015
	C15.855,3.029,16.025,3.262,16.283,3.363z M16.211,2.482c0.068-0.075,0.166-0.118,0.26-0.125c0.104-0.007,0.205,0.026,0.277,0.087
	c0.08,0.066,0.133,0.161,0.145,0.249c0.014,0.117-0.012,0.205-0.08,0.301c-0.053,0.075-0.146,0.127-0.244,0.147
	c-0.197,0.043-0.398-0.098-0.451-0.293c-0.012-0.038-0.012-0.053-0.012-0.096C16.105,2.65,16.143,2.556,16.211,2.482z M17.025,5.307
	c-0.07,0-0.127,0.057-0.127,0.127v2.207h-0.271V5.867c0-0.07-0.057-0.127-0.127-0.127s-0.127,0.057-0.127,0.127v1.773h-0.271V5.434
	c0-0.07-0.057-0.127-0.127-0.127s-0.127,0.057-0.127,0.127v2.334c0,0.07,0.057,0.127,0.127,0.127h1.051
	c0.07,0,0.127-0.057,0.127-0.127V5.434C17.152,5.363,17.096,5.307,17.025,5.307z M17.059,3.594h-1.117
	c-0.246,0-0.445,0.201-0.445,0.445v1.598c0,0.07,0.057,0.127,0.127,0.127s0.127-0.057,0.127-0.127V4.039
	c0-0.105,0.086-0.191,0.191-0.191h1.117c0.105,0,0.191,0.086,0.191,0.191v1.598c0,0.07,0.057,0.127,0.127,0.127
	s0.127-0.057,0.127-0.127V4.039C17.504,3.795,17.303,3.594,17.059,3.594z"/>
</svg>
