<?xml version="1.0" encoding="utf-8"?>
<!-- Generator: Adobe Illustrator 16.0.4, SVG Export Plug-In . SVG Version: 6.00 Build 0)  -->
<!DOCTYPE svg PUBLIC "-//W3C//DTD SVG 1.1//EN" "http://www.w3.org/Graphics/SVG/1.1/DTD/svg11.dtd">
<svg version="1.1" id="Layer_1" xmlns="http://www.w3.org/2000/svg" xmlns:xlink="http://www.w3.org/1999/xlink" x="0px" y="0px"
	 width="20px" height="10px" viewBox="0 0 20 10" enable-background="new 0 0 20 10" xml:space="preserve">
<path fill="#B4B4B5" d="M1.283,3.364C1.529,3.459,1.828,3.37,1.996,3.17c0.176-0.213,0.201-0.516,0.059-0.754
	C1.914,2.177,1.633,2.068,1.365,2.117C1.07,2.171,0.861,2.446,0.852,2.737c0,0.005,0,0.01,0,0.015
	C0.855,3.03,1.025,3.262,1.283,3.364z M1.211,2.482c0.068-0.075,0.166-0.118,0.26-0.125c0.104-0.007,0.205,0.026,0.277,0.087
	c0.08,0.066,0.133,0.161,0.145,0.249c0.014,0.117-0.012,0.205-0.08,0.301C1.76,3.069,1.666,3.122,1.568,3.141
	C1.371,3.184,1.17,3.043,1.117,2.848C1.105,2.81,1.105,2.795,1.105,2.752C1.105,2.65,1.143,2.557,1.211,2.482z M2.025,5.307
	c-0.07,0-0.127,0.057-0.127,0.127v2.207H1.627V5.868c0-0.07-0.057-0.127-0.127-0.127S1.373,5.797,1.373,5.868v1.773H1.102V5.434
	c0-0.07-0.057-0.127-0.127-0.127S0.848,5.364,0.848,5.434v2.333c0,0.07,0.057,0.127,0.127,0.127h1.051
	c0.07,0,0.127-0.057,0.127-0.127V5.434C2.152,5.364,2.096,5.307,2.025,5.307z M2.059,3.594H0.941c-0.246,0-0.445,0.201-0.445,0.445
	v1.598c0,0.07,0.057,0.127,0.127,0.127S0.75,5.708,0.75,5.637V4.04c0-0.105,0.086-0.191,0.191-0.191h1.117
	c0.105,0,0.191,0.086,0.191,0.191v1.598c0,0.07,0.057,0.127,0.127,0.127s0.127-0.057,0.127-0.127V4.04
	C2.504,3.795,2.303,3.594,2.059,3.594z"/>
</svg>
