<?xml version="1.0" encoding="utf-8"?>
<!-- Generator: Adobe Illustrator 16.0.4, SVG Export Plug-In . SVG Version: 6.00 Build 0)  -->
<!DOCTYPE svg PUBLIC "-//W3C//DTD SVG 1.1//EN" "http://www.w3.org/Graphics/SVG/1.1/DTD/svg11.dtd">
<svg version="1.1" id="Layer_1" xmlns="http://www.w3.org/2000/svg" xmlns:xlink="http://www.w3.org/1999/xlink" x="0px" y="0px"
	 width="60px" height="120px" viewBox="0 0 60 120" enable-background="new 0 0 60 120" xml:space="preserve">
<g>
	<path fill="none" stroke="#B4B4B5" stroke-miterlimit="10" d="M29.2,8.916c-0.137,0.103-0.184,0.149-0.17,0.268
		c0.004,0.043-0.008,0.086-0.033,0.118c-0.023,0.031-0.059,0.052-0.094,0.046c-0.178-0.017-0.351-0.117-0.505-0.207
		c-0.055-0.032-0.107-0.062-0.154-0.085l-0.066-0.033c-0.203-0.099-0.204-0.098-0.443,0.05l-0.037,0.022
		c-0.05,0.031-0.11,0.06-0.176,0.089c-0.157,0.074-0.338,0.158-0.359,0.308c-0.008,0.058,0.015,0.099,0.057,0.173
		c0.056,0.096,0.138,0.242,0.059,0.439c0.323,0.194,0.341,0.533,0.359,0.863c0.006,0.095,0.012,0.192,0.023,0.295
		c0.005,0.042-0.006,0.086-0.029,0.118c-0.023,0.03-0.055,0.047-0.09,0.047h-0.005c-0.076-0.004-0.162-0.011-0.252-0.019
		c-0.296-0.029-0.666-0.061-0.893,0.038c-0.146,0.065-0.265,0.187-0.387,0.315c-0.157,0.164-0.319,0.333-0.561,0.409l-0.152,0.047
		c-0.342,0.103-0.568,0.173-0.875,0.427c-0.062,0.052-0.123,0.104-0.182,0.157c-0.197,0.172-0.4,0.351-0.645,0.465
		c-0.743,0.344-1.501,0.322-2.024-0.063c-0.211-0.154-0.318-0.331-0.432-0.52c-0.044-0.074-0.091-0.152-0.147-0.233
		c-0.252-0.366-0.379-0.344-0.792-0.268c-0.071,0.014-0.164,0.015-0.266,0.013c-0.109-0.002-0.313-0.004-0.36,0.022
		c-0.007,0.005-0.014,0.011-0.02,0.016c0.054,0.044,0.126,0.109,0.169,0.217c0.113,0.274,0.136,0.477,0.076,0.637
		c-0.083,0.221-0.301,0.285-0.53,0.355c-0.051,0.016-0.105,0.032-0.156,0.051c0.156,0.13,0.311,0.131,0.49,0.131
		c0.003,0,0.006-0.001,0.01,0c0.178,0,0.379,0.002,0.601,0.135s0.369,0.571,0.417,0.945c0.027,0.219,0.047,0.619-0.138,0.836
		c-0.282,0.331-0.66,0.042-0.963-0.192c-0.146-0.113-0.296-0.227-0.398-0.244c-0.168-0.033-0.281,0.041-0.426,0.13
		c-0.09,0.058-0.184,0.116-0.3,0.152l-0.065,0.02c-0.213,0.069-0.278,0.08-0.392-0.109c-0.021-0.035-0.048-0.08-0.091-0.14
		c-0.042-0.06-0.077-0.111-0.108-0.158c-0.158-0.23-0.195-0.285-0.548-0.363c-0.059-0.013-0.121-0.022-0.184-0.033
		c-0.191-0.03-0.402-0.064-0.583-0.191c-0.236,0.722-0.797,0.652-1.253,0.596c-0.131-0.016-0.266-0.033-0.39-0.033l-0.162-0.002
		c-0.354-0.009-0.76-0.019-0.979,0.27c-0.127,0.167-0.129,0.287-0.008,0.517c0.066,0.124,0.134,0.243,0.203,0.361
		c0.119,0.21,0.245,0.427,0.352,0.664c0.172,0.382,0.421,0.444,0.947,0.243c0.318-0.123,0.417-0.099,0.667,0.175
		c0.276,0.303,0.555,0.219,0.949,0.058c0.032-0.013,0.069-0.009,0.101,0.014c0.03,0.022,0.05,0.06,0.056,0.103
		c0.021,0.184-0.02,0.344-0.055,0.486c-0.021,0.087-0.042,0.171-0.048,0.252c-0.007,0.095,0.033,0.167,0.102,0.282
		c0.046,0.08,0.098,0.168,0.134,0.281c0.01,0.039,0.021,0.081,0.03,0.122c0.005,0.021,0.012,0.047,0.019,0.072
		c0.001-0.002,0.002-0.004,0.003-0.007c0.068-0.105,0.054-0.165,0.012-0.305c-0.031-0.099-0.068-0.221-0.049-0.367
		c0.007-0.05,0.035-0.091,0.073-0.11c0.047-0.023,0.089-0.048,0.131-0.07c0.157-0.088,0.305-0.17,0.525-0.148
		c0.047,0.004,0.108,0.004,0.175,0.004c0.263,0.001,0.592,0.002,0.734,0.215c0.049,0.074,0.065,0.16,0.079,0.237
		c0.008,0.043,0.017,0.089,0.029,0.114c0.016,0.033,0.045,0.065,0.078,0.1c0.049,0.054,0.106,0.115,0.141,0.207
		c0.088,0.233,0.013,0.414-0.048,0.56c-0.026,0.064-0.052,0.125-0.064,0.189c-0.022,0.114-0.018,0.122,0.127,0.187
		c0.062,0.029,0.131,0.062,0.199,0.114c0.104,0.081,0.186,0.18,0.265,0.276c0.087,0.104,0.167,0.203,0.273,0.271
		c0.152,0.098,0.323,0.156,0.504,0.218c0.125,0.042,0.25,0.083,0.369,0.139c0.285,0.131,0.461,0.32,0.66,0.554
		c0.274,0.319,0.236,0.578,0.191,0.878c-0.009,0.061-0.018,0.125-0.025,0.195c-0.016,0.135-0.038,0.28-0.062,0.428
		c-0.049,0.299-0.099,0.609-0.084,0.869c0.002,0.057,0.012,0.109,0.02,0.16c0.015,0.096,0.032,0.207,0.018,0.344
		c-0.008,0.086-0.022,0.172-0.039,0.258c-0.019,0.113-0.038,0.219-0.041,0.325c-0.005,0.209-0.045,0.402-0.083,0.59
		c-0.036,0.177-0.071,0.343-0.078,0.52c-0.005,0.116-0.007,0.228-0.009,0.337c-0.005,0.315-0.011,0.616-0.084,0.952
		c-0.023,0.107-0.038,0.231-0.052,0.359c-0.026,0.223-0.053,0.452-0.127,0.631c-0.039,0.094-0.098,0.168-0.157,0.239
		c-0.036,0.043-0.072,0.087-0.098,0.134c-0.02,0.036-0.037,0.079-0.056,0.124c-0.04,0.102-0.089,0.221-0.173,0.302
		c0.001,0.009,0.005,0.015,0.008,0.021c0.087,0.146,0.521,0.182,0.664,0.193l0.087,0.009c0.281,0.032,0.336,0.128,0.413,0.37
		l0.012,0.039c0.045,0.142,0.045,0.142,0.174,0.176c0.253,0.068,0.49,0.183,0.717,0.293c0.234,0.113,0.455,0.221,0.697,0.285
		c0.119,0.031,0.241,0.074,0.364,0.118c0.259,0.091,0.528,0.183,0.771,0.167c0.113-0.008,0.229-0.058,0.353-0.109
		c0.103-0.044,0.21-0.088,0.318-0.111c0.175-0.035,0.351-0.024,0.517-0.015c0.19,0.012,0.37,0.024,0.537-0.026
		c0.19-0.057,0.344-0.063,0.524-0.074l0.169-0.009c0.224-0.017,0.27,0.024,0.348,0.272l0.011,0.037
		c0.12,0.376,0.265,0.667,0.364,0.742c0.057,0.044,0.097,0.03,0.196-0.015c0.052-0.025,0.114-0.054,0.186-0.065
		c0.162-0.031,0.326-0.015,0.484,0.004c0.067,0.007,0.136,0.014,0.2,0.017c0.23,0.011,0.466,0.007,0.701,0.003
		c0.11-0.001,0.226,0.006,0.33-0.003c0.196,0,0.386,0.031,0.569,0.062c0.168,0.028,0.329,0.055,0.492,0.059
		c-0.066-0.308-0.069-0.664-0.071-0.985c-0.001-0.078-0.001-0.156-0.001-0.229c-0.01-0.421,0.2-0.789,0.643-1.122
		c0.061-0.046,0.13-0.108,0.207-0.175c0.24-0.217,0.539-0.481,0.828-0.481c0.008,0,0.018,0,0.028,0.001
		c0.108,0.007,0.192,0.062,0.267,0.111c0.06,0.039,0.111,0.072,0.171,0.08c0.13,0.021,0.267-0.012,0.405-0.041
		c0.166-0.035,0.339-0.07,0.525-0.037c0.113,0.021,0.221,0.048,0.329,0.074c0.198,0.051,0.386,0.097,0.588,0.103
		c0.288,0.007,0.589-0.011,0.882,0.06c0.207,0.049,0.275,0.151,0.357,0.268c0.023,0.032,0.049,0.067,0.08,0.107
		c0.121,0.153,0.295,0.221,0.477,0.29c0.058,0.022,0.117,0.046,0.176,0.071l0.133,0.061c0.339,0.152,0.633,0.289,0.961,0.136
		c0.187-0.085,0.349-0.227,0.521-0.373l0.089-0.074c0.135-0.114,0.278-0.192,0.414-0.267c0.092-0.051,0.183-0.101,0.273-0.162
		c0.087-0.059,0.108-0.113,0.143-0.204c0.024-0.066,0.057-0.148,0.118-0.237c0.075-0.111,0.171-0.188,0.266-0.262
		c0.075-0.061,0.145-0.117,0.199-0.187c0.073-0.095,0.16-0.164,0.246-0.229c0.06-0.048,0.109-0.097,0.154-0.147
		c-0.003-0.018-0.014-0.032-0.012-0.052c0.005-0.068,0.051-0.113,0.103-0.123c0.007-0.058,0.004-0.125-0.004-0.213
		c-0.03,0.001-0.06,0.001-0.089,0.001c-0.208,0.001-0.426,0.003-0.625-0.144c-0.087-0.062-0.141-0.154-0.188-0.236
		c-0.029-0.053-0.057-0.1-0.084-0.122c-0.028-0.026-0.048-0.03-0.077-0.037c-0.098-0.022-0.166-0.073-0.213-0.255
		c-0.043-0.182-0.017-0.366,0.009-0.544c0.021-0.149,0.042-0.29,0.014-0.396c-0.032-0.121-0.095-0.147-0.26-0.188
		c-0.075-0.021-0.164-0.042-0.242-0.091c-0.178-0.109-0.479-0.52-0.416-0.831c0.008-0.038,0.025-0.071,0.055-0.092
		c0.085-0.06,0.184-0.114,0.284-0.169c0.222-0.123,0.453-0.25,0.55-0.459c0.062-0.132,0.046-0.214-0.017-0.35
		c-0.089-0.189-0.223-0.756-0.077-1.072c-0.044-0.051-0.09-0.115-0.137-0.197c-0.36,0.195-0.75,0.377-1.171,0.171
		c-0.176-0.087-0.289-0.286-0.392-0.463c-0.12-0.208-0.204-0.335-0.312-0.335c-0.004,0-0.011,0.002-0.014,0
		c-0.062,0-0.116-0.058-0.119-0.135c-0.042-0.79,0.231-0.898,0.551-1.025c0.112-0.045,0.243-0.097,0.385-0.188
		c0.447-0.292,0.63-0.627,0.653-1.196c0.001-0.042,0.019-0.081,0.045-0.106c0.029-0.028,0.063-0.038,0.099-0.028
		c0.23,0.062,0.355,0.079,0.402,0.054c0.045-0.023,0.054-0.047,0.081-0.121c0.032-0.084,0.075-0.201,0.205-0.295
		c0.151-0.113,0.362-0.107,0.555-0.105c0.119,0.001,0.235,0.004,0.318-0.022c0.153-0.048,0.233-0.119,0.345-0.215
		c0.02-0.016,0.046-0.036,0.064-0.053c-0.161-0.29-0.198-0.759-0.202-0.962l-0.002-0.079c-0.012-0.428-0.024-0.87,0.275-1.194
		c0.106-0.115,0.18-0.253,0.255-0.401c0.081-0.149,0.162-0.304,0.281-0.443c0.021-0.025,0.049-0.055,0.081-0.088
		c0.101-0.104,0.307-0.32,0.305-0.452c-0.001-0.011-0.001-0.04-0.045-0.079c-0.033-0.03-0.155-0.029-0.224-0.027
		c-0.055,0-0.107,0-0.147-0.006c-0.139-0.021-0.278-0.053-0.417-0.085c-0.093-0.021-0.185-0.042-0.279-0.06
		c-0.314-0.06-0.624-0.108-0.921-0.046c-0.063,0.013-0.127,0.042-0.191,0.07c-0.101,0.044-0.203,0.088-0.309,0.094
		c-0.249,0.015-0.346-0.19-0.411-0.354c-0.018-0.046-0.037-0.094-0.062-0.144c-0.03-0.059-0.07-0.11-0.106-0.161
		c-0.054-0.074-0.109-0.15-0.15-0.248c-0.029-0.066-0.048-0.125-0.065-0.18c-0.01-0.035-0.021-0.06-0.031-0.086
		c0.015,0.166,0.007,0.337-0.11,0.436c-0.045,0.036-0.096,0.053-0.153,0.053c-0.113,0-0.25-0.058-0.41-0.13
		c-0.05-0.023-0.093-0.044-0.121-0.052c-0.108-0.033-0.277-0.03-0.454-0.028c-0.34-0.001-0.697,0.007-0.875-0.213
		c-0.148-0.181-0.148-0.44-0.146-0.614c-0.027,0.026-0.061,0.063-0.104,0.112c-0.228,0.261-0.305,0.283-0.503,0.136
		c-0.026-0.018-0.054-0.039-0.088-0.062c-0.024-0.016-0.056-0.036-0.087-0.054c-0.12-0.073-0.255-0.156-0.338-0.265
		c-0.141-0.19-0.184-0.433-0.204-0.673c-0.001,0.004-0.001,0.008-0.006,0.012c-0.11,0.312-0.415,0.466-0.668,0.481
		c-0.243,0.012-0.451-0.04-0.69-0.125c-0.117-0.042-0.445-0.216-0.425-0.459c0.009-0.111,0.075-0.17,0.147-0.204
		c-0.09-0.19-0.189-0.374-0.337-0.459c-0.095-0.055-0.22-0.043-0.354-0.028c-0.168,0.017-0.34,0.034-0.489-0.076
		c-0.126-0.093-0.169-0.243-0.204-0.363c-0.023-0.084-0.045-0.156-0.086-0.201c-0.126-0.14-0.356-0.107-0.555-0.079
		c-0.061,0.009-0.117,0.018-0.172,0.022c-0.371,0.025-0.691-0.107-0.873-0.369c-0.113-0.162-0.227-0.455-0.136-0.924
		c0.01-0.049,0.025-0.087,0.039-0.129c-0.04,0.027-0.074,0.052-0.087,0.067C29.34,8.809,29.266,8.866,29.2,8.916z"/>
</g>
<g>
	<path fill="none" stroke="#B4B4B5" stroke-miterlimit="10" d="M29.199,68.916c-0.137,0.103-0.184,0.149-0.17,0.268
		c0.004,0.043-0.008,0.087-0.033,0.118c-0.023,0.031-0.059,0.053-0.094,0.046c-0.178-0.017-0.35-0.116-0.505-0.206
		c-0.055-0.032-0.106-0.062-0.153-0.086l-0.066-0.032c-0.204-0.099-0.205-0.098-0.444,0.05l-0.037,0.021
		c-0.05,0.031-0.11,0.061-0.176,0.09c-0.157,0.074-0.338,0.158-0.359,0.309c-0.008,0.057,0.015,0.099,0.057,0.172
		c0.056,0.096,0.138,0.242,0.059,0.439c0.323,0.194,0.341,0.533,0.359,0.863c0.006,0.095,0.012,0.192,0.023,0.295
		c0.005,0.043-0.006,0.086-0.029,0.118c-0.023,0.03-0.055,0.047-0.09,0.047h-0.005c-0.076-0.004-0.162-0.011-0.252-0.019
		c-0.296-0.029-0.666-0.061-0.893,0.038c-0.146,0.065-0.265,0.187-0.387,0.315c-0.157,0.163-0.319,0.332-0.561,0.408l-0.152,0.047
		c-0.342,0.104-0.568,0.174-0.875,0.428c-0.062,0.051-0.123,0.104-0.182,0.156c-0.197,0.173-0.4,0.352-0.645,0.465
		c-0.743,0.345-1.501,0.322-2.024-0.062c-0.211-0.154-0.318-0.33-0.432-0.52c-0.044-0.074-0.091-0.152-0.147-0.233
		c-0.252-0.366-0.379-0.344-0.792-0.269c-0.071,0.014-0.164,0.016-0.266,0.014c-0.109-0.003-0.313-0.004-0.36,0.021
		c-0.007,0.006-0.014,0.012-0.02,0.016c0.054,0.045,0.126,0.109,0.169,0.218c0.113,0.274,0.136,0.478,0.076,0.638
		c-0.083,0.221-0.301,0.285-0.53,0.355c-0.051,0.016-0.105,0.031-0.156,0.051c0.156,0.13,0.311,0.131,0.49,0.131
		c0.003,0,0.006-0.001,0.01,0c0.178,0,0.379,0.002,0.601,0.135c0.222,0.134,0.369,0.571,0.417,0.945
		c0.027,0.219,0.047,0.619-0.138,0.836c-0.282,0.331-0.66,0.043-0.963-0.191c-0.146-0.113-0.296-0.228-0.398-0.244
		c-0.168-0.033-0.281,0.041-0.426,0.129c-0.09,0.059-0.184,0.116-0.3,0.152l-0.065,0.021c-0.213,0.069-0.278,0.08-0.392-0.109
		c-0.021-0.034-0.048-0.08-0.091-0.14c-0.042-0.061-0.077-0.111-0.108-0.158c-0.158-0.23-0.195-0.285-0.548-0.363
		c-0.059-0.013-0.121-0.022-0.184-0.033c-0.191-0.029-0.402-0.064-0.583-0.191c-0.236,0.723-0.797,0.652-1.253,0.597
		c-0.131-0.016-0.266-0.033-0.39-0.033l-0.162-0.003c-0.354-0.008-0.76-0.018-0.979,0.27c-0.127,0.168-0.129,0.287-0.008,0.518
		c0.066,0.123,0.134,0.242,0.203,0.361c0.119,0.21,0.245,0.428,0.352,0.664c0.172,0.381,0.421,0.443,0.947,0.242
		c0.318-0.123,0.417-0.098,0.667,0.176c0.276,0.303,0.555,0.219,0.949,0.058c0.032-0.013,0.069-0.009,0.101,0.014
		c0.03,0.022,0.05,0.06,0.056,0.103c0.021,0.184-0.02,0.344-0.055,0.486c-0.021,0.088-0.042,0.171-0.048,0.252
		c-0.007,0.096,0.033,0.166,0.102,0.281c0.046,0.08,0.098,0.169,0.134,0.281c0.01,0.039,0.021,0.08,0.03,0.122
		c0.005,0.021,0.012,0.048,0.019,0.072c0.001-0.002,0.002-0.004,0.003-0.007c0.068-0.105,0.054-0.165,0.012-0.305
		c-0.031-0.1-0.068-0.221-0.049-0.367c0.007-0.049,0.035-0.09,0.073-0.109c0.047-0.023,0.089-0.049,0.131-0.07
		c0.157-0.088,0.305-0.17,0.525-0.148c0.047,0.004,0.108,0.004,0.175,0.004c0.263,0.001,0.592,0.002,0.734,0.215
		c0.049,0.074,0.065,0.16,0.079,0.237c0.008,0.044,0.017,0.089,0.029,0.114c0.016,0.033,0.045,0.065,0.078,0.1
		c0.049,0.055,0.106,0.115,0.141,0.207c0.088,0.234,0.013,0.414-0.048,0.561c-0.026,0.064-0.052,0.125-0.064,0.188
		c-0.022,0.114-0.018,0.122,0.127,0.187c0.062,0.029,0.131,0.062,0.199,0.115c0.104,0.08,0.186,0.18,0.265,0.275
		c0.087,0.105,0.167,0.203,0.273,0.271c0.152,0.098,0.323,0.156,0.504,0.219c0.125,0.041,0.25,0.082,0.369,0.139
		c0.285,0.131,0.461,0.319,0.66,0.554c0.274,0.318,0.236,0.578,0.191,0.877c-0.009,0.061-0.018,0.125-0.025,0.195
		c-0.016,0.135-0.038,0.281-0.062,0.428c-0.049,0.299-0.099,0.609-0.084,0.869c0.002,0.057,0.012,0.109,0.02,0.16
		c0.015,0.096,0.032,0.207,0.018,0.344c-0.008,0.086-0.022,0.172-0.039,0.258c-0.019,0.113-0.038,0.219-0.041,0.326
		c-0.005,0.209-0.045,0.402-0.083,0.59c-0.036,0.176-0.071,0.342-0.078,0.52c-0.005,0.115-0.007,0.227-0.009,0.336
		c-0.005,0.316-0.011,0.617-0.084,0.953c-0.023,0.107-0.038,0.23-0.052,0.359c-0.026,0.223-0.053,0.451-0.127,0.631
		c-0.039,0.094-0.098,0.168-0.157,0.238c-0.036,0.043-0.072,0.088-0.098,0.135c-0.02,0.035-0.037,0.078-0.056,0.123
		c-0.04,0.102-0.089,0.221-0.173,0.303c0.001,0.008,0.005,0.014,0.008,0.02c0.087,0.146,0.521,0.182,0.664,0.193l0.087,0.01
		c0.281,0.031,0.336,0.127,0.413,0.369l0.012,0.039c0.045,0.143,0.045,0.143,0.174,0.176c0.253,0.068,0.49,0.184,0.717,0.293
		c0.234,0.113,0.455,0.221,0.697,0.285c0.119,0.031,0.241,0.074,0.364,0.119c0.259,0.09,0.528,0.182,0.771,0.166
		c0.113-0.008,0.229-0.057,0.353-0.109c0.103-0.043,0.21-0.088,0.318-0.111c0.175-0.035,0.351-0.023,0.517-0.014
		c0.19,0.012,0.37,0.023,0.537-0.027c0.19-0.057,0.344-0.062,0.524-0.074l0.169-0.008c0.224-0.018,0.27,0.023,0.348,0.271
		l0.011,0.037c0.12,0.377,0.265,0.668,0.364,0.742c0.057,0.045,0.097,0.031,0.196-0.014c0.052-0.025,0.114-0.055,0.186-0.066
		c0.162-0.031,0.326-0.014,0.484,0.004c0.067,0.008,0.136,0.014,0.2,0.018c0.23,0.01,0.465,0.006,0.701,0.002
		c0.109,0,0.225,0.006,0.33-0.002c0.195,0,0.385,0.031,0.568,0.062c0.168,0.027,0.33,0.055,0.492,0.059
		c-0.066-0.309-0.068-0.664-0.07-0.986c-0.002-0.078-0.002-0.156-0.002-0.229c-0.01-0.42,0.201-0.789,0.643-1.121
		c0.061-0.047,0.131-0.109,0.207-0.176c0.24-0.217,0.539-0.48,0.828-0.48c0.008,0,0.018,0,0.029,0
		c0.107,0.008,0.191,0.062,0.266,0.111c0.061,0.039,0.111,0.072,0.172,0.08c0.129,0.021,0.266-0.012,0.404-0.041
		c0.166-0.035,0.34-0.07,0.525-0.037c0.113,0.021,0.221,0.049,0.33,0.074c0.197,0.051,0.385,0.098,0.588,0.104
		c0.287,0.006,0.588-0.012,0.881,0.059c0.207,0.049,0.275,0.152,0.357,0.268c0.023,0.033,0.049,0.068,0.08,0.107
		c0.121,0.154,0.295,0.221,0.477,0.291c0.059,0.021,0.117,0.045,0.176,0.07l0.133,0.061c0.34,0.152,0.633,0.289,0.961,0.137
		c0.188-0.086,0.35-0.227,0.521-0.373l0.088-0.074c0.135-0.115,0.279-0.193,0.414-0.268c0.092-0.051,0.184-0.1,0.273-0.162
		c0.088-0.059,0.109-0.113,0.143-0.203c0.025-0.066,0.057-0.148,0.119-0.238c0.074-0.111,0.17-0.188,0.266-0.262
		c0.074-0.061,0.145-0.117,0.199-0.186c0.072-0.096,0.16-0.164,0.246-0.23c0.059-0.047,0.109-0.096,0.154-0.146
		c-0.004-0.018-0.014-0.033-0.012-0.053c0.004-0.068,0.051-0.113,0.102-0.123c0.008-0.057,0.004-0.125-0.004-0.213
		c-0.029,0.002-0.059,0.002-0.088,0.002c-0.209,0-0.426,0.002-0.625-0.145c-0.088-0.062-0.141-0.154-0.188-0.236
		c-0.029-0.053-0.057-0.1-0.084-0.121c-0.029-0.027-0.049-0.031-0.078-0.037c-0.098-0.023-0.166-0.074-0.213-0.256
		c-0.043-0.182-0.016-0.365,0.01-0.543c0.02-0.15,0.041-0.291,0.014-0.396c-0.033-0.121-0.096-0.146-0.26-0.188
		c-0.076-0.021-0.164-0.043-0.242-0.092c-0.178-0.109-0.479-0.52-0.416-0.83c0.008-0.039,0.025-0.072,0.055-0.092
		c0.084-0.061,0.184-0.115,0.283-0.17c0.223-0.123,0.453-0.25,0.551-0.459c0.062-0.131,0.045-0.213-0.018-0.35
		c-0.088-0.189-0.223-0.756-0.076-1.072c-0.045-0.051-0.09-0.115-0.137-0.197c-0.361,0.195-0.75,0.377-1.172,0.172
		c-0.176-0.088-0.289-0.287-0.391-0.463c-0.121-0.209-0.205-0.336-0.312-0.336c-0.004,0-0.01,0.002-0.014,0
		c-0.062,0-0.115-0.057-0.119-0.135c-0.041-0.789,0.232-0.897,0.551-1.024c0.113-0.045,0.244-0.098,0.385-0.188
		c0.447-0.293,0.631-0.627,0.654-1.197c0-0.041,0.018-0.08,0.045-0.105c0.029-0.028,0.062-0.039,0.098-0.028
		c0.23,0.062,0.355,0.079,0.402,0.054c0.045-0.023,0.055-0.047,0.082-0.121c0.031-0.084,0.074-0.201,0.205-0.295
		c0.15-0.112,0.361-0.106,0.555-0.105c0.119,0.002,0.234,0.005,0.318-0.021c0.152-0.049,0.232-0.119,0.344-0.215
		c0.02-0.016,0.047-0.037,0.064-0.054c-0.16-0.29-0.197-0.759-0.201-0.962l-0.002-0.078c-0.012-0.428-0.025-0.87,0.275-1.195
		c0.105-0.114,0.18-0.252,0.254-0.4c0.082-0.15,0.162-0.305,0.281-0.443c0.021-0.025,0.049-0.055,0.082-0.088
		c0.1-0.104,0.307-0.32,0.305-0.452c-0.002-0.011-0.002-0.04-0.045-0.079c-0.033-0.029-0.156-0.029-0.225-0.027
		c-0.055,0.001-0.107,0.001-0.146-0.006c-0.139-0.021-0.279-0.053-0.418-0.085c-0.092-0.021-0.184-0.042-0.279-0.06
		c-0.314-0.061-0.623-0.109-0.92-0.047c-0.064,0.013-0.127,0.041-0.191,0.07c-0.102,0.044-0.203,0.088-0.309,0.094
		c-0.25,0.015-0.346-0.189-0.412-0.354c-0.018-0.047-0.037-0.095-0.061-0.145c-0.031-0.059-0.07-0.109-0.107-0.16
		c-0.053-0.074-0.109-0.15-0.15-0.248c-0.029-0.066-0.047-0.125-0.064-0.18c-0.01-0.035-0.021-0.061-0.031-0.086
		c0.014,0.165,0.006,0.336-0.111,0.436c-0.045,0.035-0.096,0.053-0.152,0.053c-0.113,0-0.25-0.059-0.41-0.131
		c-0.051-0.023-0.094-0.043-0.121-0.052c-0.109-0.032-0.277-0.03-0.455-0.028c-0.34-0.002-0.697,0.008-0.875-0.213
		c-0.148-0.182-0.148-0.44-0.146-0.615c-0.027,0.027-0.061,0.064-0.104,0.113c-0.227,0.261-0.305,0.282-0.502,0.135
		c-0.027-0.018-0.055-0.038-0.088-0.062c-0.025-0.017-0.057-0.036-0.088-0.054c-0.119-0.074-0.254-0.156-0.338-0.266
		c-0.141-0.189-0.184-0.433-0.203-0.673c-0.002,0.005-0.002,0.009-0.006,0.013c-0.111,0.311-0.416,0.465-0.668,0.48
		c-0.244,0.012-0.451-0.039-0.691-0.125c-0.117-0.041-0.445-0.216-0.424-0.459c0.008-0.111,0.074-0.17,0.146-0.203
		c-0.09-0.19-0.189-0.374-0.336-0.459c-0.096-0.056-0.221-0.044-0.355-0.029c-0.168,0.018-0.34,0.035-0.488-0.076
		c-0.127-0.092-0.17-0.242-0.205-0.363c-0.023-0.084-0.045-0.155-0.086-0.2c-0.125-0.14-0.355-0.107-0.555-0.079
		c-0.061,0.01-0.117,0.018-0.172,0.022c-0.371,0.025-0.691-0.106-0.873-0.368c-0.113-0.162-0.227-0.455-0.135-0.925
		c0.01-0.049,0.025-0.087,0.039-0.129c-0.041,0.027-0.074,0.052-0.088,0.067C29.34,68.81,29.266,68.866,29.199,68.916z"/>
</g>
<g>
	<g>
		<path fill="#B4B4B5" d="M21.968,74.97c0.049,0.985,0.165,1.903,0.018,2.897c-0.064,0.43,0.481,0.925,0.835,0.486
			c1.192-1.476,2.411-2.896,3.857-4.132c-0.262-0.202-0.523-0.404-0.785-0.605c-0.853,1.87-1.903,3.638-2.755,5.509
			c-0.224,0.492,0.364,1.038,0.785,0.605c1.91-1.959,3.632-4.078,5.785-5.785c-0.278-0.162-0.557-0.324-0.835-0.486
			c-0.758,3.588-3.073,6.542-4.633,9.799c-0.282,0.588,0.485,1.022,0.863,0.504c2.343-3.203,4.807-6.336,8.085-8.636
			c-0.228-0.228-0.456-0.456-0.684-0.684c-2.208,4.057-4.845,7.853-7.163,11.846c-0.298,0.513,0.366,0.963,0.785,0.605
			c3.318-2.83,6.216-6.106,9.642-8.815c-0.262-0.202-0.523-0.404-0.785-0.605c-1.213,2.223-2.919,4.112-4.132,6.336
			c-0.161,0.295,0.033,0.805,0.432,0.752c0.721-0.096,1.284-0.234,1.905-0.619c-0.251-0.144-0.501-0.288-0.752-0.432
			c-0.088,0.506-0.174,1.013-0.257,1.52c-0.076,0.453,0.318,0.749,0.734,0.564c0.639-0.283,1.289-0.543,1.928-0.826
			c-0.251-0.144-0.501-0.288-0.752-0.432c-0.055,0.42-0.157,0.834-0.257,1.245c-0.153,0.626,0.812,0.892,0.964,0.266
			c0.123-0.502,0.227-0.999,0.293-1.511c0.055-0.42-0.454-0.563-0.752-0.432c-0.639,0.283-1.289,0.543-1.928,0.826
			c0.245,0.188,0.49,0.376,0.734,0.564c0.1-0.601,0.223-1.18,0.293-1.785c0.045-0.383-0.456-0.615-0.752-0.432
			c-0.467,0.161-0.934,0.321-1.4,0.482c0.144,0.251,0.288,0.502,0.432,0.752c1.213-2.223,2.919-4.112,4.132-6.336
			c0.289-0.528-0.355-0.945-0.785-0.605c-3.426,2.709-6.324,5.985-9.642,8.815c0.262,0.202,0.523,0.404,0.785,0.605
			c2.318-3.992,4.955-7.788,7.163-11.846c0.224-0.411-0.251-0.987-0.684-0.684c-3.422,2.4-5.997,5.648-8.443,8.995
			c0.288,0.168,0.576,0.336,0.863,0.504c1.599-3.337,3.956-6.358,4.733-10.037c0.11-0.518-0.448-0.794-0.835-0.486
			c-2.153,1.707-3.875,3.826-5.785,5.785c0.262,0.202,0.523,0.404,0.785,0.605c0.852-1.87,1.902-3.638,2.755-5.509
			c0.236-0.519-0.341-0.985-0.785-0.605c-1.446,1.234-2.665,2.656-3.857,4.132c0.278,0.162,0.557,0.324,0.835,0.486
			c0.161-1.081,0.072-2.072,0.018-3.163C22.937,74.328,21.937,74.325,21.968,74.97L21.968,74.97z"/>
	</g>
</g>
</svg>
