<?xml version="1.0" encoding="utf-8"?>
<!-- Generator: Adobe Illustrator 16.0.4, SVG Export Plug-In . SVG Version: 6.00 Build 0)  -->
<!DOCTYPE svg PUBLIC "-//W3C//DTD SVG 1.1//EN" "http://www.w3.org/Graphics/SVG/1.1/DTD/svg11.dtd">
<svg version="1.1" id="Layer_1" xmlns="http://www.w3.org/2000/svg" xmlns:xlink="http://www.w3.org/1999/xlink" x="0px" y="0px"
	 width="60px" height="120px" viewBox="0 0 60 120" enable-background="new 0 0 60 120" xml:space="preserve">
<path fill="none" stroke="#B4B4B5" stroke-miterlimit="10" d="M46.631,29.725c-0.459-0.426-0.909-0.829-1.36-1.36
	c-0.312-0.36-0.622-0.611-0.917-0.84c-0.697-0.541-1.426-1.101-1.541-2.812c-0.016-0.164,0.025-0.334,0.115-0.452
	c0.098-0.126,0.221-0.201,0.36-0.208l0.458-0.01c0.976-0.015,1.368-0.051,1.778-0.882c0.165-0.343,0.361-0.65,0.542-0.931
	c0.523-0.804,0.679-1.047,0.146-1.766c-0.303-0.438-0.581-0.459-1.131-0.466c-0.393,0-0.827-0.006-1.304-0.252
	c-0.867-0.441-1.548-1.595-2.048-3.419c-0.376-1.416-0.935-1.812-2.212-2.438c-0.173-0.082-1.651-0.652-2.282-0.957
	c-0.185-0.086-0.305-0.285-0.315-0.515c-0.181-2.781-0.254-3.046-2.369-3.337c-2.13-0.282-3.318,0.383-5.22,1.598
	c-0.254,0.166-0.499,0.362-0.733,0.549c-0.983,0.767-2.086,1.644-3.671,0.339c-0.098-0.084-0.177-0.156-2.445-3.422
	c-0.452,0.399-0.804,0.922-1.14,1.508c-0.532,0.928-1.127,1.981-2.32,2.315c-0.646,0.182-1.412,0.182-2.154,0.172
	c-1.971,0.002-3.204,0.091-3.545,1.842c-0.232,1.188-0.109,2.135,0.374,2.823c0.54,0.797,1.585,1.221,2.827,1.108
	c0.205-0.017,0.426-0.048,0.66-0.081c0.998-0.141,2.241-0.322,3.117,0.628c0.373,0.4,0.509,0.903,0.64,1.351
	c0.123,0.446,0.213,0.727,0.429,0.881c0.346,0.253,0.873,0.199,1.439,0.146c0.639-0.066,1.36-0.139,2.016,0.236
	c0.976,0.563,1.513,1.702,1.982,2.706l0.206,0.428c0.085,0.18,0.099,0.396,0.017,0.584c-0.078,0.182-0.23,0.31-0.402,0.326
	c-0.106,0.015,0.286,0.473,0.623,0.593c0.909,0.32,1.713,0.557,2.569,0.477c0.741-0.043,1.65-0.505,1.938-1.291
	c0.057-0.158,0.02-0.541,0-0.845c-0.041-0.613-0.082-1.311,0.281-1.781c0.226-0.284,0.496-0.414,0.954-0.402
	c0.231,0.015,0.415,0.205,0.469,0.473c0.118,0.587,0.139,1.238,0.172,1.865c0.041,1.166,0.09,2.379,0.655,3.132
	c0.212,0.292,0.722,0.595,1.118,0.845c0.152,0.09,0.291,0.172,0.414,0.254c0.147,0.099,0.274,0.196,0.385,0.283
	c0.124,0.082,0.267,0.191,0.312,0.208c0.099-0.041,0.475-0.483,0.605-0.622c0.774-0.902,1.238-1.29,1.688-1.043
	c0.441,0.23,0.434,0.838,0.426,1.428c0,0.599-0.009,1.336,0.32,1.745c0.459,0.566,1.844,0.537,2.95,0.537
	c0.827-0.003,1.582-0.02,2.163,0.152c0.139,0.044,0.368,0.147,0.622,0.254c0.337,0.16,1.229,0.548,1.45,0.463
	c0.106-0.095,0-0.954-0.032-1.234C46.663,30.272,46.631,29.97,46.631,29.725z"/>
<path fill="none" stroke="#B4B4B5" stroke-miterlimit="10" d="M46.631,89.725c-0.459-0.426-0.909-0.829-1.36-1.36
	c-0.312-0.36-0.622-0.611-0.917-0.84c-0.697-0.541-1.426-1.101-1.541-2.812c-0.016-0.164,0.025-0.334,0.115-0.452
	c0.098-0.126,0.221-0.201,0.36-0.208l0.458-0.01c0.976-0.015,1.368-0.051,1.778-0.882c0.165-0.343,0.361-0.65,0.542-0.931
	c0.523-0.804,0.679-1.047,0.146-1.766c-0.303-0.438-0.581-0.459-1.131-0.466c-0.393,0-0.827-0.006-1.304-0.252
	c-0.867-0.441-1.548-1.595-2.048-3.419c-0.376-1.416-0.935-1.812-2.212-2.438c-0.173-0.082-1.651-0.652-2.282-0.957
	c-0.185-0.086-0.305-0.285-0.315-0.515c-0.181-2.781-0.254-3.046-2.369-3.337c-2.13-0.282-3.318,0.383-5.22,1.598
	c-0.254,0.166-0.499,0.362-0.733,0.549c-0.983,0.767-2.086,1.644-3.671,0.339c-0.098-0.084-0.177-0.156-2.445-3.422
	c-0.452,0.399-0.804,0.922-1.14,1.508c-0.532,0.928-1.127,1.981-2.32,2.315c-0.646,0.182-1.412,0.182-2.154,0.172
	c-1.971,0.002-3.204,0.091-3.545,1.842c-0.232,1.188-0.109,2.135,0.374,2.823c0.54,0.797,1.585,1.221,2.827,1.108
	c0.205-0.017,0.426-0.048,0.66-0.081c0.998-0.141,2.241-0.322,3.117,0.628c0.373,0.4,0.509,0.903,0.64,1.351
	c0.123,0.446,0.213,0.727,0.429,0.881c0.346,0.253,0.873,0.199,1.439,0.146c0.639-0.066,1.36-0.139,2.016,0.236
	c0.976,0.563,1.513,1.702,1.982,2.706l0.206,0.428c0.085,0.18,0.099,0.396,0.017,0.584c-0.078,0.182-0.23,0.31-0.402,0.326
	c-0.106,0.015,0.286,0.473,0.623,0.593c0.909,0.32,1.713,0.557,2.569,0.477c0.741-0.043,1.65-0.505,1.938-1.291
	c0.057-0.158,0.02-0.541,0-0.845c-0.041-0.613-0.082-1.311,0.281-1.781c0.226-0.284,0.496-0.414,0.954-0.402
	c0.231,0.015,0.415,0.205,0.469,0.473c0.118,0.587,0.139,1.238,0.172,1.865c0.041,1.166,0.09,2.379,0.655,3.132
	c0.212,0.292,0.722,0.595,1.118,0.845c0.152,0.09,0.291,0.172,0.414,0.254c0.147,0.099,0.274,0.196,0.385,0.283
	c0.124,0.082,0.267,0.191,0.312,0.208c0.099-0.041,0.475-0.483,0.605-0.622c0.774-0.902,1.238-1.29,1.688-1.043
	c0.441,0.23,0.434,0.838,0.426,1.428c0,0.599-0.009,1.336,0.32,1.745c0.459,0.566,1.844,0.537,2.95,0.537
	c0.827-0.003,1.582-0.02,2.163,0.152c0.139,0.044,0.368,0.147,0.622,0.254c0.337,0.16,1.229,0.548,1.45,0.463
	c0.106-0.095,0-0.954-0.032-1.234C46.663,90.272,46.631,89.97,46.631,89.725z"/>
<g>
	<g>
		<path fill="#B4B4B5" d="M18.466,74.815c1.009-0.148,2.047-0.296,3-0.666c-0.205-0.205-0.41-0.41-0.615-0.615
			c-0.24,0.932-0.343,1.838-0.351,2.799c-0.004,0.41,0.42,0.582,0.752,0.432c0.772-0.349,1.562-0.65,2.333-1
			c-0.244-0.1-0.489-0.199-0.734-0.299c0.144,0.979,0.541,1.875,0.649,2.867c0.039,0.359,0.399,0.646,0.752,0.432
			c2.228-1.347,4.121-3.068,6.102-4.744c-0.278-0.162-0.557-0.324-0.836-0.486c-0.581,2.711-2.554,4.886-3.949,7.214
			c-0.313,0.523,0.364,0.937,0.785,0.605c2.978-2.341,5.807-4.84,8.333-7.667c-0.262-0.202-0.523-0.404-0.785-0.605
			c-1.065,2.287-2.584,4.26-4,6.334c-0.238,0.349,0.158,0.889,0.564,0.734c1.904-0.725,3.501-1.831,5.119-3.051
			c-0.25-0.144-0.501-0.288-0.752-0.432c0,0.777,0,1.556,0,2.333c0,0.328,0.319,0.565,0.633,0.482
			c1.377-0.363,2.632-0.495,3.786-1.384c-0.244-0.188-0.489-0.376-0.734-0.564c-0.968,2.466-2.21,4.712-3.871,6.779
			c-0.397,0.494,0.289,1.205,0.707,0.707c1.168-1.392,2.635-2.409,4.231-3.256c-0.244-0.1-0.489-0.199-0.734-0.299
			c0.093,0.626,0.087,1.248-0.018,1.867c-0.03,0.274,0.251,0.496,0.5,0.5c0.466,0.007,1.243,0.357,0.902,0.915
			c-0.338,0.551,0.527,1.053,0.863,0.504c1.067-1.742-0.03-2.394-1.766-2.419c0.167,0.167,0.333,0.333,0.5,0.5
			c0.091-0.812,0.157-1.346-0.018-2.133c-0.073-0.327-0.462-0.443-0.734-0.299c-1.668,0.885-3.215,1.958-4.435,3.412
			c0.235,0.235,0.472,0.472,0.707,0.707c1.77-2.203,3.098-4.593,4.129-7.221c0.153-0.391-0.395-0.826-0.734-0.564
			c-1.069,0.823-2.286,0.95-3.548,1.282c0.211,0.161,0.422,0.321,0.633,0.482c0-0.777,0-1.556,0-2.333
			c0-0.346-0.438-0.668-0.752-0.432c-1.546,1.165-3.056,2.255-4.881,2.949c0.188,0.245,0.376,0.49,0.564,0.734
			c1.416-2.073,2.936-4.046,4-6.334c0.226-0.483-0.382-1.057-0.785-0.605c-2.526,2.827-5.356,5.326-8.333,7.667
			c0.262,0.202,0.523,0.404,0.785,0.605c1.446-2.411,3.447-4.642,4.051-7.452c0.108-0.506-0.453-0.811-0.836-0.486
			c-1.912,1.618-3.746,3.285-5.898,4.588c0.25,0.144,0.501,0.288,0.752,0.432c-0.118-1.078-0.528-2.066-0.685-3.133
			c-0.052-0.349-0.475-0.417-0.734-0.299c-0.771,0.35-1.562,0.651-2.333,1c0.25,0.144,0.501,0.288,0.752,0.432
			c0.008-0.863,0.099-1.696,0.315-2.533c0.087-0.338-0.245-0.759-0.615-0.615c-0.954,0.37-1.992,0.518-3,0.666
			C17.564,73.944,17.835,74.908,18.466,74.815L18.466,74.815z"/>
	</g>
</g>
</svg>
