<?xml version="1.0" encoding="utf-8"?>
<!-- Generator: Adobe Illustrator 16.0.4, SVG Export Plug-In . SVG Version: 6.00 Build 0)  -->
<!DOCTYPE svg PUBLIC "-//W3C//DTD SVG 1.1//EN" "http://www.w3.org/Graphics/SVG/1.1/DTD/svg11.dtd">
<svg version="1.1" id="Layer_1" xmlns="http://www.w3.org/2000/svg" xmlns:xlink="http://www.w3.org/1999/xlink" x="0px" y="0px"
	 width="60px" height="120px" viewBox="0 0 60 120" enable-background="new 0 0 60 120" xml:space="preserve">
<path fill="none" stroke="#B4B4B5" stroke-miterlimit="10" d="M22.601,18.03l0.111-0.066c0.281-0.162,0.57-0.198,0.85-0.234
	c0.109-0.013,0.219-0.026,0.33-0.048c0.059-0.013,0.125,0.04,0.135,0.118c0.041,0.289-0.062,0.58-0.156,0.836
	c-0.072,0.203-0.148,0.412-0.102,0.514c0.031,0.066,0.129,0.119,0.287,0.148c0.115,0.021,0.232,0.051,0.348,0.079
	c0.193,0.048,0.395,0.095,0.584,0.108c0.174,0.017,0.34-0.02,0.518-0.057c0.131-0.025,0.268-0.054,0.408-0.062
	c0.35-0.018,0.523-0.027,0.799-0.248c0.051-0.042,0.115-0.118,0.184-0.199c0.139-0.165,0.285-0.334,0.439-0.369
	c0.271-0.065,0.363,0.096,0.393,0.185c0.08,0.231-0.064,0.585-0.199,0.751c-0.055,0.069-0.109,0.103-0.148,0.127
	c-0.051,0.029-0.051,0.029-0.049,0.123c0.002,0.07,0.02,0.094,0.064,0.152c0.031,0.041,0.072,0.09,0.104,0.16
	c0.059,0.131,0.098,0.289,0.139,0.455c0.055,0.232,0.115,0.477,0.225,0.595c0.066,0.073,0.184,0.11,0.342,0.11
	c0.176,0,0.367-0.045,0.52-0.079l0.029-0.007c0.037-0.012,0.084,0.009,0.111,0.048c0.029,0.04,0.037,0.093,0.023,0.142
	c-0.059,0.203-0.154,0.387-0.246,0.564c-0.059,0.115-0.117,0.227-0.164,0.342c-0.031,0.078-0.059,0.162-0.088,0.25
	c-0.09,0.273-0.193,0.584-0.418,0.723c-0.213,0.129-0.484,0.01-0.725-0.121c-0.139-0.076-0.283-0.154-0.408-0.164L26.8,22.903
	c-0.277,0-0.51,0.252-0.732,0.496c-0.047,0.051-0.139,0.07-0.182,0.016c-0.051-0.061-0.109-0.15-0.172-0.246
	c-0.088-0.135-0.197-0.303-0.268-0.354c-0.016-0.01-0.055-0.031-0.137-0.031c-0.184,0-0.367,0.102-0.402,0.191
	c-0.006,0.012-0.018,0.041,0.023,0.104c0.025,0.039,0.104,0.066,0.172,0.09c0.145,0.051,0.412,0.145,0.355,0.52
	c-0.01,0.066-0.055,0.113-0.109,0.119c-0.168,0.014-0.6,0.363-0.609,0.49c0.012,0.016,0.072,0.086,0.318,0.086
	c0.164,0,0.354-0.031,0.521-0.057c0.168-0.027,0.312-0.047,0.398-0.039c0.053,0.006,0.096,0.055,0.107,0.117
	c0.059,0.371,0.016,0.938-0.035,1.441c-0.008,0.07-0.055,0.123-0.111,0.127c-0.262,0.018-0.518-0.023-0.746,0.09
	c-0.074,0.041-0.146,0.096-0.223,0.156c-0.078,0.062-0.162,0.127-0.254,0.176c-0.32,0.166-0.68,0.189-1.006,0.199
	c-0.014,0.195-0.061,0.371-0.107,0.543c0.119,0.041,0.234,0.109,0.346,0.176c0.102,0.061,0.199,0.117,0.293,0.152
	c0.176,0.062,0.275,0.016,0.428-0.076c0.08-0.047,0.168-0.1,0.285-0.141c0.027-0.01,0.064-0.025,0.109-0.043
	c0.205-0.084,0.494-0.193,0.641-0.139c0.139,0.055,0.23,0.225,0.311,0.375c0.021,0.041,0.043,0.084,0.064,0.119
	c0.26-0.193,0.434-0.059,0.572,0.092c0.062,0.068,0.131,0.141,0.225,0.191c0.139,0.074,0.361,0.107,0.559,0.135
	c0.109,0.016,0.211,0.031,0.297,0.053c0.371,0.084,0.66-0.102,0.988-0.336c0.055-0.037,0.109-0.078,0.166-0.117
	c0.061-0.041,0.121-0.072,0.182-0.105c0.041-0.051,0.127-0.131,0.215-0.213c0.051-0.049,0.105-0.1,0.154-0.15l0.008-0.012
	c0.057-0.121,0.121-0.256,0.25-0.34c0.035-0.023,0.08-0.023,0.113,0c0.037,0.023,0.059,0.068,0.062,0.119
	c0.006,0.135-0.088,0.262-0.248,0.424c-0.033,0.07-0.076,0.146-0.139,0.211c-0.094,0.1-0.197,0.158-0.291,0.209
	c-0.02,0.021-0.035,0.041-0.047,0.061c-0.092,0.137-0.205,0.266-0.316,0.393c-0.145,0.164-0.293,0.336-0.377,0.508
	c-0.018,0.035-0.045,0.061-0.078,0.068c-0.264,0.068-0.619,0.047-0.947,0.012c-0.17-0.02-0.33-0.037-0.488-0.037
	c-0.102,0-0.229-0.012-0.369-0.027c-0.158-0.016-0.34-0.033-0.504-0.033c-0.201,0-0.35,0.027-0.439,0.086
	c-0.078,0.049-0.148,0.168-0.219,0.285c-0.049,0.084-0.096,0.164-0.146,0.227c-0.182,0.223-0.396,0.451-0.623,0.658
	c-0.072,0.066-0.145,0.129-0.221,0.193c-0.16,0.135-0.324,0.275-0.453,0.436c-0.004,0.082-0.008,0.201-0.131,0.285
	c-0.082,0.057-0.211,0.045-0.34,0.016c-0.037-0.008-0.076-0.016-0.105-0.016c-0.336,0-0.859,0.35-1.051,0.744
	c0.094,0.006,0.188,0.023,0.279,0.039c0.186,0.033,0.359,0.062,0.535,0.031c0.16-0.027,0.307-0.086,0.463-0.15
	c0.193-0.076,0.393-0.158,0.621-0.174c0.215-0.018,0.277-0.129,0.371-0.295c0.076-0.137,0.168-0.303,0.359-0.414
	c0.256-0.148,0.621-0.004,0.906,0.137c0.07,0.035,0.137,0.068,0.195,0.092c0.113,0.045,0.203,0.111,0.291,0.174
	c0.072,0.053,0.141,0.104,0.213,0.135c0.154,0.066,0.582,0.051,0.83-0.02c0-0.061-0.002-0.125-0.002-0.189
	c-0.006-0.455-0.014-1.139,0.645-1.188c0.416-0.025,0.91,0.135,1.479,0.484c0.221,0.135,0.523,0.059,0.811-0.033
	c0.297-0.098,0.561-0.117,0.869-0.117l0.205,0.004c0.432,0,0.877-0.07,1.307-0.139c0.219-0.035,0.434-0.07,0.65-0.096
	c0.221-0.027,0.439-0.039,0.658-0.053c0.107-0.006,0.213-0.012,0.322-0.02c0.074-0.006,0.154-0.002,0.236,0
	c0.051,0.004,0.102,0.006,0.152,0.006c0.186,0,0.295-0.037,0.369-0.121c0.01-0.012,0.021-0.021,0.035-0.027
	c0.254-0.139,0.625-0.307,0.889-0.369c0.164-0.037,0.33-0.012,0.488,0.012c0.139,0.023,0.277,0.047,0.414,0.018
	c0.473-0.104,1.066-0.617,1.387-1.064c-0.088-0.141-0.217-0.197-0.436-0.197c-0.078,0-0.162,0.006-0.246,0.012
	c-0.123,0.01-0.248,0.018-0.373,0.014c-0.057-0.006-0.104-0.059-0.109-0.129c-0.043-0.49,0.184-0.707,0.367-0.881
	c0.049-0.049,0.105-0.133,0.16-0.211c0.074-0.107,0.148-0.219,0.232-0.287c0.072-0.184,0.186-0.309,0.293-0.428
	c0.062-0.072,0.123-0.139,0.174-0.217c0.145-0.225,0.152-0.445,0.166-0.75l0.006-0.186c0.018-0.361,0.018-0.541-0.195-0.658
	c-0.137-0.078-0.297-0.098-0.461-0.121c-0.178-0.021-0.359-0.047-0.533-0.141c-0.295-0.156-0.482-0.219-0.645-0.219
	c-0.211,0-0.406,0.107-0.756,0.41c-0.158,0.139-0.332,0.266-0.521,0.266c-0.102,0-0.197-0.033-0.287-0.102
	c-0.139-0.107-0.227-0.252-0.248-0.424c-0.025-0.174,0.02-0.359,0.127-0.518c0.072-0.107,0.172-0.178,0.27-0.248
	c0.174-0.123,0.25-0.191,0.24-0.33c-0.014-0.162-0.201-0.387-0.367-0.586c-0.139-0.164-0.268-0.32-0.336-0.475
	c-0.07-0.156-0.109-0.33-0.148-0.5c-0.051-0.225-0.102-0.438-0.211-0.587c-0.088-0.12-0.197-0.222-0.314-0.328
	c-0.125-0.114-0.254-0.231-0.365-0.384l-0.096-0.133c-0.182-0.257-0.338-0.48-0.607-0.543c-0.117-0.026-0.236-0.032-0.359-0.039
	c-0.225-0.01-0.455-0.021-0.688-0.164c-0.412-0.254-0.543-0.737-0.67-1.205c-0.088-0.328-0.172-0.639-0.346-0.871
	c-0.207-0.275-0.467-0.354-0.812-0.439c-0.172-0.041-0.344-0.111-0.512-0.181c-0.197-0.082-0.387-0.16-0.568-0.19
	c-0.152-0.028-0.289,0.043-0.438,0.121c-0.105,0.055-0.213,0.11-0.338,0.139c-0.248,0.057-0.555,0.01-0.832-0.045
	c-0.088-0.018-0.174-0.034-0.26-0.047c-0.053-0.008-0.096-0.059-0.104-0.123c-0.02-0.168,0.039-0.889,0.188-1.062
	c0.061-0.07,0.15-0.105,0.275-0.105c0.154,0,0.342,0.054,0.492,0.098c0.072,0.02,0.135,0.037,0.184,0.047
	c0.119,0.021,0.258,0.041,0.387,0.041c0.191,0,0.338-0.046,0.467-0.146c0.066-0.053,0.16-0.093,0.262-0.135
	c0.086-0.037,0.229-0.098,0.258-0.141c0.062-0.092,0.076-0.389,0.084-0.583c0.006-0.115,0.01-0.22,0.021-0.296
	c0.037-0.272,0.176-0.423,0.307-0.57c0.086-0.094,0.166-0.183,0.227-0.307c0.049-0.103,0.086-0.212,0.123-0.319
	c0.053-0.153,0.107-0.311,0.191-0.455c0.049-0.079,0.109-0.151,0.172-0.22c0.057-0.065,0.117-0.133,0.154-0.2
	c-0.037-0.013-0.08-0.023-0.123-0.034c-0.135-0.034-0.285-0.073-0.377-0.21c-0.402-0.025-0.916-0.018-1.41-0.006
	c-0.434,0.012-0.865,0.022-1.297,0.001c-0.238-0.011-0.436-0.103-0.627-0.19c-0.164-0.074-0.316-0.146-0.488-0.168
	c-0.186-0.021-0.24,0.026-0.369,0.162c-0.045,0.048-0.098,0.103-0.162,0.16c-0.035,0.03-0.078,0.037-0.115,0.017
	c-0.039-0.02-0.066-0.061-0.072-0.11c-0.092-0.702,1.088-1.33,1.385-1.448c0.113-0.045,0.244-0.07,0.371-0.095
	c0.436-0.087,0.639-0.167,0.625-0.523c-0.191-0.092-0.305-0.209-0.334-0.35c-0.018-0.078-0.016-0.2,0.082-0.333
	c0.08-0.107,0.174-0.163,0.275-0.163c0.115,0,0.223,0.071,0.314,0.133C28.71,8.85,28.782,8.9,28.839,8.9
	c0.102-0.016,0.258-0.273,0.254-0.436c-0.002-0.093-0.02-0.127-0.119-0.127c-0.064,0-0.143,0.02-0.197,0.033
	c-0.197,0.046-0.389,0.072-0.592,0.099c-0.082,0.012-0.164,0.023-0.248,0.035c-0.209,0.031-0.23,0.073-0.293,0.196
	c-0.037,0.076-0.084,0.168-0.174,0.28c-0.307,0.381-0.811,0.407-1.258,0.43C26.013,9.42,25.821,9.43,25.671,9.47
	c-0.09,0.024-0.18,0.053-0.271,0.082c-0.266,0.086-0.543,0.179-0.838,0.135c-0.057-0.008-0.102-0.064-0.105-0.135
	c-0.002-0.061-0.004-0.124-0.004-0.187c-0.002-0.05-0.002-0.098-0.004-0.145L24.446,9.22c-0.057-0.005-0.117-0.011-0.172-0.011
	c-0.139,0-0.178,0.041-0.199,0.085c-0.004,0.016-0.008,0.096-0.008,0.143c-0.002,0.081-0.006,0.157-0.021,0.214
	c-0.027,0.105-0.082,0.222-0.131,0.327c-0.02,0.043-0.037,0.084-0.055,0.121c-0.113,0.271-0.234,0.534-0.459,0.76
	c-0.039,0.039-0.08,0.073-0.121,0.106c-0.115,0.095-0.172,0.147-0.172,0.258c0.283,0.211,0.404,0.556,0.525,0.893l0.012,0.035
	c0.205,0.571-0.053,0.717-0.301,0.857c-0.061,0.034-0.127,0.071-0.195,0.119c-0.043,0.03-0.088,0.076-0.129,0.121
	c-0.061,0.061-0.121,0.126-0.186,0.162c-0.078,0.043-0.16,0.049-0.229,0.049l-0.123-0.002c-0.043,0-0.096,0.003-0.123,0.025
	c-0.029,0.023-0.035,0.047-0.041,0.131c-0.008,0.076-0.014,0.171-0.07,0.257c-0.117,0.18-0.277,0.207-0.418,0.23
	c-0.033,0.004-0.064,0.009-0.098,0.017c-0.143,0.032-0.232,0.081-0.266,0.144c-0.051,0.097-0.012,0.289,0.039,0.532l0.006,0.025
	h0.002c0.146,0,0.293-0.02,0.447-0.04c0.32-0.043,0.668-0.063,0.934,0.034c0.088,0.032,0.17,0.066,0.248,0.1
	c0.293,0.126,0.541,0.207,0.852,0.098c0.035-0.01,0.074-0.004,0.104,0.021c0.029,0.026,0.049,0.068,0.049,0.112
	c0.01,0.321-0.025,0.573-0.102,0.749c-0.018,0.039-0.049,0.066-0.082,0.074c-0.141,0.033-0.303-0.008-0.432-0.046
	c-0.152-0.048-0.275-0.077-0.367,0.021c-0.039,0.043-0.064,0.111-0.094,0.189c-0.039,0.111-0.084,0.235-0.184,0.33
	c-0.061,0.06-0.131,0.088-0.191,0.114c-0.072,0.03-0.117,0.052-0.143,0.099c-0.033,0.061-0.031,0.166-0.029,0.277
	c0.004,0.09,0.004,0.184-0.01,0.272c-0.037,0.196-0.117,0.351-0.195,0.499c-0.041,0.076-0.082,0.153-0.115,0.236
	c-0.1,0.25-0.086,0.318-0.084,0.321C22.22,18.259,22.45,18.122,22.601,18.03z"/>
<path fill="none" stroke="#B4B4B5" stroke-miterlimit="10" d="M22.601,78.031l0.111-0.066c0.281-0.162,0.57-0.199,0.85-0.234
	c0.109-0.014,0.219-0.027,0.33-0.049c0.059-0.012,0.125,0.041,0.135,0.119c0.041,0.289-0.062,0.58-0.156,0.836
	c-0.072,0.203-0.148,0.412-0.102,0.514c0.031,0.066,0.129,0.119,0.287,0.148c0.115,0.021,0.232,0.051,0.348,0.078
	c0.193,0.049,0.395,0.096,0.584,0.109c0.174,0.016,0.34-0.02,0.518-0.057c0.131-0.025,0.268-0.055,0.408-0.062
	c0.35-0.018,0.523-0.027,0.799-0.248c0.051-0.043,0.115-0.119,0.184-0.199c0.139-0.166,0.285-0.334,0.439-0.369
	c0.271-0.066,0.363,0.096,0.393,0.184c0.08,0.232-0.064,0.586-0.199,0.752c-0.055,0.068-0.109,0.102-0.148,0.127
	c-0.051,0.029-0.051,0.029-0.049,0.123c0.002,0.07,0.02,0.094,0.064,0.152c0.031,0.041,0.072,0.09,0.104,0.16
	c0.059,0.131,0.098,0.289,0.139,0.455c0.055,0.232,0.115,0.477,0.225,0.594c0.066,0.074,0.184,0.111,0.342,0.111
	c0.176,0,0.367-0.045,0.52-0.08l0.029-0.006c0.037-0.012,0.084,0.008,0.111,0.047c0.029,0.041,0.037,0.094,0.023,0.143
	c-0.059,0.203-0.154,0.387-0.246,0.564c-0.059,0.115-0.117,0.227-0.164,0.342c-0.031,0.078-0.059,0.162-0.088,0.25
	c-0.09,0.273-0.193,0.584-0.418,0.723c-0.213,0.129-0.484,0.01-0.725-0.121c-0.139-0.076-0.283-0.154-0.408-0.164L26.8,82.904
	c-0.277,0-0.51,0.252-0.732,0.496c-0.047,0.051-0.139,0.07-0.182,0.016c-0.051-0.061-0.109-0.15-0.172-0.246
	c-0.088-0.135-0.197-0.303-0.268-0.354c-0.016-0.01-0.055-0.031-0.137-0.031c-0.184,0-0.367,0.102-0.402,0.191
	c-0.006,0.012-0.018,0.041,0.023,0.104c0.025,0.039,0.104,0.066,0.172,0.09c0.145,0.051,0.412,0.145,0.355,0.52
	c-0.01,0.066-0.055,0.113-0.109,0.119c-0.168,0.014-0.6,0.363-0.609,0.49c0.012,0.016,0.072,0.086,0.318,0.086
	c0.164,0,0.354-0.031,0.521-0.057c0.168-0.027,0.312-0.047,0.398-0.039c0.053,0.006,0.096,0.055,0.107,0.117
	c0.059,0.371,0.016,0.938-0.035,1.441c-0.008,0.07-0.055,0.123-0.111,0.127c-0.262,0.018-0.518-0.023-0.746,0.09
	c-0.074,0.041-0.146,0.096-0.223,0.156c-0.078,0.062-0.162,0.127-0.254,0.176c-0.32,0.166-0.68,0.189-1.006,0.199
	c-0.014,0.195-0.061,0.371-0.107,0.543c0.119,0.041,0.234,0.109,0.346,0.176c0.102,0.061,0.199,0.117,0.293,0.152
	c0.176,0.062,0.275,0.016,0.428-0.076c0.08-0.047,0.168-0.1,0.285-0.141c0.027-0.01,0.064-0.025,0.109-0.043
	c0.205-0.084,0.494-0.193,0.641-0.139c0.139,0.055,0.23,0.225,0.311,0.375c0.021,0.041,0.043,0.084,0.064,0.119
	c0.26-0.193,0.434-0.059,0.572,0.092c0.062,0.068,0.131,0.141,0.225,0.191c0.139,0.074,0.361,0.107,0.559,0.135
	c0.109,0.016,0.211,0.031,0.297,0.053c0.371,0.084,0.66-0.102,0.988-0.336c0.055-0.037,0.109-0.078,0.166-0.117
	c0.061-0.041,0.121-0.072,0.182-0.105c0.041-0.051,0.127-0.131,0.215-0.213c0.051-0.049,0.105-0.1,0.154-0.15l0.008-0.012
	c0.057-0.121,0.121-0.256,0.25-0.34c0.035-0.023,0.08-0.023,0.113,0c0.037,0.023,0.059,0.068,0.062,0.119
	c0.006,0.135-0.088,0.262-0.248,0.424c-0.033,0.07-0.076,0.146-0.139,0.211c-0.094,0.1-0.197,0.158-0.291,0.209
	c-0.02,0.021-0.035,0.041-0.047,0.061c-0.092,0.137-0.205,0.266-0.316,0.393c-0.145,0.164-0.293,0.336-0.377,0.508
	c-0.018,0.035-0.045,0.061-0.078,0.068c-0.264,0.068-0.619,0.047-0.947,0.012c-0.17-0.02-0.33-0.037-0.488-0.037
	c-0.102,0-0.229-0.012-0.369-0.027c-0.158-0.016-0.34-0.033-0.504-0.033c-0.201,0-0.35,0.027-0.439,0.086
	c-0.078,0.049-0.148,0.168-0.219,0.285c-0.049,0.084-0.096,0.164-0.146,0.227c-0.182,0.223-0.396,0.451-0.623,0.658
	c-0.072,0.066-0.145,0.129-0.221,0.193c-0.16,0.135-0.324,0.275-0.453,0.436c-0.004,0.082-0.008,0.201-0.131,0.285
	c-0.082,0.057-0.211,0.045-0.34,0.016c-0.037-0.008-0.076-0.016-0.105-0.016c-0.336,0-0.859,0.35-1.051,0.744
	c0.094,0.006,0.188,0.023,0.279,0.039c0.186,0.033,0.359,0.062,0.535,0.031c0.16-0.027,0.307-0.086,0.463-0.15
	c0.193-0.076,0.393-0.158,0.621-0.174c0.215-0.018,0.277-0.129,0.371-0.295c0.076-0.137,0.168-0.303,0.359-0.414
	c0.256-0.148,0.621-0.004,0.906,0.137c0.07,0.035,0.137,0.068,0.195,0.092c0.113,0.045,0.203,0.111,0.291,0.174
	c0.072,0.053,0.141,0.104,0.213,0.135c0.154,0.066,0.582,0.051,0.83-0.02c0-0.061-0.002-0.125-0.002-0.189
	c-0.006-0.455-0.014-1.139,0.645-1.188c0.416-0.025,0.91,0.135,1.479,0.484c0.221,0.135,0.523,0.059,0.811-0.033
	c0.297-0.098,0.561-0.117,0.869-0.117l0.205,0.004c0.432,0,0.877-0.07,1.307-0.139c0.219-0.035,0.434-0.07,0.65-0.096
	c0.221-0.027,0.439-0.039,0.658-0.053c0.107-0.006,0.213-0.012,0.322-0.02c0.074-0.006,0.154-0.002,0.236,0
	c0.051,0.004,0.102,0.006,0.152,0.006c0.186,0,0.295-0.037,0.369-0.121c0.01-0.012,0.021-0.021,0.035-0.027
	c0.254-0.139,0.625-0.307,0.889-0.369c0.164-0.037,0.33-0.012,0.488,0.012c0.139,0.023,0.277,0.047,0.414,0.018
	c0.473-0.104,1.066-0.617,1.387-1.064c-0.088-0.141-0.217-0.197-0.436-0.197c-0.078,0-0.162,0.006-0.246,0.012
	c-0.123,0.01-0.248,0.018-0.373,0.014c-0.057-0.006-0.104-0.059-0.109-0.129c-0.043-0.49,0.184-0.707,0.367-0.881
	c0.049-0.049,0.105-0.133,0.16-0.211c0.074-0.107,0.148-0.219,0.232-0.287c0.072-0.184,0.186-0.309,0.293-0.428
	c0.062-0.072,0.123-0.139,0.174-0.217c0.145-0.225,0.152-0.445,0.166-0.75l0.006-0.186c0.018-0.361,0.018-0.541-0.195-0.658
	c-0.137-0.078-0.297-0.098-0.461-0.121c-0.178-0.021-0.359-0.047-0.533-0.141c-0.295-0.156-0.482-0.219-0.645-0.219
	c-0.211,0-0.406,0.107-0.756,0.41c-0.158,0.139-0.332,0.266-0.521,0.266c-0.102,0-0.197-0.033-0.287-0.102
	c-0.139-0.107-0.227-0.252-0.248-0.424c-0.025-0.174,0.02-0.359,0.127-0.518c0.072-0.107,0.172-0.178,0.27-0.248
	c0.174-0.123,0.25-0.191,0.24-0.33c-0.014-0.162-0.201-0.387-0.367-0.586c-0.139-0.164-0.268-0.32-0.336-0.475
	c-0.07-0.156-0.109-0.33-0.148-0.5c-0.051-0.225-0.102-0.438-0.211-0.588c-0.088-0.119-0.197-0.221-0.314-0.328
	c-0.125-0.113-0.254-0.23-0.365-0.383l-0.096-0.133c-0.182-0.258-0.338-0.48-0.607-0.543c-0.117-0.027-0.236-0.033-0.359-0.039
	c-0.225-0.01-0.455-0.021-0.688-0.164c-0.412-0.254-0.543-0.738-0.67-1.205c-0.088-0.328-0.172-0.639-0.346-0.871
	c-0.207-0.275-0.467-0.355-0.812-0.439c-0.172-0.041-0.344-0.111-0.512-0.182c-0.197-0.082-0.387-0.16-0.568-0.189
	c-0.152-0.029-0.289,0.043-0.438,0.121c-0.105,0.055-0.213,0.109-0.338,0.139c-0.248,0.057-0.555,0.01-0.832-0.045
	c-0.088-0.018-0.174-0.035-0.26-0.047c-0.053-0.008-0.096-0.059-0.104-0.123c-0.02-0.168,0.039-0.889,0.188-1.062
	c0.061-0.07,0.15-0.105,0.275-0.105c0.154,0,0.342,0.053,0.492,0.098c0.072,0.02,0.135,0.037,0.184,0.047
	c0.119,0.02,0.258,0.041,0.387,0.041c0.191,0,0.338-0.047,0.467-0.146c0.066-0.053,0.16-0.094,0.262-0.135
	c0.086-0.037,0.229-0.098,0.258-0.141c0.062-0.092,0.076-0.389,0.084-0.584c0.006-0.114,0.01-0.22,0.021-0.296
	c0.037-0.272,0.176-0.423,0.307-0.57c0.086-0.094,0.166-0.183,0.227-0.307c0.049-0.103,0.086-0.212,0.123-0.319
	c0.053-0.153,0.107-0.311,0.191-0.455c0.049-0.078,0.109-0.151,0.172-0.221c0.057-0.064,0.117-0.133,0.154-0.199
	c-0.037-0.013-0.08-0.023-0.123-0.034c-0.135-0.034-0.285-0.073-0.377-0.21c-0.402-0.025-0.916-0.018-1.41-0.006
	c-0.434,0.012-0.865,0.021-1.297,0c-0.238-0.01-0.436-0.102-0.627-0.189c-0.164-0.074-0.316-0.146-0.488-0.168
	c-0.186-0.021-0.24,0.025-0.369,0.161c-0.045,0.048-0.098,0.103-0.162,0.159c-0.035,0.031-0.078,0.037-0.115,0.018
	c-0.039-0.02-0.066-0.061-0.072-0.11c-0.092-0.702,1.088-1.33,1.385-1.448c0.113-0.045,0.244-0.07,0.371-0.096
	c0.436-0.087,0.639-0.166,0.625-0.523c-0.191-0.092-0.305-0.209-0.334-0.35c-0.018-0.078-0.016-0.199,0.082-0.333
	c0.08-0.107,0.174-0.163,0.275-0.163c0.115,0,0.223,0.07,0.314,0.133c0.072,0.048,0.145,0.098,0.201,0.098
	c0.102-0.016,0.258-0.273,0.254-0.436c-0.002-0.094-0.02-0.127-0.119-0.127c-0.064,0-0.143,0.02-0.197,0.033
	c-0.197,0.046-0.389,0.071-0.592,0.098c-0.082,0.012-0.164,0.023-0.248,0.035c-0.209,0.031-0.23,0.074-0.293,0.196
	c-0.037,0.075-0.084,0.168-0.174,0.28c-0.307,0.381-0.811,0.406-1.258,0.43c-0.199,0.011-0.391,0.021-0.541,0.061
	c-0.09,0.023-0.18,0.053-0.271,0.082c-0.266,0.086-0.543,0.178-0.838,0.135c-0.057-0.008-0.102-0.064-0.105-0.135
	c-0.002-0.061-0.004-0.123-0.004-0.187c-0.002-0.05-0.002-0.098-0.004-0.146h-0.002c-0.057-0.006-0.117-0.012-0.172-0.012
	c-0.139,0-0.178,0.041-0.199,0.086c-0.004,0.016-0.008,0.096-0.008,0.143c-0.002,0.08-0.006,0.156-0.021,0.214
	c-0.027,0.104-0.082,0.222-0.131,0.327c-0.02,0.043-0.037,0.084-0.055,0.121c-0.113,0.271-0.234,0.533-0.459,0.76
	c-0.039,0.039-0.08,0.072-0.121,0.106c-0.115,0.095-0.172,0.147-0.172,0.258c0.283,0.211,0.404,0.556,0.525,0.893l0.012,0.035
	c0.205,0.571-0.053,0.717-0.301,0.856c-0.061,0.034-0.127,0.072-0.195,0.119c-0.043,0.03-0.088,0.076-0.129,0.121
	c-0.061,0.062-0.121,0.127-0.186,0.162c-0.078,0.043-0.16,0.049-0.229,0.049l-0.123-0.002c-0.043,0-0.096,0.004-0.123,0.025
	c-0.029,0.023-0.035,0.047-0.041,0.131c-0.008,0.076-0.014,0.172-0.07,0.258c-0.117,0.18-0.277,0.206-0.418,0.23
	c-0.033,0.004-0.064,0.009-0.098,0.017c-0.143,0.032-0.232,0.081-0.266,0.144c-0.051,0.098-0.012,0.289,0.039,0.533l0.006,0.025
	h0.002c0.146,0,0.293-0.02,0.447-0.041c0.32-0.043,0.668-0.062,0.934,0.035c0.088,0.031,0.17,0.066,0.248,0.1
	c0.293,0.125,0.541,0.207,0.852,0.098c0.035-0.01,0.074-0.004,0.104,0.021s0.049,0.068,0.049,0.111
	c0.01,0.322-0.025,0.574-0.102,0.75c-0.018,0.039-0.049,0.066-0.082,0.074c-0.141,0.033-0.303-0.008-0.432-0.047
	c-0.152-0.047-0.275-0.076-0.367,0.021c-0.039,0.043-0.064,0.111-0.094,0.189c-0.039,0.111-0.084,0.234-0.184,0.33
	c-0.061,0.059-0.131,0.088-0.191,0.113c-0.072,0.031-0.117,0.053-0.143,0.1c-0.033,0.061-0.031,0.166-0.029,0.277
	c0.004,0.09,0.004,0.184-0.01,0.271c-0.037,0.197-0.117,0.352-0.195,0.5c-0.041,0.076-0.082,0.152-0.115,0.236
	c-0.1,0.25-0.086,0.318-0.084,0.32C22.22,78.26,22.45,78.123,22.601,78.031z"/>
<g>
	<g>
		<path fill="#B4B4B5" d="M25.751,72.688c-0.753,0.816-1.387,1.661-2.006,2.581c-0.245,0.362,0.158,0.864,0.564,0.734
			c0.942-0.302,1.792-0.566,2.598-1.152c-0.244-0.188-0.489-0.376-0.734-0.564c-0.325,0.81-0.535,1.643-1.051,2.36
			c-0.197,0.273,0.015,0.645,0.299,0.734c0.614,0.194,1.137,0.277,1.786,0.293c-0.167-0.167-0.333-0.333-0.5-0.5
			c-0.074,0.644-0.202,1.282-0.276,1.928c-0.047,0.408,0.451,0.58,0.752,0.432c0.979-0.483,2.053-0.618,3.03-1.102
			c-0.244-0.188-0.489-0.376-0.734-0.564c-0.166,0.419-0.333,0.838-0.5,1.258c-0.215,0.39,0.135,0.838,0.564,0.734
			c0.735-0.178,1.471-0.099,2.204-0.275c-0.205-0.205-0.41-0.41-0.615-0.615c-0.257,1.189-0.381,2.023-1.248,3.086
			c-0.348,0.426,0.084,1.077,0.605,0.785c0.9-0.503,1.854-0.875,2.755-1.378c-0.244-0.188-0.489-0.376-0.734-0.564
			c-0.666,1.665-1.753,3.062-2.704,4.564c-0.286,0.451,0.26,0.893,0.684,0.684c0.857-0.422,1.749-0.482,2.636-0.776
			c-0.188-0.245-0.376-0.49-0.564-0.734c-0.276,0.551-0.552,1.102-0.827,1.653c-0.149,0.298-0.021,0.628,0.299,0.734
			c0.733,0.244,0.582,0.213,0.753,1.027c0.046,0.216,0.271,0.367,0.482,0.367c0.184,0,0.367,0,0.551,0
			c-0.167-0.167-0.333-0.333-0.5-0.5c-0.098,0.765-0.205,1.192-0.275,1.929c-0.062,0.642,0.939,0.636,1,0
			c0.056-0.581,0.197-1.316,0.275-1.929c0.034-0.271-0.254-0.5-0.5-0.5c-0.681,0,0.02-0.463-0.473-0.955
			c-0.244-0.244-0.736-0.3-1.048-0.404c0.1,0.245,0.199,0.49,0.299,0.734c0.275-0.551,0.552-1.102,0.827-1.653
			c0.184-0.366-0.119-0.882-0.564-0.734c-0.973,0.322-1.945,0.42-2.874,0.878c0.228,0.228,0.456,0.456,0.684,0.684
			c1.002-1.582,2.106-3.054,2.806-4.803c0.172-0.432-0.387-0.759-0.734-0.564c-0.901,0.502-1.855,0.874-2.755,1.378
			c0.201,0.262,0.403,0.523,0.605,0.785c0.913-1.118,1.2-2.118,1.506-3.527c0.081-0.376-0.232-0.707-0.615-0.615
			c-0.735,0.178-1.471,0.099-2.204,0.275c0.188,0.245,0.376,0.49,0.564,0.734c0.428-0.777,0.394-0.664,0.602-1.496
			c0.111-0.444-0.346-0.757-0.734-0.564c-0.979,0.483-2.053,0.619-3.03,1.102c0.25,0.144,0.501,0.288,0.752,0.432
			c0.074-0.644,0.202-1.282,0.276-1.928c0.032-0.275-0.252-0.494-0.5-0.5c-0.52,0.016-1.026-0.07-1.521-0.258
			c0.1,0.245,0.199,0.49,0.299,0.734c0.571-0.795,0.791-1.699,1.152-2.599c0.16-0.398-0.393-0.812-0.734-0.564
			c-0.721,0.523-1.518,0.781-2.359,1.051c0.188,0.245,0.376,0.49,0.564,0.734c0.566-0.84,1.162-1.633,1.85-2.378
			C26.895,72.922,26.189,72.213,25.751,72.688L25.751,72.688z"/>
	</g>
</g>
</svg>
