<?xml version="1.0" encoding="utf-8"?>
<!-- Generator: Adobe Illustrator 16.0.4, SVG Export Plug-In . SVG Version: 6.00 Build 0)  -->
<!DOCTYPE svg PUBLIC "-//W3C//DTD SVG 1.1//EN" "http://www.w3.org/Graphics/SVG/1.1/DTD/svg11.dtd">
<svg version="1.1" id="Layer_1" xmlns="http://www.w3.org/2000/svg" xmlns:xlink="http://www.w3.org/1999/xlink" x="0px" y="0px"
	 width="60px" height="120px" viewBox="0 0 60 120" enable-background="new 0 0 60 120" xml:space="preserve">
<path fill="none" stroke="#B4B4B5" stroke-miterlimit="10" d="M13.477,24.7c0.175,0.025,0.34,0.05,0.514,0.039
	c0.043-0.002,0.085-0.004,0.128-0.006c0.14-0.006,0.273-0.012,0.408-0.047c0.048-0.014,0.096-0.042,0.147-0.073
	c0.091-0.054,0.185-0.108,0.291-0.087c0.214,0.046,0.325,0.184,0.442,0.33c0.039,0.05,0.08,0.1,0.127,0.149
	c0.075,0.08,0.185,0.106,0.301,0.136c0.084,0.021,0.171,0.042,0.248,0.086c0.108,0.062,0.209,0.14,0.307,0.215
	c0.088,0.068,0.18,0.138,0.274,0.194c0.295,0.177,0.638,0.239,0.97,0.3c0.271,0.05,0.55,0.1,0.808,0.213
	c0.364,0.159,0.785,0.138,1.191,0.119c0.112-0.006,0.222-0.012,0.329-0.014c0.186-0.003,0.385-0.005,0.585,0.001
	c0.023,0.001,0.051,0.004,0.082,0.008c0.084,0.009,0.199,0.021,0.251-0.022c0.08-0.065,0.063-0.235,0.048-0.385
	c-0.007-0.064-0.013-0.126-0.011-0.18c0-0.017,0.007-0.031,0.017-0.042c0.01-0.012,0.024-0.015,0.037-0.014
	c0.202,0.032,0.41,0.027,0.61,0.026c0.177-0.003,0.36-0.006,0.542,0.015c0.277,0.032,0.414,0.208,0.571,0.413
	c0.025,0.032,0.051,0.065,0.078,0.098c0.133,0.165,0.297,0.298,0.456,0.424c0.148,0.119,0.303,0.242,0.433,0.395
	c0.103,0.121,0.158,0.268,0.211,0.409c0.053,0.143,0.104,0.277,0.199,0.374c0.047,0.048,0.092,0.097,0.138,0.146
	c0.106,0.114,0.216,0.232,0.337,0.324c0.103,0.076,0.198,0.092,0.299,0.108c0.075,0.012,0.152,0.025,0.236,0.062
	c0.031,0.013,0.061,0.036,0.088,0.058c0.077,0.059,0.105,0.07,0.139,0.033c0.056-0.06,0.078-0.179,0.099-0.285
	c0.009-0.044,0.017-0.085,0.027-0.122c0.1-0.378,0.419-0.412,0.643-0.402c0.047,0.001,0.093-0.008,0.143-0.017
	c0.061-0.012,0.125-0.024,0.193-0.015c0.155,0.019,0.283,0.117,0.406,0.212l0.05,0.037c0.25,0.188,0.454,0.381,0.636,0.716
	c0.058,0.106,0.097,0.219,0.135,0.327c0.022,0.063,0.045,0.129,0.071,0.193c0.043,0.103,0.111,0.187,0.184,0.276
	c0.024,0.03,0.048,0.06,0.071,0.09c0.057,0.075,0.125,0.142,0.198,0.213c0.139,0.135,0.282,0.276,0.347,0.479
	c0.028,0.089,0.045,0.183,0.062,0.273c0.011,0.062,0.022,0.121,0.037,0.18c0.009,0.036,0.015,0.079,0.022,0.127
	c0.014,0.09,0.031,0.202,0.066,0.249c0.014,0.018,0.045,0.032,0.073,0.044c0.015,0.007,0.03,0.013,0.043,0.021
	c0.097,0.053,0.187,0.121,0.262,0.18c0.021,0.018,0.043,0.035,0.065,0.053c0.103,0.086,0.201,0.167,0.319,0.167
	c0.002,0,0.004,0,0.006,0c0.118,0,0.193,0.025,0.298,0.077c0.061,0.028,0.124,0.048,0.19,0.067c0.062,0.019,0.127,0.038,0.19,0.066
	c0.019,0.009,0.044,0.025,0.073,0.044c0.043,0.028,0.123,0.078,0.165,0.078c0.012-0.037,0.025-0.073,0.035-0.11
	c0-0.002,0.003-0.003,0.003-0.005c-0.008-0.053-0.025-0.111-0.04-0.158c-0.008-0.025-0.016-0.05-0.021-0.07
	c-0.038-0.148-0.021-0.299-0.004-0.444l0.002-0.019c0.025-0.222,0.046-0.423,0.057-0.63c0.002-0.032,0.002-0.065,0.003-0.101
	c0.001-0.124,0.004-0.266,0.054-0.38c0.045-0.106,0.129-0.165,0.204-0.216l0.029-0.021c0.107-0.075,0.205-0.169,0.3-0.261
	c0.074-0.07,0.15-0.143,0.231-0.208c0.147-0.119,0.309-0.215,0.465-0.308c0.065-0.039,0.13-0.077,0.193-0.116
	c0.228-0.143,0.435-0.333,0.635-0.517c0.17-0.154,0.345-0.315,0.535-0.449l0.014-0.011c0.093-0.066,0.222-0.157,0.343-0.124
	c0.07,0.02,0.117,0.077,0.158,0.128c0.023,0.028,0.044,0.055,0.068,0.072c0.099,0.078,0.231,0.068,0.357,0.06l0.033-0.003
	c0.198-0.012,0.378-0.022,0.561-0.001l0.054,0.006c0.104,0.013,0.201,0.025,0.299-0.008c0.041-0.014,0.081-0.034,0.124-0.055
	c0.069-0.035,0.14-0.07,0.22-0.079c0.107-0.014,0.197,0.02,0.263,0.097c0.077,0.091,0.121,0.24,0.122,0.419
	c0.111,0.006,0.225,0.014,0.338,0.071c0.016,0.008,0.032,0.017,0.047,0.025c0.054,0.032,0.081,0.045,0.125,0.022
	c0.009-0.006,0.034-0.034,0.049-0.053c0.046-0.055,0.093-0.109,0.149-0.098c0.068,0.015,0.102,0.088,0.128,0.146
	c0.002,0.005,0.006,0.011,0.008,0.016c0-0.002,0.001-0.005,0.001-0.008c0.007-0.123,0.017-0.276,0.12-0.339
	c0.092-0.053,0.159,0.005,0.206,0.048c0.011,0.009,0.022,0.019,0.034,0.028c0.066,0.051,0.123,0.052,0.204,0.051h0.006l0.007-0.021
	c0.024-0.071,0.042-0.124,0.049-0.209c0.006-0.061,0.019-0.117,0.032-0.173c0.011-0.049,0.022-0.093,0.027-0.141
	c0.007-0.069-0.001-0.071-0.079-0.096c-0.047-0.015-0.099-0.022-0.154-0.03c-0.133-0.021-0.285-0.045-0.378-0.156
	c-0.013-0.015-0.018-0.037-0.013-0.058c0.006-0.021,0.02-0.036,0.037-0.04c0.096-0.022,0.188-0.013,0.276-0.001
	c0.044,0.006,0.087,0.011,0.133,0.013c0.089,0.003,0.182-0.006,0.272-0.015c0.076-0.007,0.151-0.013,0.227-0.016
	c0.156-0.001,0.321-0.009,0.491-0.022c0.017-0.001,0.035-0.004,0.052-0.007c0.053-0.008,0.112-0.018,0.167,0.007
	c0.013,0.007,0.023,0.013,0.035,0.02c0.02,0.012,0.031,0.018,0.053,0.018c0.078,0.003,0.166,0.003,0.242-0.011
	c0.098-0.016,0.193-0.018,0.285-0.02c0.036-0.001,0.073-0.002,0.109-0.003c0.045-0.003,0.082-0.027,0.124-0.056
	c0.046-0.029,0.098-0.063,0.166-0.069c0.136-0.012,0.288,0,0.442,0.028c0.066,0.013,0.15,0.035,0.212,0.095
	c0.021,0.021,0.04,0.046,0.059,0.07c0.022,0.029,0.042,0.058,0.066,0.074c0.026,0.019,0.058,0.031,0.091,0.046
	c0.018,0.007,0.036,0.014,0.054,0.022l0.006-0.009c0.102-0.125,0.294-0.357,0.436-0.185c0.062,0.073,0.055,0.168,0.049,0.245
	c-0.005,0.058-0.008,0.108,0.014,0.14c0.026,0.04,0.15,0.077,0.225,0.1c0.041,0.013,0.079,0.023,0.104,0.035
	c0.105,0.045,0.139,0.034,0.229,0.005l0.042-0.012c0.109-0.108,0.218-0.153,0.341-0.206l0.021-0.008
	c0.026-0.011,0.056-0.028,0.085-0.047c0.081-0.049,0.172-0.104,0.264-0.072c0.093,0.032,0.163,0.144,0.225,0.243
	c0.025,0.04,0.048,0.077,0.071,0.106c0.057,0.07,0.123,0.134,0.188,0.195c0.041,0.04,0.083,0.08,0.123,0.123
	c0.032,0.034,0.075,0.073,0.121,0.116c0.19,0.176,0.427,0.395,0.422,0.645c-0.003,0.143-0.046,0.263-0.09,0.379
	c-0.054,0.148-0.105,0.287-0.065,0.464c0.034,0.146,0.079,0.289,0.122,0.428c0.05,0.162,0.103,0.33,0.139,0.504
	c0.029,0.009,0.06,0.021,0.092,0.035c0.054,0.023,0.127,0.055,0.158,0.038c0.012-0.007,0.023-0.013,0.033-0.018
	c0.068-0.04,0.116-0.06,0.211,0.043c0.101,0.107,0.067,0.231,0.041,0.331c-0.017,0.062-0.033,0.121-0.024,0.18
	c0.015,0.112,0.065,0.198,0.118,0.287c0.025,0.044,0.052,0.089,0.075,0.137c0.084,0.177,0.156,0.316,0.235,0.455
	c0.066,0.114,0.087,0.236,0.107,0.354c0.008,0.046,0.017,0.095,0.028,0.143c0.459,0.081,0.723,0.022,0.805-0.49
	c0.013-0.079,0.021-0.162,0.028-0.242c0.01-0.108,0.02-0.22,0.043-0.331l0.017-0.08c0.036-0.162,0.068-0.304,0.021-0.467
	c-0.059-0.207-0.106-0.383-0.14-0.597c-0.026-0.172-0.084-0.318-0.146-0.476c-0.034-0.084-0.068-0.172-0.098-0.265
	c-0.036-0.111-0.041-0.222-0.046-0.328c-0.004-0.084-0.007-0.162-0.025-0.24c-0.029-0.127-0.086-0.251-0.144-0.37
	c-0.04-0.085-0.082-0.173-0.114-0.265c-0.062-0.179-0.129-0.355-0.196-0.532c-0.062-0.165-0.124-0.33-0.183-0.495
	c-0.088-0.248-0.089-0.453-0.083-0.68c-0.01-0.009-0.018-0.022-0.018-0.04c-0.005-0.08,0.006-0.148,0.022-0.213
	c0-0.008,0.001-0.015,0.001-0.022c0-0.019,0.008-0.034,0.02-0.044c0.025-0.067,0.057-0.128,0.089-0.188
	c0.029-0.052,0.058-0.105,0.083-0.163c0.023-0.057,0.045-0.113,0.065-0.168c0.056-0.148,0.113-0.3,0.217-0.437
	c0.118-0.158,0.274-0.25,0.424-0.338l0.078-0.047c0.182-0.108,0.346-0.264,0.505-0.412l0.019-0.017
	c0.107-0.101,0.209-0.213,0.307-0.32c0.155-0.171,0.314-0.348,0.503-0.484c0.16-0.117,0.279-0.223,0.375-0.335
	c0.044-0.053,0.077-0.12,0.109-0.192c0.037-0.076,0.075-0.156,0.129-0.217c0.082-0.092,0.24-0.17,0.354-0.229l0.061-0.029
	c0.075-0.039,0.152-0.044,0.226-0.049c0.046-0.004,0.091-0.007,0.134-0.019c0.062-0.016,0.078-0.038,0.104-0.073
	c0.018-0.025,0.042-0.058,0.083-0.09c0.078-0.061,0.193-0.051,0.294-0.042c0.021,0.003,0.043,0.005,0.063,0.006
	c-0.002-0.14-0.006-0.218-0.085-0.329c-0.016-0.021-0.034-0.041-0.05-0.062c-0.055-0.065-0.111-0.134-0.109-0.224
	c0.001-0.057,0.027-0.113,0.08-0.17c0.069-0.074,0.221-0.19,0.306-0.225c0.016-0.006,0.031-0.01,0.047-0.014
	c-0.13-0.092-0.231-0.212-0.202-0.373c0.028-0.158,0.127-0.26,0.223-0.357c0.09-0.094,0.176-0.181,0.198-0.312
	c0-0.001,0-0.002,0-0.003c0.004-0.019,0.014-0.033,0.026-0.041c-0.012-0.06-0.185-0.123-0.268-0.154
	c-0.058-0.021-0.108-0.039-0.14-0.059l-0.052-0.032c-0.112-0.067-0.239-0.144-0.328-0.251c-0.013-0.016-0.017-0.038-0.012-0.059
	c0.005-0.021,0.02-0.036,0.038-0.039l0.022-0.004c0.092-0.018,0.232-0.042,0.243-0.143c0.008-0.073-0.061-0.167-0.115-0.242
	c-0.021-0.028-0.039-0.053-0.053-0.077c-0.021-0.033-0.039-0.066-0.058-0.1c-0.023-0.042-0.045-0.084-0.071-0.124
	c-0.012-0.019-0.033-0.038-0.053-0.059c-0.04-0.04-0.081-0.082-0.097-0.13c-0.036-0.112,0.002-0.337,0.033-0.517
	c0.011-0.062,0.02-0.116,0.024-0.152c0.002-0.023,0.016-0.043,0.034-0.049c0.019-0.005,0.039,0.001,0.05,0.02
	c0.312,0.479,0.448,0.547,0.477,0.538c0.007-0.003,0.024-0.039,0.018-0.156c-0.008-0.133-0.055-0.24-0.104-0.353
	c-0.024-0.058-0.051-0.117-0.072-0.182c-0.035-0.103-0.039-0.18-0.015-0.244c0.035-0.09,0.124-0.13,0.22-0.166
	c0.031-0.012,0.076-0.038,0.122-0.066c0.108-0.066,0.232-0.141,0.323-0.11c0.084,0.029,0.115,0.091,0.126,0.139
	c0.025,0.107-0.03,0.24-0.095,0.323c-0.125,0.162-0.192,0.347-0.186,0.522c0.004,0.156,0.063,0.298,0.174,0.421
	c0.133,0.149,0.199,0.237,0.116,0.485c-0.061,0.178-0.097,0.325-0.095,0.501c0.107-0.116,0.188-0.232,0.211-0.399l0.007-0.056
	c0.021-0.155,0.039-0.278,0.151-0.418c0.026-0.031,0.055-0.062,0.084-0.092c0.071-0.076,0.139-0.146,0.162-0.246
	c0.021-0.095-0.002-0.206-0.025-0.313c-0.008-0.04-0.016-0.079-0.022-0.117c-0.011-0.065-0.019-0.131-0.027-0.197
	c-0.015-0.113-0.03-0.231-0.055-0.342c-0.011-0.044-0.026-0.093-0.042-0.142c-0.04-0.118-0.085-0.252-0.068-0.38
	c0.026-0.202,0.202-0.313,0.347-0.298c0.142,0.014,0.234,0.133,0.233,0.304c0,0.099-0.021,0.192-0.043,0.283
	c-0.02,0.085-0.039,0.165-0.041,0.247c-0.002,0.125,0.031,0.231,0.075,0.329c0.003-0.007,0.006-0.015,0.009-0.022
	c0.036-0.085,0.072-0.173,0.131-0.252c0.038-0.051,0.081-0.083,0.122-0.113c0.03-0.022,0.058-0.042,0.083-0.069
	c0.008-0.009,0.018-0.012,0.028-0.013c0.125-0.18,0.231-0.361,0.234-0.6c0.001-0.09-0.04-0.19-0.079-0.287
	c-0.049-0.121-0.1-0.246-0.076-0.367c0.004-0.02,0.016-0.036,0.033-0.042c0.068-0.026,0.237-0.032,0.471-0.042
	c0.435-0.017,1.163-0.046,1.304-0.255c0.009-0.013,0.015-0.026,0.018-0.04c-0.097-0.007-0.201,0.015-0.31,0.038
	c-0.096,0.021-0.194,0.042-0.291,0.042c-0.001,0-0.004,0-0.006,0c-0.035,0-0.071,0.001-0.108,0.002
	c-0.164,0.005-0.336,0.009-0.479-0.069c-0.013-0.007-0.023-0.021-0.026-0.038c-0.004-0.017-0.001-0.035,0.007-0.049
	c0.122-0.204,0.52-0.246,0.782-0.273c0.052-0.005,0.098-0.01,0.133-0.016c0.171-0.026,0.352-0.049,0.529-0.042
	c0.06,0.002,0.123,0.024,0.183,0.045c0.061,0.021,0.118,0.042,0.167,0.04c0.177-0.009,0.26-0.417,0.308-0.662
	c0.009-0.044,0.018-0.085,0.024-0.118c0.013-0.055,0.026-0.108,0.039-0.162c0.037-0.15,0.071-0.291,0.093-0.443
	c0.005-0.041,0.008-0.086,0.011-0.132c0.006-0.097,0.013-0.197,0.044-0.284c0.066-0.176,0.267-0.304,0.444-0.416
	c0.068-0.043,0.133-0.084,0.18-0.123c0.102-0.083,0.219-0.145,0.333-0.206c0.141-0.075,0.272-0.145,0.379-0.25
	c0.049-0.048,0.086-0.146,0.123-0.241c0.05-0.13,0.102-0.265,0.194-0.316c0.132-0.075,0.256,0.015,0.366,0.095
	c0.073,0.053,0.143,0.105,0.199,0.098c0.04-0.004,0.081-0.023,0.125-0.044c0.044-0.021,0.09-0.043,0.14-0.051
	c0.026-0.004,0.05-0.007,0.072-0.011c0.093-0.012,0.161-0.021,0.251-0.076l0.062-0.039c0.162-0.101,0.343-0.212,0.528-0.223
	c-0.04-0.109-0.135-0.233-0.212-0.337c-0.032-0.042-0.062-0.081-0.087-0.118c-0.121-0.064-0.229-0.167-0.342-0.33
	c-0.155-0.226-0.169-0.468-0.174-0.76c-0.001-0.053,0-0.114,0.003-0.179c0.007-0.26,0.016-0.583-0.127-0.729
	c-0.111-0.114-0.28-0.109-0.445-0.107c-0.09,0.002-0.182,0.004-0.264-0.014c-0.077-0.016-0.138-0.051-0.191-0.081
	c-0.105-0.06-0.164-0.092-0.276,0.027l-0.069,0.073c-0.144,0.154-0.279,0.3-0.414,0.462c-0.091,0.109-0.111,0.23-0.133,0.371
	c-0.013,0.074-0.023,0.15-0.048,0.229c-0.028,0.094-0.083,0.169-0.136,0.243c-0.029,0.039-0.057,0.077-0.079,0.116
	c-0.031,0.055-0.054,0.117-0.079,0.182c-0.027,0.073-0.056,0.149-0.098,0.217c-0.064,0.106-0.175,0.214-0.271,0.263
	c-0.094,0.049-0.18,0.019-0.256-0.007c-0.031-0.012-0.062-0.022-0.094-0.027c-0.06-0.01-0.08,0-0.086,0.006
	c-0.016,0.017-0.016,0.091-0.016,0.127c0,0.068-0.016,0.122-0.048,0.158C52.68,12,52.59,11.992,52.502,11.984l-0.035-0.003
	c-0.334-0.025-0.678-0.034-1.022-0.027l-0.031,0c-0.443,0.009-0.862,0.019-1.298-0.017l-0.018-0.001
	c-0.2-0.016-0.344-0.027-0.519,0.092c-0.134,0.092-0.265,0.194-0.391,0.294c-0.047,0.037-0.094,0.074-0.141,0.11
	c-0.078,0.061-0.159,0.114-0.238,0.166c-0.07,0.045-0.139,0.09-0.206,0.14c-0.017,0.012-0.032,0.026-0.047,0.04
	c-0.03,0.026-0.062,0.049-0.095,0.068c0.073,0.237,0.047,0.457-0.089,0.708C48.13,14,47.737,14.065,47.384,14.07
	c-0.081,0.001-0.172,0.008-0.269,0.016c-0.307,0.022-0.65,0.048-0.9-0.073c-0.018,0.788-0.273,0.955-0.907,1.182
	c-0.11,0.039-0.245,0.096-0.387,0.156c-0.454,0.192-1.027,0.434-1.516,0.434c-0.196,0-0.377-0.039-0.532-0.135
	c-0.204-0.127-0.345-0.346-0.418-0.65c-0.061-0.251,0.083-0.5,0.208-0.718c0.092-0.16,0.179-0.311,0.152-0.408
	c-0.014-0.052-0.066-0.097-0.153-0.131l-0.035-0.014c-0.273-0.109-0.489-0.196-0.5-0.648c-0.01-0.363,0.146-0.704,0.281-0.929
	c0.057-0.435-0.538-0.631-0.825-0.725c-0.221-0.072-0.386-0.046-0.57,0.095c-0.143,0.109-0.146,0.175-0.153,0.336
	c-0.002,0.044-0.004,0.095-0.01,0.152c-0.002,0.029-0.023,0.051-0.047,0.051c-0.003,0-0.006,0-0.009,0
	c-0.28,0-0.334,0.24-0.403,0.542c-0.05,0.221-0.102,0.449-0.251,0.601c-0.238,0.24-0.82,0.778-1.11,0.604
	c-0.388-0.237-0.17-1.062-0.077-1.415c0.128-0.482,0.359-0.652,0.626-0.848c0.083-0.061,0.17-0.125,0.261-0.202
	c0.105-0.089,0.194-0.178,0.282-0.264c0.237-0.234,0.444-0.438,0.818-0.516c-0.011-0.057-0.034-0.103-0.07-0.141
	c-0.169-0.179-0.589-0.138-0.867-0.112c-0.089,0.009-0.166,0.016-0.225,0.016c-0.041,0-0.084,0.002-0.128,0.004
	c-0.161,0.008-0.345,0.019-0.493-0.084c-0.075-0.052-0.156-0.158-0.241-0.269c-0.099-0.129-0.201-0.263-0.288-0.304
	c-0.165-0.076-0.48,0.163-0.734,0.354c-0.125,0.094-0.243,0.183-0.332,0.226c-0.183,0.089-0.274,0.214-0.363,0.335
	c-0.12,0.162-0.233,0.316-0.535,0.287c-0.163-0.015-0.388-0.12-0.587-0.212c-0.109-0.051-0.211-0.098-0.291-0.125
	c-0.056-0.02-0.127-0.029-0.202-0.038c-0.143-0.018-0.292-0.036-0.386-0.131c-0.01-0.01-0.016-0.026-0.017-0.042
	c0-0.017,0.005-0.032,0.015-0.044c0.219-0.254,0.516-0.404,0.803-0.549c0.132-0.067,0.256-0.129,0.374-0.201
	c0.09-0.057,0.184-0.107,0.277-0.158c0.125-0.068,0.242-0.133,0.354-0.208c0.076-0.052,0.135-0.125,0.197-0.202
	c0.042-0.052,0.085-0.104,0.133-0.149c-0.025,0-0.051,0.001-0.077,0.003c-0.029,0.003-0.059,0.003-0.087,0.004
	c-0.056,0-0.108-0.011-0.16-0.022c-0.038-0.008-0.076-0.016-0.115-0.019l-0.013-0.001c-0.093-0.008-0.114-0.013-0.187-0.095
	c-0.04-0.045-0.094-0.083-0.16-0.114c-0.051-0.023-0.053-0.024-0.102,0.045L36.42,8.634c-0.021,0.03-0.047,0.058-0.073,0.085
	C36.318,8.75,36.29,8.78,36.27,8.814c-0.008,0.014-0.02,0.022-0.034,0.024s-0.028-0.004-0.038-0.016
	c-0.08-0.091-0.209-0.207-0.33-0.259c-0.054-0.022-0.095,0.005-0.163,0.057c-0.028,0.021-0.055,0.041-0.084,0.057
	c-0.01,0.005-0.02,0.013-0.032,0.021c-0.037,0.026-0.078,0.056-0.117,0.056c-0.001,0-0.003,0-0.004,0
	c-0.058-0.003-0.12-0.058-0.179-0.11c-0.022-0.02-0.043-0.039-0.061-0.051C35.118,8.517,35,8.475,34.875,8.43
	c-0.054-0.019-0.107-0.039-0.162-0.061c-0.237-0.099-0.49-0.195-0.739-0.198c-0.077,0.001-0.119,0.023-0.175,0.056
	c-0.028,0.015-0.058,0.032-0.093,0.047c-0.145,0.062-0.249,0.007-0.369-0.057c-0.122-0.064-0.213-0.092-0.309-0.095
	c-0.014,0-0.027,0-0.041,0c-0.053,0-0.102,0-0.161-0.035c-0.158-0.094-0.219-0.269-0.278-0.438c-0.028-0.08-0.056-0.162-0.094-0.232
	c-0.028-0.051-0.069-0.067-0.12-0.086c-0.016-0.006-0.033-0.012-0.049-0.02c0.003,0.021,0.007,0.042,0.011,0.064
	c0.008,0.039,0.015,0.078,0.019,0.119c0.01,0.088,0.001,0.149-0.028,0.193c-0.042,0.065-0.114,0.075-0.198,0.086l-0.013,0.002
	c-0.079,0.01-0.157,0.015-0.236,0.021c-0.069,0.004-0.138,0.008-0.207,0.017c-0.212,0.024-0.427,0.023-0.635,0.021l-0.351-0.001
	c-0.253,0-0.506,0-0.758,0.001c-0.165,0-0.33,0.007-0.496,0.014c-0.202,0.008-0.412,0.018-0.617,0.014
	c-0.177-0.002-0.354-0.014-0.527-0.023c-0.211-0.013-0.432-0.024-0.646-0.024c-0.243,0.001-0.483,0.004-0.727,0.01
	c-0.483,0.012-0.971-0.012-1.442-0.035c-0.197-0.009-0.394-0.019-0.591-0.025c-0.202-0.008-0.407,0.007-0.605,0.021
	c-0.182,0.012-0.369,0.025-0.556,0.022c-0.052-0.001-0.103-0.003-0.152-0.005c-0.114-0.005-0.22-0.011-0.335,0.002
	c-0.115,0.013-0.232,0.013-0.345,0.014c-0.073,0.001-0.147,0.001-0.22,0.005c-0.202,0.01-0.407,0.006-0.604,0.003
	c-0.208-0.004-0.422-0.008-0.632,0.005c-0.529,0.03-1.063,0.004-1.58-0.021c-0.349-0.018-0.708-0.035-1.062-0.035
	c-0.006,0-0.014,0-0.02,0c-0.054,0-0.108-0.001-0.163-0.003c-0.152-0.003-0.31-0.008-0.457,0.02
	c-0.116,0.022-0.202,0.02-0.318-0.009c-0.067-0.017-0.133-0.009-0.205-0.001c-0.021,0.003-0.042,0.005-0.063,0.006
	c-0.202,0.017-0.407,0.017-0.602,0.017h-0.136c-0.505,0-1.022,0-1.534,0.018c-0.387,0.014-0.78-0.001-1.161-0.017
	c-0.231-0.009-0.47-0.019-0.705-0.021c-0.382-0.004-0.769,0.004-1.143,0.014c-0.295,0.007-0.591,0.014-0.886,0.015
	c-0.38,0.002-0.754-0.004-1.071-0.009c-0.133-0.002-0.267-0.011-0.395-0.02C9.71,7.772,9.521,7.76,9.331,7.768L9.259,7.771
	C9.085,7.778,8.903,7.783,8.727,7.785c-0.019,0-0.031-0.016-0.039-0.034C8.66,7.744,8.631,7.738,8.603,7.73
	C8.512,7.707,8.428,7.684,8.334,7.688C8.3,7.69,8.265,7.692,8.229,7.694c-0.016,0.001-0.032,0-0.048,0.001
	c0.012,0.01,0.023,0.021,0.036,0.029c0.118,0.075,0.183,0.191,0.246,0.303c0.026,0.047,0.053,0.096,0.085,0.142
	c0.013,0.019,0.029,0.036,0.045,0.053c0.045,0.048,0.102,0.108,0.101,0.202C8.693,8.477,8.676,8.526,8.645,8.56
	C8.63,8.576,8.612,8.588,8.593,8.595c0,0.015,0.002,0.028,0.005,0.04C8.61,8.704,8.642,8.764,8.677,8.827
	c0.048,0.089,0.099,0.181,0.099,0.306c0,0.195-0.09,0.412-0.263,0.451C8.353,9.619,8.227,9.518,8.173,9.312
	C8.137,9.174,8.135,9.032,8.138,8.911c0-0.025,0.003-0.053,0.005-0.082C8.148,8.759,8.154,8.68,8.135,8.63
	c-0.037-0.096-0.241-0.1-0.352-0.102c-0.032-0.001-0.06-0.001-0.082-0.003C7.622,8.518,7.54,8.509,7.459,8.499
	C7.262,8.476,7.058,8.451,6.866,8.465C6.774,8.472,6.625,8.52,6.602,8.581C6.6,8.587,6.594,8.602,6.614,8.636
	c0.024,0.041,0.064,0.078,0.103,0.112c0.026,0.024,0.052,0.047,0.074,0.072c0.068,0.078,0.133,0.163,0.194,0.245l0.014,0.017
	c0.068,0.092,0.137,0.184,0.172,0.304c0.026,0.089,0.026,0.176,0.026,0.26c0,0.022,0,0.045,0,0.068
	c0.004,0.162,0.107,0.239,0.345,0.257c0.016,0.001,0.03,0.011,0.038,0.026c0.008,0.015,0.01,0.034,0.004,0.052
	c-0.035,0.113-0.098,0.177-0.16,0.24c-0.058,0.058-0.111,0.113-0.141,0.209c-0.047,0.151-0.029,0.314-0.011,0.488
	c0.013,0.122,0.026,0.249,0.017,0.374c-0.021,0.241-0.014,0.5-0.009,0.752C7.293,12.746,7.309,13.4,6.936,13.9l-0.015,0.02
	c-0.07,0.093-0.117,0.154-0.105,0.268c0.003,0.031,0.004,0.06,0.004,0.088c0,0.052,0.001,0.089,0.02,0.129
	c0.108,0.227,0.187,0.44,0.219,0.742c0.014,0.126,0.019,0.255,0.024,0.378c0.004,0.097,0.008,0.194,0.016,0.291
	c0.004,0.05,0.011,0.097,0.017,0.143c0.023,0.169,0.046,0.343-0.078,0.504c0.062,0.073,0.105,0.161,0.148,0.247
	c0.03,0.061,0.059,0.118,0.092,0.169c0.027,0.041,0.06,0.074,0.095,0.109c0.074,0.075,0.157,0.159,0.164,0.318
	c0.003,0.072-0.011,0.133-0.023,0.191c-0.015,0.067-0.028,0.124-0.016,0.19c0.016,0.087,0.049,0.171,0.084,0.261
	c0.028,0.069,0.056,0.142,0.075,0.216c0.012,0.044,0.021,0.088,0.031,0.13c0.033,0.141,0.061,0.264,0.149,0.369
	c0.067,0.079,0.143,0.151,0.214,0.22c0.045,0.043,0.09,0.086,0.133,0.131c0.02,0.02,0.037,0.041,0.054,0.061
	c0.05,0.056,0.091,0.104,0.152,0.125c0.155,0.055,0.343,0.04,0.526,0.025c0.125-0.01,0.253-0.021,0.372-0.008
	c0.02,0.002,0.04,0.003,0.061,0.004c0.087,0.005,0.178,0.009,0.224,0.083c0.026,0.041,0.032,0.095,0.021,0.16
	c-0.017,0.088-0.069,0.182-0.116,0.265c-0.016,0.028-0.031,0.055-0.043,0.08c-0.139,0.279-0.212,0.481-0.224,0.815
	c-0.005,0.123-0.003,0.432,0.111,0.631c0.145,0.25,0.323,0.468,0.563,0.685c0.025,0.021,0.052,0.044,0.08,0.064
	c0.076,0.06,0.154,0.122,0.206,0.214c0.044,0.079,0.048,0.166,0.052,0.244c0.002,0.059,0.005,0.115,0.025,0.156
	c0.057,0.119,0.185,0.141,0.308,0.16c0.038,0.006,0.075,0.012,0.11,0.021l0.096,0.023c0.154,0.038,0.314,0.077,0.462,0.151
	c0.076,0.038,0.155,0.073,0.234,0.106c0.131,0.057,0.267,0.114,0.39,0.193c0.063,0.042,0.126,0.067,0.188,0.093
	c0.117,0.048,0.237,0.096,0.335,0.247c0.071,0.107,0.157,0.195,0.248,0.287c0.074,0.076,0.151,0.153,0.218,0.244
	c0.07,0.093,0.138,0.162,0.229,0.232c0.023,0.019,0.052,0.036,0.082,0.056c0.084,0.056,0.183,0.122,0.233,0.221
	c0.01-0.01,0.023-0.015,0.037-0.011c0.022,0.004,0.035,0.027,0.036,0.053L13.477,24.7z"/>
<path fill="none" stroke="#B4B4B5" stroke-miterlimit="10" d="M13.477,84.7c0.175,0.025,0.34,0.05,0.514,0.039
	c0.043-0.002,0.085-0.004,0.128-0.006c0.14-0.006,0.273-0.012,0.408-0.047c0.048-0.014,0.096-0.042,0.147-0.073
	c0.091-0.054,0.185-0.108,0.291-0.087c0.214,0.046,0.325,0.184,0.442,0.33c0.039,0.05,0.08,0.1,0.127,0.149
	c0.075,0.08,0.185,0.106,0.301,0.136c0.084,0.021,0.171,0.042,0.248,0.086c0.108,0.062,0.209,0.14,0.307,0.215
	c0.088,0.068,0.18,0.138,0.274,0.194c0.295,0.177,0.638,0.239,0.97,0.3c0.271,0.05,0.55,0.1,0.808,0.213
	c0.364,0.159,0.785,0.138,1.191,0.119c0.112-0.006,0.222-0.012,0.329-0.014c0.186-0.003,0.385-0.005,0.585,0.001
	c0.023,0.001,0.051,0.004,0.082,0.008c0.084,0.009,0.199,0.021,0.251-0.022c0.08-0.065,0.063-0.235,0.048-0.385
	c-0.007-0.064-0.013-0.126-0.011-0.18c0-0.017,0.007-0.031,0.017-0.042c0.01-0.012,0.024-0.015,0.037-0.014
	c0.202,0.032,0.41,0.027,0.61,0.026c0.177-0.003,0.36-0.006,0.542,0.015c0.277,0.032,0.414,0.208,0.571,0.413
	c0.025,0.032,0.051,0.065,0.078,0.098c0.133,0.165,0.297,0.298,0.456,0.424c0.148,0.119,0.303,0.242,0.433,0.395
	c0.103,0.121,0.158,0.268,0.211,0.409c0.053,0.143,0.104,0.277,0.199,0.374c0.047,0.048,0.092,0.097,0.138,0.146
	c0.106,0.114,0.216,0.232,0.337,0.324c0.103,0.076,0.198,0.092,0.299,0.108c0.075,0.012,0.152,0.025,0.236,0.062
	c0.031,0.013,0.061,0.036,0.088,0.058c0.077,0.059,0.105,0.07,0.139,0.033c0.056-0.06,0.078-0.179,0.099-0.285
	c0.009-0.044,0.017-0.085,0.027-0.122c0.1-0.378,0.419-0.412,0.643-0.402c0.047,0.001,0.093-0.008,0.143-0.017
	c0.061-0.012,0.125-0.024,0.193-0.015c0.155,0.019,0.283,0.117,0.406,0.212l0.05,0.037c0.25,0.188,0.454,0.381,0.636,0.716
	c0.058,0.106,0.097,0.219,0.135,0.327c0.022,0.063,0.045,0.129,0.071,0.193c0.043,0.103,0.111,0.187,0.184,0.276
	c0.024,0.03,0.048,0.06,0.071,0.09c0.057,0.075,0.125,0.142,0.198,0.213c0.139,0.135,0.282,0.276,0.347,0.479
	c0.028,0.089,0.045,0.183,0.062,0.273c0.011,0.062,0.022,0.121,0.037,0.18c0.009,0.036,0.015,0.079,0.022,0.127
	c0.014,0.09,0.031,0.202,0.066,0.249c0.014,0.018,0.045,0.032,0.073,0.044c0.015,0.007,0.03,0.013,0.043,0.021
	c0.097,0.053,0.187,0.121,0.262,0.18c0.021,0.018,0.043,0.035,0.065,0.053c0.103,0.086,0.201,0.167,0.319,0.167
	c0.002,0,0.004,0,0.006,0c0.118,0,0.193,0.025,0.298,0.077c0.061,0.028,0.124,0.048,0.19,0.067c0.062,0.019,0.127,0.038,0.19,0.066
	c0.019,0.009,0.044,0.025,0.073,0.044c0.043,0.028,0.123,0.078,0.165,0.078c0.012-0.037,0.025-0.073,0.035-0.11
	c0-0.002,0.003-0.003,0.003-0.005c-0.008-0.053-0.025-0.111-0.04-0.158c-0.008-0.025-0.016-0.05-0.021-0.07
	c-0.038-0.148-0.021-0.299-0.004-0.444l0.002-0.019c0.025-0.222,0.046-0.423,0.057-0.63c0.002-0.032,0.002-0.065,0.003-0.101
	c0.001-0.124,0.004-0.266,0.054-0.38c0.045-0.106,0.129-0.165,0.204-0.216l0.029-0.021c0.107-0.075,0.205-0.169,0.3-0.261
	c0.074-0.07,0.15-0.143,0.231-0.208c0.147-0.119,0.309-0.215,0.465-0.308c0.065-0.039,0.13-0.077,0.193-0.116
	c0.228-0.143,0.435-0.333,0.634-0.517c0.17-0.154,0.346-0.315,0.535-0.449l0.014-0.011c0.094-0.066,0.223-0.157,0.344-0.124
	c0.07,0.02,0.117,0.077,0.158,0.128c0.022,0.028,0.044,0.055,0.068,0.072c0.099,0.078,0.23,0.068,0.357,0.06l0.033-0.003
	c0.197-0.012,0.378-0.022,0.561-0.001l0.055,0.006c0.104,0.013,0.201,0.025,0.299-0.008c0.04-0.014,0.08-0.034,0.123-0.055
	c0.068-0.035,0.141-0.07,0.221-0.079c0.107-0.014,0.196,0.02,0.263,0.097c0.077,0.091,0.12,0.24,0.122,0.419
	c0.111,0.006,0.225,0.014,0.338,0.071c0.017,0.008,0.032,0.017,0.047,0.025c0.055,0.032,0.081,0.045,0.125,0.022
	c0.01-0.006,0.033-0.034,0.049-0.053c0.047-0.055,0.094-0.109,0.149-0.098c0.067,0.015,0.103,0.088,0.128,0.146
	c0.003,0.005,0.006,0.011,0.008,0.016c0-0.002,0.002-0.005,0.002-0.008c0.006-0.123,0.016-0.276,0.119-0.339
	c0.092-0.053,0.159,0.005,0.207,0.048c0.01,0.009,0.021,0.019,0.033,0.028c0.066,0.051,0.123,0.052,0.204,0.051h0.006l0.007-0.021
	c0.024-0.071,0.043-0.124,0.049-0.209c0.006-0.061,0.02-0.117,0.033-0.173c0.011-0.049,0.021-0.093,0.026-0.141
	c0.007-0.069-0.001-0.071-0.079-0.096c-0.047-0.015-0.1-0.022-0.154-0.03c-0.133-0.021-0.285-0.045-0.378-0.156
	c-0.013-0.015-0.018-0.037-0.013-0.058c0.006-0.021,0.02-0.036,0.037-0.04c0.096-0.022,0.188-0.013,0.275-0.001
	c0.045,0.006,0.088,0.011,0.133,0.013c0.09,0.003,0.183-0.006,0.273-0.015c0.075-0.007,0.15-0.013,0.227-0.016
	c0.156-0.001,0.32-0.009,0.49-0.022c0.018-0.001,0.035-0.004,0.053-0.007c0.053-0.008,0.111-0.018,0.167,0.007
	c0.013,0.007,0.023,0.013,0.034,0.02c0.02,0.012,0.031,0.018,0.054,0.018c0.078,0.003,0.165,0.003,0.241-0.011
	c0.098-0.016,0.193-0.018,0.285-0.02c0.035-0.001,0.072-0.002,0.109-0.003c0.045-0.003,0.082-0.027,0.123-0.056
	c0.047-0.029,0.099-0.063,0.166-0.069c0.137-0.012,0.289,0,0.442,0.028c0.066,0.013,0.15,0.035,0.212,0.095
	c0.021,0.021,0.041,0.046,0.059,0.07c0.022,0.029,0.043,0.058,0.066,0.074c0.026,0.019,0.059,0.031,0.092,0.046
	c0.018,0.007,0.035,0.014,0.054,0.022l0.007-0.009c0.102-0.125,0.293-0.357,0.436-0.185c0.062,0.073,0.055,0.168,0.049,0.245
	c-0.006,0.058-0.009,0.108,0.014,0.14c0.025,0.04,0.15,0.077,0.225,0.1c0.041,0.013,0.079,0.023,0.104,0.035
	c0.104,0.045,0.139,0.034,0.229,0.005l0.042-0.012c0.109-0.108,0.217-0.153,0.341-0.206l0.021-0.008
	c0.026-0.011,0.056-0.028,0.086-0.047c0.08-0.049,0.172-0.104,0.264-0.072c0.094,0.032,0.162,0.144,0.225,0.243
	c0.025,0.04,0.048,0.077,0.071,0.106c0.058,0.07,0.123,0.134,0.188,0.195c0.04,0.04,0.083,0.08,0.122,0.123
	c0.033,0.034,0.075,0.073,0.121,0.116c0.191,0.176,0.428,0.395,0.422,0.645c-0.002,0.143-0.046,0.263-0.09,0.379
	c-0.054,0.148-0.105,0.287-0.064,0.464c0.033,0.146,0.078,0.289,0.122,0.428c0.05,0.162,0.103,0.33,0.14,0.504
	c0.028,0.009,0.06,0.021,0.092,0.035c0.055,0.023,0.127,0.055,0.158,0.038c0.012-0.007,0.023-0.013,0.033-0.018
	c0.067-0.04,0.115-0.06,0.211,0.043c0.1,0.107,0.066,0.231,0.041,0.331c-0.018,0.062-0.033,0.121-0.025,0.18
	c0.016,0.112,0.065,0.198,0.119,0.287c0.025,0.044,0.052,0.089,0.074,0.137c0.084,0.177,0.156,0.316,0.235,0.455
	c0.065,0.114,0.087,0.236,0.106,0.354c0.009,0.046,0.018,0.095,0.028,0.143c0.46,0.081,0.723,0.022,0.806-0.49
	c0.013-0.079,0.02-0.162,0.027-0.242c0.01-0.108,0.021-0.22,0.044-0.331l0.017-0.08c0.037-0.162,0.068-0.304,0.021-0.467
	c-0.059-0.207-0.107-0.383-0.141-0.597c-0.026-0.172-0.084-0.318-0.146-0.476c-0.033-0.084-0.067-0.172-0.098-0.265
	c-0.035-0.111-0.04-0.222-0.045-0.328c-0.005-0.084-0.008-0.162-0.025-0.24c-0.029-0.127-0.087-0.251-0.145-0.37
	c-0.039-0.085-0.081-0.173-0.113-0.265c-0.062-0.179-0.129-0.355-0.195-0.532c-0.062-0.165-0.125-0.33-0.184-0.495
	c-0.088-0.248-0.089-0.453-0.082-0.68c-0.01-0.009-0.018-0.022-0.019-0.04c-0.005-0.08,0.007-0.148,0.022-0.213
	c0-0.008,0.001-0.015,0.001-0.022c0-0.019,0.009-0.034,0.02-0.044c0.024-0.067,0.057-0.128,0.089-0.188
	c0.029-0.052,0.059-0.105,0.084-0.163c0.023-0.057,0.045-0.113,0.064-0.168c0.057-0.148,0.113-0.3,0.217-0.437
	c0.119-0.158,0.275-0.25,0.424-0.338l0.078-0.047c0.182-0.108,0.346-0.264,0.505-0.412l0.019-0.017
	c0.107-0.101,0.209-0.213,0.307-0.32c0.154-0.171,0.314-0.348,0.504-0.484c0.159-0.117,0.278-0.223,0.375-0.335
	c0.044-0.053,0.076-0.12,0.109-0.192c0.037-0.076,0.074-0.156,0.129-0.217c0.082-0.092,0.24-0.17,0.355-0.229l0.061-0.029
	c0.074-0.039,0.151-0.044,0.226-0.049c0.046-0.004,0.091-0.007,0.134-0.019c0.062-0.016,0.078-0.038,0.104-0.073
	c0.018-0.025,0.042-0.058,0.084-0.09c0.078-0.061,0.192-0.051,0.293-0.042c0.021,0.003,0.044,0.005,0.064,0.006
	c-0.003-0.14-0.006-0.218-0.086-0.329c-0.016-0.021-0.033-0.041-0.05-0.062c-0.055-0.065-0.111-0.134-0.109-0.224
	c0.001-0.057,0.027-0.113,0.08-0.17c0.069-0.074,0.221-0.19,0.306-0.225c0.016-0.006,0.031-0.01,0.048-0.014
	c-0.13-0.092-0.231-0.212-0.202-0.373c0.029-0.158,0.127-0.26,0.223-0.357c0.091-0.094,0.177-0.181,0.198-0.312
	c0.001-0.001,0.001-0.003,0.001-0.003c0.004-0.02,0.014-0.033,0.025-0.041c-0.012-0.06-0.185-0.123-0.268-0.154
	c-0.057-0.021-0.107-0.039-0.14-0.059l-0.052-0.032c-0.112-0.067-0.24-0.144-0.328-0.251c-0.014-0.016-0.018-0.039-0.012-0.06
	c0.005-0.021,0.02-0.036,0.037-0.039l0.023-0.004c0.092-0.018,0.231-0.042,0.242-0.143c0.008-0.073-0.061-0.167-0.115-0.241
	c-0.02-0.028-0.039-0.054-0.053-0.077c-0.02-0.032-0.039-0.065-0.057-0.1c-0.023-0.042-0.046-0.084-0.072-0.124
	c-0.012-0.018-0.032-0.037-0.053-0.059c-0.039-0.04-0.08-0.082-0.098-0.131c-0.035-0.111,0.003-0.336,0.033-0.517
	c0.012-0.062,0.02-0.116,0.024-0.151c0.002-0.023,0.016-0.043,0.034-0.05c0.019-0.005,0.039,0.001,0.051,0.02
	c0.311,0.479,0.447,0.548,0.477,0.538c0.006-0.004,0.023-0.039,0.018-0.156c-0.008-0.134-0.055-0.24-0.105-0.354
	c-0.023-0.057-0.051-0.116-0.072-0.182c-0.035-0.102-0.038-0.18-0.014-0.243c0.035-0.09,0.123-0.13,0.219-0.166
	c0.031-0.012,0.076-0.038,0.122-0.066c0.108-0.065,0.231-0.142,0.323-0.11c0.084,0.029,0.115,0.092,0.126,0.139
	c0.024,0.107-0.03,0.24-0.095,0.323c-0.125,0.161-0.191,0.347-0.186,0.522c0.004,0.156,0.062,0.298,0.174,0.421
	c0.133,0.149,0.199,0.237,0.115,0.485c-0.061,0.178-0.096,0.324-0.094,0.5c0.106-0.115,0.188-0.231,0.211-0.398l0.008-0.057
	c0.021-0.154,0.038-0.277,0.15-0.418c0.025-0.031,0.055-0.062,0.084-0.092c0.071-0.076,0.139-0.146,0.162-0.246
	c0.021-0.096-0.003-0.207-0.025-0.314c-0.009-0.039-0.017-0.078-0.022-0.116c-0.011-0.065-0.019-0.131-0.026-0.196
	c-0.016-0.113-0.03-0.231-0.056-0.342c-0.011-0.045-0.026-0.094-0.042-0.143c-0.04-0.118-0.086-0.252-0.068-0.381
	c0.025-0.201,0.201-0.312,0.347-0.297c0.142,0.014,0.234,0.133,0.233,0.304c0,0.099-0.021,0.192-0.043,0.282
	c-0.021,0.086-0.039,0.166-0.041,0.247c-0.002,0.125,0.031,0.231,0.074,0.329c0.004-0.008,0.007-0.016,0.01-0.022
	c0.035-0.085,0.072-0.173,0.131-0.253c0.039-0.051,0.082-0.082,0.122-0.113c0.03-0.021,0.058-0.042,0.083-0.068
	c0.008-0.01,0.018-0.012,0.027-0.014c0.126-0.18,0.232-0.361,0.234-0.6c0.001-0.09-0.039-0.191-0.078-0.287
	c-0.05-0.121-0.101-0.246-0.076-0.367c0.004-0.02,0.016-0.035,0.033-0.041c0.067-0.026,0.236-0.033,0.471-0.042
	c0.435-0.017,1.162-0.046,1.305-0.255c0.008-0.014,0.015-0.027,0.018-0.041c-0.098-0.007-0.201,0.016-0.311,0.038
	c-0.096,0.021-0.193,0.042-0.291,0.042c0,0-0.004,0-0.006,0c-0.035,0-0.071,0.001-0.107,0.002c-0.164,0.006-0.336,0.01-0.479-0.068
	c-0.013-0.008-0.023-0.021-0.026-0.038c-0.004-0.017-0.002-0.035,0.008-0.049c0.121-0.204,0.52-0.245,0.781-0.273
	c0.053-0.005,0.098-0.011,0.134-0.016c0.171-0.026,0.353-0.05,0.528-0.042c0.061,0.003,0.123,0.025,0.184,0.046
	c0.061,0.021,0.118,0.042,0.168,0.04c0.177-0.01,0.26-0.418,0.308-0.662c0.009-0.045,0.018-0.085,0.024-0.117
	c0.013-0.055,0.025-0.109,0.039-0.162c0.037-0.15,0.07-0.291,0.092-0.443c0.006-0.041,0.009-0.086,0.012-0.132
	c0.006-0.097,0.012-0.197,0.044-0.284c0.065-0.176,0.267-0.304,0.444-0.416c0.068-0.043,0.133-0.084,0.18-0.123
	c0.102-0.082,0.219-0.145,0.333-0.205c0.141-0.074,0.272-0.145,0.379-0.25c0.049-0.049,0.087-0.146,0.123-0.242
	c0.05-0.13,0.102-0.264,0.194-0.316c0.131-0.074,0.256,0.016,0.365,0.096c0.072,0.053,0.143,0.105,0.199,0.098
	c0.04-0.004,0.08-0.023,0.125-0.044c0.043-0.021,0.09-0.043,0.139-0.051c0.026-0.004,0.051-0.007,0.072-0.011
	c0.094-0.012,0.162-0.021,0.252-0.076l0.062-0.039c0.162-0.1,0.344-0.212,0.528-0.223c-0.04-0.109-0.135-0.232-0.212-0.337
	c-0.033-0.042-0.062-0.081-0.088-0.118c-0.121-0.064-0.229-0.166-0.342-0.329c-0.154-0.226-0.169-0.468-0.174-0.761
	c0-0.053,0.001-0.113,0.004-0.179c0.006-0.26,0.016-0.583-0.127-0.729c-0.111-0.113-0.281-0.108-0.445-0.106
	c-0.09,0.002-0.182,0.005-0.264-0.014c-0.077-0.017-0.138-0.051-0.191-0.081c-0.105-0.06-0.163-0.092-0.275,0.027l-0.068,0.073
	c-0.145,0.153-0.279,0.3-0.414,0.462c-0.092,0.109-0.111,0.23-0.133,0.371c-0.014,0.074-0.023,0.149-0.049,0.229
	c-0.027,0.094-0.082,0.169-0.135,0.242c-0.029,0.039-0.057,0.078-0.079,0.117c-0.03,0.055-0.054,0.117-0.079,0.182
	c-0.027,0.073-0.056,0.149-0.098,0.217c-0.064,0.105-0.175,0.214-0.27,0.263s-0.181,0.019-0.256-0.007
	c-0.031-0.012-0.062-0.021-0.095-0.027c-0.06-0.01-0.079,0-0.086,0.006c-0.017,0.018-0.016,0.092-0.016,0.128
	c0,0.068-0.016,0.122-0.048,0.158c-0.059,0.065-0.148,0.058-0.236,0.05l-0.034-0.004c-0.334-0.025-0.679-0.034-1.022-0.027
	l-0.031,0.001c-0.443,0.009-0.861,0.019-1.297-0.017l-0.019-0.001c-0.2-0.016-0.345-0.026-0.519,0.092
	c-0.135,0.092-0.266,0.194-0.391,0.294c-0.047,0.037-0.094,0.074-0.142,0.109c-0.077,0.061-0.159,0.115-0.237,0.166
	c-0.07,0.045-0.14,0.09-0.207,0.141c-0.017,0.012-0.031,0.026-0.047,0.04c-0.029,0.026-0.062,0.05-0.095,0.067
	c0.073,0.238,0.048,0.457-0.089,0.708c-0.242,0.446-0.637,0.512-0.989,0.517c-0.081,0.002-0.172,0.008-0.269,0.016
	c-0.307,0.022-0.65,0.049-0.9-0.073c-0.018,0.788-0.273,0.954-0.906,1.182c-0.11,0.039-0.245,0.096-0.388,0.155
	c-0.454,0.193-1.027,0.435-1.516,0.435c-0.196,0-0.377-0.038-0.532-0.135c-0.204-0.127-0.346-0.346-0.418-0.649
	c-0.061-0.252,0.082-0.5,0.207-0.719c0.092-0.16,0.18-0.311,0.152-0.408c-0.014-0.053-0.065-0.097-0.152-0.131l-0.035-0.014
	c-0.273-0.109-0.488-0.197-0.5-0.648c-0.01-0.363,0.146-0.703,0.281-0.929c0.057-0.435-0.537-0.631-0.824-0.726
	c-0.222-0.072-0.387-0.045-0.57,0.096c-0.143,0.108-0.146,0.175-0.152,0.336c-0.003,0.044-0.004,0.094-0.011,0.151
	c-0.003,0.029-0.022,0.052-0.047,0.052c-0.003,0-0.006,0-0.009,0c-0.28,0-0.334,0.239-0.402,0.542
	c-0.051,0.221-0.102,0.448-0.252,0.601c-0.238,0.24-0.82,0.778-1.109,0.604c-0.389-0.237-0.17-1.062-0.077-1.414
	c0.128-0.482,0.359-0.652,0.626-0.848c0.084-0.062,0.17-0.125,0.262-0.203c0.104-0.089,0.193-0.178,0.281-0.264
	c0.237-0.234,0.443-0.438,0.818-0.516c-0.012-0.057-0.035-0.103-0.07-0.141c-0.17-0.179-0.59-0.138-0.867-0.111
	c-0.09,0.008-0.166,0.016-0.225,0.016c-0.041,0-0.084,0.002-0.128,0.004c-0.161,0.009-0.345,0.02-0.493-0.084
	c-0.074-0.051-0.155-0.157-0.24-0.269c-0.1-0.13-0.201-0.263-0.289-0.304c-0.164-0.076-0.479,0.162-0.733,0.354
	c-0.125,0.095-0.243,0.184-0.331,0.227c-0.184,0.088-0.275,0.213-0.363,0.334c-0.12,0.162-0.233,0.316-0.535,0.287
	c-0.164-0.015-0.389-0.119-0.588-0.212c-0.108-0.051-0.211-0.098-0.291-0.125c-0.056-0.02-0.127-0.028-0.201-0.038
	c-0.144-0.018-0.292-0.035-0.387-0.131c-0.01-0.011-0.016-0.026-0.018-0.043c0-0.016,0.006-0.031,0.016-0.044
	c0.219-0.255,0.516-0.403,0.803-0.549c0.132-0.067,0.256-0.13,0.373-0.201c0.09-0.057,0.184-0.107,0.277-0.158
	c0.124-0.068,0.242-0.133,0.354-0.208c0.075-0.053,0.135-0.125,0.197-0.202c0.041-0.052,0.084-0.104,0.133-0.149
	c-0.025,0-0.051,0.001-0.078,0.003c-0.028,0.003-0.059,0.003-0.086,0.004c-0.057-0.001-0.108-0.011-0.16-0.022
	c-0.037-0.008-0.076-0.016-0.115-0.019l-0.012-0.001c-0.094-0.008-0.115-0.014-0.188-0.096c-0.039-0.045-0.094-0.082-0.16-0.113
	c-0.051-0.023-0.053-0.024-0.102,0.045l-0.014,0.019c-0.021,0.03-0.047,0.058-0.072,0.085c-0.029,0.031-0.058,0.062-0.078,0.096
	c-0.008,0.014-0.02,0.021-0.033,0.023c-0.015,0.002-0.028-0.004-0.038-0.016c-0.079-0.09-0.209-0.207-0.33-0.259
	c-0.054-0.022-0.095,0.005-0.163,0.057c-0.027,0.021-0.055,0.04-0.084,0.058c-0.01,0.005-0.02,0.013-0.031,0.021
	c-0.037,0.026-0.078,0.056-0.117,0.056c-0.002,0-0.004,0-0.004,0c-0.059-0.004-0.121-0.058-0.18-0.11
	c-0.022-0.021-0.043-0.038-0.061-0.051c-0.111-0.075-0.229-0.118-0.354-0.163c-0.054-0.019-0.107-0.038-0.161-0.061
	c-0.237-0.099-0.489-0.195-0.739-0.198c-0.077,0.001-0.119,0.023-0.176,0.056c-0.027,0.016-0.058,0.033-0.093,0.048
	c-0.146,0.062-0.249,0.007-0.369-0.057c-0.122-0.063-0.213-0.092-0.31-0.095c-0.014-0.001-0.027-0.001-0.04,0
	c-0.054,0-0.102,0-0.161-0.035c-0.158-0.094-0.219-0.27-0.277-0.439c-0.028-0.08-0.057-0.162-0.095-0.231
	c-0.028-0.052-0.069-0.067-0.12-0.087c-0.016-0.006-0.032-0.012-0.049-0.02c0.004,0.021,0.008,0.043,0.012,0.064
	c0.008,0.038,0.014,0.077,0.019,0.118c0.01,0.088,0.001,0.149-0.028,0.193c-0.041,0.065-0.113,0.075-0.197,0.086l-0.014,0.002
	c-0.078,0.011-0.157,0.015-0.236,0.021c-0.069,0.004-0.138,0.009-0.207,0.018c-0.212,0.024-0.427,0.023-0.635,0.021l-0.351-0.002
	c-0.253,0-0.506,0-0.758,0.002c-0.165,0-0.33,0.007-0.496,0.014c-0.202,0.008-0.412,0.018-0.617,0.014
	c-0.177-0.002-0.354-0.014-0.527-0.023c-0.211-0.012-0.432-0.023-0.646-0.023c-0.243,0.001-0.483,0.004-0.727,0.01
	c-0.483,0.012-0.971-0.012-1.442-0.035c-0.197-0.01-0.394-0.019-0.591-0.025c-0.202-0.008-0.407,0.007-0.605,0.021
	c-0.182,0.012-0.369,0.025-0.556,0.021c-0.052-0.001-0.103-0.004-0.152-0.006c-0.114-0.004-0.22-0.01-0.335,0.003
	s-0.232,0.013-0.345,0.015c-0.073,0-0.147,0-0.22,0.004c-0.202,0.011-0.407,0.006-0.604,0.004c-0.208-0.004-0.422-0.008-0.632,0.004
	c-0.529,0.03-1.063,0.005-1.58-0.021c-0.349-0.018-0.708-0.034-1.062-0.034c-0.006,0-0.014,0-0.02,0
	c-0.054,0-0.108-0.002-0.163-0.004c-0.152-0.002-0.31-0.008-0.457,0.021c-0.116,0.022-0.202,0.021-0.318-0.009
	c-0.067-0.018-0.133-0.01-0.205-0.002c-0.021,0.003-0.042,0.005-0.063,0.006c-0.202,0.018-0.407,0.018-0.602,0.018h-0.136
	c-0.505,0-1.022,0-1.534,0.018c-0.387,0.015-0.78-0.001-1.161-0.016c-0.231-0.01-0.47-0.02-0.705-0.021
	c-0.382-0.005-0.769,0.004-1.143,0.014c-0.295,0.007-0.591,0.014-0.886,0.015c-0.38,0.002-0.754-0.004-1.071-0.009
	c-0.133-0.002-0.267-0.012-0.395-0.02c-0.185-0.013-0.374-0.025-0.564-0.018l-0.072,0.003c-0.174,0.008-0.355,0.013-0.532,0.015
	c-0.019,0-0.031-0.016-0.039-0.035c-0.029-0.006-0.058-0.012-0.085-0.02c-0.091-0.023-0.175-0.047-0.269-0.042
	c-0.035,0.001-0.07,0.004-0.105,0.006c-0.016,0.001-0.032,0-0.048,0.001c0.012,0.01,0.023,0.021,0.036,0.029
	c0.118,0.074,0.183,0.19,0.246,0.303c0.026,0.047,0.053,0.096,0.085,0.142c0.013,0.019,0.029,0.036,0.045,0.054
	c0.045,0.048,0.102,0.107,0.101,0.201c-0.001,0.053-0.019,0.102-0.049,0.136c-0.015,0.017-0.033,0.028-0.052,0.036
	c0,0.014,0.002,0.027,0.005,0.039c0.012,0.068,0.044,0.129,0.079,0.192c0.048,0.089,0.099,0.181,0.099,0.306
	c0,0.195-0.09,0.412-0.263,0.451c-0.161,0.035-0.287-0.066-0.341-0.271c-0.036-0.139-0.038-0.281-0.035-0.402
	c0-0.024,0.003-0.053,0.005-0.082c0.005-0.069,0.011-0.148-0.008-0.198c-0.037-0.097-0.241-0.1-0.352-0.102
	c-0.032-0.001-0.06-0.001-0.082-0.003c-0.08-0.008-0.161-0.017-0.242-0.026c-0.197-0.023-0.401-0.048-0.593-0.034
	c-0.092,0.007-0.241,0.055-0.264,0.115c-0.002,0.007-0.008,0.021,0.013,0.057c0.024,0.041,0.064,0.077,0.103,0.111
	c0.026,0.024,0.052,0.048,0.074,0.072c0.068,0.078,0.133,0.163,0.194,0.246l0.014,0.017c0.068,0.092,0.137,0.184,0.172,0.304
	c0.026,0.089,0.026,0.176,0.026,0.26c0,0.022,0,0.045,0,0.068c0.004,0.161,0.107,0.238,0.345,0.257
	c0.016,0.001,0.03,0.011,0.038,0.026s0.01,0.034,0.004,0.052c-0.035,0.112-0.098,0.177-0.16,0.239
	c-0.058,0.059-0.111,0.113-0.141,0.21c-0.047,0.151-0.029,0.314-0.011,0.487c0.013,0.123,0.026,0.25,0.017,0.374
	c-0.021,0.241-0.014,0.501-0.009,0.752C7.293,72.746,7.309,73.4,6.936,73.9l-0.015,0.02c-0.07,0.093-0.117,0.154-0.105,0.268
	c0.003,0.031,0.004,0.061,0.004,0.088c0,0.053,0.001,0.09,0.02,0.129c0.108,0.227,0.187,0.439,0.219,0.742
	c0.014,0.127,0.019,0.255,0.024,0.379c0.004,0.096,0.008,0.193,0.016,0.29c0.004,0.05,0.011,0.097,0.017,0.143
	c0.023,0.169,0.046,0.343-0.078,0.505c0.062,0.072,0.105,0.16,0.148,0.246c0.03,0.062,0.059,0.118,0.092,0.17
	c0.027,0.041,0.06,0.074,0.095,0.109c0.074,0.075,0.157,0.159,0.164,0.318c0.003,0.071-0.011,0.133-0.023,0.191
	c-0.015,0.066-0.028,0.123-0.016,0.189c0.016,0.088,0.049,0.172,0.084,0.262c0.028,0.068,0.056,0.141,0.075,0.215
	c0.012,0.045,0.021,0.088,0.031,0.131c0.033,0.141,0.061,0.264,0.149,0.369c0.067,0.078,0.143,0.15,0.214,0.22
	c0.045,0.044,0.09,0.086,0.133,0.131c0.02,0.021,0.037,0.04,0.054,0.061c0.05,0.056,0.091,0.104,0.152,0.125
	c0.155,0.055,0.343,0.04,0.526,0.025c0.125-0.011,0.253-0.021,0.372-0.009c0.02,0.002,0.04,0.004,0.061,0.005
	c0.087,0.005,0.178,0.009,0.224,0.083c0.026,0.04,0.032,0.094,0.021,0.159c-0.017,0.088-0.069,0.182-0.116,0.265
	c-0.016,0.029-0.031,0.055-0.043,0.08c-0.139,0.279-0.212,0.481-0.224,0.815c-0.005,0.122-0.003,0.432,0.111,0.631
	c0.145,0.25,0.323,0.468,0.563,0.685c0.025,0.021,0.052,0.044,0.08,0.064c0.076,0.06,0.154,0.122,0.206,0.214
	c0.044,0.079,0.048,0.166,0.052,0.244c0.002,0.059,0.005,0.115,0.025,0.156c0.057,0.119,0.185,0.141,0.308,0.16
	c0.038,0.006,0.075,0.012,0.11,0.021l0.096,0.023c0.154,0.038,0.314,0.077,0.462,0.151c0.076,0.038,0.155,0.073,0.234,0.106
	c0.131,0.057,0.267,0.114,0.39,0.193c0.063,0.042,0.126,0.067,0.188,0.093c0.117,0.048,0.237,0.096,0.335,0.247
	c0.071,0.107,0.157,0.195,0.248,0.287c0.074,0.076,0.151,0.153,0.218,0.244c0.07,0.093,0.138,0.162,0.229,0.232
	c0.023,0.019,0.052,0.036,0.082,0.056c0.084,0.056,0.183,0.122,0.233,0.221c0.01-0.01,0.023-0.015,0.037-0.011
	c0.022,0.004,0.035,0.027,0.036,0.053L13.477,84.7z"/>
<g>
	<g>
		<path fill="#B4B4B5" d="M11.834,72.666c-0.1,0.786-0.033,1.545,0,2.334c0.014,0.336,0.431,0.679,0.752,0.432
			c1.442-1.111,2.382-2.58,3.601-3.912c-0.278-0.073-0.557-0.147-0.835-0.221c0.483,2.077-0.892,4.146-1.5,6.068
			c-0.127,0.401,0.372,0.816,0.734,0.564c2.135-1.485,3.37-3.852,5.5-5.334c-0.251-0.144-0.501-0.288-0.752-0.432
			c-0.018,3.462-2.002,6.415-2.815,9.701c-0.137,0.552,0.616,0.874,0.914,0.385c2.229-3.661,4.092-7.587,7.255-10.565
			c-0.285-0.118-0.569-0.235-0.854-0.354c-0.017,3.891-2.18,7.298-2.982,11.034c-0.109,0.508,0.452,0.808,0.835,0.486
			c2.062-1.725,3.123-4.489,5.565-5.756c-0.245-0.1-0.49-0.199-0.734-0.299c0.225,1.42,0.135,2.678-0.167,4.068
			c-0.1,0.459,0.481,0.883,0.835,0.486c2.321-2.599,4.031-5.63,6.078-8.436c-0.305-0.128-0.609-0.257-0.914-0.385
			c-0.747,3.106-1.9,6.077-2.018,9.3c-0.015,0.414,0.572,0.692,0.854,0.354c1.687-2.029,2.637-4.516,4.245-6.602
			c-0.311-0.084-0.621-0.168-0.932-0.252c0.2,2.64-0.732,5.125-1.148,7.7c-0.071,0.438,0.479,0.913,0.835,0.486
			c1.217-1.455,2.292-3.018,3.667-4.333c-0.278-0.073-0.557-0.147-0.835-0.221c0.24,1.174,0.206,2.349,0.315,3.534
			c0.04,0.427,0.518,0.672,0.854,0.354c0.947-0.896,1.72-1.938,2.667-2.834c-0.278-0.073-0.557-0.147-0.835-0.221
			c0.236,1.276,0.239,2.564,0.5,3.834c0.064,0.315,0.471,0.46,0.734,0.299c0.655-0.4,1.173-0.827,1.721-1.374
			c0.641-0.64,0.088-1.398,0.673-0.704c0.416,0.494,1.12-0.217,0.707-0.707c-0.031-0.046-0.062-0.092-0.094-0.138
			c-0.068-0.197-0.253-0.387-0.482-0.367c-1.177,0.104-2.02,1.809-3.03,2.427c0.245,0.1,0.49,0.199,0.734,0.299
			c-0.261-1.269-0.264-2.562-0.5-3.834c-0.071-0.387-0.583-0.46-0.835-0.221c-0.947,0.896-1.72,1.938-2.667,2.834
			c0.285,0.118,0.569,0.235,0.854,0.354c-0.119-1.277-0.094-2.54-0.352-3.8c-0.078-0.382-0.58-0.466-0.835-0.221
			c-1.376,1.317-2.448,2.876-3.667,4.333c0.278,0.162,0.557,0.324,0.835,0.486c0.431-2.668,1.391-5.231,1.185-7.966
			c-0.04-0.525-0.63-0.645-0.932-0.252c-1.555,2.018-2.458,4.437-4.088,6.398c0.285,0.118,0.569,0.235,0.854,0.354
			c0.115-3.133,1.257-6.019,1.982-9.034c0.139-0.578-0.588-0.832-0.914-0.385c-1.997,2.735-3.657,5.697-5.922,8.232
			c0.278,0.162,0.557,0.324,0.835,0.486c0.341-1.576,0.42-3.006,0.167-4.6c-0.053-0.336-0.475-0.434-0.734-0.299
			c-2.542,1.318-3.632,4.126-5.768,5.912c0.278,0.162,0.557,0.324,0.835,0.486c0.823-3.834,3-7.305,3.018-11.3
			c0.002-0.446-0.541-0.647-0.854-0.354c-3.225,3.037-5.138,7.033-7.412,10.769c0.305,0.128,0.609,0.257,0.914,0.385
			c0.838-3.385,2.833-6.399,2.852-9.967c0.002-0.357-0.435-0.652-0.752-0.432c-2.135,1.485-3.37,3.852-5.5,5.334
			c0.245,0.188,0.49,0.376,0.734,0.564c0.686-2.167,2.045-4.26,1.5-6.6c-0.083-0.359-0.586-0.494-0.835-0.221
			c-1.148,1.255-2.035,2.705-3.399,3.756c0.251,0.144,0.501,0.288,0.752,0.432c-0.033-0.789-0.1-1.548,0-2.334
			C12.915,72.027,11.914,72.035,11.834,72.666L11.834,72.666z"/>
	</g>
</g>
</svg>
