<?xml version="1.0" encoding="utf-8"?>
<!-- Generator: Adobe Illustrator 16.0.4, SVG Export Plug-In . SVG Version: 6.00 Build 0)  -->
<!DOCTYPE svg PUBLIC "-//W3C//DTD SVG 1.1//EN" "http://www.w3.org/Graphics/SVG/1.1/DTD/svg11.dtd">
<svg version="1.1" id="Layer_1" xmlns="http://www.w3.org/2000/svg" xmlns:xlink="http://www.w3.org/1999/xlink" x="0px" y="0px"
	 width="60px" height="120px" viewBox="0 0 60 120" enable-background="new 0 0 60 120" xml:space="preserve">
<path fill="none" stroke="#B5B5B5" stroke-miterlimit="10" d="M23.13,20.806l0.153-0.09c0.385-0.224,0.781-0.273,1.166-0.322
	c0.15-0.019,0.303-0.037,0.455-0.067c0.082-0.017,0.173,0.056,0.188,0.164c0.057,0.396-0.089,0.797-0.218,1.15
	c-0.1,0.278,0.039,0.871,0.255,0.911c0.159,0.029,0.323,0.07,0.48,0.108c0.267,0.065,1.882-0.002,2.077-0.014
	c0.482-0.025,1.744-1.076,1.958-1.125c0.372-0.089,0.497,0.132,0.539,0.254c0.111,0.319-0.182,2.205-0.125,2.433
	c0.078,0.321,0.562,0.97,0.78,0.97c0.243,0,0.504-0.061,0.715-0.108c0,0,0.039-0.01,0.043-0.01c0.051-0.016-0.029,0.794-0.156,1.04
	c-0.08,0.156-0.307,0.692-0.348,0.813c-0.123,0.376-0.265,0.804-0.572,0.994c-0.295,0.177-4.17-0.418-4.22-0.294
	c-0.005,0.016-0.218,1.643-0.23,1.819c0.019,0.021,1.873,1.438,1.806,2.132c-0.011,0.095-0.075,0.169-0.156,0.174
	c-0.359,0.023-2.892,1.752-2.738,1.842c0.143,0.084,2.217-0.413,2.417-0.336c0.192,0.073,5.07,0.128,5.138,0.059
	c0,0,0.474,0.041,0.254,0.263c-0.047,0.095-0.105,0.2-0.189,0.29c-0.129,0.136-0.273,0.217-0.402,0.287
	c-0.026,0.03-0.049,0.058-0.064,0.083c-0.123,0.189-1.91,1.398-2.362,1.35c-0.236-0.025-0.457-0.05-0.672-0.05
	c-0.141,0-0.317-0.018-0.509-0.038c-0.22-0.022-2.347,1.397-2.657,1.682c-0.1,0.091-0.201,0.178-0.307,0.266
	c-0.218,0.186-2.602,2.048-2.478,2.069c0.255,0.046,1.161-0.076,1.375-0.164c0.265-0.105,4.868-0.406,5.21-0.503
	c0-0.083,0-0.172-0.003-0.26c-0.008-0.626,2.141-1.45,2.924-0.969c0.304,0.187,5.889-0.578,6.189-0.595
	c0.147-0.009,0.295-0.016,0.443-0.028c0.102-0.007,1.072-0.187,1.091-0.195c0.351-0.191,2.276-0.427,2.466-0.468
	c0.649-0.144,1.467-0.851,1.907-1.466c-0.121-0.193-0.299-0.271-0.601-0.271c-0.106,0-0.223,0.009-0.338,0.018
	c-0.17,0.012-0.342,0.024-0.513,0.018c-0.079-0.007-0.144-0.082-0.151-0.177c-0.06-0.674,0.252-0.973,0.506-1.212
	c0.066-0.066,0.145-0.181,0.22-0.29c0.103-0.148,0.205-0.3,0.319-0.396c0.101-0.252,0.256-0.424,0.404-0.588
	c0.086-0.098,0.168-0.19,0.238-0.298c0.198-0.309,0.211-0.613,0.229-1.033l0.009-0.254c0.024-0.497,0.024-0.745-0.269-0.907
	c-0.188-0.105-2.033-0.66-2.255-0.66c-0.292,0-0.561,0.147-1.041,0.565c-0.218,0.191-0.456,0.366-0.718,0.366
	c-0.139,0-0.271-0.048-0.396-0.142c-0.189-0.146-0.311-0.347-0.34-0.582c-0.035-0.241,0.027-0.494,0.174-0.711
	c0.1-0.148,0.237-0.246,0.371-0.342c0.238-0.169,0.053-0.987-0.176-1.26c-0.189-0.227-0.367-0.441-0.462-0.653
	c-0.096-0.215-0.149-0.455-0.204-0.688c-0.07-0.31-2.519-2.763-2.688-2.771c-0.311-0.015-0.627-0.029-0.945-0.226
	c-0.566-0.351-0.745-1.016-0.92-1.66c-0.124-0.452-0.238-0.878-0.479-1.199c-0.285-0.377-0.644-0.487-1.119-0.604
	c-0.234-0.058-0.473-0.154-0.703-0.249c-0.271-0.113-1.678,0.056-1.85,0.096c-0.342,0.078-0.764,0.012-1.143-0.062
	c-0.121-0.024-0.492-0.146-0.5-0.234c-0.029-0.232,0.051-1.224,0.258-1.462c0.082-0.098,0.848-0.072,1.055-0.012
	c0.101,0.027,1.252,0.059,1.426-0.08c0.093-0.072,0.822-0.913,0.832-1.181c0.008-0.158,0.271-0.99,0.453-1.193
	c0.119-0.129,0.896-1.696,0.98-1.791c0.078-0.09-1.738-0.636-2.417-0.619c-0.597,0.017-1.19,0.03-1.786,0.001
	c-0.328-0.015-2.177-0.129-2.266-0.051c-0.046,0.042-0.106,0.05-0.158,0.023c-0.053-0.027-0.092-0.084-0.1-0.152
	c-0.127-0.966,1.497-1.831,1.905-1.993c0.157-0.062,2.036-1.698,2.112-1.698c0.142-0.021,0.356-0.375,0.351-0.6
	c-0.004-0.128-0.026-0.175-0.164-0.175c-0.086,0-1.312,0.213-1.428,0.23c-0.288,0.043-1.758,1.215-2.372,1.246
	c-0.275,0.016-2.59-0.276-2.665-0.276c-0.193,0-0.295,0.53-0.314,0.609c-0.039,0.145-0.233,0.565-0.255,0.616
	c-0.157,0.373-0.325,0.734-0.635,1.046c-0.054,0.053,0.338,1.778,0.338,1.778c0.282,0.786-0.803,1.448-0.861,1.51
	c-0.084,0.084-1.443,1.14-1.637,1.173c-0.045,0.006-0.088,0.013-0.135,0.023c-0.195,0.044-0.32,0.111-0.363,0.198
	c-0.07,0.132,1.599,0.625,1.963,0.759c0.12,0.044,0.234,0.092,0.341,0.138c0.404,0.173,1.274,0.128,1.317,0.164
	c0.039,0.036,0.066,0.093,0.066,0.154c0.011,0.441-0.037,0.789-0.142,1.031c-0.024,0.053-0.065,0.091-0.113,0.102
	c-0.193,0.046-0.415-0.01-0.594-0.062c-0.21-0.066-0.379-0.107-0.506,0.028c-0.051,0.059-1.056,2.246-1.163,2.451
	c-0.054,0.105-0.113,0.211-0.159,0.326c-0.137,0.343-0.115,0.437-0.115,0.441C22.605,21.122,22.92,20.932,23.13,20.806z"/>
<path fill="none" stroke="#B5B5B5" stroke-miterlimit="10" d="M18.036,12.324c0,0,0.157,0.075,0.167,0.174
	c0.029,0.255-0.028,0.507-0.083,0.753c-0.052,0.234-0.103,0.456-0.081,0.674c0.011,0.091-0.035,0.177-0.104,0.21
	c-0.097,0.043-0.15,0.113-0.15,0.196c0.002,0.067,0.039,0.13,0.089,0.151c0.088,0.036,0.209-0.047,0.327-0.223
	c0.127-0.192,0.274-0.447,0.293-0.731c0.009-0.112-0.013-0.224-0.035-0.342c-0.032-0.163-0.066-0.345-0.033-0.553
	c0.012-0.074,0.061-0.135,0.121-0.153c0.071-0.023,0.118-0.061,0.179-0.114c0.035-0.029,0.072-0.06,0.114-0.09
	c0.01-0.105-0.028-0.136-0.053-0.156c-0.204-0.174-1.102,0.091-1.094,0.1C17.738,12.29,17.856,12.329,18.036,12.324z"/>
<path fill="none" stroke="#B5B5B5" stroke-miterlimit="10" d="M20.941,9.624c-0.456,0.577-2.074,0.606-2.091,0.644
	c-0.044,0.116,0.014,0.206,0.221,0.418c0.153,0.159,0.312,0.321,0.309,0.562c0,0.043-0.005,0.086-0.016,0.128
	c0.164-0.015,0.341-0.127,0.521-0.246c0.161-0.104,0.329-0.21,0.497-0.252l0.08-0.018c0.51-0.12,0.51-0.12,0.542-0.785
	c0.005-0.084,0.052-0.156,0.116-0.181c0.261-0.091,0.554-0.28,0.621-0.486c0.017-0.053,0.032-0.137-0.032-0.27
	c-0.043-0.085-0.084-0.131-0.127-0.136c-0.169-0.022-0.419,0.322-0.559,0.509L20.941,9.624z"/>
<path fill="none" stroke="#B5B5B5" stroke-miterlimit="10" d="M19.467,16.158c-0.314,0.057-0.425,0.154-0.438,0.183
	c0.004,0.033,0,0.063-0.011,0.091c0.172,0.121,0.684,0.138,1.116-0.027c0.192-0.073,0.277-0.149,0.309-0.192
	C20.312,16.136,19.889,16.083,19.467,16.158z"/>
<path fill="none" stroke="#B5B5B5" stroke-miterlimit="10" d="M21.144,14.078c-0.019,0.068-0.04,0.129-0.057,0.188
	c-0.067,0.204-0.094,0.313-0.064,0.401c0.072,0.018,0.169,0.037,0.264,0.037c0.153,0,0.239-0.042,0.261-0.126
	c-0.011-0.025-0.105-0.125-0.161-0.183C21.297,14.3,21.202,14.199,21.144,14.078z"/>
<path fill="none" stroke="#B5B5B5" stroke-miterlimit="10" d="M35.889,7.713c0.014-0.095,0.023-0.202,0.034-0.311
	c0.032-0.332,0.063-0.675,0.192-0.924c0.148-0.292,0.299-0.325,0.477-0.359c0.02-0.005,0.04-0.01,0.061-0.014
	c0.009-0.189,0.063-0.371,0.117-0.55c0.055-0.181,0.103-0.351,0.104-0.52c0.003-0.064,0.028-0.123,0.069-0.159
	c0.045-0.037,0.099-0.045,0.146-0.025c0.196,0.073,0.679-0.119,0.781-0.361c0.063-0.156,0.032-0.25-0.032-0.417
	c-0.056-0.143-0.133-0.335-0.056-0.558c-0.345-0.039-0.841-0.074-1.013,0.127c-0.029,0.035-0.067,0.093-0.062,0.227
	c0.003,0.072,0.021,0.12,0.042,0.181c0.047,0.128,0.11,0.302-0.019,0.594c-0.106,0.251-0.318,0.411-0.568,0.443
	c-0.089,0.242-0.141,0.481-0.196,0.751c-0.04,0.192-0.083,0.39-0.143,0.599l-0.019,0.075c-0.101,0.35-0.225,0.788-0.107,1.025
	C35.732,7.612,35.798,7.671,35.889,7.713z"/>
<path fill="none" stroke="#B5B5B5" stroke-miterlimit="10" d="M20.04,12.796c0.077,0.139,0.161,0.139,0.247,0.139l0.178-0.006
	c0.187,0,0.686,0.534,0.7,0.597c0.026-0.04,0.365-0.727,0.411-0.894c0.024-0.085,0.07-0.244,0.053-0.278
	c-0.059-0.067-0.403-0.166-0.646-0.184C20.872,12.656,20.39,12.763,20.04,12.796z"/>
<path fill="none" stroke="#B5B5B5" stroke-miterlimit="10" d="M26.936,24.613c0.325-0.152,0.387-0.315,0.379-0.819
	c-0.163-0.012-0.301-0.001-0.433,0.083c-0.049,0.03-0.468,0.396-0.479,0.408c-0.116,0.137-0.696,0.502-0.749,0.674
	c-0.041,0.14-0.033,0.345,0.018,0.398c0.014,0.016,0.122-0.074,0.203-0.128C26.189,25.021,26.529,24.801,26.936,24.613z"/>
<path fill="none" stroke="#B5B5B5" stroke-miterlimit="10" d="M16.221,24.115c0.166,0.078,0.34,0.161,0.492,0.31
	c0.071,0.07,0.119,0.127,0.16,0.179c0.075,0.091,0.111,0.135,0.297,0.216c0.096,0.041,0.189,0.088,0.285,0.135
	c0.115,0.057,0.234,0.117,0.355,0.164c0.521,0.199,1.183,0.179,1.672,0.167c0.174-0.005,0.342-0.015,0.508-0.023
	c0.247-0.013,0.489-0.027,0.732-0.027c0.283,0,0.908,0.051,0.932,0.051h0.003c0.048,0,0.088,0.027,0.118,0.065l0.002,0.001
	c0.178,0.043,0.363,0.092,0.471-0.021c0.064-0.067,0.078-0.171,0.094-0.335c0.014-0.118,0.588-0.541,0.749-0.828
	c0.068-0.121,0.146-0.258,0.248-0.37c0.118-0.128,0.388-0.348,0.347-0.45c-0.088-0.229-0.306-0.506-0.494-0.75
	c-0.067-0.083-0.126-0.161-0.18-0.233c-0.206-0.278-0.264-0.286-0.463-0.311c-0.083-0.01-0.183-0.022-0.312-0.055
	c-0.532-0.13-0.483-0.843-0.486-0.843c0,0-0.185,0.021-0.245,0.029c-0.22,0.031-0.859-0.152-0.919-0.222
	c-0.046-0.052-4.668,0.285-4.878,0.257c-0.2-0.028-0.504-0.07-0.564,0.032c-0.068,0.119-0.064,0.243-0.054,0.434
	c0.018,0.286-0.298,1.084-0.121,1.117C14.97,22.803,15.956,23.989,16.221,24.115z"/>
<path fill="none" stroke="#B5B5B5" stroke-miterlimit="10" d="M23.13,79.307l0.153-0.091c0.385-0.224,0.781-0.272,1.166-0.321
	c0.15-0.02,0.303-0.037,0.455-0.067c0.082-0.017,0.173,0.057,0.188,0.164c0.057,0.396-0.089,0.797-0.218,1.149
	c-0.1,0.277,0.039,0.871,0.255,0.911c0.159,0.029,0.323,0.069,0.48,0.108c0.267,0.064,1.882-0.003,2.077-0.016
	c0.482-0.023,1.744-1.076,1.958-1.123c0.372-0.09,0.497,0.131,0.539,0.254c0.111,0.318-0.182,2.205-0.125,2.434
	c0.078,0.32,0.562,0.971,0.78,0.971c0.243,0,0.504-0.062,0.715-0.109c0,0,0.039-0.01,0.043-0.01
	c0.051-0.016-0.029,0.795-0.156,1.039c-0.08,0.156-0.307,0.693-0.348,0.813c-0.123,0.376-0.265,0.804-0.572,0.994
	c-0.295,0.177-4.17-0.418-4.22-0.294c-0.005,0.016-0.218,1.643-0.23,1.818c0.019,0.021,1.873,1.438,1.806,2.133
	c-0.011,0.095-0.075,0.168-0.156,0.174c-0.359,0.021-2.892,1.752-2.738,1.842c0.143,0.084,2.217-0.412,2.417-0.336
	c0.192,0.072,5.07,0.128,5.138,0.059c0,0,0.474,0.041,0.254,0.264c-0.047,0.095-0.105,0.199-0.189,0.289
	c-0.129,0.137-0.273,0.218-0.402,0.287c-0.026,0.029-0.049,0.059-0.064,0.082c-0.123,0.189-1.91,1.398-2.362,1.352
	c-0.236-0.025-0.457-0.051-0.672-0.051c-0.141,0-0.317-0.018-0.509-0.036c-0.22-0.022-2.347,1.396-2.657,1.682
	c-0.1,0.091-0.201,0.179-0.307,0.267c-0.218,0.186-2.602,2.047-2.478,2.068c0.255,0.047,1.161-0.076,1.375-0.163
	c0.265-0.104,4.868-0.405,5.21-0.504c0-0.082,0-0.172-0.003-0.26c-0.008-0.627,2.141-1.45,2.924-0.97
	c0.304,0.188,5.889-0.577,6.189-0.596c0.147-0.01,0.295-0.016,0.443-0.027c0.102-0.008,1.072-0.188,1.091-0.194
	c0.351-0.19,2.276-0.428,2.466-0.469c0.649-0.144,1.467-0.851,1.907-1.466c-0.121-0.192-0.299-0.271-0.601-0.271
	c-0.106,0-0.223,0.009-0.338,0.019c-0.17,0.012-0.342,0.022-0.513,0.018c-0.079-0.007-0.144-0.082-0.151-0.178
	c-0.06-0.674,0.252-0.973,0.506-1.213c0.066-0.064,0.145-0.181,0.22-0.289c0.103-0.148,0.205-0.301,0.319-0.396
	c0.101-0.252,0.256-0.424,0.404-0.588c0.086-0.098,0.168-0.189,0.238-0.298c0.198-0.31,0.211-0.612,0.229-1.032l0.009-0.254
	c0.024-0.498,0.024-0.745-0.269-0.908c-0.188-0.105-2.033-0.66-2.255-0.66c-0.292,0-0.561,0.148-1.041,0.565
	c-0.218,0.19-0.456,0.366-0.718,0.366c-0.139,0-0.271-0.049-0.396-0.143c-0.189-0.146-0.311-0.347-0.34-0.582
	c-0.035-0.24,0.027-0.494,0.174-0.711c0.1-0.148,0.237-0.246,0.371-0.343c0.238-0.168,0.053-0.985-0.176-1.26
	c-0.189-0.228-0.367-0.441-0.462-0.653c-0.096-0.215-0.149-0.454-0.204-0.688c-0.07-0.311-2.519-2.762-2.688-2.771
	c-0.311-0.014-0.627-0.029-0.945-0.225c-0.566-0.352-0.745-1.016-0.92-1.66c-0.124-0.451-0.238-0.879-0.479-1.199
	c-0.285-0.377-0.644-0.486-1.119-0.604c-0.234-0.058-0.473-0.154-0.703-0.248c-0.271-0.113-1.678,0.056-1.85,0.096
	c-0.342,0.077-0.764,0.012-1.143-0.062c-0.121-0.022-0.492-0.146-0.5-0.232c-0.029-0.232,0.051-1.225,0.258-1.462
	c0.082-0.099,0.848-0.072,1.055-0.013c0.101,0.027,1.252,0.06,1.426-0.08c0.093-0.071,0.822-0.914,0.832-1.182
	c0.008-0.158,0.271-0.99,0.453-1.193c0.119-0.129,0.896-1.694,0.98-1.789c0.078-0.09-1.738-0.637-2.417-0.619
	c-0.597,0.017-1.19,0.029-1.786,0.001c-0.328-0.015-2.177-0.13-2.266-0.052c-0.046,0.041-0.106,0.052-0.158,0.023
	c-0.053-0.027-0.092-0.084-0.1-0.152c-0.127-0.965,1.497-1.83,1.905-1.992c0.157-0.062,2.036-1.698,2.112-1.698
	c0.142-0.021,0.356-0.375,0.351-0.601c-0.004-0.127-0.026-0.174-0.164-0.174c-0.086,0-1.312,0.213-1.428,0.229
	c-0.288,0.043-1.758,1.215-2.372,1.246c-0.275,0.016-2.59-0.276-2.665-0.276c-0.193,0-0.295,0.53-0.314,0.608
	c-0.039,0.145-0.233,0.564-0.255,0.617c-0.157,0.373-0.325,0.733-0.635,1.045c-0.054,0.054,0.338,1.778,0.338,1.778
	c0.282,0.785-0.803,1.447-0.861,1.511c-0.084,0.084-1.443,1.14-1.637,1.172c-0.045,0.007-0.088,0.014-0.135,0.022
	c-0.195,0.045-0.32,0.111-0.363,0.199c-0.07,0.132,1.599,0.624,1.963,0.759c0.12,0.044,0.234,0.094,0.341,0.139
	c0.404,0.172,1.274,0.129,1.317,0.164c0.039,0.034,0.066,0.092,0.066,0.153c0.011,0.44-0.037,0.789-0.142,1.03
	c-0.024,0.054-0.065,0.091-0.113,0.104c-0.193,0.045-0.415-0.011-0.594-0.063c-0.21-0.065-0.379-0.106-0.506,0.028
	c-0.051,0.059-1.056,2.246-1.163,2.451c-0.054,0.104-0.113,0.211-0.159,0.325c-0.137,0.343-0.115,0.437-0.115,0.44
	C22.605,79.621,22.92,79.432,23.13,79.307z"/>
<path fill="none" stroke="#B5B5B5" stroke-miterlimit="10" d="M18.036,70.824c0,0,0.157,0.074,0.167,0.174
	c0.029,0.255-0.028,0.507-0.083,0.752c-0.052,0.234-0.103,0.457-0.081,0.674c0.011,0.092-0.035,0.178-0.104,0.211
	c-0.097,0.043-0.15,0.113-0.15,0.195c0.002,0.068,0.039,0.131,0.089,0.152c0.088,0.035,0.209-0.047,0.327-0.225
	c0.127-0.191,0.274-0.445,0.293-0.73c0.009-0.112-0.013-0.226-0.035-0.342c-0.032-0.164-0.066-0.347-0.033-0.554
	c0.012-0.073,0.061-0.135,0.121-0.153c0.071-0.023,0.118-0.062,0.179-0.113c0.035-0.029,0.072-0.061,0.114-0.09
	c0.01-0.105-0.028-0.137-0.053-0.156c-0.204-0.174-1.102,0.092-1.094,0.102C17.738,70.79,17.856,70.829,18.036,70.824z"/>
<path fill="none" stroke="#B5B5B5" stroke-miterlimit="10" d="M20.941,68.123c-0.456,0.578-2.074,0.605-2.091,0.645
	c-0.044,0.115,0.014,0.205,0.221,0.418c0.153,0.158,0.312,0.321,0.309,0.562c0,0.043-0.005,0.086-0.016,0.129
	c0.164-0.016,0.341-0.127,0.521-0.246c0.161-0.104,0.329-0.21,0.497-0.252l0.08-0.018c0.51-0.121,0.51-0.121,0.542-0.785
	c0.005-0.084,0.052-0.156,0.116-0.182c0.261-0.09,0.554-0.279,0.621-0.485c0.017-0.054,0.032-0.138-0.032-0.271
	c-0.043-0.084-0.084-0.132-0.127-0.136c-0.169-0.022-0.419,0.322-0.559,0.509L20.941,68.123z"/>
<path fill="none" stroke="#B5B5B5" stroke-miterlimit="10" d="M19.467,74.658c-0.314,0.057-0.425,0.154-0.438,0.183
	c0.004,0.033,0,0.063-0.011,0.091c0.172,0.121,0.684,0.139,1.116-0.027c0.192-0.072,0.277-0.148,0.309-0.191
	C20.312,74.637,19.889,74.584,19.467,74.658z"/>
<path fill="none" stroke="#B5B5B5" stroke-miterlimit="10" d="M21.144,72.578c-0.019,0.068-0.04,0.129-0.057,0.188
	c-0.067,0.203-0.094,0.313-0.064,0.4c0.072,0.018,0.169,0.037,0.264,0.037c0.153,0,0.239-0.042,0.261-0.126
	c-0.011-0.024-0.105-0.125-0.161-0.183C21.297,72.801,21.202,72.699,21.144,72.578z"/>
<path fill="none" stroke="#B5B5B5" stroke-miterlimit="10" d="M35.889,66.213c0.014-0.096,0.023-0.201,0.034-0.311
	c0.032-0.332,0.063-0.676,0.192-0.924c0.148-0.293,0.299-0.326,0.477-0.359c0.02-0.006,0.04-0.012,0.061-0.016
	c0.009-0.188,0.063-0.371,0.117-0.549c0.055-0.182,0.103-0.352,0.104-0.521c0.003-0.063,0.028-0.123,0.069-0.16
	c0.045-0.037,0.099-0.045,0.146-0.024c0.196,0.073,0.679-0.117,0.781-0.359c0.063-0.156,0.032-0.25-0.032-0.418
	c-0.056-0.143-0.133-0.336-0.056-0.557c-0.345-0.039-0.841-0.074-1.013,0.127c-0.029,0.034-0.067,0.092-0.062,0.227
	c0.003,0.072,0.021,0.119,0.042,0.182c0.047,0.127,0.11,0.301-0.019,0.594c-0.106,0.252-0.318,0.412-0.568,0.443
	c-0.089,0.241-0.141,0.48-0.196,0.75c-0.04,0.193-0.083,0.391-0.143,0.6l-0.019,0.074c-0.101,0.35-0.225,0.789-0.107,1.025
	C35.732,66.111,35.798,66.171,35.889,66.213z"/>
<path fill="none" stroke="#B5B5B5" stroke-miterlimit="10" d="M20.04,71.296c0.077,0.14,0.161,0.14,0.247,0.14l0.178-0.006
	c0.187,0,0.686,0.533,0.7,0.596c0.026-0.039,0.365-0.727,0.411-0.893c0.024-0.086,0.07-0.244,0.053-0.279
	c-0.059-0.065-0.403-0.166-0.646-0.184C20.872,71.156,20.39,71.264,20.04,71.296z"/>
<path fill="none" stroke="#B5B5B5" stroke-miterlimit="10" d="M26.936,83.113c0.325-0.152,0.387-0.315,0.379-0.819
	c-0.163-0.013-0.301-0.001-0.433,0.083c-0.049,0.03-0.468,0.396-0.479,0.408c-0.116,0.137-0.696,0.502-0.749,0.674
	c-0.041,0.141-0.033,0.346,0.018,0.398c0.014,0.017,0.122-0.074,0.203-0.127C26.189,83.521,26.529,83.301,26.936,83.113z"/>
<path fill="none" stroke="#B5B5B5" stroke-miterlimit="10" d="M16.221,82.615c0.166,0.078,0.34,0.16,0.492,0.31
	c0.071,0.07,0.119,0.128,0.16,0.179c0.075,0.092,0.111,0.135,0.297,0.217c0.096,0.041,0.189,0.088,0.285,0.135
	c0.115,0.059,0.234,0.117,0.355,0.163c0.521,0.198,1.183,0.18,1.672,0.167c0.174-0.006,0.342-0.016,0.508-0.021
	c0.247-0.015,0.489-0.027,0.732-0.027c0.283,0,0.908,0.051,0.932,0.051h0.003c0.048,0,0.088,0.027,0.118,0.064l0.002,0.002
	c0.178,0.043,0.363,0.092,0.471-0.021c0.064-0.066,0.078-0.172,0.094-0.335c0.014-0.118,0.588-0.54,0.749-0.828
	c0.068-0.12,0.146-0.259,0.248-0.37c0.118-0.128,0.388-0.348,0.347-0.449c-0.088-0.229-0.306-0.506-0.494-0.75
	c-0.067-0.082-0.126-0.16-0.18-0.232c-0.206-0.278-0.264-0.286-0.463-0.311c-0.083-0.012-0.183-0.022-0.312-0.057
	c-0.532-0.129-0.483-0.843-0.486-0.842c0,0-0.185,0.02-0.245,0.029c-0.22,0.03-0.859-0.152-0.919-0.224
	c-0.046-0.053-4.668,0.285-4.878,0.257c-0.2-0.027-0.504-0.07-0.564,0.032c-0.068,0.119-0.064,0.242-0.054,0.435
	c0.018,0.285-0.298,1.084-0.121,1.117C14.97,81.303,15.956,82.488,16.221,82.615z"/>
<g>
	<g>
		<path fill="#B5B5B5" d="M26.167,71.667c0.047,1.41,0.253,2.794,0.018,4.2c-0.064,0.385,0.336,0.846,0.734,0.564
			c0.839-0.592,1.833-0.746,2.666-1.334c-0.244-0.188-0.489-0.375-0.734-0.563c-0.408,1.407-0.573,2.909-1.282,4.214
			c-0.109,0.2-0.082,0.439,0.078,0.605c1.644,1.701,3.546,1.799,5.605,0.744c-0.25-0.144-0.501-0.287-0.752-0.432
			c0.049,0.742-0.15,1.436-0.6,2.081c-0.152,0.22-0.045,0.56,0.181,0.685c0.513,0.282,1,0.383,1.586,0.4
			c-0.161-0.211-0.321-0.422-0.481-0.633c-0.312,1.208-0.354,2.459-0.668,3.667c-0.136,0.526,0.461,0.776,0.836,0.485
			c0.766-0.591,1.693-0.879,2.565-1.254c-0.244-0.188-0.489-0.377-0.733-0.564c-0.443,2.355-1.543,4.428-2.617,6.547
			c-0.264,0.52,0.353,0.973,0.785,0.605c0.891-0.754,1.92-1.302,2.898-1.922c-0.244-0.101-0.488-0.199-0.734-0.3
			c0,0.468,0,0.935,0,1.401c-0.056,0.326,0.226,0.775,0.615,0.615c0.46-0.189,0.881-0.48,1.333-0.668
			c-0.211-0.16-0.422-0.32-0.633-0.481c0.117,1.353,0.515,2.631,0.334,4c-0.05,0.381,0.46,0.618,0.752,0.433
			c1.144-0.729,2.226-1.365,3.103-2.412c0.41-0.49-0.293-1.201-0.707-0.707c-0.812,0.969-1.848,1.586-2.898,2.256
			c0.25,0.144,0.501,0.287,0.752,0.432c0.184-1.395-0.214-2.615-0.334-4c-0.025-0.287-0.309-0.616-0.633-0.482
			c-0.46,0.189-0.881,0.48-1.333,0.668c0.205,0.205,0.409,0.409,0.614,0.614c0.123-0.717,0.162-1.215,0-1.933
			c-0.069-0.311-0.469-0.467-0.733-0.299c-1.058,0.668-2.146,1.268-3.103,2.078c0.263,0.201,0.523,0.403,0.785,0.604
			c1.115-2.2,2.258-4.339,2.719-6.785c0.086-0.458-0.325-0.741-0.734-0.563c-1.003,0.433-1.904,0.742-2.77,1.41
			c0.278,0.162,0.558,0.324,0.836,0.486c0.312-1.208,0.354-2.459,0.668-3.667c0.082-0.321-0.155-0.622-0.482-0.633
			c-0.374,0.001-0.734-0.087-1.082-0.265c0.061,0.228,0.12,0.455,0.18,0.684c0.586-0.839,0.717-1.562,0.735-2.585
			c0.008-0.397-0.426-0.599-0.752-0.433c-1.106,0.566-4.666,1.074-3.823-1.061c0.426-1.076,0.568-2.266,0.891-3.375
			c0.115-0.398-0.367-0.822-0.734-0.564c-0.839,0.592-1.833,0.746-2.666,1.334c0.244,0.188,0.489,0.375,0.734,0.563
			c0.25-1.499,0.068-2.956,0.018-4.466C27.146,71.023,26.146,71.021,26.167,71.667L26.167,71.667z"/>
	</g>
</g>
</svg>
