<?xml version="1.0" encoding="utf-8"?>
<!-- Generator: Adobe Illustrator 16.0.4, SVG Export Plug-In . SVG Version: 6.00 Build 0)  -->
<!DOCTYPE svg PUBLIC "-//W3C//DTD SVG 1.1//EN" "http://www.w3.org/Graphics/SVG/1.1/DTD/svg11.dtd">
<svg version="1.1" id="Layer_1" xmlns="http://www.w3.org/2000/svg" xmlns:xlink="http://www.w3.org/1999/xlink" x="0px" y="0px"
	 width="60px" height="120px" viewBox="0 0 60 120" enable-background="new 0 0 60 120" xml:space="preserve">
<g>
	<path fill="none" stroke="#B4B4B5" stroke-miterlimit="10" d="M46.523,12.695c-0.066,0-0.131,0-0.18-0.008
		c-0.168-0.025-0.338-0.063-0.507-0.104c-0.113-0.025-0.224-0.052-0.339-0.073c-0.383-0.072-0.759-0.132-1.121-0.057
		c-0.077,0.016-0.154,0.051-0.233,0.086c-0.122,0.054-0.247,0.107-0.375,0.114c-0.303,0.018-0.42-0.231-0.5-0.431
		c-0.021-0.057-0.045-0.115-0.075-0.175c-0.037-0.072-0.086-0.135-0.13-0.196c-0.065-0.09-0.133-0.183-0.183-0.301
		c-0.036-0.081-0.059-0.152-0.08-0.219c-0.012-0.043-0.03,0.305-0.172,0.425c-0.055,0.044-0.117,0.063-0.187,0.063
		c-0.138,0-0.304-0.07-0.499-0.157c-0.061-0.029-0.113-0.054-0.147-0.063c-0.132-0.04-0.337-0.037-0.552-0.035
		c-0.414-0.002-0.849,0.009-1.065-0.26c-0.18-0.22-0.251-0.67-0.304-0.61c-0.277,0.318-0.371,0.344-0.612,0.165
		c-0.032-0.021-0.065-0.047-0.106-0.075c-0.03-0.02-0.068-0.043-0.106-0.066c-0.146-0.089-0.411-0.321-0.411-0.321
		s-1.617-0.268-1.908-0.371c-0.143-0.051-0.542-0.263-0.517-0.559c0.011-0.135,0.091-0.208,0.179-0.248
		c-0.109-0.231-0.23-0.454-0.41-0.559c-0.115-0.066-0.268-0.053-0.431-0.034c-0.205,0.021-0.414,0.042-0.595-0.093
		c-0.153-0.112-0.206-0.295-0.249-0.441c-0.028-0.103-0.055-0.19-0.104-0.244c-0.153-0.171-0.434-0.131-0.675-0.096
		c-0.074,0.011-0.143,0.021-0.209,0.026c-0.452,0.031-0.841-0.13-1.062-0.448c-0.114-0.163-0.219-0.442-0.193-0.854
		c-0.099-0.032-0.194-0.069-0.289-0.108c-0.152,0.115-0.209,0.176-0.193,0.313c0.005,0.052-0.009,0.104-0.041,0.144
		c-0.028,0.038-0.071,0.063-0.114,0.056c-0.216-0.02-0.427-0.142-0.615-0.251c-0.067-0.039-0.13-0.075-0.188-0.104l-0.081-0.04
		c-0.247-0.12-0.249-0.118-0.54,0.061l-0.044,0.027c-0.061,0.038-0.134,0.072-0.214,0.108c-0.191,0.09-0.412,0.192-0.437,0.375
		c-0.01,0.07,0.018,0.12,0.069,0.21c0.068,0.116,0.168,0.294,0.072,0.535c0.393,0.235,0.415,0.648,0.438,1.05
		c0.007,0.115,0.014,0.233,0.028,0.359c0.006,0.052-0.008,0.104-0.035,0.143c-0.028,0.037-0.066,0.058-0.109,0.058h-0.006
		c-0.092-0.005-0.196-0.014-0.307-0.023c-0.36-0.034-0.81-0.073-1.086,0.047c-0.177,0.079-0.322,0.227-0.471,0.383
		c-0.191,0.199-0.388,0.405-0.682,0.497l-0.186,0.058c-0.416,0.125-0.691,0.211-1.065,0.52c-0.076,0.063-0.149,0.127-0.221,0.191
		c-0.24,0.21-0.486,0.427-0.785,0.565c-0.903,0.419-1.826,0.393-2.463-0.076c-0.256-0.188-0.387-0.402-0.526-0.633
		c-0.053-0.091-0.11-0.185-0.179-0.283c-0.307-0.446-0.461-0.419-0.963-0.326c-0.087,0.017-0.199,0.018-0.324,0.015
		c-0.133-0.003-0.381-0.004-0.438,0.027c-0.009,0.007-0.017,0.014-0.024,0.02c0.065,0.054,0.153,0.133,0.206,0.265
		c0.137,0.333,0.166,0.58,0.093,0.774c-0.101,0.269-0.366,0.348-0.645,0.433c-0.062,0.02-0.128,0.039-0.19,0.062
		c0.19,0.158,0.377,0.159,0.596,0.159c0.004,0,0.008-0.001,0.013,0c0.217,0,0.461,0.003,0.731,0.165
		c0.27,0.162,0.449,0.694,0.508,1.149c0.033,0.266,0.058,0.752-0.167,1.018c-0.343,0.402-0.802,0.052-1.172-0.234
		c-0.178-0.137-0.361-0.276-0.484-0.297c-0.204-0.04-0.341,0.05-0.519,0.158c-0.11,0.07-0.224,0.141-0.365,0.186l-0.08,0.023
		c-0.259,0.085-0.338,0.098-0.477-0.133c-0.025-0.042-0.059-0.098-0.111-0.17c-0.052-0.073-0.094-0.136-0.132-0.192
		c-0.192-0.28-0.237-0.347-0.667-0.441c-0.072-0.016-0.147-0.027-0.224-0.041c-0.232-0.036-0.489-0.078-0.708-0.232
		c-0.288,0.879-0.97,0.793-1.525,0.726c-0.159-0.019-0.324-0.04-0.474-0.04l-0.197-0.003c-0.431-0.011-0.925-0.022-1.191,0.327
		c-0.154,0.204-0.157,0.35-0.009,0.63c0.08,0.15,0.163,0.295,0.246,0.439c0.145,0.255,0.298,0.52,0.429,0.808
		c0.209,0.464,0.512,0.539,1.152,0.295c0.387-0.149,0.508-0.119,0.811,0.213c0.336,0.368,0.675,0.267,1.155,0.071
		c0.039-0.016,0.084-0.012,0.123,0.017c0.037,0.027,0.062,0.072,0.068,0.124c0.025,0.224-0.024,0.419-0.067,0.592
		c-0.026,0.106-0.052,0.208-0.059,0.307c-0.008,0.116,0.041,0.203,0.125,0.343c0.056,0.098,0.119,0.205,0.163,0.342
		c0.013,0.048,0.025,0.098,0.037,0.148c0.007,0.026,0.026,0.083,0.027,0.079c0.083-0.127,0.065-0.2,0.015-0.37
		c-0.038-0.121-0.083-0.269-0.06-0.446c0.008-0.061,0.042-0.11,0.089-0.134c0.057-0.029,0.109-0.059,0.159-0.086
		c0.191-0.107,0.372-0.207,0.64-0.181c0.057,0.006,0.131,0.006,0.212,0.006c0.32,0.001,0.72,0.003,0.893,0.261
		c0.06,0.09,0.079,0.195,0.096,0.289c0.009,0.053,0.02,0.108,0.036,0.139c0.019,0.04,0.055,0.08,0.094,0.122
		c0.06,0.065,0.129,0.14,0.171,0.252c0.107,0.284,0.016,0.504-0.059,0.681c-0.031,0.078-0.063,0.152-0.078,0.229
		c-0.027,0.14-0.022,0.148,0.154,0.228c0.076,0.036,0.159,0.075,0.242,0.14c0.127,0.098,0.227,0.219,0.322,0.336
		c0.105,0.127,0.203,0.247,0.332,0.33c0.185,0.119,0.393,0.189,0.613,0.265c0.153,0.051,0.305,0.102,0.449,0.169
		c0.347,0.16,0.561,0.39,0.803,0.674c0.333,0.389,0.288,0.703,0.233,1.068c-0.011,0.073-0.021,0.151-0.031,0.237
		c-0.019,0.164-0.046,0.341-0.076,0.521c-0.06,0.363-0.121,0.741-0.103,1.058c0.003,0.068,0.015,0.133,0.024,0.194
		c0.018,0.116,0.039,0.252,0.022,0.419c-0.01,0.104-0.027,0.209-0.047,0.313c-0.023,0.138-0.046,0.266-0.049,0.396
		c-0.006,0.254-0.055,0.489-0.102,0.718c-0.043,0.215-0.086,0.417-0.095,0.632c-0.006,0.142-0.008,0.276-0.01,0.41
		c-0.006,0.384-0.014,0.749-0.103,1.158c-0.028,0.131-0.045,0.281-0.063,0.438c-0.032,0.271-0.065,0.55-0.154,0.767
		c-0.047,0.114-0.12,0.205-0.191,0.292c-0.044,0.052-0.087,0.105-0.119,0.162c-0.024,0.044-0.045,0.097-0.068,0.151
		c-0.049,0.123-0.109,0.269-0.21,0.367c0.001,0.011,0.007,0.018,0.01,0.024c0.105,0.179,0.634,0.221,0.807,0.235l0.106,0.011
		c0.342,0.039,0.409,0.155,0.502,0.45l0.015,0.048c0.055,0.172,0.055,0.172,0.211,0.214c0.309,0.083,0.596,0.222,0.873,0.356
		c0.285,0.138,0.554,0.269,0.848,0.347c0.145,0.038,0.292,0.09,0.443,0.144c0.315,0.11,0.643,0.223,0.938,0.203
		c0.138-0.009,0.279-0.07,0.43-0.133c0.125-0.054,0.256-0.107,0.387-0.136c0.213-0.042,0.427-0.029,0.629-0.018
		c0.232,0.015,0.45,0.029,0.653-0.032c0.232-0.068,0.419-0.077,0.638-0.09l0.206-0.011c0.272-0.021,0.328,0.029,0.423,0.331
		l0.014,0.045c0.146,0.458,0.322,0.812,0.443,0.903c0.069,0.054,0.118,0.037,0.238-0.018c0.063-0.031,0.138-0.065,0.226-0.08
		c0.197-0.038,0.397-0.018,0.589,0.005c0.082,0.009,0.166,0.017,0.243,0.021c0.28,0.013,0.567,0.008,0.853,0.004
		c0.134-0.002,0.274,0.007,0.401-0.004c0.239,0,0.47,0.038,0.693,0.076c0.204,0.034,0.4,0.066,0.599,0.071
		c-0.081-0.375-0.084-0.809-0.086-1.199c-0.001-0.095-0.001-0.189-0.001-0.278c-0.012-0.512,0.244-0.96,0.782-1.364
		c0.074-0.057,0.158-0.132,0.252-0.213c0.292-0.264,0.656-0.586,1.007-0.586c0.01,0,0.021,0,0.035,0.001
		c0.132,0.009,0.234,0.076,0.324,0.136c0.073,0.048,0.136,0.088,0.208,0.098c0.158,0.024,0.324-0.015,0.493-0.05
		c0.202-0.043,0.412-0.086,0.639-0.046c0.138,0.025,0.269,0.059,0.4,0.091c0.241,0.062,0.469,0.117,0.715,0.125
		c0.351,0.008,0.716-0.014,1.073,0.072c0.252,0.06,0.335,0.184,0.435,0.325c0.028,0.039,0.059,0.082,0.097,0.131
		c0.147,0.187,0.359,0.269,0.58,0.353c0.07,0.027,0.143,0.056,0.214,0.087l0.162,0.074c0.413,0.185,0.77,0.352,1.169,0.165
		c0.227-0.104,0.424-0.276,0.633-0.454l0.108-0.091c0.164-0.139,0.338-0.233,0.504-0.324c0.111-0.062,0.222-0.122,0.333-0.197
		c0.105-0.071,0.132-0.138,0.173-0.248c0.03-0.081,0.069-0.181,0.144-0.289c0.091-0.135,0.208-0.228,0.323-0.318
		c0.092-0.073,0.176-0.143,0.243-0.227c0.089-0.115,0.195-0.199,0.299-0.279c0.072-0.058,0.133-0.117,0.188-0.18
		c-0.003-0.021-0.017-0.039-0.014-0.062c0.006-0.083,0.062-0.138,0.125-0.149c0.008-0.07,0.004-0.152-0.005-0.26
		c-0.037,0.002-0.072,0.002-0.108,0.002c-0.253,0.001-0.518,0.003-0.761-0.175c-0.105-0.076-0.171-0.188-0.228-0.288
		c-0.036-0.063-0.069-0.121-0.102-0.148c-0.035-0.032-0.058-0.036-0.094-0.045c-0.119-0.027-0.202-0.089-0.259-0.31
		c-0.052-0.222-0.02-0.446,0.011-0.662c0.025-0.182,0.051-0.353,0.017-0.481c-0.039-0.147-0.115-0.18-0.316-0.229
		c-0.091-0.024-0.2-0.051-0.295-0.11c-0.216-0.133-0.582-0.632-0.506-1.011c0.009-0.047,0.031-0.087,0.066-0.111
		c0.104-0.073,0.224-0.14,0.346-0.206c0.27-0.149,0.551-0.304,0.669-0.559c0.076-0.16,0.056-0.26-0.02-0.425
		c-0.108-0.23-0.271-0.92-0.094-1.305c-0.054-0.062-0.109-0.141-0.167-0.24c-0.438,0.237-0.913,0.459-1.425,0.208
		c-0.213-0.105-0.352-0.348-0.476-0.563c-0.146-0.253-0.249-0.407-0.379-0.407c-0.005,0-0.013,0.002-0.017,0
		c-0.076,0-0.142-0.07-0.145-0.164c-0.051-0.96,0.281-1.093,0.67-1.247c0.137-0.055,0.296-0.118,0.468-0.229
		c0.544-0.355,0.766-0.763,0.794-1.455c0.001-0.051,0.023-0.099,0.055-0.13c0.036-0.033,0.078-0.046,0.12-0.033
		c0.28,0.075,0.433,0.096,0.49,0.064c0.055-0.027,0.065-0.058,0.099-0.146c0.039-0.103,0.091-0.244,0.25-0.358
		c0.184-0.138,0.44-0.13,0.675-0.129c0.145,0.002,0.286,0.006,0.387-0.027c0.187-0.058,0.284-0.144,0.419-0.261
		c0.023-0.02,0.056-0.044,0.078-0.065c-0.196-0.353-0.241-0.923-0.246-1.17l-0.002-0.096c-0.014-0.521-0.03-1.058,0.335-1.453
		c0.129-0.14,0.219-0.308,0.31-0.488c0.099-0.182,0.197-0.37,0.342-0.539c0.026-0.03,0.06-0.066,0.099-0.107
		c0.122-0.126,0.373-0.389,0.371-0.549c-0.001-0.014-0.001-0.049-0.055-0.096C46.755,12.691,46.606,12.692,46.523,12.695z"/>
</g>
<g>
	<g>
		<path fill="#B4B4B5" d="M25.026,75.107c0.049,0.985,0.165,1.903,0.018,2.897c-0.064,0.43,0.481,0.925,0.835,0.486
			c1.192-1.476,2.411-2.896,3.857-4.132c-0.262-0.202-0.523-0.404-0.785-0.605c-0.853,1.87-1.903,3.638-2.755,5.509
			c-0.224,0.492,0.364,1.038,0.785,0.605c1.91-1.959,3.632-4.078,5.785-5.785c-0.278-0.162-0.557-0.324-0.835-0.486
			c-0.758,3.588-3.073,6.542-4.633,9.799c-0.282,0.588,0.485,1.022,0.863,0.504c2.343-3.203,4.807-6.336,8.085-8.636
			c-0.228-0.228-0.456-0.456-0.684-0.684c-2.208,4.057-4.845,7.853-7.163,11.846c-0.298,0.513,0.366,0.963,0.785,0.605
			c3.318-2.83,6.216-6.106,9.642-8.815c-0.262-0.202-0.523-0.404-0.785-0.605c-1.213,2.223-2.919,4.112-4.132,6.336
			c-0.161,0.295,0.033,0.805,0.432,0.752c0.721-0.096,1.284-0.234,1.905-0.619c-0.251-0.144-0.501-0.288-0.752-0.432
			c-0.088,0.506-0.174,1.013-0.257,1.52c-0.076,0.453,0.318,0.749,0.734,0.564c0.639-0.283,1.289-0.543,1.928-0.826
			c-0.251-0.144-0.501-0.288-0.752-0.432c-0.055,0.42-0.157,0.834-0.257,1.245c-0.153,0.626,0.812,0.892,0.964,0.266
			c0.123-0.502,0.227-0.999,0.293-1.511c0.055-0.42-0.454-0.563-0.752-0.432c-0.639,0.283-1.289,0.543-1.928,0.826
			c0.245,0.188,0.49,0.376,0.734,0.564c0.1-0.601,0.223-1.18,0.293-1.785c0.045-0.383-0.456-0.615-0.752-0.432
			c-0.467,0.161-0.934,0.321-1.4,0.482c0.144,0.251,0.288,0.502,0.432,0.752c1.213-2.223,2.919-4.112,4.132-6.336
			c0.289-0.528-0.355-0.945-0.785-0.605c-3.426,2.709-6.324,5.985-9.642,8.815c0.262,0.202,0.523,0.404,0.785,0.605
			c2.318-3.992,4.955-7.788,7.163-11.846c0.224-0.411-0.251-0.987-0.684-0.684c-3.422,2.4-5.997,5.648-8.443,8.995
			c0.288,0.168,0.576,0.336,0.863,0.504c1.599-3.337,3.956-6.358,4.733-10.037c0.11-0.518-0.448-0.794-0.835-0.486
			c-2.153,1.707-3.875,3.826-5.785,5.785c0.262,0.202,0.523,0.404,0.785,0.605c0.852-1.87,1.902-3.638,2.755-5.509
			c0.236-0.519-0.341-0.985-0.785-0.605c-1.446,1.234-2.665,2.656-3.857,4.132c0.278,0.162,0.557,0.324,0.835,0.486
			c0.161-1.081,0.072-2.072,0.018-3.163C25.995,74.466,24.995,74.463,25.026,75.107L25.026,75.107z"/>
	</g>
</g>
<g>
	<path fill="none" stroke="#B4B4B5" stroke-miterlimit="10" d="M46.523,72.695c-0.066,0-0.131,0-0.18-0.008
		c-0.168-0.025-0.338-0.063-0.508-0.104c-0.112-0.025-0.224-0.052-0.339-0.073c-0.383-0.072-0.759-0.132-1.12-0.057
		c-0.078,0.016-0.154,0.051-0.233,0.086c-0.122,0.054-0.247,0.107-0.376,0.114c-0.303,0.018-0.42-0.231-0.5-0.431
		c-0.021-0.057-0.045-0.115-0.074-0.175c-0.037-0.072-0.086-0.135-0.13-0.196c-0.065-0.09-0.133-0.183-0.183-0.301
		c-0.035-0.081-0.059-0.152-0.08-0.219c-0.012-0.043-0.029,0.305-0.172,0.425c-0.055,0.044-0.117,0.063-0.187,0.063
		c-0.138,0-0.304-0.07-0.499-0.157c-0.061-0.029-0.113-0.054-0.147-0.063c-0.132-0.04-0.337-0.037-0.552-0.035
		c-0.414-0.002-0.85,0.009-1.065-0.26c-0.181-0.22-0.251-0.67-0.304-0.61c-0.277,0.318-0.371,0.344-0.612,0.165
		c-0.032-0.021-0.065-0.047-0.106-0.075c-0.029-0.02-0.068-0.043-0.105-0.066c-0.146-0.089-0.412-0.321-0.412-0.321
		s-1.617-0.268-1.908-0.371c-0.143-0.051-0.541-0.263-0.516-0.559c0.01-0.135,0.091-0.208,0.179-0.248
		c-0.109-0.231-0.23-0.454-0.409-0.559c-0.115-0.066-0.268-0.053-0.432-0.034c-0.205,0.021-0.414,0.042-0.596-0.093
		c-0.152-0.112-0.205-0.295-0.248-0.441c-0.028-0.103-0.055-0.19-0.104-0.244c-0.153-0.171-0.434-0.131-0.675-0.096
		c-0.074,0.011-0.143,0.021-0.209,0.026c-0.451,0.031-0.842-0.13-1.062-0.448c-0.113-0.163-0.219-0.442-0.193-0.854
		c-0.098-0.032-0.193-0.069-0.288-0.108c-0.151,0.115-0.21,0.176-0.193,0.313c0.005,0.052-0.009,0.104-0.04,0.144
		c-0.029,0.038-0.072,0.063-0.114,0.056c-0.216-0.02-0.427-0.142-0.614-0.251c-0.067-0.039-0.131-0.075-0.188-0.104l-0.081-0.04
		c-0.247-0.12-0.249-0.118-0.54,0.061l-0.044,0.027c-0.062,0.038-0.134,0.072-0.214,0.108c-0.191,0.09-0.412,0.192-0.438,0.375
		c-0.01,0.07,0.018,0.12,0.07,0.21c0.067,0.116,0.168,0.294,0.071,0.535c0.393,0.235,0.415,0.648,0.438,1.05
		c0.007,0.115,0.015,0.233,0.028,0.359c0.006,0.052-0.008,0.104-0.035,0.143c-0.028,0.037-0.066,0.058-0.109,0.058h-0.006
		c-0.092-0.005-0.196-0.014-0.307-0.023c-0.361-0.034-0.811-0.073-1.086,0.047c-0.178,0.079-0.322,0.227-0.471,0.383
		c-0.191,0.199-0.389,0.405-0.683,0.497l-0.186,0.058c-0.415,0.125-0.691,0.211-1.065,0.52c-0.076,0.063-0.148,0.127-0.221,0.191
		c-0.24,0.21-0.486,0.427-0.785,0.565c-0.902,0.419-1.826,0.393-2.463-0.076c-0.256-0.188-0.387-0.402-0.525-0.633
		c-0.053-0.091-0.11-0.185-0.18-0.283c-0.307-0.446-0.461-0.419-0.963-0.326c-0.087,0.017-0.199,0.018-0.324,0.015
		c-0.133-0.003-0.381-0.004-0.438,0.027c-0.009,0.007-0.018,0.014-0.024,0.02c0.065,0.054,0.153,0.133,0.206,0.265
		c0.137,0.333,0.166,0.58,0.093,0.774c-0.101,0.269-0.366,0.348-0.646,0.433c-0.062,0.02-0.127,0.039-0.189,0.062
		c0.189,0.158,0.377,0.159,0.596,0.159c0.005,0,0.008-0.001,0.014,0c0.217,0,0.461,0.003,0.73,0.165s0.449,0.694,0.508,1.149
		c0.033,0.266,0.058,0.752-0.168,1.018c-0.342,0.402-0.802,0.052-1.172-0.234c-0.178-0.137-0.36-0.276-0.484-0.297
		c-0.203-0.04-0.341,0.05-0.518,0.158c-0.11,0.07-0.225,0.141-0.365,0.186l-0.08,0.023c-0.258,0.085-0.338,0.098-0.477-0.133
		c-0.025-0.042-0.059-0.098-0.111-0.17c-0.051-0.073-0.094-0.136-0.131-0.192c-0.193-0.28-0.238-0.347-0.667-0.441
		c-0.072-0.016-0.147-0.027-0.224-0.041c-0.232-0.036-0.489-0.078-0.708-0.232c-0.288,0.879-0.97,0.793-1.525,0.726
		c-0.159-0.019-0.324-0.04-0.474-0.04l-0.197-0.003c-0.431-0.011-0.925-0.022-1.191,0.327c-0.154,0.204-0.157,0.35-0.009,0.63
		c0.08,0.15,0.163,0.295,0.246,0.439c0.145,0.255,0.298,0.52,0.429,0.808c0.209,0.464,0.512,0.539,1.152,0.295
		c0.387-0.149,0.508-0.119,0.811,0.213c0.336,0.368,0.675,0.267,1.155,0.071c0.039-0.016,0.084-0.012,0.123,0.017
		c0.037,0.027,0.062,0.072,0.068,0.124c0.025,0.224-0.024,0.419-0.067,0.592c-0.026,0.106-0.052,0.208-0.059,0.307
		c-0.008,0.116,0.041,0.203,0.125,0.343c0.056,0.098,0.119,0.205,0.163,0.342c0.013,0.048,0.025,0.098,0.037,0.148
		c0.007,0.026,0.026,0.083,0.027,0.079c0.083-0.127,0.065-0.2,0.015-0.37c-0.038-0.121-0.083-0.269-0.06-0.446
		c0.008-0.061,0.042-0.11,0.089-0.134c0.057-0.029,0.109-0.059,0.159-0.086c0.191-0.107,0.372-0.207,0.64-0.181
		c0.057,0.006,0.131,0.006,0.213,0.006c0.319,0.001,0.72,0.003,0.893,0.261c0.061,0.09,0.078,0.195,0.096,0.289
		c0.01,0.053,0.021,0.108,0.036,0.139c0.019,0.04,0.056,0.08,0.095,0.122c0.06,0.065,0.129,0.14,0.171,0.252
		c0.106,0.284,0.016,0.504-0.059,0.681c-0.031,0.078-0.063,0.152-0.078,0.229c-0.027,0.14-0.022,0.148,0.154,0.228
		c0.075,0.036,0.159,0.075,0.242,0.14c0.128,0.098,0.227,0.219,0.322,0.336c0.105,0.127,0.202,0.247,0.332,0.33
		c0.185,0.119,0.394,0.189,0.612,0.265c0.153,0.051,0.306,0.102,0.449,0.169c0.348,0.16,0.561,0.39,0.803,0.674
		c0.334,0.389,0.288,0.703,0.233,1.068c-0.011,0.073-0.021,0.151-0.03,0.237c-0.02,0.164-0.047,0.341-0.076,0.521
		c-0.061,0.363-0.121,0.741-0.104,1.058c0.003,0.068,0.016,0.133,0.024,0.194c0.019,0.116,0.039,0.252,0.022,0.419
		c-0.01,0.104-0.027,0.209-0.048,0.313c-0.023,0.138-0.046,0.266-0.05,0.396c-0.006,0.254-0.055,0.489-0.102,0.718
		c-0.043,0.215-0.086,0.417-0.094,0.632c-0.006,0.142-0.009,0.276-0.011,0.41c-0.007,0.384-0.014,0.749-0.103,1.158
		c-0.028,0.131-0.045,0.281-0.063,0.438c-0.032,0.271-0.065,0.55-0.154,0.767c-0.047,0.114-0.12,0.205-0.19,0.292
		c-0.045,0.052-0.088,0.105-0.119,0.162c-0.025,0.044-0.046,0.097-0.068,0.151c-0.049,0.123-0.109,0.269-0.211,0.367
		c0.002,0.011,0.008,0.018,0.01,0.024c0.105,0.179,0.635,0.221,0.808,0.235l0.106,0.011c0.342,0.039,0.408,0.155,0.502,0.45
		l0.014,0.048c0.056,0.172,0.056,0.172,0.212,0.214c0.309,0.083,0.597,0.222,0.872,0.356c0.285,0.138,0.555,0.269,0.849,0.347
		c0.145,0.038,0.292,0.09,0.442,0.144c0.315,0.11,0.644,0.223,0.938,0.203c0.138-0.009,0.278-0.07,0.43-0.133
		c0.124-0.054,0.256-0.107,0.388-0.136c0.213-0.042,0.427-0.029,0.629-0.018c0.231,0.015,0.449,0.029,0.652-0.032
		c0.232-0.068,0.419-0.077,0.639-0.09l0.205-0.011c0.272-0.021,0.328,0.029,0.424,0.331l0.014,0.045
		c0.146,0.458,0.322,0.812,0.443,0.903c0.068,0.054,0.117,0.037,0.238-0.018c0.062-0.031,0.138-0.065,0.226-0.08
		c0.196-0.038,0.397-0.018,0.589,0.005c0.082,0.009,0.166,0.017,0.244,0.021c0.279,0.013,0.566,0.008,0.853,0.004
		c0.134-0.002,0.274,0.007,0.401-0.004c0.238,0,0.47,0.038,0.693,0.076c0.203,0.034,0.4,0.066,0.598,0.071
		c-0.08-0.375-0.084-0.809-0.086-1.199c-0.002-0.095-0.002-0.189-0.002-0.278c-0.012-0.512,0.244-0.96,0.782-1.364
		c0.073-0.057,0.158-0.132,0.252-0.213c0.292-0.264,0.655-0.586,1.007-0.586c0.01,0,0.021,0,0.035,0.001
		c0.132,0.009,0.234,0.076,0.324,0.136c0.072,0.048,0.136,0.088,0.208,0.098c0.158,0.024,0.324-0.015,0.493-0.05
		c0.202-0.043,0.412-0.086,0.639-0.046c0.139,0.025,0.27,0.059,0.4,0.091c0.242,0.062,0.47,0.117,0.716,0.125
		c0.351,0.008,0.716-0.014,1.073,0.072c0.252,0.06,0.334,0.184,0.435,0.325c0.028,0.039,0.06,0.082,0.097,0.131
		c0.148,0.187,0.359,0.269,0.58,0.353c0.07,0.027,0.143,0.056,0.214,0.087l0.161,0.074c0.413,0.185,0.771,0.352,1.17,0.165
		c0.227-0.104,0.424-0.276,0.633-0.454l0.108-0.091c0.164-0.139,0.339-0.233,0.504-0.324c0.111-0.062,0.222-0.122,0.333-0.197
		c0.105-0.071,0.131-0.138,0.173-0.248c0.03-0.081,0.069-0.181,0.144-0.289c0.092-0.135,0.208-0.228,0.323-0.318
		c0.092-0.073,0.177-0.143,0.243-0.227c0.088-0.115,0.194-0.199,0.299-0.279c0.072-0.058,0.133-0.117,0.188-0.18
		c-0.004-0.021-0.017-0.039-0.014-0.062c0.006-0.083,0.062-0.138,0.125-0.149c0.008-0.07,0.004-0.152-0.006-0.26
		c-0.036,0.002-0.072,0.002-0.107,0.002c-0.254,0.001-0.518,0.003-0.761-0.175c-0.105-0.076-0.171-0.188-0.228-0.288
		c-0.036-0.063-0.069-0.121-0.103-0.148c-0.034-0.032-0.058-0.036-0.094-0.045c-0.119-0.027-0.202-0.089-0.259-0.31
		c-0.053-0.222-0.021-0.446,0.01-0.662c0.025-0.182,0.052-0.353,0.018-0.481c-0.039-0.147-0.115-0.18-0.316-0.229
		c-0.092-0.024-0.199-0.051-0.295-0.11c-0.216-0.133-0.582-0.632-0.506-1.011c0.01-0.047,0.031-0.087,0.066-0.111
		c0.104-0.073,0.224-0.14,0.346-0.206c0.27-0.149,0.551-0.304,0.669-0.559c0.076-0.16,0.056-0.26-0.021-0.425
		c-0.107-0.23-0.271-0.92-0.094-1.305c-0.053-0.062-0.109-0.141-0.166-0.24c-0.438,0.237-0.912,0.459-1.425,0.208
		c-0.214-0.105-0.352-0.348-0.476-0.563c-0.146-0.253-0.249-0.407-0.379-0.407c-0.006,0-0.014,0.002-0.018,0
		c-0.076,0-0.141-0.07-0.145-0.164c-0.051-0.96,0.281-1.093,0.67-1.247c0.137-0.055,0.296-0.118,0.469-0.229
		c0.543-0.355,0.766-0.763,0.794-1.455c0.001-0.051,0.022-0.099,0.055-0.13c0.036-0.033,0.077-0.046,0.12-0.033
		c0.28,0.075,0.433,0.096,0.49,0.064c0.055-0.027,0.064-0.058,0.098-0.146c0.039-0.103,0.092-0.244,0.25-0.358
		c0.184-0.138,0.44-0.13,0.675-0.129c0.146,0.002,0.286,0.006,0.388-0.027c0.186-0.058,0.283-0.144,0.419-0.261
		c0.023-0.02,0.056-0.044,0.078-0.065c-0.196-0.353-0.241-0.923-0.245-1.17l-0.003-0.096c-0.015-0.521-0.03-1.058,0.335-1.453
		c0.129-0.14,0.219-0.308,0.311-0.488c0.098-0.182,0.197-0.37,0.342-0.539c0.025-0.03,0.06-0.066,0.099-0.107
		c0.122-0.126,0.373-0.389,0.37-0.549c0-0.014,0-0.049-0.055-0.096C46.755,72.691,46.606,72.692,46.523,72.695z"/>
</g>
</svg>
