<?xml version="1.0" encoding="utf-8"?>
<!-- Generator: Adobe Illustrator 16.0.4, SVG Export Plug-In . SVG Version: 6.00 Build 0)  -->
<!DOCTYPE svg PUBLIC "-//W3C//DTD SVG 1.1//EN" "http://www.w3.org/Graphics/SVG/1.1/DTD/svg11.dtd">
<svg version="1.1" id="Layer_1" xmlns="http://www.w3.org/2000/svg" xmlns:xlink="http://www.w3.org/1999/xlink" x="0px" y="0px"
	 width="60px" height="120px" viewBox="0 0 60 120" enable-background="new 0 0 60 120" xml:space="preserve">
<path fill="none" stroke="#B4B4B5" stroke-miterlimit="10" d="M9.773,25.094c0.196,0.028,0.381,0.056,0.575,0.044
	c0.048-0.003,0.096-0.004,0.144-0.006c0.156-0.007,0.306-0.014,0.458-0.053c0.054-0.016,0.108-0.048,0.165-0.082
	c0.103-0.061,0.207-0.122,0.327-0.098c0.239,0.051,0.364,0.205,0.495,0.369c0.043,0.056,0.089,0.111,0.143,0.168
	c0.083,0.09,0.207,0.119,0.336,0.151c0.094,0.024,0.192,0.048,0.278,0.097c0.121,0.068,0.234,0.156,0.344,0.24
	c0.099,0.077,0.201,0.154,0.308,0.218c0.33,0.197,0.714,0.268,1.086,0.336c0.303,0.056,0.616,0.111,0.905,0.238
	c0.408,0.179,0.879,0.154,1.334,0.133c0.125-0.006,0.249-0.013,0.369-0.015c0.208-0.004,0.43-0.005,0.655,0.001
	c0.026,0.001,0.058,0.005,0.092,0.009c0.094,0.01,0.223,0.022,0.281-0.025c0.089-0.073,0.07-0.263,0.054-0.431
	c-0.008-0.072-0.014-0.142-0.012-0.201c0-0.019,0.008-0.035,0.019-0.047c0.011-0.014,0.027-0.017,0.041-0.016
	c0.226,0.036,0.459,0.03,0.684,0.029c0.198-0.003,0.403-0.006,0.606,0.017c0.31,0.036,0.463,0.233,0.64,0.463
	c0.029,0.036,0.058,0.073,0.087,0.109c0.148,0.185,0.333,0.333,0.51,0.475c0.166,0.134,0.339,0.271,0.484,0.441
	c0.115,0.136,0.177,0.3,0.237,0.459c0.06,0.159,0.116,0.311,0.223,0.418c0.052,0.054,0.103,0.108,0.154,0.163
	c0.119,0.128,0.242,0.261,0.377,0.363c0.115,0.085,0.221,0.103,0.335,0.122c0.083,0.013,0.17,0.027,0.264,0.069
	c0.035,0.015,0.068,0.041,0.099,0.064c0.086,0.065,0.118,0.079,0.156,0.037c0.062-0.066,0.087-0.2,0.11-0.319
	c0.01-0.05,0.02-0.095,0.03-0.137c0.112-0.424,0.47-0.462,0.721-0.45c0.052,0.001,0.104-0.009,0.16-0.019
	c0.068-0.013,0.139-0.027,0.216-0.017c0.173,0.021,0.317,0.131,0.455,0.237l0.057,0.042c0.28,0.21,0.507,0.426,0.712,0.801
	c0.064,0.119,0.107,0.245,0.15,0.366c0.025,0.071,0.05,0.146,0.08,0.217c0.049,0.114,0.125,0.209,0.206,0.31
	c0.027,0.034,0.054,0.066,0.08,0.101c0.064,0.084,0.141,0.158,0.222,0.238c0.155,0.151,0.316,0.31,0.389,0.537
	c0.031,0.1,0.05,0.204,0.068,0.306c0.013,0.069,0.025,0.137,0.042,0.202c0.009,0.04,0.017,0.088,0.025,0.142
	c0.016,0.101,0.034,0.227,0.074,0.279c0.016,0.02,0.052,0.036,0.082,0.049c0.016,0.008,0.034,0.014,0.048,0.023
	c0.109,0.059,0.21,0.135,0.293,0.201c0.024,0.02,0.049,0.039,0.073,0.059c0.115,0.097,0.225,0.187,0.357,0.187
	c0.003,0,0.005,0,0.007,0c0.132,0,0.216,0.029,0.334,0.087c0.068,0.031,0.139,0.054,0.213,0.075c0.07,0.021,0.142,0.043,0.212,0.075
	c0.021,0.01,0.05,0.028,0.083,0.049c0.048,0.031,0.137,0.088,0.185,0.088c0.013-0.042,0.028-0.082,0.039-0.124
	c0.001-0.002,0.004-0.003,0.004-0.006c-0.008-0.059-0.027-0.124-0.044-0.177c-0.01-0.028-0.018-0.056-0.024-0.079
	c-0.042-0.166-0.023-0.335-0.004-0.497l0.002-0.021c0.028-0.249,0.051-0.475,0.063-0.706c0.002-0.036,0.002-0.073,0.004-0.112
	c0.002-0.139,0.004-0.298,0.06-0.425c0.052-0.12,0.146-0.186,0.229-0.242l0.032-0.023c0.121-0.084,0.23-0.188,0.337-0.292
	c0.083-0.079,0.167-0.159,0.258-0.232c0.166-0.134,0.347-0.24,0.521-0.345c0.072-0.044,0.146-0.086,0.216-0.13
	c0.254-0.159,0.486-0.373,0.711-0.579c0.19-0.172,0.386-0.353,0.599-0.503l0.015-0.012c0.105-0.074,0.249-0.176,0.384-0.139
	c0.079,0.021,0.131,0.087,0.177,0.144c0.026,0.031,0.05,0.061,0.077,0.08c0.11,0.088,0.259,0.077,0.4,0.067l0.038-0.004
	c0.221-0.013,0.423-0.024,0.628-0.001l0.061,0.007c0.116,0.015,0.225,0.028,0.334-0.009c0.045-0.016,0.091-0.038,0.139-0.062
	c0.077-0.039,0.157-0.079,0.247-0.088c0.12-0.016,0.22,0.021,0.294,0.107c0.086,0.103,0.135,0.27,0.137,0.47
	c0.125,0.007,0.252,0.015,0.379,0.08c0.018,0.009,0.036,0.019,0.053,0.027c0.061,0.036,0.09,0.051,0.14,0.025
	c0.01-0.006,0.372,0.009,0.375,0.014c0-0.003,0.001-0.005,0.001-0.009c0.008-0.138,0.019-0.31,0.134-0.379
	c0.103-0.06,0.178,0.005,0.23,0.053c0.013,0.01,0.026,0.021,0.038,0.032c0.074,0.057,0.138,0.058,0.229,0.057h0.006l0.008-0.024
	c0.027-0.08,0.047-0.139,0.055-0.233c0.006-0.068,0.021-0.132,0.036-0.194c0.013-0.055,0.024-0.104,0.03-0.157
	c0.008-0.078-0.001-0.079-0.088-0.107c-0.053-0.016-0.111-0.025-0.173-0.033c-0.149-0.024-0.319-0.051-0.423-0.175
	c-0.014-0.018-0.019-0.042-0.014-0.064c0.006-0.024,0.022-0.041,0.041-0.045c0.107-0.025,0.21-0.015,0.31-0.002
	c0.049,0.007,0.098,0.013,0.148,0.015c0.099,0.004,0.204-0.007,0.305-0.017c0.085-0.008,0.169-0.015,0.254-0.018
	c0.175-0.001,0.36-0.01,0.55-0.024c0.018-0.002,0.039-0.005,0.058-0.008c0.059-0.009,0.125-0.021,0.188,0.008
	c0.014,0.008,0.026,0.014,0.039,0.021c0.022,0.013,0.035,0.02,0.06,0.02c0.087,0.003,0.185,0.003,0.271-0.013
	c0.109-0.017,0.216-0.02,0.318-0.021c0.04-0.001,0.082-0.003,0.123-0.004c0.05-0.003,0.092-0.031,0.138-0.062
	c0.052-0.032,0.11-0.071,0.186-0.078c0.153-0.013,0.323,0,0.495,0.032c0.074,0.015,0.168,0.039,0.237,0.106
	c0.024,0.022,0.045,0.051,0.066,0.078c0.024,0.033,0.047,0.065,0.074,0.084c0.029,0.021,0.065,0.034,0.103,0.051
	c0.021,0.008,0.04,0.016,0.06,0.025l0.007-0.01c0.114-0.14,0.329-0.4,0.487-0.207c0.07,0.082,0.062,0.188,0.055,0.274
	c-0.005,0.064-0.009,0.122,0.016,0.156c0.029,0.046,0.169,0.087,0.252,0.112c0.046,0.014,0.088,0.025,0.117,0.039
	c0.117,0.05,0.155,0.038,0.256,0.006l0.046-0.014c0.122-0.121,0.244-0.172,0.382-0.23l0.023-0.009
	c0.029-0.012,0.062-0.032,0.096-0.053c0.09-0.055,0.192-0.116,0.296-0.081c0.104,0.036,0.182,0.161,0.251,0.272
	c0.028,0.045,0.053,0.087,0.08,0.119c0.063,0.079,0.138,0.15,0.209,0.219c0.046,0.045,0.092,0.09,0.137,0.138
	c0.037,0.038,0.084,0.082,0.136,0.131c0.213,0.196,0.478,0.441,0.473,0.722c-0.003,0.159-0.052,0.294-0.101,0.424
	c-0.061,0.166-0.118,0.321-0.073,0.52c0.038,0.162,0.088,0.323,0.137,0.479c0.057,0.182,0.115,0.37,0.156,0.564
	c0.033,0.01,0.067,0.024,0.104,0.04c0.06,0.025,0.142,0.061,0.177,0.042c0.014-0.008,0.026-0.014,0.037-0.02
	c0.076-0.045,0.129-0.067,0.236,0.048c0.112,0.12,0.076,0.26,0.046,0.371c-0.019,0.069-0.037,0.136-0.028,0.201
	c0.018,0.126,0.073,0.223,0.133,0.321c0.029,0.05,0.059,0.1,0.084,0.153c0.094,0.198,0.175,0.354,0.263,0.51
	c0.074,0.128,0.097,0.265,0.12,0.396c0.009,0.052,0.019,0.105,0.031,0.159c0.515,0.092,0.809,0.025,0.901-0.548
	c0.015-0.089,0.023-0.182,0.032-0.271c0.011-0.121,0.022-0.246,0.049-0.371l0.019-0.09c0.041-0.182,0.077-0.34,0.023-0.522
	c-0.065-0.231-0.119-0.429-0.157-0.668c-0.029-0.192-0.094-0.356-0.163-0.532c-0.038-0.095-0.077-0.193-0.109-0.297
	c-0.04-0.125-0.046-0.248-0.052-0.367c-0.005-0.095-0.008-0.182-0.028-0.27c-0.032-0.142-0.097-0.28-0.161-0.414
	c-0.044-0.095-0.091-0.194-0.127-0.297c-0.07-0.199-0.145-0.397-0.219-0.596c-0.069-0.185-0.139-0.37-0.205-0.555
	c-0.099-0.277-0.1-0.507-0.093-0.761c-0.011-0.01-0.02-0.025-0.02-0.045c-0.005-0.09,0.007-0.166,0.025-0.238
	c0-0.009,0.001-0.017,0.001-0.025c0-0.021,0.009-0.038,0.021-0.049c0.028-0.076,0.064-0.144,0.1-0.21
	c0.033-0.058,0.065-0.118,0.093-0.183c0.027-0.063,0.051-0.127,0.074-0.188c0.062-0.166,0.126-0.335,0.242-0.488
	c0.132-0.177,0.308-0.28,0.475-0.379l0.087-0.053c0.203-0.121,0.388-0.295,0.566-0.461l0.02-0.019
	c0.121-0.112,0.234-0.238,0.343-0.358c0.174-0.192,0.353-0.39,0.564-0.543c0.179-0.131,0.312-0.249,0.42-0.375
	c0.049-0.059,0.086-0.135,0.123-0.216c0.041-0.085,0.083-0.175,0.145-0.242c0.092-0.104,0.268-0.19,0.397-0.256l0.068-0.033
	c0.083-0.044,0.169-0.049,0.252-0.055c0.053-0.004,0.102-0.008,0.15-0.021c0.069-0.018,0.086-0.043,0.116-0.082
	c0.02-0.028,0.047-0.064,0.093-0.101c0.088-0.068,0.394-0.284,0.305-0.409c-0.018-0.023-0.038-0.046-0.056-0.068
	c-0.061-0.073-0.125-0.15-0.123-0.251c0.001-0.063,0.402-1.166,0.509-1.275c0.101-0.104,0.197-0.202,0.221-0.35
	c0-0.002,0-0.003,0-0.004c0.004-0.021,0.016-0.036,0.029-0.046c-0.013-0.066,0.43-1.419,0.337-1.142
	c-0.067,0.198-0.108,0.364-0.105,0.562c0.12-0.131,0.209-0.26,0.236-0.447l0.008-0.062c0.024-0.175,0.043-0.312,0.169-0.469
	c0.029-0.035,0.061-0.069,0.094-0.104c0.08-0.085,0.178-0.506,0.152-0.627c-0.009-0.044-0.045-0.276-0.055-0.352
	c-0.016-0.126,0.373-0.458,0.37-0.367c-0.002,0.14,0.036,0.26,0.084,0.367c0.004-0.008,0.007-0.016,0.01-0.024
	c0.041-0.095,0.082-0.193,0.147-0.282c0.043-0.057,0.091-0.093,0.136-0.127c0.033-0.024,0.065-0.048,0.092-0.077
	c0.009-0.011,0.292-0.419,0.294-0.688c0-0.101-0.201-0.597-0.174-0.731c0.004-0.021,0.302-0.083,0.565-0.093
	c0.486-0.02,1.302-0.053,1.46-0.286c0.01-0.016,0.017-0.029,0.02-0.045c-0.109-0.008-0.226,0.017-0.347,0.042
	c-0.107,0.022-0.217,0.047-0.326,0.047c-0.001,0.001-0.004,0-0.007,0c-0.04,0-0.097-0.446,0.197-0.478
	c0.059-0.006,0.109-0.012,0.149-0.018c0.191-0.029,0.394-0.055,0.592-0.047c0.067,0.003,0.137,0.027,0.206,0.051
	c0.068,0.024,0.131,0.047,0.187,0.045c0.199-0.01,0.291-0.468,0.345-0.741c0.01-0.05,0.02-0.096,0.027-0.132
	c0.014-0.062,0.029-0.121,0.043-0.182c0.042-0.167,0.08-0.326,0.104-0.495c0.006-0.047,0.009-0.097,0.012-0.148
	c0.007-0.108,0.014-0.221,0.05-0.318c0.073-0.197,0.298-0.34,0.497-0.465c0.077-0.05,0.149-0.095,0.202-0.138
	c0.114-0.093,0.246-0.162,0.373-0.23c0.157-0.083,0.305-0.162,0.424-0.28c0.055-0.054,0.096-0.164,0.137-0.271
	c0.056-0.146,0.114-0.297,0.217-0.354c0.147-0.085,0.287,0.016,0.41,0.106c0.082,0.059,0.16,0.118,0.223,0.109
	c0.045-0.005,0.091-0.026,0.14-0.05c0.049-0.023,0.101-0.048,0.157-0.057c0.029-0.005,0.056-0.009,0.081-0.012
	c0.104-0.014,0.181-0.024,0.281-0.085l0.07-0.044c0.182-0.112,0.441-0.511,0.354-0.627c-0.036-0.047-0.07-0.091-0.098-0.132
	c-0.135-0.072-0.257-0.187-0.383-0.369c-0.173-0.253-0.189-0.524-0.194-0.852c-0.001-0.059,0-0.127,0.003-0.201
	c0.008-0.29,0.017-0.652-0.142-0.815c-0.125-0.128-0.313-0.122-0.499-0.12c-0.1,0.002-0.203,0.005-0.295-0.015
	c-0.086-0.019-0.155-0.057-0.214-0.092c-0.118-0.066-0.183-0.103-0.309,0.031l-0.077,0.082c-0.161,0.172-0.312,0.336-0.464,0.518
	c-0.102,0.121-0.124,0.258-0.148,0.415c-0.015,0.083-0.026,0.167-0.054,0.256c-0.031,0.104-0.092,0.189-0.152,0.271
	c-0.033,0.044-0.063,0.087-0.088,0.131C54.764,9.831,54.738,9.9,54.71,9.974c-0.03,0.081-0.062,0.167-0.109,0.242
	c-0.072,0.118-0.196,0.24-0.303,0.295c-0.105,0.055-0.202,0.02-0.287-0.008c-0.034-0.014-0.069-0.024-0.105-0.031
	c-0.067-0.011-0.09-0.001-0.097,0.008c-0.018,0.019-0.018,0.102-0.018,0.142c0,0.077-0.017,0.137-0.054,0.178
	c-0.065,0.072-0.166,0.064-0.264,0.056l-0.039-0.004c-0.374-0.028-0.759-0.039-1.145-0.03h-0.035
	c-0.497,0.011-0.965,0.021-1.453-0.019l-0.021-0.001c-0.224-0.017-0.385-0.029-0.581,0.104c-0.15,0.102-0.297,0.217-0.438,0.329
	c-0.053,0.041-0.104,0.083-0.158,0.123c-0.087,0.067-0.178,0.128-0.267,0.185c-0.078,0.052-0.155,0.102-0.231,0.158
	c-0.019,0.013-0.036,0.029-0.052,0.045c-0.034,0.028-0.069,0.055-0.106,0.075c0.082,0.267,0.053,0.512-0.1,0.792
	c-0.271,0.5-0.712,0.573-1.107,0.579c-0.091,0.002-0.193,0.009-0.301,0.018c-0.343,0.025-1.314,0.987-2.023,1.241
	c-0.123,0.044-0.274,0.107-0.434,0.174c-0.509,0.216-1.151,0.487-1.697,0.487c-0.22,0-0.423-0.044-0.596-0.151
	c-0.229-0.143-0.387-0.388-0.469-0.729c-0.068-0.281,0.093-0.559,0.233-0.804c0.103-0.179,0.201-0.349,0.171-0.457
	c-0.016-0.06-0.074-0.108-0.171-0.147l-0.039-0.016c-0.306-0.122-0.548-0.22-0.561-0.726c-0.011-0.406,0.163-0.787,0.315-1.039
	c0.064-0.487-0.602-0.707-0.923-0.812c-0.248-0.081-0.433-0.052-0.639,0.105c-0.159,0.122-0.163,0.196-0.171,0.377
	c-0.002,0.05-0.004,0.105-0.012,0.17c-0.002,0.032-0.026,0.057-0.052,0.057c-0.003,0-0.006,0-0.01,0
	c-0.313,0-0.375,0.27-0.451,0.608c-0.056,0.247-0.114,0.502-0.281,0.673c-0.267,0.269-0.918,0.871-1.243,0.675
	c-0.435-0.265-0.19-1.189-0.086-1.584c0.144-0.539,0.403-0.729,0.701-0.949c0.094-0.068,0.19-0.14,0.292-0.226
	c0.117-0.101,0.217-0.199,0.316-0.295c0.265-0.263,0.497-0.492,0.916-0.578c-0.013-0.064-0.038-0.115-0.079-0.158
	c-0.19-0.2-0.66-0.153-0.97-0.125c-0.101,0.01-0.186,0.018-0.252,0.018c-0.046,0-0.094,0.004-0.143,0.006
	c-0.181,0.009-0.387,0.021-0.552-0.094c-0.084-0.059-0.175-0.177-0.27-0.302c-0.111-0.146-0.226-0.295-0.323-0.341
	c-0.185-0.084-0.538,0.183-0.822,0.397c-0.14,0.105-0.272,0.205-0.372,0.252c-0.205,0.1-0.307,0.239-0.407,0.376
	c-0.134,0.181-0.261,0.354-0.599,0.32c-0.183-0.017-0.435-0.134-0.657-0.237c-0.122-0.057-0.237-0.109-0.326-0.14
	c-0.063-0.022-0.143-0.032-0.227-0.043c-0.16-0.02-0.326-0.04-0.432-0.147c-0.012-0.012-0.019-0.028-0.02-0.047
	c0-0.019,0.006-0.036,0.017-0.05c0.245-0.284,0.578-0.452,0.899-0.614c0.148-0.075,0.287-0.146,0.418-0.226
	c0.101-0.062,0.206-0.12,0.31-0.177c0.14-0.077,0.271-0.148,0.396-0.233c0.085-0.059,0.151-0.14,0.221-0.226
	c0.046-0.059,0.092-0.167,0.062-0.164c-0.032,0.003-0.065,0.003-0.097,0.004c-0.062-0.001-0.122-0.013-0.179-0.024
	c-0.042-0.009-0.085-0.019-0.129-0.021l-0.014-0.001c-0.104-0.01-0.128-0.015-0.209-0.107c-0.044-0.05-0.105-0.093-0.18-0.127
	c-0.057-0.025-0.059-0.027-0.113,0.051l-0.015,0.021c-0.024,0.033-0.053,0.064-0.082,0.095c-0.033,0.036-0.065,0.069-0.087,0.107
	c-0.008,0.015-0.022,0.024-0.038,0.026c-0.016,0.003-0.031-0.004-0.042-0.017c-0.089-0.102-0.234-0.232-0.37-0.291
	c-0.06-0.024-0.106,0.007-0.183,0.063c-0.031,0.023-0.061,0.046-0.094,0.064c-0.011,0.006-0.022,0.015-0.035,0.023
	c-0.042,0.029-0.088,0.062-0.131,0.062c-0.002,0-0.003,0-0.004,0c-0.065-0.004-0.134-0.065-0.201-0.124
	C34.173,7.091,34.15,7.07,34.13,7.057c-0.124-0.085-0.255-0.133-0.395-0.183c-0.06-0.021-0.12-0.043-0.181-0.068
	c-0.266-0.11-0.548-0.218-0.828-0.222C32.64,6.586,32.594,6.61,32.53,6.647c-0.031,0.017-0.065,0.035-0.104,0.053
	c-0.163,0.069-0.279,0.008-0.414-0.063c-0.137-0.072-0.239-0.104-0.346-0.106c-0.016-0.001-0.03-0.001-0.045,0
	c-0.059,0-0.113,0-0.18-0.04C31.264,6.386,31.195,6.189,31.13,6c-0.032-0.09-0.26-0.008-0.292,0.041
	c-0.047,0.074-0.128,0.085-0.222,0.097l-0.014,0.003c-0.088,0.012-0.176,0.017-0.265,0.023c-0.077,0.004-0.154,0.009-0.231,0.02
	c-0.237,0.026-0.478,0.025-0.711,0.023l-0.392-0.002c-0.283,0-0.566,0-0.849,0.002c-0.185,0-0.369,0.008-0.555,0.016
	c-0.226,0.009-0.461,0.02-0.69,0.016c-0.199-0.003-0.397-0.016-0.59-0.026c-0.236-0.015-0.484-0.026-0.723-0.027
	c-0.272,0.001-0.542,0.005-0.814,0.011c-0.541,0.014-1.087-0.013-1.615-0.039c-0.221-0.01-0.441-0.021-0.661-0.027
	c-0.227-0.01-0.457,0.007-0.679,0.023c-0.203,0.013-0.413,0.027-0.622,0.024c-0.058-0.002-0.115-0.005-0.17-0.006
	c-0.128-0.006-0.247-0.013-0.375,0.002c-0.129,0.014-0.261,0.015-0.387,0.016c-0.082,0.001-0.165,0.001-0.247,0.006
	c-0.226,0.011-0.455,0.007-0.677,0.003c-0.232-0.004-0.472-0.009-0.708,0.006c-0.593,0.033-1.191,0.005-1.769-0.023
	c-0.39-0.02-0.792-0.039-1.189-0.039c-0.007,0-0.016,0-0.022,0c-0.06,0-0.121-0.002-0.182-0.003
	c-0.17-0.004-0.347-0.009-0.512,0.022c-0.129,0.024-0.226,0.022-0.356-0.011c-0.075-0.019-0.149-0.011-0.229-0.002
	c-0.023,0.003-0.047,0.006-0.071,0.008c-0.226,0.019-0.456,0.019-0.674,0.019h-0.152c-0.566,0-1.145,0-1.718,0.021
	c-0.433,0.016-0.874-0.002-1.3-0.019c-0.258-0.011-0.526-0.021-0.789-0.023C9.248,6.146,8.814,6.156,8.395,6.167
	C8.064,6.175,7.734,6.184,7.403,6.185C6.977,6.186,6.558,6.18,6.204,6.174C6.055,6.172,5.905,6.161,5.761,6.152
	C5.555,6.138,5.343,6.124,5.13,6.132L5.049,6.136C4.855,6.145,4.652,6.149,4.455,6.152c-0.021,0-0.035-0.019-0.044-0.039
	C4.378,6.106,4.347,6.1,4.315,6.091C4.214,6.063,4.119,6.039,4.014,6.044C3.976,6.046,3.936,6.049,3.896,6.051
	c-0.018,0.001-0.036,0-0.054,0.001c0.014,0.011,0.026,0.023,0.041,0.032c0.131,0.084,0.204,0.214,0.275,0.339
	C4.187,6.476,4.218,6.53,4.254,6.582c0.014,0.021,0.032,0.041,0.05,0.06c0.051,0.054,0.115,0.121,0.113,0.226
	C4.417,6.927,4.396,6.981,4.362,7.02C4.346,7.038,4.325,7.051,4.304,7.06c0,0.016,0.003,0.031,0.005,0.044
	c0.014,0.077,0.049,0.145,0.088,0.216c0.054,0.1,0.112,0.203,0.112,0.343c0,0.217-0.101,0.46-0.295,0.504
	c-0.18,0.039-0.321-0.074-0.381-0.304c-0.04-0.155-0.042-0.314-0.04-0.449c0-0.028,0.004-0.06,0.006-0.092
	c0.006-0.079,0.013-0.167-0.009-0.224C3.75,6.99,3.521,6.986,3.396,6.984C3.361,6.983,3.33,6.983,3.306,6.981
	c-0.09-0.009-0.181-0.019-0.271-0.029C2.814,6.925,2.585,6.897,2.37,6.914C2.267,6.921,2.101,6.975,2.074,7.043
	C2.072,7.05,2.065,7.066,2.088,7.104C2.116,7.151,2.16,7.192,2.204,7.23c0.029,0.027,0.058,0.054,0.082,0.081
	c0.077,0.087,0.149,0.183,0.217,0.274l0.015,0.02c0.077,0.103,0.154,0.206,0.193,0.34c0.029,0.101,0.029,0.197,0.029,0.291
	c0,0.025,0,0.05,0,0.076c0.004,0.181,0.12,0.269,0.386,0.288C3.145,8.602,3.16,8.612,3.169,8.63S3.18,8.668,3.174,8.688
	c-0.039,0.126-0.11,0.198-0.178,0.269C2.931,9.021,2.871,9.083,2.837,9.191C2.785,9.36,2.804,9.543,2.825,9.737
	c0.015,0.137,0.03,0.279,0.019,0.419c-0.023,0.27-0.016,0.561-0.011,0.842C2.849,11.707,2.866,12.439,2.448,13l-0.016,0.021
	c-0.079,0.104-0.131,0.173-0.118,0.3c0.003,0.035,0.005,0.067,0.005,0.099c0,0.059,0.001,0.1,0.021,0.145
	c0.121,0.255,0.209,0.493,0.246,0.831c0.015,0.142,0.021,0.285,0.026,0.424c0.005,0.108,0.01,0.217,0.019,0.325
	c0.005,0.056,0.012,0.108,0.019,0.159c0.025,0.19,0.052,0.385-0.087,0.565c0.069,0.081,0.118,0.181,0.166,0.276
	c0.034,0.068,0.066,0.132,0.103,0.189c0.031,0.047,0.067,0.084,0.107,0.123c0.083,0.084,0.176,0.179,0.183,0.355
	c0.003,0.081-0.012,0.148-0.026,0.215c-0.017,0.074-0.032,0.138-0.018,0.213c0.017,0.098,0.055,0.192,0.094,0.292
	c0.031,0.078,0.062,0.159,0.084,0.242c0.013,0.05,0.024,0.099,0.035,0.146c0.037,0.158,0.068,0.295,0.167,0.413
	c0.075,0.089,0.16,0.169,0.24,0.246c0.051,0.049,0.102,0.097,0.149,0.146c0.022,0.023,0.041,0.046,0.061,0.068
	c0.056,0.062,0.102,0.117,0.17,0.14c0.174,0.062,0.384,0.045,0.589,0.028c0.14-0.011,0.283-0.022,0.417-0.009
	c0.022,0.002,0.045,0.004,0.068,0.005c0.097,0.005,0.199,0.011,0.251,0.093c0.028,0.045,0.036,0.105,0.022,0.179
	c-0.019,0.099-0.077,0.203-0.13,0.297c-0.017,0.031-0.034,0.062-0.048,0.089c-0.155,0.312-0.237,0.539-0.25,0.913
	c-0.005,0.138-0.003,0.483,0.125,0.707c0.163,0.279,0.362,0.523,0.631,0.766c0.028,0.024,0.059,0.05,0.089,0.072
	c0.084,0.066,0.172,0.137,0.231,0.239c0.049,0.089,0.053,0.187,0.058,0.273c0.003,0.066,0.006,0.13,0.029,0.176
	c0.064,0.133,0.207,0.157,0.345,0.18c0.042,0.006,0.083,0.013,0.123,0.023l0.107,0.026c0.173,0.043,0.352,0.086,0.518,0.17
	c0.085,0.042,0.174,0.081,0.263,0.119c0.147,0.062,0.299,0.128,0.437,0.216c0.071,0.048,0.142,0.076,0.209,0.104
	c0.131,0.055,0.265,0.108,0.375,0.277c0.081,0.12,0.176,0.219,0.278,0.321c0.082,0.086,0.168,0.172,0.244,0.273
	c0.079,0.104,0.155,0.182,0.256,0.261c0.026,0.021,0.058,0.04,0.091,0.062c0.095,0.062,0.205,0.136,0.262,0.246
	c0.011-0.011,0.026-0.017,0.042-0.012c0.024,0.005,0.039,0.031,0.041,0.06L9.773,25.094z"/>
<path fill="none" stroke="#B4B4B5" stroke-miterlimit="10" d="M9.773,85.094c0.196,0.028,0.381,0.056,0.575,0.044
	c0.048-0.003,0.096-0.004,0.144-0.006c0.156-0.007,0.306-0.014,0.458-0.053c0.054-0.016,0.108-0.048,0.165-0.082
	c0.103-0.061,0.207-0.122,0.327-0.098c0.239,0.051,0.364,0.205,0.495,0.369c0.043,0.056,0.089,0.111,0.143,0.168
	c0.083,0.09,0.207,0.119,0.336,0.151c0.094,0.024,0.192,0.048,0.278,0.097c0.121,0.068,0.234,0.156,0.344,0.24
	c0.099,0.077,0.201,0.154,0.308,0.218c0.33,0.197,0.714,0.268,1.086,0.336c0.303,0.056,0.616,0.111,0.905,0.238
	c0.408,0.179,0.879,0.154,1.334,0.133c0.125-0.006,0.249-0.013,0.369-0.015c0.208-0.004,0.43-0.005,0.655,0.001
	c0.026,0.001,0.058,0.005,0.092,0.009c0.094,0.01,0.223,0.022,0.281-0.025c0.089-0.073,0.07-0.263,0.054-0.431
	c-0.008-0.072-0.014-0.142-0.012-0.201c0-0.019,0.008-0.035,0.019-0.047c0.011-0.014,0.027-0.017,0.041-0.016
	c0.226,0.036,0.459,0.03,0.684,0.029c0.198-0.003,0.403-0.006,0.606,0.017c0.31,0.036,0.463,0.233,0.64,0.463
	c0.029,0.036,0.058,0.073,0.087,0.109c0.148,0.185,0.333,0.333,0.51,0.475c0.166,0.134,0.339,0.271,0.484,0.441
	c0.115,0.136,0.177,0.3,0.237,0.459c0.06,0.159,0.116,0.311,0.223,0.418c0.052,0.054,0.103,0.108,0.154,0.163
	c0.119,0.128,0.242,0.261,0.377,0.363c0.115,0.085,0.221,0.103,0.335,0.122c0.083,0.013,0.17,0.027,0.264,0.069
	c0.035,0.015,0.068,0.041,0.099,0.064c0.086,0.065,0.118,0.079,0.156,0.037c0.062-0.066,0.087-0.2,0.11-0.319
	c0.01-0.05,0.02-0.095,0.03-0.137c0.112-0.424,0.47-0.462,0.721-0.45c0.052,0.001,0.104-0.009,0.16-0.019
	c0.068-0.013,0.139-0.027,0.216-0.017c0.173,0.021,0.317,0.131,0.455,0.237l0.057,0.042c0.28,0.21,0.507,0.426,0.712,0.801
	c0.064,0.119,0.107,0.245,0.15,0.366c0.025,0.071,0.05,0.146,0.08,0.217c0.049,0.114,0.125,0.209,0.206,0.31
	c0.027,0.034,0.054,0.066,0.08,0.101c0.064,0.084,0.141,0.158,0.222,0.238c0.155,0.151,0.316,0.31,0.389,0.537
	c0.031,0.1,0.05,0.204,0.068,0.306c0.013,0.069,0.025,0.137,0.042,0.202c0.009,0.04,0.017,0.088,0.025,0.142
	c0.016,0.101,0.034,0.227,0.074,0.279c0.016,0.02,0.052,0.036,0.082,0.049c0.016,0.008,0.034,0.014,0.048,0.023
	c0.109,0.059,0.21,0.135,0.293,0.201c0.024,0.02,0.049,0.039,0.073,0.059c0.115,0.097,0.225,0.187,0.357,0.187
	c0.003,0,0.005,0,0.007,0c0.132,0,0.216,0.029,0.334,0.087c0.068,0.031,0.139,0.054,0.213,0.075c0.07,0.021,0.142,0.043,0.212,0.075
	c0.021,0.01,0.05,0.028,0.083,0.049c0.048,0.031,0.137,0.088,0.185,0.088c0.013-0.042,0.028-0.082,0.039-0.124
	c0.001-0.002,0.004-0.003,0.004-0.006c-0.008-0.059-0.027-0.124-0.044-0.177c-0.01-0.028-0.018-0.056-0.024-0.079
	c-0.042-0.166-0.023-0.335-0.004-0.497l0.002-0.021c0.028-0.249,0.051-0.475,0.063-0.706c0.002-0.036,0.002-0.073,0.004-0.112
	c0.002-0.139,0.004-0.298,0.06-0.425c0.052-0.12,0.146-0.186,0.229-0.242l0.032-0.023c0.121-0.084,0.23-0.188,0.337-0.292
	c0.083-0.079,0.167-0.159,0.258-0.232c0.166-0.134,0.347-0.24,0.521-0.345c0.072-0.044,0.146-0.086,0.216-0.13
	c0.254-0.159,0.486-0.373,0.711-0.579c0.19-0.172,0.386-0.353,0.599-0.503l0.015-0.012c0.105-0.074,0.249-0.176,0.384-0.139
	c0.079,0.021,0.131,0.087,0.177,0.144c0.026,0.031,0.05,0.061,0.077,0.08c0.11,0.088,0.259,0.077,0.4,0.067l0.038-0.004
	c0.221-0.013,0.423-0.024,0.628-0.001l0.061,0.007c0.116,0.015,0.225,0.028,0.334-0.009c0.045-0.016,0.091-0.038,0.139-0.062
	c0.077-0.039,0.157-0.079,0.247-0.088c0.12-0.016,0.22,0.021,0.294,0.107c0.086,0.103,0.135,0.27,0.137,0.47
	c0.125,0.007,0.252,0.015,0.379,0.08c0.018,0.009,0.036,0.019,0.053,0.027c0.061,0.036,0.09,0.051,0.14,0.025
	c0.01-0.006,0.372,0.009,0.375,0.014c0-0.003,0.001-0.005,0.001-0.009c0.008-0.138,0.019-0.31,0.134-0.379
	c0.103-0.06,0.178,0.005,0.23,0.053c0.013,0.01,0.026,0.021,0.038,0.032c0.074,0.057,0.138,0.058,0.229,0.057h0.006l0.008-0.024
	c0.027-0.08,0.047-0.139,0.055-0.233c0.006-0.068,0.021-0.132,0.036-0.194c0.013-0.055,0.024-0.104,0.03-0.157
	c0.008-0.078-0.001-0.079-0.088-0.107c-0.053-0.016-0.111-0.025-0.173-0.033c-0.149-0.024-0.319-0.051-0.423-0.175
	c-0.014-0.018-0.019-0.042-0.014-0.064c0.006-0.024,0.022-0.041,0.041-0.045c0.107-0.025,0.21-0.015,0.31-0.002
	c0.049,0.007,0.098,0.013,0.148,0.015c0.099,0.004,0.204-0.007,0.305-0.017c0.085-0.008,0.169-0.015,0.254-0.018
	c0.175-0.001,0.36-0.01,0.55-0.024c0.018-0.002,0.039-0.005,0.058-0.008c0.059-0.009,0.125-0.021,0.188,0.008
	c0.014,0.008,0.026,0.014,0.039,0.021c0.022,0.013,0.035,0.02,0.06,0.02c0.087,0.003,0.185,0.003,0.271-0.013
	c0.109-0.017,0.216-0.02,0.318-0.021c0.04-0.001,0.082-0.003,0.123-0.004c0.05-0.003,0.092-0.031,0.138-0.062
	c0.052-0.032,0.11-0.071,0.186-0.078c0.153-0.013,0.323,0,0.495,0.032c0.074,0.015,0.168,0.039,0.237,0.106
	c0.024,0.022,0.045,0.051,0.066,0.078c0.024,0.033,0.047,0.065,0.074,0.084c0.029,0.021,0.065,0.034,0.103,0.051
	c0.021,0.008,0.04,0.016,0.06,0.025l0.007-0.01c0.114-0.14,0.329-0.4,0.487-0.207c0.07,0.082,0.062,0.188,0.055,0.274
	c-0.005,0.064-0.009,0.122,0.016,0.156c0.029,0.046,0.169,0.087,0.252,0.112c0.046,0.014,0.088,0.025,0.117,0.039
	c0.117,0.05,0.155,0.038,0.256,0.006l0.046-0.014c0.122-0.121,0.244-0.172,0.382-0.23l0.023-0.009
	c0.029-0.012,0.062-0.032,0.096-0.053c0.09-0.055,0.192-0.116,0.296-0.081c0.104,0.036,0.182,0.161,0.251,0.272
	c0.028,0.045,0.053,0.087,0.08,0.119c0.063,0.079,0.138,0.15,0.209,0.219c0.046,0.045,0.092,0.09,0.137,0.138
	c0.037,0.038,0.084,0.082,0.136,0.131c0.213,0.196,0.478,0.441,0.473,0.722c-0.003,0.159-0.052,0.294-0.101,0.424
	c-0.061,0.166-0.118,0.321-0.073,0.52c0.038,0.162,0.088,0.323,0.137,0.479c0.057,0.182,0.115,0.37,0.156,0.564
	c0.033,0.01,0.067,0.024,0.104,0.04c0.06,0.025,0.142,0.061,0.177,0.042c0.014-0.008,0.026-0.014,0.037-0.02
	c0.076-0.045,0.129-0.067,0.236,0.048c0.112,0.12,0.076,0.26,0.046,0.371c-0.019,0.069-0.037,0.136-0.028,0.201
	c0.018,0.126,0.073,0.223,0.133,0.321c0.029,0.05,0.059,0.1,0.084,0.153c0.094,0.198,0.175,0.354,0.263,0.51
	c0.074,0.128,0.097,0.265,0.12,0.396c0.009,0.052,0.019,0.105,0.031,0.159c0.515,0.092,0.809,0.025,0.901-0.548
	c0.015-0.089,0.023-0.182,0.032-0.271c0.011-0.121,0.022-0.246,0.049-0.371l0.019-0.09c0.041-0.182,0.077-0.34,0.023-0.522
	c-0.065-0.231-0.119-0.429-0.157-0.668c-0.029-0.192-0.094-0.356-0.163-0.532c-0.038-0.095-0.077-0.193-0.109-0.297
	c-0.04-0.125-0.046-0.248-0.052-0.367c-0.005-0.095-0.008-0.182-0.028-0.27c-0.032-0.142-0.097-0.28-0.161-0.414
	c-0.044-0.095-0.091-0.194-0.127-0.297c-0.07-0.199-0.145-0.397-0.219-0.596c-0.069-0.185-0.139-0.37-0.205-0.555
	c-0.099-0.277-0.1-0.507-0.093-0.761c-0.011-0.01-0.02-0.025-0.02-0.045c-0.005-0.09,0.007-0.166,0.025-0.238
	c0-0.009,0.001-0.017,0.001-0.025c0-0.021,0.009-0.038,0.021-0.049c0.028-0.076,0.064-0.144,0.1-0.21
	c0.033-0.058,0.065-0.118,0.093-0.183c0.027-0.063,0.051-0.127,0.074-0.188c0.062-0.166,0.126-0.335,0.242-0.488
	c0.132-0.177,0.308-0.28,0.475-0.379l0.087-0.053c0.203-0.121,0.388-0.295,0.566-0.461l0.02-0.019
	c0.121-0.112,0.234-0.238,0.343-0.358c0.174-0.192,0.353-0.39,0.564-0.543c0.179-0.131,0.312-0.249,0.42-0.375
	c0.049-0.059,0.086-0.135,0.123-0.216c0.041-0.085,0.083-0.175,0.145-0.242c0.092-0.104,0.268-0.19,0.397-0.256l0.068-0.033
	c0.083-0.044,0.169-0.049,0.252-0.055c0.053-0.004,0.102-0.008,0.15-0.021c0.069-0.018,0.086-0.043,0.116-0.082
	c0.02-0.028,0.047-0.064,0.093-0.101c0.088-0.068,0.394-0.284,0.305-0.409c-0.018-0.023-0.038-0.046-0.056-0.068
	c-0.061-0.073-0.125-0.15-0.123-0.251c0.001-0.063,0.402-1.166,0.509-1.275c0.101-0.104,0.197-0.202,0.221-0.35
	c0-0.002,0-0.003,0-0.004c0.004-0.021,0.016-0.036,0.029-0.046c-0.013-0.066,0.43-1.419,0.337-1.142
	c-0.067,0.198-0.108,0.364-0.105,0.562c0.12-0.131,0.209-0.26,0.236-0.447l0.008-0.062c0.024-0.175,0.043-0.312,0.169-0.469
	c0.029-0.035,0.061-0.069,0.094-0.104c0.08-0.085,0.178-0.506,0.152-0.627c-0.009-0.044-0.045-0.276-0.055-0.352
	c-0.016-0.126,0.373-0.458,0.37-0.367c-0.002,0.14,0.036,0.26,0.084,0.367c0.004-0.008,0.007-0.016,0.01-0.024
	c0.041-0.095,0.082-0.193,0.147-0.282c0.043-0.057,0.091-0.093,0.136-0.127c0.033-0.024,0.065-0.048,0.092-0.077
	c0.009-0.011,0.292-0.419,0.294-0.688c0-0.101-0.201-0.597-0.174-0.731c0.004-0.021,0.302-0.083,0.565-0.093
	c0.486-0.02,1.302-0.053,1.46-0.286c0.01-0.016,0.017-0.029,0.02-0.045c-0.109-0.008-0.226,0.017-0.347,0.042
	c-0.107,0.022-0.217,0.047-0.326,0.047c-0.001,0.001-0.004,0-0.007,0c-0.04,0-0.097-0.446,0.197-0.478
	c0.059-0.006,0.109-0.012,0.149-0.018c0.191-0.029,0.394-0.055,0.592-0.047c0.067,0.003,0.137,0.027,0.206,0.051
	c0.068,0.024,0.131,0.047,0.187,0.045c0.199-0.01,0.291-0.468,0.345-0.741c0.01-0.05,0.02-0.096,0.027-0.132
	c0.014-0.062,0.029-0.121,0.043-0.182c0.042-0.167,0.08-0.326,0.104-0.495c0.006-0.047,0.009-0.097,0.012-0.148
	c0.007-0.108,0.014-0.221,0.05-0.318c0.073-0.197,0.298-0.34,0.497-0.465c0.077-0.05,0.149-0.095,0.202-0.138
	c0.114-0.093,0.246-0.162,0.373-0.23c0.157-0.083,0.305-0.162,0.424-0.28c0.055-0.054,0.096-0.164,0.137-0.271
	c0.056-0.146,0.114-0.297,0.217-0.354c0.147-0.085,0.287,0.016,0.41,0.106c0.082,0.059,0.16,0.118,0.223,0.109
	c0.045-0.005,0.091-0.026,0.14-0.05c0.049-0.023,0.101-0.048,0.157-0.057c0.029-0.005,0.056-0.009,0.081-0.012
	c0.104-0.014,0.181-0.024,0.281-0.085l0.07-0.044c0.182-0.112,0.441-0.511,0.354-0.627c-0.036-0.047-0.07-0.091-0.098-0.132
	c-0.135-0.072-0.257-0.187-0.383-0.369c-0.173-0.253-0.189-0.524-0.194-0.852c-0.001-0.059,0-0.127,0.003-0.201
	c0.008-0.29,0.017-0.652-0.142-0.815c-0.125-0.128-0.313-0.122-0.499-0.12c-0.1,0.002-0.203,0.005-0.295-0.015
	c-0.086-0.019-0.155-0.057-0.214-0.092c-0.118-0.066-0.183-0.103-0.309,0.031l-0.077,0.082c-0.161,0.172-0.312,0.336-0.464,0.518
	c-0.102,0.121-0.124,0.258-0.148,0.415c-0.015,0.083-0.026,0.167-0.054,0.256c-0.031,0.104-0.092,0.189-0.152,0.271
	c-0.033,0.044-0.063,0.087-0.088,0.131c-0.035,0.062-0.061,0.131-0.088,0.204c-0.03,0.081-0.062,0.167-0.109,0.242
	c-0.072,0.118-0.196,0.24-0.303,0.295c-0.105,0.055-0.202,0.02-0.287-0.008c-0.034-0.014-0.069-0.024-0.105-0.031
	c-0.067-0.011-0.09-0.001-0.097,0.008c-0.018,0.019-0.018,0.102-0.018,0.142c0,0.077-0.017,0.137-0.054,0.178
	c-0.065,0.072-0.166,0.064-0.264,0.056l-0.039-0.004c-0.374-0.028-0.759-0.039-1.145-0.03h-0.035
	c-0.497,0.011-0.965,0.021-1.453-0.019l-0.021-0.001c-0.224-0.017-0.385-0.029-0.581,0.104c-0.15,0.102-0.297,0.217-0.438,0.329
	c-0.053,0.041-0.104,0.083-0.158,0.123c-0.087,0.067-0.178,0.128-0.267,0.185c-0.078,0.052-0.155,0.102-0.231,0.158
	c-0.019,0.013-0.036,0.029-0.052,0.045c-0.034,0.028-0.069,0.055-0.106,0.075c0.082,0.267,0.053,0.512-0.1,0.792
	c-0.271,0.5-0.712,0.573-1.107,0.579c-0.091,0.002-0.193,0.009-0.301,0.018c-0.343,0.025-1.314,0.987-2.023,1.241
	c-0.123,0.044-0.274,0.107-0.434,0.174c-0.509,0.216-1.151,0.487-1.697,0.487c-0.22,0-0.423-0.044-0.596-0.151
	c-0.229-0.143-0.387-0.388-0.469-0.729c-0.068-0.281,0.093-0.559,0.233-0.804c0.103-0.179,0.201-0.349,0.171-0.457
	c-0.016-0.06-0.074-0.108-0.171-0.147l-0.039-0.016c-0.306-0.122-0.548-0.22-0.561-0.726c-0.011-0.406,0.163-0.787,0.315-1.039
	c0.064-0.487-0.602-0.707-0.923-0.812c-0.248-0.081-0.433-0.052-0.639,0.105c-0.159,0.122-0.163,0.196-0.171,0.377
	c-0.002,0.05-0.004,0.105-0.012,0.17c-0.002,0.032-0.026,0.057-0.052,0.057c-0.003,0-0.006,0-0.01,0
	c-0.313,0-0.375,0.27-0.451,0.608c-0.056,0.247-0.114,0.502-0.281,0.673c-0.267,0.269-0.918,0.871-1.243,0.675
	c-0.435-0.265-0.19-1.189-0.086-1.584c0.144-0.539,0.403-0.729,0.701-0.949c0.094-0.068,0.19-0.14,0.292-0.226
	c0.117-0.101,0.217-0.199,0.316-0.295c0.265-0.263,0.497-0.492,0.916-0.578c-0.013-0.064-0.038-0.115-0.079-0.158
	c-0.19-0.2-0.66-0.153-0.97-0.125c-0.101,0.01-0.186,0.018-0.252,0.018c-0.046,0-0.094,0.004-0.143,0.006
	c-0.181,0.009-0.387,0.021-0.552-0.094c-0.084-0.059-0.175-0.177-0.27-0.302c-0.111-0.146-0.226-0.295-0.323-0.341
	c-0.185-0.084-0.538,0.183-0.822,0.397c-0.14,0.105-0.272,0.205-0.372,0.252c-0.205,0.1-0.307,0.239-0.407,0.376
	c-0.134,0.181-0.261,0.354-0.599,0.32c-0.183-0.017-0.435-0.134-0.657-0.237c-0.122-0.057-0.237-0.109-0.326-0.14
	c-0.063-0.022-0.143-0.032-0.227-0.043c-0.16-0.02-0.326-0.04-0.432-0.147c-0.012-0.012-0.019-0.028-0.02-0.047
	c0-0.019,0.006-0.036,0.017-0.05c0.245-0.284,0.578-0.452,0.899-0.614c0.148-0.075,0.287-0.146,0.418-0.226
	c0.101-0.062,0.206-0.12,0.31-0.177c0.14-0.077,0.271-0.148,0.396-0.233c0.085-0.059,0.151-0.14,0.221-0.226
	c0.046-0.059,0.092-0.167,0.062-0.164c-0.032,0.003-0.065,0.003-0.097,0.004c-0.062-0.001-0.122-0.013-0.179-0.024
	c-0.042-0.009-0.085-0.019-0.129-0.021l-0.014-0.001c-0.104-0.01-0.128-0.015-0.209-0.107c-0.044-0.05-0.105-0.093-0.18-0.127
	c-0.057-0.025-0.059-0.027-0.113,0.051l-0.015,0.021c-0.024,0.033-0.053,0.064-0.082,0.095c-0.033,0.036-0.065,0.069-0.087,0.107
	c-0.008,0.015-0.022,0.024-0.038,0.026c-0.016,0.003-0.031-0.004-0.042-0.017c-0.089-0.102-0.234-0.232-0.37-0.291
	c-0.06-0.024-0.106,0.007-0.183,0.063c-0.031,0.023-0.061,0.046-0.094,0.064c-0.011,0.006-0.022,0.015-0.035,0.023
	c-0.042,0.029-0.088,0.062-0.131,0.062c-0.002,0-0.003,0-0.004,0c-0.065-0.004-0.134-0.065-0.201-0.124
	c-0.025-0.022-0.048-0.043-0.068-0.057c-0.124-0.085-0.255-0.133-0.395-0.183c-0.06-0.021-0.12-0.043-0.181-0.068
	c-0.266-0.11-0.548-0.218-0.828-0.222c-0.086,0.002-0.133,0.026-0.196,0.063c-0.031,0.017-0.065,0.035-0.104,0.053
	c-0.163,0.069-0.279,0.008-0.414-0.063c-0.137-0.072-0.239-0.104-0.346-0.106c-0.016-0.001-0.03-0.001-0.045,0
	c-0.059,0-0.113,0-0.18-0.04c-0.177-0.104-0.246-0.301-0.311-0.49c-0.032-0.09-0.26-0.008-0.292,0.041
	c-0.047,0.074-0.128,0.085-0.222,0.097l-0.014,0.003c-0.088,0.012-0.176,0.017-0.265,0.023c-0.077,0.004-0.154,0.009-0.231,0.02
	c-0.237,0.026-0.478,0.025-0.711,0.023l-0.392-0.002c-0.283,0-0.566,0-0.849,0.002c-0.185,0-0.369,0.008-0.555,0.016
	c-0.226,0.009-0.461,0.02-0.69,0.016c-0.199-0.003-0.397-0.016-0.59-0.026c-0.236-0.015-0.484-0.026-0.723-0.027
	c-0.272,0.001-0.542,0.005-0.814,0.011c-0.541,0.014-1.087-0.013-1.615-0.039c-0.221-0.01-0.441-0.021-0.661-0.027
	c-0.227-0.01-0.457,0.007-0.679,0.023c-0.203,0.013-0.413,0.027-0.622,0.024c-0.058-0.002-0.115-0.005-0.17-0.006
	c-0.128-0.006-0.247-0.013-0.375,0.002c-0.129,0.014-0.261,0.015-0.387,0.016c-0.082,0.001-0.165,0.001-0.247,0.006
	c-0.226,0.011-0.455,0.007-0.677,0.003c-0.232-0.004-0.472-0.009-0.708,0.006c-0.593,0.033-1.191,0.005-1.769-0.023
	c-0.39-0.02-0.792-0.039-1.189-0.039c-0.007,0-0.016,0-0.022,0c-0.06,0-0.121-0.002-0.182-0.003
	c-0.17-0.004-0.347-0.009-0.512,0.022c-0.129,0.024-0.226,0.022-0.356-0.011c-0.075-0.019-0.149-0.011-0.229-0.002
	c-0.023,0.003-0.047,0.006-0.071,0.008c-0.226,0.019-0.456,0.019-0.674,0.019h-0.152c-0.566,0-1.145,0-1.718,0.021
	c-0.433,0.016-0.874-0.002-1.3-0.019c-0.258-0.011-0.526-0.021-0.789-0.023c-0.428-0.006-0.861,0.004-1.281,0.015
	c-0.331,0.008-0.661,0.017-0.992,0.018c-0.426,0.001-0.845-0.005-1.199-0.011c-0.149-0.002-0.298-0.013-0.442-0.021
	c-0.207-0.015-0.418-0.028-0.631-0.021l-0.081,0.004c-0.194,0.009-0.397,0.014-0.595,0.017c-0.021,0-0.035-0.019-0.044-0.039
	c-0.032-0.007-0.064-0.014-0.095-0.022c-0.102-0.027-0.197-0.052-0.301-0.047c-0.039,0.002-0.078,0.005-0.118,0.007
	c-0.018,0.001-0.036,0-0.054,0.001c0.014,0.011,0.026,0.023,0.041,0.032c0.131,0.084,0.204,0.214,0.275,0.339
	c0.028,0.053,0.059,0.107,0.096,0.159c0.014,0.021,0.032,0.041,0.05,0.06c0.051,0.054,0.115,0.121,0.113,0.226
	c-0.001,0.06-0.021,0.114-0.056,0.152c-0.016,0.019-0.037,0.031-0.058,0.04c0,0.016,0.003,0.031,0.005,0.044
	c0.014,0.077,0.049,0.145,0.088,0.216c0.054,0.1,0.112,0.203,0.112,0.343c0,0.217-0.101,0.46-0.295,0.504
	c-0.18,0.039-0.321-0.074-0.381-0.304c-0.04-0.155-0.042-0.314-0.04-0.449c0-0.028,0.004-0.06,0.006-0.092
	c0.006-0.079,0.013-0.167-0.009-0.224c-0.042-0.107-0.271-0.111-0.395-0.113c-0.035-0.001-0.067-0.001-0.091-0.003
	c-0.09-0.009-0.181-0.019-0.271-0.029c-0.22-0.027-0.449-0.055-0.665-0.038c-0.103,0.007-0.269,0.061-0.296,0.129
	c-0.002,0.007-0.009,0.023,0.015,0.062c0.027,0.047,0.072,0.088,0.115,0.126c0.029,0.027,0.058,0.054,0.082,0.081
	c0.077,0.087,0.149,0.183,0.217,0.274l0.015,0.02c0.077,0.103,0.154,0.206,0.193,0.34c0.029,0.101,0.029,0.197,0.029,0.291
	c0,0.025,0,0.05,0,0.076c0.004,0.181,0.12,0.269,0.386,0.288c0.018,0.001,0.033,0.012,0.042,0.029s0.011,0.038,0.005,0.059
	c-0.039,0.126-0.11,0.198-0.178,0.269c-0.065,0.064-0.125,0.126-0.158,0.234c-0.053,0.169-0.033,0.352-0.012,0.546
	c0.015,0.137,0.03,0.279,0.019,0.419c-0.023,0.27-0.016,0.561-0.011,0.842C2.849,71.707,2.866,72.439,2.448,73l-0.016,0.021
	c-0.079,0.104-0.131,0.173-0.118,0.3c0.003,0.035,0.005,0.067,0.005,0.099c0,0.059,0.001,0.1,0.021,0.145
	c0.121,0.255,0.209,0.493,0.246,0.831c0.015,0.142,0.021,0.285,0.026,0.424c0.005,0.108,0.01,0.217,0.019,0.325
	c0.005,0.056,0.012,0.108,0.019,0.159c0.025,0.19,0.052,0.385-0.087,0.565c0.069,0.081,0.118,0.181,0.166,0.276
	c0.034,0.068,0.066,0.132,0.103,0.189c0.031,0.047,0.067,0.084,0.107,0.123c0.083,0.084,0.176,0.179,0.183,0.355
	c0.003,0.081-0.012,0.148-0.026,0.215c-0.017,0.074-0.032,0.138-0.018,0.213c0.017,0.098,0.055,0.192,0.094,0.292
	c0.031,0.078,0.062,0.159,0.084,0.242c0.013,0.05,0.024,0.099,0.035,0.146c0.037,0.158,0.068,0.295,0.167,0.413
	c0.075,0.089,0.16,0.169,0.24,0.246c0.051,0.049,0.102,0.097,0.149,0.146c0.022,0.023,0.041,0.046,0.061,0.068
	c0.056,0.062,0.102,0.117,0.17,0.14c0.174,0.062,0.384,0.045,0.589,0.028c0.14-0.011,0.283-0.022,0.417-0.009
	c0.022,0.002,0.045,0.004,0.068,0.005c0.097,0.005,0.199,0.011,0.251,0.093c0.028,0.045,0.036,0.105,0.022,0.179
	c-0.019,0.099-0.077,0.203-0.13,0.297c-0.017,0.031-0.034,0.062-0.048,0.089c-0.155,0.312-0.237,0.539-0.25,0.913
	c-0.005,0.138-0.003,0.483,0.125,0.707c0.163,0.279,0.362,0.523,0.631,0.766c0.028,0.024,0.059,0.05,0.089,0.072
	c0.084,0.066,0.172,0.137,0.231,0.239c0.049,0.089,0.053,0.187,0.058,0.273c0.003,0.066,0.006,0.13,0.029,0.176
	c0.064,0.133,0.207,0.157,0.345,0.18c0.042,0.006,0.083,0.013,0.123,0.023l0.107,0.026c0.173,0.043,0.352,0.086,0.518,0.17
	c0.085,0.042,0.174,0.081,0.263,0.119c0.147,0.062,0.299,0.128,0.437,0.216c0.071,0.048,0.142,0.076,0.209,0.104
	c0.131,0.055,0.265,0.108,0.375,0.277c0.081,0.12,0.176,0.219,0.278,0.321c0.082,0.086,0.168,0.172,0.244,0.273
	c0.079,0.104,0.155,0.182,0.256,0.261c0.026,0.021,0.058,0.04,0.091,0.062c0.095,0.062,0.205,0.136,0.262,0.246
	c0.011-0.011,0.026-0.017,0.042-0.012c0.024,0.005,0.039,0.031,0.041,0.06L9.773,85.094z"/>
<g>
	<g>
		<path fill="#B4B4B5" d="M5.829,70.851c0.131,0.602,0.235,1.187,0.442,1.766c0.132,0.37,0.538,0.472,0.835,0.221
			c0.964-0.812,1.743-1.754,2.506-2.751c-0.305-0.039-0.609-0.079-0.914-0.119c0.311,1.928-0.184,3.793-0.441,5.695
			c-0.052,0.383,0.209,0.698,0.615,0.615c2.238-0.462,3.865-2.133,5.859-3.142c-0.228-0.228-0.456-0.456-0.684-0.684
			c-1.371,1.798-2.752,3.516-3.583,5.638c-0.17,0.435,0.384,0.756,0.734,0.564c4.377-2.385,6.522-7.253,10.817-9.713
			c-0.245-0.188-0.49-0.376-0.734-0.564c-1.063,3.976-3.413,7.426-4.856,11.259c-0.13,0.345,0.271,0.742,0.615,0.615
			c5.564-2.058,8.62-7.322,12.583-11.388c-0.278-0.162-0.557-0.324-0.835-0.486c-1.587,5.919-6.032,10.524-8.389,16.115
			c-0.165,0.391,0.399,0.823,0.734,0.564c4.239-3.271,7.023-7.991,11.258-11.259c-0.245-0.188-0.49-0.376-0.734-0.564
			c-1.335,3.616-3.232,6.967-4.806,10.478c-0.226,0.503,0.35,1.017,0.785,0.605c2.435-2.3,4.402-5.01,6.623-7.506
			c-0.285-0.118-0.569-0.235-0.854-0.354c0.103,2.258-0.448,4.344-1.086,6.489c-0.116,0.389,0.373,0.838,0.734,0.564
			c3.067-2.318,4.569-5.935,7.165-8.688c-0.285-0.118-0.569-0.235-0.854-0.354c0.094,2.472-0.587,4.847-0.883,7.285
			c-0.052,0.433,0.583,0.664,0.854,0.354c0.518-0.595,0.96-1.212,1.402-1.867c-0.311-0.084-0.621-0.168-0.932-0.252
			c0.045,1.241,0.227,2.444,0.46,3.664c0.073,0.382,0.583,0.466,0.835,0.221c0.572-0.558,1.02-1.159,1.475-1.813
			c0.266-0.42,0.576-0.801,0.931-1.146c1.413-1.488,1.491,0.253,1.616,0.973c0.103,0.596,0.933,0.388,0.982-0.133
			c0.056-0.59,0.165-1.175,0.221-1.766c0.061-0.642-0.94-0.636-1,0c-0.056,0.59-0.165,1.175-0.221,1.766
			c0.327-0.044,0.655-0.089,0.982-0.133c-0.117-0.678-0.324-1.31-0.441-1.986c-0.035-0.202-0.279-0.386-0.482-0.367
			c-2.527,0.236-3.128,2.301-4.769,3.898c0.278,0.073,0.557,0.147,0.835,0.221c-0.215-1.128-0.382-2.248-0.424-3.398
			c-0.019-0.512-0.655-0.663-0.932-0.252c-0.372,0.587-0.787,1.142-1.246,1.664c0.285,0.118,0.569,0.235,0.854,0.354
			c0.297-2.455,0.977-4.797,0.883-7.285c-0.016-0.419-0.542-0.684-0.854-0.354c-2.522,2.675-3.991,6.284-6.963,8.531
			c0.245,0.188,0.49,0.376,0.734,0.564c0.669-2.251,1.229-4.392,1.122-6.755c-0.019-0.408-0.547-0.698-0.854-0.354
			c-2.221,2.496-4.188,5.206-6.623,7.506c0.262,0.202,0.523,0.404,0.785,0.605c1.609-3.589,3.542-7.019,4.907-10.716
			c0.144-0.39-0.39-0.831-0.734-0.564c-4.239,3.271-7.023,7.991-11.258,11.259c0.245,0.188,0.49,0.376,0.734,0.564
			c2.361-5.602,6.796-10.173,8.389-16.115c0.128-0.479-0.482-0.849-0.835-0.486c-3.805,3.903-6.795,9.153-12.142,11.13
			c0.205,0.205,0.41,0.41,0.615,0.615c1.446-3.836,3.792-7.275,4.856-11.259c0.114-0.426-0.353-0.783-0.734-0.564
			c-4.304,2.466-6.449,7.333-10.817,9.713c0.245,0.188,0.49,0.376,0.734,0.564c0.797-2.035,2.172-3.68,3.482-5.399
			c0.33-0.433-0.283-0.887-0.684-0.684c-1.902,0.962-3.488,2.601-5.62,3.04c0.205,0.205,0.41,0.41,0.615,0.615
			c0.284-2.095,0.783-4.112,0.441-6.227c-0.078-0.483-0.687-0.416-0.914-0.119c-0.72,0.939-1.446,1.786-2.35,2.548
			c0.278,0.073,0.557,0.147,0.835,0.221c-0.207-0.579-0.311-1.164-0.442-1.766C6.656,69.955,5.692,70.222,5.829,70.851L5.829,70.851
			z"/>
	</g>
</g>
</svg>
