<?xml version="1.0" encoding="utf-8"?>
<!-- Generator: Adobe Illustrator 16.0.4, SVG Export Plug-In . SVG Version: 6.00 Build 0)  -->
<!DOCTYPE svg PUBLIC "-//W3C//DTD SVG 1.1//EN" "http://www.w3.org/Graphics/SVG/1.1/DTD/svg11.dtd">
<svg version="1.1" id="Layer_1" xmlns="http://www.w3.org/2000/svg" xmlns:xlink="http://www.w3.org/1999/xlink" x="0px" y="0px"
	 width="60px" height="200px" viewBox="0 0 60 200" enable-background="new 0 0 60 200" xml:space="preserve">
<path fill="none" stroke="#B4B4B5" stroke-miterlimit="10" d="M41.271,28.682c0,0,0.489-0.795,0.308-1.225
	c-0.018-0.098-0.047-0.198-0.104-0.3c-0.378-0.676-0.422-0.763-0.422-1.404s0.072-0.849-0.117-1.421
	c-0.189-0.572-0.146-1.768-0.16-2.218c-0.015-0.451-0.029-0.988-0.189-1.75c-0.16-0.763-0.481-1.837-0.67-2.479
	c-0.19-0.641-0.015-1.525-0.277-1.923c-0.262-0.399-1.035-0.763-1.035-0.763s-1.734-0.364-2.143-0.607
	c-0.409-0.242-0.626-0.277-1.137-0.554c-0.511-0.277-0.817-0.312-0.817-0.312s-0.991-1.352-1.268-1.56
	c-0.168-0.126-0.22-0.213-0.356-0.263c-0.013-0.385-0.026-0.769-0.032-0.854c-0.012-0.157-0.048-0.401-0.024-0.573
	c0.024-0.171,0-0.744,0.024-0.944c0.024-0.201,0.036-0.659,0.036-0.659s0.277,0.014,0.458-0.1c0.181-0.115,0.108-0.287,0.192-0.544
	c0.084-0.258,0.145-0.602,0.217-1.002c0.072-0.401,0.036-0.945-0.024-1.045c-0.059-0.098-0.312-0.005-0.322-0.001
	c0.003-0.018,0.009-0.068,0.021-0.199c0.024-0.272-0.12-1.16-0.145-1.518c-0.023-0.358-0.277-1.103-0.373-1.503
	c-0.096-0.401-0.771-0.845-0.916-1.074s-0.458-0.458-0.735-0.602C30.982,1.143,30.405,1.172,30.26,1.1
	C30.116,1.029,29.743,1,29.525,1c-0.216,0-0.855,0.029-1.131,0.143c-0.277,0.115-0.747,0.688-0.964,1.16s-0.542,1.174-0.554,1.503
	c-0.012,0.33-0.132,1.346-0.108,1.632c0.023,0.286-0.037,0.859-0.037,0.859s-0.084,0.086-0.156,0.257
	c-0.072,0.172,0.168,0.43,0.216,0.788c0.048,0.357,0.024,0.644,0.181,1.117c0.157,0.472,0.446,0.386,0.446,0.386
	s0.145,0.329,0.252,0.831c0.108,0.501,0.398,1.016,0.59,1.546c0.095,0.262,0.105,1.039,0.09,1.757
	c-0.11,0.097-0.247,0.229-0.406,0.418c-0.365,0.433-0.438,0.26-0.744,0.416c-0.227,0.116-0.206,0.193-0.298,0.253
	c-0.001,0.001-0.003,0.002-0.004,0.003c-0.031,0.021-0.077,0.039-0.149,0.056c-0.291,0.069-0.845,0.087-1.472,0.381
	s-1.444,0.589-1.779,0.797c-0.335,0.208-0.583,0.208-0.743,0.52c-0.161,0.312-1.006,2.27-1.065,3.57
	c-0.058,1.3-0.145,2.755-0.262,3.744c-0.117,0.988-0.321,1.352-0.467,2.79c-0.138,1.365-0.081,2.545-0.074,2.664
	c-0.021,0.036-0.041,0.072-0.062,0.108c-0.125,0.178-0.396,0.628-0.418,1.214c-0.029,0.763,0,0.954,0,0.954
	s-0.495,0.866-0.539,1.594s0.292,1.594,0.146,2.167c-0.146,0.572-0.248,1.005-0.335,1.109c0,0-0.496,0.433-0.306,1.04
	c0.19,0.607,0.335,0.364,0.146,0.85c-0.19,0.485-0.408,0.572-0.248,1.386c0.161,0.814,0.248,0.71,0.379,1.074
	c0.131,0.364-0.058,0.33,0.102,0.85c0.161,0.52,0.277,0.78,0.496,1.126c0.219,0.347,0.481,0.468,0.875,0.347
	c0.009-0.003,0.022-0.007,0.032-0.01c0.351,0.478,0.828,1.112,0.959,1.222c0.019,0.016,0.044,0.017,0.073,0.011
	c0,0.043-0.002,0.085,0,0.13c0.087,1.456,0.35,1.178,0.321,1.629c-0.029,0.451-0.087,0.901,0,1.421
	c0.087,0.519,0.175,1.04,0.029,1.456c-0.146,0.416-0.116,1.04-0.116,1.352c0,0.312,0.087,1.386,0.087,1.907
	c0,0.519,0.175,1.04,0.262,1.629c0,0,0.087,1.265,0.284,2.244c0.197,0.98,0.212,1.915,0.489,2.747s0.116,1.204-0.095,1.716
	c-0.211,0.511-0.554,0.832-0.386,1.395c0.167,0.564,0.124,1.386,0.226,2.356c0,0,0.163,1.176,0.299,3.001
	c0.136,1.826,0.058,2.289,0,3.328c-0.059,1.04-0.292,1.456-0.156,2.496c0.136,1.04-0.039,1.154-0.02,1.386
	c0.02,0.231-0.37,0.416-0.253,0.693c0.117,0.277,0.35,0.532,0.369,0.601c0.017,0.059-0.035,0.403-0.052,0.516
	c-0.149,0.091,0.05,0.442-0.222,0.764c-0.472,0.561-1.033,0.771-1.033,0.771s-0.365,0.635-1.122,0.842
	c-0.768,0.211-1.868,0.788-2.125,0.913c-0.368,0.179-0.522,0.666-0.601,1.041c-0.038,0.175,0.038,0.708,0.472,0.842
	c0.435,0.133,2.77,0.271,3.692-0.125c0.922-0.396,1.061,0.331,1.633,0.278c0.573-0.054,1.088,0.016,1.525,0.003
	c0.437-0.013,0.677-0.059,0.851-0.158c0.174-0.098,0.367-0.487,0.489-0.828c0.122-0.342,0.295-1.615-0.059-2.247
	c-0.029-0.052-0.02-1.117-0.002-1.396c0.072-0.234,0.313-0.538,0.327-0.777c0.02-0.347-0.408-1.203-0.175-1.457
	c0.234-0.254,0.622,0.023,0.778-1.016c0.155-1.041,0.389-4.044,0.525-5.523c0.136-1.479-0.058-3.143-0.078-3.651
	c-0.019-0.508-0.058-1.132-0.058-1.132l-0.098-1.086l0.059-0.947c0,0-0.059-0.647,0-0.924c0.058-0.278,0.35-1.156,0.35-1.156
	s0.214-1.641,0.272-2.449c0.058-0.81-0.195-2.08-0.117-2.75c0.078-0.67,0.233-1.132,0.233-1.132s-0.116-0.763,0.02-1.041
	c0.136-0.277,0.252-1.085,0.252-1.085l0.175-1.457c0,0-0.097-1.108,0.137-1.293c0.233-0.185,0.272-0.138,0.349,0.231
	c0.078,0.37,0.156,1.132,0.156,1.132s0.292,1.248,0.408,1.987c0.117,0.74-0.097,1.779,0.136,2.195
	c0.233,0.417,0.253,1.11,0.253,1.849c0,0.74,0.02,1.502,0.02,1.502l0.291,0.901l0.194,0.901c0,0-0.116,1.918,0.098,2.218
	c0.213,0.3,0.563,0.578,0.563,0.578l-0.214,0.809l-0.156,0.924c0,0,0.447,0.647,0.233,1.04c-0.214,0.394-0.447,1.457-0.408,2.265
	s0.136,2.195,0.136,3.165c0,0.972,0.117,1.965,0.117,1.965s0.292,0.947,0.35,1.062c0.058,0.115,0.019,0.531-0.156,1.086
	c-0.175,0.554-0.33,0.507-0.505,1.409c-0.175,0.901-0.233,0.832-0.02,1.433c0.113,0.317,0.225,0.572,0.306,0.747
	c0.073,0.157,0.122,0.247,0.122,0.247s-0.027,0.941-0.043,0.998c0.059,0.6,0.004,0.822-0.073,1.308
	c-0.078,0.486-0.059,0.832-0.059,0.832s0.136,0.901,2.391,0.74c2.255-0.162,1.613-0.878,1.711-1.271
	c0.097-0.393,0.082-0.513-0.461-1.46c-0.544-0.948-0.265-0.964-0.362-1.589c-0.046-0.298-0.069-0.345-0.065-0.422
	c0.018,0.006,0.037,0.011,0.055,0.017c0.019-0.105-0.001-0.331-0.001-0.331s0.836-0.925,0.719-1.317s-0.603-1.063-0.525-1.179
	c0.078-0.115,0.7-0.923,0.739-1.964c0.039-1.04,0.272-3.351,0.427-4.598c0.156-1.248,0.253-3.466,0.253-3.743
	c0-0.277-0.233-0.924-0.116-1.109c0.116-0.185,0.35-0.115,0.213-0.462c-0.136-0.347-0.33-0.786-0.33-0.786l0.039-0.785
	c0,0-0.156,0.508-0.234-0.948c-0.071-1.342-0.077-1.309-0.078-1.295c0-0.022,0.097-3.698,0.117-4.573
	c0.02-0.879,0.311-4.022,0.311-4.807s0.136-2.427,0.156-3.188c0.019-0.762-0.078-1.872-0.059-2.103
	c0.012-0.134,0.055-0.524,0.079-0.86c0.106,0.091,0.174,0.149,0.174,0.149s0.612-1.092,1.239-2.288
	c0.627-1.196,1.269-2.911,1.414-3.535c0.146-0.624,1.312-3.432,1.517-4.558s0.073-1.508,0.263-1.681s0.365-0.104,0.378-0.52
	C41.65,29.358,41.3,28.924,41.271,28.682z"/>
<path fill="none" stroke="#B4B4B5" stroke-miterlimit="10" d="M41.271,128.682c0,0,0.489-0.795,0.309-1.225
	c-0.018-0.098-0.047-0.197-0.105-0.301c-0.378-0.676-0.422-0.762-0.422-1.402c0-0.643,0.072-0.85-0.117-1.422
	s-0.146-1.768-0.16-2.219c-0.015-0.449-0.029-0.986-0.189-1.75c-0.16-0.762-0.481-1.838-0.67-2.479
	c-0.19-0.641-0.016-1.525-0.277-1.924c-0.263-0.398-1.035-0.762-1.035-0.762s-1.734-0.363-2.144-0.607
	c-0.409-0.242-0.626-0.277-1.137-0.555s-0.817-0.311-0.817-0.311s-0.99-1.354-1.268-1.561c-0.168-0.127-0.22-0.213-0.356-0.264
	c-0.013-0.385-0.026-0.768-0.032-0.854c-0.012-0.156-0.049-0.4-0.024-0.572s0-0.744,0.024-0.943c0.023-0.201,0.035-0.66,0.035-0.66
	s0.277,0.016,0.459-0.1c0.18-0.115,0.107-0.287,0.191-0.543c0.085-0.258,0.145-0.602,0.218-1.004c0.071-0.4,0.036-0.943-0.024-1.045
	c-0.059-0.098-0.312-0.004-0.322,0c0.004-0.018,0.01-0.068,0.021-0.199c0.023-0.273-0.121-1.16-0.145-1.518
	s-0.277-1.104-0.373-1.504c-0.097-0.4-0.771-0.844-0.916-1.072c-0.145-0.23-0.457-0.459-0.734-0.602
	c-0.277-0.145-0.854-0.115-1-0.188c-0.145-0.07-0.518-0.1-0.735-0.1c-0.216,0-0.855,0.03-1.131,0.143
	c-0.277,0.115-0.747,0.688-0.964,1.16s-0.542,1.174-0.554,1.504c-0.012,0.328-0.132,1.346-0.108,1.631
	c0.023,0.287-0.037,0.859-0.037,0.859s-0.084,0.086-0.156,0.258s0.168,0.43,0.216,0.787c0.048,0.357,0.024,0.645,0.181,1.117
	s0.446,0.387,0.446,0.387s0.145,0.328,0.252,0.83c0.108,0.5,0.398,1.016,0.59,1.545c0.095,0.264,0.105,1.039,0.09,1.758
	c-0.11,0.098-0.247,0.229-0.406,0.418c-0.365,0.434-0.438,0.26-0.744,0.416c-0.227,0.115-0.206,0.193-0.298,0.254
	c-0.001,0-0.003,0.002-0.004,0.002c-0.031,0.021-0.077,0.039-0.149,0.057c-0.291,0.068-0.845,0.086-1.472,0.381
	s-1.444,0.59-1.779,0.797c-0.335,0.209-0.583,0.209-0.743,0.52c-0.161,0.312-1.006,2.271-1.065,3.57
	c-0.058,1.301-0.145,2.756-0.262,3.744c-0.117,0.988-0.321,1.352-0.467,2.789c-0.138,1.365-0.081,2.547-0.074,2.664
	c-0.021,0.035-0.041,0.072-0.062,0.107c-0.125,0.178-0.396,0.629-0.418,1.215c-0.029,0.764,0,0.953,0,0.953
	s-0.495,0.867-0.539,1.596c-0.044,0.727,0.292,1.594,0.146,2.166c-0.146,0.572-0.248,1.004-0.335,1.109c0,0-0.496,0.432-0.306,1.039
	c0.19,0.607,0.335,0.363,0.146,0.85c-0.19,0.484-0.408,0.572-0.248,1.387c0.161,0.814,0.248,0.709,0.379,1.074
	c0.131,0.363-0.058,0.328,0.102,0.85c0.161,0.52,0.277,0.779,0.496,1.125c0.219,0.348,0.481,0.469,0.875,0.348
	c0.009-0.004,0.022-0.008,0.032-0.012c0.351,0.479,0.828,1.113,0.959,1.223c0.019,0.016,0.044,0.016,0.073,0.012
	c0,0.043-0.002,0.084,0,0.129c0.087,1.455,0.35,1.178,0.321,1.629c-0.029,0.451-0.087,0.9,0,1.422
	c0.087,0.518,0.175,1.039,0.029,1.455c-0.146,0.416-0.116,1.039-0.116,1.352s0.087,1.387,0.087,1.906s0.175,1.041,0.262,1.629
	c0,0,0.087,1.266,0.284,2.244c0.197,0.98,0.212,1.916,0.489,2.748s0.116,1.203-0.095,1.715c-0.211,0.512-0.554,0.832-0.386,1.395
	c0.167,0.564,0.124,1.387,0.226,2.357c0,0,0.163,1.176,0.299,3.002c0.136,1.824,0.058,2.287,0,3.326
	c-0.059,1.041-0.292,1.457-0.156,2.496c0.136,1.041-0.039,1.154-0.02,1.387c0.02,0.23-0.37,0.416-0.253,0.693
	s0.35,0.531,0.369,0.602c0.017,0.059-0.035,0.402-0.052,0.516c-0.149,0.09,0.05,0.441-0.222,0.764
	c-0.472,0.561-1.033,0.771-1.033,0.771s-0.365,0.635-1.122,0.842c-0.768,0.211-1.868,0.787-2.125,0.914
	c-0.368,0.178-0.522,0.666-0.601,1.039c-0.038,0.176,0.038,0.709,0.472,0.844c0.435,0.133,2.77,0.271,3.692-0.127
	c0.922-0.396,1.061,0.332,1.633,0.279c0.573-0.055,1.088,0.016,1.525,0.002c0.437-0.012,0.677-0.059,0.851-0.156
	s0.367-0.488,0.489-0.828c0.122-0.342,0.295-1.615-0.059-2.248c-0.029-0.051-0.02-1.117-0.002-1.395
	c0.072-0.234,0.313-0.539,0.327-0.777c0.02-0.348-0.408-1.203-0.175-1.457c0.234-0.254,0.622,0.023,0.778-1.016
	c0.155-1.041,0.389-4.045,0.525-5.523c0.136-1.479-0.058-3.143-0.078-3.652c-0.019-0.508-0.058-1.131-0.058-1.131l-0.098-1.086
	l0.059-0.947c0,0-0.059-0.646,0-0.924c0.058-0.279,0.35-1.156,0.35-1.156s0.214-1.641,0.272-2.449
	c0.058-0.811-0.195-2.08-0.117-2.75c0.078-0.67,0.233-1.133,0.233-1.133s-0.116-0.762,0.02-1.039
	c0.136-0.277,0.252-1.086,0.252-1.086l0.175-1.457c0,0-0.097-1.107,0.137-1.293c0.233-0.186,0.272-0.139,0.349,0.23
	c0.078,0.371,0.156,1.133,0.156,1.133s0.292,1.248,0.408,1.986c0.117,0.74-0.097,1.779,0.136,2.195
	c0.233,0.416,0.253,1.109,0.253,1.85c0,0.738,0.02,1.502,0.02,1.502l0.292,0.9l0.193,0.902c0,0-0.115,1.918,0.098,2.217
	c0.214,0.301,0.564,0.578,0.564,0.578l-0.215,0.809l-0.155,0.924c0,0,0.447,0.648,0.233,1.041s-0.447,1.455-0.408,2.264
	s0.137,2.195,0.137,3.166s0.116,1.965,0.116,1.965s0.292,0.947,0.351,1.062c0.058,0.115,0.019,0.531-0.156,1.086
	s-0.33,0.508-0.506,1.41c-0.174,0.9-0.232,0.832-0.02,1.432c0.113,0.318,0.225,0.572,0.307,0.748
	c0.072,0.156,0.121,0.246,0.121,0.246s-0.027,0.941-0.043,0.998c0.059,0.6,0.004,0.822-0.073,1.309
	c-0.078,0.484-0.059,0.83-0.059,0.83s0.136,0.902,2.392,0.74c2.255-0.162,1.613-0.877,1.711-1.27
	c0.097-0.393,0.082-0.514-0.462-1.461c-0.544-0.949-0.265-0.965-0.362-1.59c-0.047-0.297-0.068-0.344-0.065-0.422
	c0.019,0.006,0.037,0.012,0.055,0.018c0.019-0.105-0.001-0.33-0.001-0.33s0.836-0.926,0.719-1.318s-0.604-1.062-0.525-1.178
	s0.701-0.924,0.739-1.965c0.039-1.039,0.272-3.35,0.427-4.598c0.156-1.248,0.254-3.467,0.254-3.744s-0.233-0.924-0.117-1.109
	c0.117-0.184,0.35-0.115,0.214-0.461c-0.136-0.348-0.33-0.787-0.33-0.787l0.039-0.785c0,0-0.156,0.51-0.233-0.947
	c-0.072-1.342-0.078-1.309-0.078-1.295c0-0.023,0.098-3.699,0.117-4.574c0.02-0.879,0.311-4.021,0.311-4.807
	s0.136-2.426,0.156-3.188c0.019-0.764-0.078-1.873-0.06-2.104c0.013-0.135,0.056-0.523,0.079-0.859
	c0.106,0.09,0.174,0.148,0.174,0.148s0.613-1.092,1.239-2.287c0.627-1.195,1.269-2.912,1.414-3.535
	c0.146-0.625,1.312-3.432,1.517-4.559s0.073-1.508,0.263-1.682c0.189-0.172,0.364-0.104,0.378-0.52
	C41.65,129.357,41.301,128.924,41.271,128.682z"/>
<g>
	<g>
		<path fill="#B4B4B5" d="M30.127,104.322c-0.711,0.92-1.041,1.881-1.501,2.949c-0.108,0.249-0.077,0.534,0.179,0.684
			c0.628,0.366,0.62,0.365,1.32,0.424c-0.161-0.211-0.321-0.422-0.482-0.633c-0.1,0.483-0.257,0.94-0.356,1.424
			c-0.072,0.347,0.148,0.591,0.482,0.633c2.311,0.288-2.194,5.291-2.489,5.552c-0.355,0.315-0.044,0.819,0.354,0.854
			c1.4,0.122,2.645,0.57,4.047,0.339c-0.128-0.305-0.257-0.609-0.385-0.914c-2.466,1.378-4.991,2.591-7.218,4.349
			c-0.328,0.259-0.067,0.909,0.354,0.854c3.622-0.478,6.928-1.998,10.453-2.865c-0.162-0.279-0.324-0.558-0.486-0.836
			c-3.501,4.027-8.992,5.566-12.456,9.608c-0.314,0.367-0.023,0.975,0.486,0.836c4.045-1.103,7.773-3.369,11.967-3.896
			c-0.118-0.284-0.236-0.569-0.354-0.854c-2.938,3.111-6.95,4.571-10.575,6.684c-0.419,0.244-0.253,0.952,0.252,0.932
			c3.652-0.146,6.947-1.647,10.453-2.509c-0.162-0.279-0.324-0.558-0.486-0.836c-2.32,2.223-5.012,3.994-7.473,6.05
			c-0.427,0.356,0.048,0.906,0.486,0.836c2.211-0.357,4.382-0.962,6.629-1.05c-0.161-0.211-0.321-0.422-0.482-0.633
			c-1.252,3.247-4.065,5.42-6.633,7.608c-0.359,0.306-0.043,0.827,0.354,0.854c1.562,0.104,3.063,0.607,4.626,0.711
			c-0.118-0.284-0.236-0.569-0.354-0.854c-0.649,0.643-1.245,1.217-2.034,1.702c-0.548,0.337-0.046,1.202,0.505,0.863
			c0.844-0.52,1.532-1.161,2.236-1.858c0.327-0.323,0.068-0.825-0.354-0.854c-1.562-0.104-3.063-0.607-4.626-0.711
			c0.118,0.284,0.236,0.569,0.354,0.854c2.733-2.328,5.563-4.608,6.89-8.05c0.116-0.3-0.179-0.645-0.482-0.633
			c-2.339,0.091-4.592,0.714-6.895,1.085c0.162,0.279,0.324,0.558,0.486,0.836c2.462-2.057,5.152-3.826,7.473-6.05
			c0.372-0.356-0.013-0.952-0.486-0.836c-3.415,0.84-6.628,2.332-10.188,2.474c0.084,0.311,0.168,0.621,0.252,0.932
			c3.701-2.156,7.78-3.666,10.777-6.84c0.268-0.284,0.108-0.912-0.354-0.854c-4.3,0.541-8.087,2.803-12.232,3.932
			c0.162,0.279,0.324,0.558,0.486,0.836c3.458-4.035,8.953-5.579,12.456-9.608c0.324-0.373,0.018-0.96-0.486-0.836
			c-3.433,0.845-6.66,2.365-10.188,2.83c0.118,0.284,0.236,0.569,0.354,0.854c2.156-1.702,4.63-2.859,7.016-4.192
			c0.527-0.295,0.145-1.002-0.385-0.914c-1.254,0.208-2.537-0.266-3.782-0.374c0.118,0.284,0.236,0.569,0.354,0.854
			c1.411-1.25,2.15-3.021,3.559-4.271c0.122-0.108,0.187-0.331,0.128-0.486c-0.414-1.098-0.575-2.336-1.906-2.502
			c0.161,0.211,0.321,0.422,0.482,0.633c0.1-0.483,0.257-0.94,0.356-1.424c0.069-0.336-0.146-0.604-0.482-0.633
			c-0.271-0.096-0.543-0.191-0.815-0.287c0.06,0.228,0.12,0.456,0.179,0.684c0.403-0.935,0.711-1.926,1.345-2.746
			C31.223,104.526,30.521,103.812,30.127,104.322L30.127,104.322z"/>
	</g>
</g>
<text transform="matrix(1 0 0 1 17.4004 92.2998)" fill="#B4B4B5" font-family="'SourceSansPro-Semibold'" font-size="10">39 yrs</text>
<text transform="matrix(1 0 0 1 17.4004 192.2998)" fill="#B4B4B5" font-family="'SourceSansPro-Semibold'" font-size="10">39 yrs</text>
</svg>
