<?xml version="1.0" encoding="utf-8"?>
<!-- Generator: Adobe Illustrator 16.0.4, SVG Export Plug-In . SVG Version: 6.00 Build 0)  -->
<!DOCTYPE svg PUBLIC "-//W3C//DTD SVG 1.1//EN" "http://www.w3.org/Graphics/SVG/1.1/DTD/svg11.dtd">
<svg version="1.1" id="Layer_1" xmlns="http://www.w3.org/2000/svg" xmlns:xlink="http://www.w3.org/1999/xlink" x="0px" y="0px"
	 width="60px" height="200px" viewBox="0 0 60 200" enable-background="new 0 0 60 200" xml:space="preserve">
<path fill="none" stroke="#B4B4B5" stroke-miterlimit="10" d="M41.636,28.179c0,0-1.373-6.398-1.609-8.226
	c-0.237-1.828-0.568-4.474-2.368-4.955c-0.867-0.232-1.743-0.486-2.447-0.72c-0.031-0.374-0.053-0.763-0.045-1.082
	c0.022-0.924-0.221-1.499-0.199-1.799c0.022-0.3-0.088-1.699-0.044-2.574c0.044-0.875-0.31-3.148-0.31-3.548
	s-0.729-1.274-0.884-1.574s-0.486-1.099-0.773-1.399c-0.287-0.3-1.525-0.7-1.856-0.824c-0.332-0.125-0.375-0.325-0.707-0.275
	c-0.332,0.05-0.376-0.05-0.553-0.175s-0.641,0.2-0.817,0.325c-0.177,0.125-0.619,0.075-0.862,0.15
	c-0.243,0.075-0.531,0.175-0.486,0.35s0.299-0.193-0.894,0.731c-1.194,0.925-1.163,3.925-1.251,4.175
	c-0.088,0.25,0.18,1.336,0.066,2.563c-0.198,2.124-0.263,3.003-0.263,3.003c-0.246,0.754-0.377,1.571-0.448,2.229
	c-0.938,0.265-2.517,0.78-3.417,1.695c-1.183,1.203-1.704,4.281-2.083,5.821c-0.379,1.539-0.71,3.993-0.9,4.955
	c-0.189,0.962-0.095,1.828-0.095,2.454c-0.083,0.421,0.047,0.733,0.119,1.167c0.033,0.197,0.08,0.53,0.135,0.88
	c0.04,0.443,0.146,0.863,0.194,1.038c-0.022,0.725-0.031,1.512-0.009,2.267c0.071,2.417,0.284,4.294,0.249,5.196
	s0.071,1.479-0.106,2.273c-0.178,0.793-0.32,1.334-0.284,1.947c0.035,0.614,0.142,1.263,0.355,1.588
	c0.212,0.325,0.391,0.614,0.568,0.722s0.568,0.758,0.923,0.83c0.354,0.073,0.816,0.506,1.101,0.722
	c0.284,0.217,0.461-0.072,0.319-0.722c-0.142-0.649-0.533-2.273-0.497-2.598c0.036-0.324,0.106-0.505,0.213-0.289
	c0.106,0.217,0.39,1.696,0.532,2.093c0.109,0.305,0.344,0.458,0.527,0.367c0.109,0.449,0.22,0.871,0.325,1.208
	c0.474,1.515,0.545,3.079,0.663,3.656c0.118,0.577-0.189,0.769-0.047,1.178c0.142,0.41,0.189,0.481,0.331,0.938
	c0.142,0.458-0.047,0.529-0.095,0.938c-0.047,0.41,0.284,1.059,0.261,1.564c-0.024,0.505-0.166,1.155-0.024,1.443
	s-0.047,0.649-0.071,1.106c-0.024,0.457-0.142,0.649,0.047,1.059c0.189,0.409,0.213,2.261,0.332,3.031
	c0.118,0.769,0.544,2.356,0.733,3.175c0.189,0.818,0.947,4.497,0.995,4.907c0.047,0.409-0.166,0.938-0.166,0.938l0.331,1.25
	l0.237,1.01c0,0-0.047,0.41,0.095,0.626c0.142,0.217,0.189,0.842,0.166,1.083c-0.004,0.045,0.063,0.083,0.187,0.112
	c-0.013,0.358-0.088,1.114-0.471,1.715c-0.521,0.817-0.308,0.722-0.26,1.179s-0.142,0.457-0.142,0.842
	c0,0.384-0.308,1.082,0.402,1.082c0.71,0,3.574,0,3.574,0s0.497-0.456,0.284-1.13c-0.213-0.673,0.047-0.721-0.095-1.01
	c-0.142-0.289-0.047-0.746-0.047-0.746l-0.022-1.803c0.079,0,0.157,0,0.235,0c0.085,0,0.173-0.001,0.261-0.001
	c0.003,0.111,0.021,0.779,0,1.131c-0.024,0.385,0.142,0.65,0.213,0.89c0.071,0.24,0,0.289-0.071,0.553
	c-0.071,0.265,0.023,0.553,0.166,0.77c0.142,0.216,0.071,0.385,0.023,0.818c-0.047,0.433,0.142,0.505,0.544,0.505s3.077,0,3.077,0
	s0.331-0.577,0.308-0.962c-0.024-0.384-0.071-0.673-0.189-0.889c-0.119-0.217-0.024-0.41-0.095-0.698
	c-0.071-0.289,0.071-0.505-0.047-0.793c-0.119-0.289-0.237-0.53-0.332-0.721c-0.095-0.193-0.071-0.433-0.142-0.674
	c-0.004-0.012-0.019-0.023-0.034-0.036c0.155-0.007,0.247-0.012,0.247-0.012s-0.071-1.083,0-1.419
	c0.071-0.337,0.095-0.939,0.095-0.939s-0.26-0.457-0.071-1.106c0.189-0.65,0.45-1.179,0.45-1.179s0.284-1.106,0.734-2.044
	c0.45-0.938,0.307-4.499,0.71-5.628c0.403-1.13,0.876-4.137,0.805-4.907c-0.071-0.77-0.213-1.395-0.213-1.395l-0.118-1.034
	l0.166-1.275c0,0-0.166-0.168,0.071-1.419c0.237-1.251,0.237-1.107,0.237-1.107s0.047-2.333,0.095-2.814
	c0.047-0.481,0.308-1.372,0.308-1.372l0.147-0.725c0.135,0.208,0.107,0.241,0.456,0.027c0.355-0.216,1.279-0.938,1.633-1.335
	c0.355-0.397,0.781-1.623,0.888-2.381c0.106-0.758-0.178-1.731-0.142-2.417c0.035-0.686,0-2.851,0.248-5.484
	c0.217-2.301-0.135-4.96-0.227-5.595c0.182-0.01,0.312-0.04,0.333-0.106c0.095-0.289-0.189-2.021-0.189-2.021L41.636,28.179z
	 M30.317,72.175c0,0-0.281-0.382-0.376-0.668c-0.094-0.287,0.235-1.1,0.235-1.1s-0.14-0.573-0.375-1.051
	c-0.236-0.477,0-0.812,0.141-1.863c0.141-1.051-0.047-0.765-0.047-1.768s-0.188-1.624-0.188-2.341c0-0.716,0.047-2.007,0.047-2.58
	c0-0.573,0-0.812-0.282-1.194c-0.282-0.382,0.376-0.955,0.282-1.386c-0.094-0.43-0.188,0.239-0.188-0.622
	c0-0.859,0.094-0.525,0.142-1.385c0.047-0.86,0.047-1.051,0.141-1.864c0.094-0.812,0.235-0.908,0.094-1.386
	c-0.141-0.477,0-1.194,0.141-1.767c0.141-0.574,0.282-1.195,0.282-1.195c0.282,1.147,0.423,1.96,0.376,2.868
	c-0.048,0.908,0.046,0.955,0.235,2.341c0.188,1.386,0.235,2.866,0.235,2.866c0,0.287,0.658,0.382,0.658,0.382
	c-0.15,0.04-0.148,0.273-0.117,0.506l-0.071,0.306l0.047,1.003c0,0-0.094,1.481,0.047,2.294c0.141,0.812-0.235,2.723-0.188,3.583
	c0.047,0.859-0.47,1.099-0.517,1.72c-0.047,0.622,0.188,1.672,0.235,2.198c0.047,0.525-0.329,0.859-0.518,1.434
	c-0.188,0.573-0.282,1.958-0.282,1.958L30.317,72.175z M38.784,45.041c0,0.433-0.461,1.155-0.568,1.515
	c-0.046,0.156-0.151,0.373-0.245,0.585c0.029-0.119,0.318-1.313,0.479-2.354c0.099-0.24,0.188-0.43,0.262-0.467
	C38.925,44.211,38.784,44.608,38.784,45.041z"/>
<path fill="none" stroke="#B4B4B5" stroke-miterlimit="10" d="M41.636,128.181c0,0-1.373-6.398-1.609-8.227
	c-0.237-1.828-0.568-4.474-2.368-4.955c-0.866-0.231-1.742-0.486-2.446-0.719c-0.031-0.375-0.053-0.764-0.045-1.082
	c0.022-0.925-0.222-1.5-0.198-1.799c0.021-0.301-0.089-1.699-0.045-2.574c0.045-0.875-0.31-3.148-0.31-3.549
	c0-0.399-0.729-1.273-0.884-1.574c-0.154-0.299-0.486-1.099-0.773-1.398c-0.287-0.301-1.525-0.7-1.855-0.824
	c-0.332-0.126-0.376-0.326-0.708-0.275c-0.332,0.05-0.376-0.051-0.553-0.176c-0.177-0.125-0.641,0.201-0.817,0.325
	c-0.177,0.126-0.619,0.075-0.862,0.149c-0.243,0.076-0.531,0.176-0.486,0.351s0.299-0.193-0.894,0.731
	c-1.194,0.924-1.163,3.925-1.251,4.175c-0.088,0.249,0.18,1.337,0.066,2.563c-0.198,2.124-0.263,3.003-0.263,3.003
	c-0.246,0.754-0.377,1.571-0.448,2.229c-0.938,0.265-2.517,0.779-3.417,1.694c-1.183,1.203-1.704,4.281-2.083,5.821
	c-0.379,1.539-0.71,3.992-0.9,4.955c-0.189,0.962-0.095,1.828-0.095,2.453c-0.083,0.421,0.047,0.733,0.119,1.166
	c0.033,0.197,0.08,0.531,0.135,0.881c0.04,0.442,0.146,0.863,0.194,1.037c-0.022,0.726-0.031,1.512-0.009,2.268
	c0.071,2.418,0.284,4.294,0.249,5.195c-0.035,0.902,0.071,1.479-0.106,2.273c-0.178,0.793-0.32,1.335-0.284,1.947
	c0.035,0.614,0.142,1.264,0.355,1.588c0.212,0.326,0.391,0.614,0.568,0.723c0.177,0.107,0.568,0.758,0.923,0.829
	c0.354,0.073,0.816,0.506,1.101,0.722c0.284,0.217,0.461-0.072,0.319-0.722s-0.533-2.272-0.497-2.598
	c0.036-0.324,0.106-0.505,0.213-0.288c0.106,0.217,0.39,1.695,0.532,2.093c0.109,0.305,0.344,0.458,0.527,0.366
	c0.109,0.449,0.22,0.871,0.325,1.209c0.474,1.515,0.545,3.079,0.663,3.656c0.118,0.577-0.189,0.77-0.047,1.178
	c0.142,0.41,0.189,0.481,0.331,0.938c0.142,0.458-0.047,0.528-0.095,0.938c-0.047,0.41,0.284,1.06,0.261,1.564
	c-0.024,0.505-0.166,1.155-0.024,1.443s-0.047,0.649-0.071,1.106c-0.024,0.457-0.142,0.648,0.047,1.059
	c0.189,0.408,0.213,2.26,0.332,3.03c0.118,0.769,0.544,2.356,0.733,3.175s0.947,4.497,0.995,4.907
	c0.047,0.409-0.166,0.938-0.166,0.938l0.331,1.25l0.237,1.011c0,0-0.047,0.41,0.095,0.625c0.142,0.217,0.189,0.842,0.166,1.084
	c-0.004,0.045,0.063,0.082,0.187,0.111c-0.013,0.358-0.088,1.114-0.471,1.716c-0.521,0.817-0.308,0.722-0.26,1.179
	s-0.142,0.457-0.142,0.842s-0.308,1.082,0.402,1.082c0.71,0,3.574,0,3.574,0s0.497-0.457,0.284-1.131
	c-0.213-0.673,0.047-0.721-0.095-1.01s-0.047-0.746-0.047-0.746l-0.022-1.803c0.079,0,0.157,0,0.235,0
	c0.085,0,0.173-0.002,0.261-0.002c0.003,0.111,0.021,0.779,0,1.131c-0.024,0.385,0.142,0.65,0.213,0.891
	c0.071,0.24,0,0.289-0.071,0.553c-0.071,0.266,0.023,0.554,0.166,0.771c0.143,0.216,0.071,0.385,0.023,0.817
	c-0.047,0.434,0.143,0.506,0.545,0.506s3.077,0,3.077,0s0.331-0.578,0.308-0.963s-0.07-0.674-0.189-0.889
	c-0.118-0.217-0.023-0.41-0.094-0.699c-0.072-0.288,0.07-0.504-0.048-0.793s-0.237-0.529-0.331-0.721
	c-0.096-0.193-0.072-0.434-0.143-0.675c-0.004-0.013-0.019-0.023-0.034-0.036c0.155-0.007,0.247-0.012,0.247-0.012
	s-0.07-1.082,0-1.418c0.071-0.338,0.095-0.939,0.095-0.939s-0.26-0.457-0.071-1.105c0.189-0.65,0.45-1.18,0.45-1.18
	s0.284-1.105,0.733-2.044c0.45-0.938,0.308-4.499,0.711-5.628c0.402-1.131,0.875-4.137,0.805-4.908
	c-0.071-0.77-0.213-1.395-0.213-1.395l-0.119-1.033l0.166-1.275c0,0-0.166-0.168,0.07-1.419c0.237-1.251,0.237-1.106,0.237-1.106
	s0.048-2.334,0.095-2.814c0.047-0.481,0.308-1.371,0.308-1.371l0.147-0.725c0.135,0.207,0.107,0.24,0.456,0.027
	c0.355-0.217,1.278-0.938,1.634-1.336c0.355-0.396,0.781-1.623,0.888-2.381s-0.179-1.731-0.142-2.417
	c0.035-0.686,0-2.851,0.248-5.484c0.217-2.302-0.135-4.96-0.227-5.595c0.182-0.01,0.311-0.04,0.332-0.105
	c0.096-0.289-0.188-2.021-0.188-2.021L41.636,128.181z M30.317,172.177c0,0-0.281-0.383-0.376-0.669
	c-0.094-0.286,0.235-1.1,0.235-1.1s-0.14-0.573-0.375-1.052c-0.236-0.477,0-0.811,0.141-1.862c0.141-1.051-0.047-0.765-0.047-1.769
	c0-1.003-0.188-1.623-0.188-2.34s0.047-2.008,0.047-2.58c0-0.574,0-0.812-0.282-1.195c-0.282-0.382,0.376-0.955,0.282-1.385
	s-0.188,0.238-0.188-0.622c0-0.859,0.094-0.525,0.142-1.385c0.047-0.86,0.047-1.051,0.141-1.864
	c0.094-0.812,0.235-0.908,0.094-1.386c-0.141-0.478,0-1.194,0.141-1.767c0.141-0.574,0.282-1.195,0.282-1.195
	c0.282,1.146,0.423,1.959,0.376,2.867c-0.048,0.908,0.046,0.955,0.235,2.342c0.188,1.385,0.235,2.865,0.235,2.865
	c0,0.287,0.658,0.383,0.658,0.383c-0.15,0.039-0.148,0.273-0.117,0.506l-0.07,0.307l0.047,1.003c0,0-0.094,1.481,0.047,2.294
	s-0.235,2.723-0.188,3.584c0.048,0.859-0.47,1.098-0.517,1.719c-0.047,0.622,0.188,1.673,0.234,2.198
	c0.048,0.525-0.329,0.859-0.517,1.434c-0.188,0.573-0.282,1.958-0.282,1.958L30.317,172.177z M38.783,145.042
	c0,0.434-0.461,1.154-0.568,1.516c-0.045,0.156-0.15,0.372-0.244,0.584c0.029-0.119,0.318-1.312,0.479-2.354
	c0.099-0.24,0.188-0.43,0.263-0.468C38.926,144.212,38.783,144.609,38.783,145.042z"/>
<g>
	<g>
		<path fill="#B4B4B5" d="M30.647,104.873c-1.088,1.147-1.992,2.373-2.745,3.767c-0.137,0.254-0.035,0.688,0.299,0.734
			c1.225,0.173,2.211,0.499,3.466,0.353c-0.084-0.311-0.168-0.621-0.252-0.932c-1.831,0.832-3.328,2.023-4.768,3.41
			c-0.346,0.334-0.05,0.805,0.354,0.854c2.105,0.26,3.908-0.506,5.585-1.734c-0.201-0.262-0.403-0.523-0.605-0.785
			c-2.623,2.271-5.335,4.418-7.667,7c-0.3,0.332-0.088,0.826,0.354,0.854c3.334,0.202,6.417-1.188,9.466-2.352
			c-0.162-0.278-0.324-0.557-0.486-0.836c-4.084,3.371-8.401,6.447-12.333,10c-0.304,0.275-0.084,0.906,0.354,0.854
			c4.439-0.523,8.309-2.891,12.466-4.351c-0.128-0.304-0.257-0.608-0.385-0.913c-2.668,1.982-5.466,3.85-7.513,6.512
			c-0.275,0.357,0.177,0.854,0.564,0.734c2.253-0.691,4.413-1.641,6.667-2.333c-0.162-0.278-0.324-0.558-0.486-0.835
			c-2.464,2.363-5.381,4.156-8,6.332c-0.418,0.348,0.042,0.924,0.486,0.836c3.935-0.777,7.295-2.91,11-4.332
			c-0.188-0.246-0.376-0.49-0.564-0.734c-2.154,3.695-5.579,6.277-8.588,9.23c-0.297,0.291-0.09,0.885,0.354,0.854
			c2.285-0.154,4.225-1.061,6.251-2.068c-0.228-0.227-0.456-0.455-0.684-0.684c-2.117,3.318-5.29,5.691-7.921,8.566
			c-0.246,0.268-0.159,0.74,0.221,0.836c2.07,0.514,3.873,0.055,5.932-0.334c-0.205-0.205-0.41-0.41-0.615-0.615
			c-0.424,1.189-1.137,1.713-2.104,2.367c-0.531,0.359-0.031,1.227,0.505,0.863c1.2-0.812,2.069-1.58,2.563-2.965
			c0.139-0.389-0.272-0.68-0.615-0.615c-1.846,0.35-3.512,0.805-5.401,0.334c0.074,0.279,0.147,0.557,0.221,0.836
			c2.692-2.941,5.913-5.375,8.078-8.77c0.287-0.449-0.262-0.893-0.684-0.684c-1.855,0.922-3.647,1.789-5.748,1.932
			c0.118,0.285,0.236,0.57,0.354,0.854c3.074-3.016,6.546-5.66,8.745-9.434c0.205-0.352-0.138-0.898-0.564-0.734
			c-3.695,1.418-7.077,3.557-11,4.332c0.162,0.279,0.324,0.559,0.486,0.836c2.62-2.178,5.534-3.967,8-6.332
			c0.358-0.344-0.008-0.982-0.486-0.836c-2.254,0.691-4.413,1.641-6.667,2.332c0.188,0.246,0.376,0.49,0.564,0.734
			c1.936-2.516,4.633-4.279,7.154-6.152c0.421-0.312,0.192-1.117-0.385-0.914c-4.059,1.425-7.871,3.805-12.201,4.314
			c0.118,0.285,0.236,0.569,0.354,0.854c3.933-3.553,8.249-6.629,12.333-10c0.38-0.312-0.025-1.012-0.486-0.835
			c-2.96,1.13-5.961,2.512-9.201,2.315c0.118,0.284,0.236,0.568,0.354,0.854c2.332-2.582,5.044-4.729,7.667-7
			c0.427-0.369-0.146-1.122-0.605-0.785c-1.549,1.134-3.129,1.838-5.082,1.598c0.118,0.285,0.236,0.569,0.354,0.854
			c1.376-1.326,2.821-2.461,4.565-3.254c0.442-0.201,0.235-0.989-0.252-0.932c-1.121,0.131-2.106-0.163-3.2-0.316
			c0.1,0.244,0.199,0.489,0.299,0.734c0.713-1.318,1.554-2.473,2.589-3.564C31.797,105.111,31.091,104.404,30.647,104.873
			L30.647,104.873z"/>
	</g>
</g>
<text transform="matrix(1 0 0 1 17.4004 92.2998)" fill="#B4B4B5" font-family="'SourceSansPro-Semibold'" font-size="10">29 yrs</text>
<text transform="matrix(1 0 0 1 17.4004 192.2998)" fill="#B4B4B5" font-family="'SourceSansPro-Semibold'" font-size="10">29 yrs</text>
</svg>
