<?xml version="1.0" encoding="utf-8"?>
<!-- Generator: Adobe Illustrator 16.0.4, SVG Export Plug-In . SVG Version: 6.00 Build 0)  -->
<!DOCTYPE svg PUBLIC "-//W3C//DTD SVG 1.1//EN" "http://www.w3.org/Graphics/SVG/1.1/DTD/svg11.dtd">
<svg version="1.1" id="Layer_1" xmlns="http://www.w3.org/2000/svg" xmlns:xlink="http://www.w3.org/1999/xlink" x="0px" y="0px"
	 width="60px" height="200px" viewBox="0 0 60 200" enable-background="new 0 0 60 200" xml:space="preserve">
<path fill="none" stroke="#B4B4B5" stroke-miterlimit="10" d="M41.397,28.195l-0.685-1.88L39.725,22.7c0,0-0.304-2.313-0.229-3.977
	c0,0,0.076-2.241-0.607-2.892c-0.685-0.651-1.369-1.59-2.738-1.663c-0.387-0.021-0.72-0.041-1.011-0.067
	c-0.085-0.06-0.168-0.135-0.245-0.25c-0.408-0.611-0.205-0.791-0.255-0.893c0.02,0.038,0.051,0.102,0.051,0.102
	s0.127,0.561,0.331,0.459c0,0-0.051-0.357-0.331-1.148c-0.281-0.791-0.485-0.816-0.562-1.224c-0.077-0.408,0.103-0.893-0.025-1.276
	c-0.128-0.382-0.204-0.612-0.204-0.612s0.332-0.357,0.459-0.664c0.128-0.306,0.025-0.587,0.076-0.74
	c0.052-0.153,0.179,0.025,0.281-0.536c0.102-0.562,0.255-1.046,0.102-1.965c-0.152-0.918-0.434-2.143-1.097-2.934
	s-1.862-1.301-2.22-1.352c-0.357-0.051-1.581-0.179-2.193,0.127c-0.612,0.307-0.893,0.485-1.072,0.562
	c-0.178,0.077-1.173,0.791-1.377,1.633s-0.357,1.836-0.383,2.143s-0.332,0.485-0.332,0.714s0.077,0.408,0.052,0.689
	s-0.204,0.306-0.204,0.586c0,0.281-0.103,0.587,0.102,0.766c0.205,0.179,0.205,0.663,0.307,0.688
	c0.102,0.026,0.025,1.021-0.383,0.664c0,0-0.025,0.434,0.307,0.357c0,0-0.435,0.638-0.664,0.306c0,0,0.025,0.536,0.587,0.255
	c0,0-0.103,0.74-0.536,0.536c0,0,0.332,0.434,0.74,0.051c0,0,0.128,0.74-0.638,0.663c0,0,0.638,0.459,0.944,0.153
	c0,0,0.408,0.179-0.23,0.536c0,0,0.088,0.02,0.203,0.016c-0.375,0.496-0.919,1.064-1.53,1.22c-1.141,0.289-3.193,0.578-3.954,1.59
	s-1.064,3.398-1.598,4.989c-0.532,1.591-0.76,3.037-0.912,4.7s0.076-0.217-0.152,1.663c-0.228,1.88,0.229,1.663,0.229,1.663
	s-0.381,0.795-0.076,1.59c0.305,0.795,0.761,0.94,0.761,0.94s0.1,0.031,0.261,0.071c0.32,0.638,0.995,1.98,1.336,2.628
	c0.018,0.034,0.038,0.075,0.058,0.113c-0.275,0.896-0.136,1.392-0.209,1.815c-0.076,0.434-0.076,1.374,0.151,1.374
	c0.031,0,0.158,0.077,0.354,0.201c-0.007,0.486-0.056,2.259-0.404,3.004c-0.405,0.867-0.405,2.169-0.254,3.181
	c0.153,1.012,0.559,0.772,0.609,1.495c0.05,0.723,0.151,1.494,0.151,1.494l0.559,1.109c0,0,0.253,1.156,0.405,1.446
	c0.151,0.289,0.051,1.012,0.354,2.169c0.305,1.157,0.608,1.976,0.608,1.976l0.354,1.591l0.508,1.59c0,0,0,1.544-0.051,2.073
	c-0.051,0.53-0.051,1.446-0.051,1.446v1.109c0,0,0.304,1.156,0.203,2.121c-0.102,0.963,0.304,4.626,0.304,6.362
	c0,1.735,0.051,2.024,0.152,2.892c0.101,0.867,0.254,1.204,0.354,1.832c0.102,0.626,0.405,1.157,0.305,1.446
	c-0.063,0.179,0.129,0.376,0.55,0.513c-0.057,0.248-0.051,0.794-0.499,1.415c-0.559,0.771-0.456,1.108-0.609,1.783
	c-0.151,0.675-0.963,0.82-0.811,1.495c0,0-0.152,0.386,0.861,0.386c1.015,0,4.209,0,4.209,0s0.558-0.675,0.304-1.206
	c-0.253-0.53,0.102-0.434-0.102-1.061c-0.202-0.626,0-1.012-0.151-1.542c-0.152-0.53-0.406-0.579-0.406-1.109
	c0-0.022-0.01-0.041-0.017-0.062c0.167-0.019,0.271-0.034,0.271-0.034s0.05-0.675,0.152-1.542c0.101-0.867,0.304-2.748,0.304-2.748
	l-0.812-2.748l0.203-3.953c0,0-0.051-2.024,0.202-2.939c0.254-0.916,0.103-1.591,0.103-1.591l0.101-1.687c0,0,0.406-2.844,0.254-4
	c-0.152-1.157-0.304-2.651-0.304-2.651s-0.254-0.578-0.153-2.217c0.103-1.639,0-0.241,0.103-1.639
	c0.101-1.398,0.202-2.603,0.202-2.603l-0.102-1.495c0,0-0.008-0.122,0.016-0.253c0.092-0.059,0.104-0.18,0.132-0.267
	c0.051-0.042,0.116-0.069,0.208-0.058c0.21,0.099,0.135,0.244,0.249,0.341c0.093,0.388,0.038,0.989,0.004,1.152
	c-0.051,0.241,0.102,3.037-0.051,3.904c-0.151,0.868,0.305,1.977,0.203,2.844c-0.102,0.868-0.203,1.398-0.203,2.506
	c0,1.109-0.101,1.832-0.101,2.652c0,0.819-0.254,1.349,0,2.073c0.253,0.722,0.405,1.108,0.405,1.108l-0.051,0.868l-0.305,0.916
	c0,0,0.254,0.53,0.405,1.253c0.153,0.722-0.253,3.182-0.202,4.29c0.051,1.109,0.202,2.699,0.202,2.699l0.052,1.35
	c0,0,0,0.53,0,1.157s0,1.35,0,1.35l0.051,1.253c0,0-0.103,0.53,0.304,0.675c0.058,0.021,0.148,0.036,0.259,0.048
	c0.001,0.188-0.02,0.554-0.157,1.013c-0.203,0.675-0.152,0.337-0.051,0.867s0.253,0.675,0.102,1.206
	c-0.152,0.53-0.305,0.385-0.203,0.916s-0.202,0.868,0.558,0.868c0.761,0,4.462,0,4.462,0s0.862-0.723,0.152-1.108
	c-0.71-0.385-0.862-0.867-1.115-1.254c-0.254-0.385-0.254-0.578-0.457-1.012c-0.203-0.433-0.405-1.108-0.405-1.108l-0.203-0.53
	c0.608-0.145,0.964-0.338,0.861-0.819c-0.101-0.482-0.506-0.771-0.202-1.542c0.305-0.771,0.659-1.783,0.659-1.783l0.304-2.988
	c0,0,0.102-5.592,0.051-6.17c-0.051-0.579,0-0.241-0.051-1.061s-0.202-1.397-0.202-1.397l0.202-1.157v-1.977
	c0,0,1.319-5.206,1.269-5.881c-0.052-0.675,0.76-3.278,0.861-4.145c0.102-0.868,0.71-1.687,0.761-2.411
	c0.051-0.723,0.304-2.169,0.304-2.169s-0.253-1.976-0.456-2.748c-0.152-0.578-0.333-1.374-0.414-1.735
	c0.064-0.117,0.089-0.244,0.06-0.385c-0.002-0.004-0.003-0.011-0.004-0.015c0.28-0.641,0.575-1.3,0.713-1.672
	c0.294-0.792,1.389-4.047,1.509-4.704c0.229,0.004,0.412-0.028,0.52-0.116c0.532-0.434,1.141,0,1.064-0.867
	C41.397,29.279,41.397,28.195,41.397,28.195z M36.218,29.197c-0.043-0.054-0.523-0.66-0.523-1.074c0-0.434-0.229-1.374,0-1.952
	c0.228-0.579,0.532,0.434,0.532,0.434S36.041,28.134,36.218,29.197z M30.675,38.172l0.036,0.427c-0.03,0.004-0.06,0.007-0.089,0.011
	L30.675,38.172z M22.766,29.93c0.305-1.88,0.381-1.518,0.305-1.88c-0.076-0.361,0.229-0.867,0.229-0.867l0.15-0.503
	c0.001,0.001,0.001,0.002,0.002,0.003c0.011,0.069,0.298,2.026-0.001,2.452c-0.231,0.33-0.157,0.787-0.409,1.337
	C22.932,30.223,22.836,30.021,22.766,29.93z M37.113,30.388c-0.193,0.277-0.205,0.904-0.472,1.338
	c-0.096-0.593-0.263-1.073-0.263-1.073l-0.145-1.372c0.079,0.412,0.215,0.745,0.448,0.866c0.121,0.062,0.276,0.135,0.451,0.21
	C37.127,30.367,37.119,30.379,37.113,30.388z"/>
<path fill="none" stroke="#B4B4B5" stroke-miterlimit="10" d="M41.397,128.195l-0.685-1.881l-0.988-3.613
	c0,0-0.304-2.314-0.229-3.977c0,0,0.076-2.242-0.607-2.893c-0.685-0.65-1.369-1.59-2.738-1.664c-0.387-0.02-0.72-0.041-1.011-0.066
	c-0.085-0.059-0.168-0.135-0.245-0.25c-0.408-0.611-0.205-0.791-0.255-0.893c0.02,0.037,0.051,0.102,0.051,0.102
	s0.127,0.561,0.331,0.459c0,0-0.051-0.357-0.331-1.148c-0.281-0.791-0.485-0.816-0.562-1.225c-0.077-0.408,0.103-0.893-0.025-1.275
	s-0.204-0.611-0.204-0.611s0.332-0.357,0.459-0.664c0.128-0.307,0.025-0.586,0.076-0.74c0.052-0.152,0.179,0.025,0.281-0.535
	c0.102-0.561,0.255-1.047,0.102-1.965c-0.152-0.918-0.434-2.143-1.097-2.934s-1.862-1.301-2.22-1.352s-1.581-0.179-2.193,0.127
	c-0.612,0.307-0.893,0.484-1.072,0.562c-0.178,0.077-1.173,0.791-1.377,1.633c-0.204,0.843-0.357,1.837-0.383,2.144
	c-0.025,0.305-0.332,0.484-0.332,0.713c0,0.23,0.077,0.408,0.052,0.689s-0.204,0.307-0.204,0.586c0,0.281-0.103,0.588,0.102,0.766
	c0.205,0.18,0.205,0.664,0.307,0.689s0.025,1.02-0.383,0.664c0,0-0.025,0.434,0.307,0.355c0,0-0.435,0.639-0.664,0.307
	c0,0,0.025,0.535,0.587,0.256c0,0-0.103,0.74-0.536,0.535c0,0,0.332,0.434,0.74,0.051c0,0,0.128,0.74-0.638,0.664
	c0,0,0.638,0.459,0.944,0.152c0,0,0.408,0.18-0.23,0.537c0,0,0.088,0.02,0.203,0.016c-0.375,0.496-0.919,1.064-1.53,1.219
	c-1.141,0.289-3.193,0.578-3.954,1.592c-0.761,1.012-1.064,3.398-1.598,4.988c-0.532,1.59-0.76,3.037-0.912,4.699
	c-0.152,1.664,0.076-0.217-0.152,1.664c-0.228,1.879,0.229,1.662,0.229,1.662s-0.381,0.795-0.076,1.59
	c0.305,0.797,0.761,0.941,0.761,0.941s0.1,0.031,0.261,0.07c0.32,0.637,0.995,1.98,1.336,2.629c0.018,0.033,0.038,0.074,0.058,0.113
	c-0.275,0.896-0.136,1.391-0.209,1.814c-0.076,0.434-0.076,1.373,0.151,1.373c0.031,0,0.158,0.078,0.354,0.201
	c-0.007,0.486-0.056,2.26-0.404,3.004c-0.405,0.867-0.405,2.17-0.254,3.182c0.153,1.012,0.559,0.771,0.609,1.494
	c0.05,0.723,0.151,1.494,0.151,1.494l0.559,1.109c0,0,0.253,1.156,0.405,1.445c0.151,0.289,0.051,1.014,0.354,2.17
	c0.305,1.156,0.608,1.977,0.608,1.977l0.354,1.59l0.508,1.59c0,0,0,1.545-0.051,2.072c-0.051,0.531-0.051,1.447-0.051,1.447v1.109
	c0,0,0.304,1.156,0.203,2.121c-0.102,0.963,0.304,4.627,0.304,6.361c0,1.736,0.051,2.025,0.152,2.893
	c0.101,0.867,0.254,1.205,0.354,1.832c0.102,0.627,0.405,1.156,0.305,1.445c-0.063,0.18,0.129,0.377,0.55,0.514
	c-0.057,0.248-0.051,0.793-0.499,1.414c-0.559,0.771-0.456,1.109-0.609,1.783c-0.151,0.676-0.963,0.82-0.811,1.496
	c0,0-0.152,0.385,0.861,0.385c1.015,0,4.209,0,4.209,0s0.558-0.676,0.304-1.205c-0.253-0.531,0.102-0.434-0.102-1.061
	c-0.202-0.627,0-1.012-0.151-1.543c-0.152-0.529-0.406-0.578-0.406-1.109c0-0.021-0.01-0.041-0.017-0.061
	c0.167-0.02,0.271-0.035,0.271-0.035s0.05-0.674,0.152-1.541c0.101-0.867,0.304-2.748,0.304-2.748l-0.812-2.748l0.203-3.953
	c0,0-0.051-2.023,0.202-2.939c0.254-0.916,0.103-1.59,0.103-1.59l0.101-1.688c0,0,0.406-2.844,0.254-4
	c-0.152-1.158-0.304-2.652-0.304-2.652s-0.254-0.578-0.153-2.217c0.103-1.639,0-0.242,0.103-1.639
	c0.101-1.398,0.202-2.604,0.202-2.604l-0.102-1.494c0,0-0.008-0.121,0.016-0.254c0.092-0.059,0.104-0.18,0.132-0.266
	c0.051-0.043,0.116-0.07,0.208-0.059c0.21,0.1,0.135,0.244,0.249,0.342c0.093,0.387,0.038,0.988,0.004,1.152
	c-0.051,0.24,0.102,3.037-0.051,3.904c-0.151,0.867,0.305,1.977,0.203,2.844s-0.203,1.398-0.203,2.506
	c0,1.109-0.101,1.832-0.101,2.652c0,0.818-0.254,1.35,0,2.072c0.253,0.723,0.405,1.107,0.405,1.107l-0.051,0.869l-0.305,0.916
	c0,0,0.254,0.529,0.405,1.252c0.153,0.723-0.253,3.182-0.202,4.291s0.202,2.699,0.202,2.699l0.052,1.35c0,0,0,0.529,0,1.156
	s0,1.35,0,1.35l0.051,1.254c0,0-0.103,0.529,0.304,0.674c0.058,0.021,0.148,0.035,0.259,0.049c0.001,0.188-0.02,0.553-0.157,1.012
	c-0.203,0.676-0.152,0.338-0.051,0.867c0.102,0.531,0.253,0.676,0.102,1.205c-0.152,0.531-0.305,0.387-0.203,0.916
	c0.102,0.531-0.202,0.867,0.558,0.867c0.761,0,4.462,0,4.462,0s0.862-0.723,0.152-1.107s-0.862-0.867-1.115-1.254
	c-0.254-0.385-0.254-0.578-0.457-1.012s-0.405-1.109-0.405-1.109l-0.203-0.529c0.608-0.145,0.964-0.338,0.861-0.82
	c-0.101-0.48-0.506-0.771-0.202-1.541c0.305-0.771,0.659-1.783,0.659-1.783l0.304-2.988c0,0,0.102-5.594,0.051-6.17
	c-0.051-0.58,0-0.242-0.051-1.061c-0.051-0.82-0.202-1.398-0.202-1.398l0.202-1.156v-1.977c0,0,1.319-5.207,1.269-5.881
	c-0.052-0.676,0.76-3.277,0.861-4.145c0.102-0.869,0.71-1.688,0.761-2.412c0.051-0.723,0.304-2.168,0.304-2.168
	s-0.253-1.977-0.456-2.748c-0.152-0.578-0.333-1.373-0.414-1.734c0.064-0.117,0.089-0.244,0.06-0.387
	c-0.002-0.004-0.003-0.01-0.004-0.014c0.28-0.643,0.575-1.301,0.713-1.672c0.294-0.793,1.389-4.047,1.509-4.705
	c0.229,0.004,0.412-0.027,0.52-0.115c0.532-0.434,1.141,0,1.064-0.867C41.397,129.279,41.397,128.195,41.397,128.195z
	 M36.218,129.197c-0.043-0.055-0.523-0.66-0.523-1.074c0-0.434-0.229-1.373,0-1.951c0.228-0.58,0.532,0.434,0.532,0.434
	S36.041,128.135,36.218,129.197z M30.675,138.172l0.036,0.428c-0.03,0.004-0.06,0.008-0.089,0.012L30.675,138.172z M22.766,129.93
	c0.305-1.879,0.381-1.518,0.305-1.879s0.229-0.867,0.229-0.867l0.15-0.504c0.001,0.002,0.001,0.002,0.002,0.004
	c0.011,0.068,0.298,2.025-0.001,2.451c-0.231,0.33-0.157,0.787-0.409,1.338C22.932,130.223,22.836,130.021,22.766,129.93z
	 M37.113,130.389c-0.193,0.277-0.205,0.904-0.472,1.338c-0.096-0.594-0.263-1.072-0.263-1.072l-0.145-1.373
	c0.079,0.412,0.215,0.746,0.448,0.867c0.121,0.062,0.276,0.135,0.451,0.209C37.127,130.367,37.119,130.379,37.113,130.389z"/>
<g>
	<g>
		<path fill="#B4B4B5" d="M30.554,105.746c-0.593,0.593-1.187,1.187-1.779,1.779c-0.29,0.29-0.116,0.699,0.221,0.836
			c0.684,0.276,1.189,0.358,1.912,0.374c-0.144-0.251-0.288-0.502-0.432-0.752c-0.729,1.266-1.102,2.675-2.057,3.812
			c-0.307,0.365-0.027,0.981,0.486,0.836c0.943-0.268,1.903-0.444,2.847-0.712c-0.162-0.279-0.324-0.558-0.486-0.836
			c-1.705,1.399-3.227,2.921-4.626,4.627c-0.258,0.314-0.12,0.869,0.354,0.854c2.577-0.086,5.066-0.684,7.605-1.086
			c-0.089-0.321-0.177-0.644-0.266-0.965c-3.752,1.519-7.413,3.21-10.541,5.823c-0.334,0.279-0.064,0.876,0.354,0.854
			c3.132-0.168,5.947-1.689,9.03-2.153c-0.128-0.305-0.257-0.609-0.385-0.914c-2.494,1.815-4.854,3.796-7.22,5.772
			c-0.379,0.316,0.024,1.007,0.486,0.836c1.762-0.652,3.578-1.127,5.339-1.779c-0.128-0.305-0.257-0.609-0.385-0.914
			c-1.562,0.966-2.622,2.466-4.017,3.637c-0.354,0.297-0.049,0.841,0.354,0.854c1.664,0.052,3.174,0.214,4.759-0.373
			c-0.128-0.305-0.257-0.609-0.385-0.914c-2.784,1.742-5.549,3.492-7.931,5.771c-0.348,0.333-0.049,0.804,0.354,0.854
			c2.326,0.29,4.597-0.002,6.895-0.373c-0.162-0.279-0.324-0.558-0.486-0.836c-1.023,1.13-1.823,2.429-2.847,3.559
			c-0.285,0.315-0.1,0.856,0.354,0.854c1.146-0.007,2.224-0.088,3.336-0.373c-0.188-0.245-0.376-0.49-0.564-0.734
			c-1.158,1.521-2.354,2.955-3.837,4.169c-0.41,0.336,0.036,0.944,0.486,0.836c1.539-0.371,3.088-0.697,4.626-1.068
			c-0.211-0.161-0.422-0.321-0.633-0.482c-0.18,1.52-1.002,2.514-1.988,3.562c-0.441,0.469,0.265,1.178,0.707,0.707
			c1.196-1.271,2.073-2.512,2.281-4.269c0.04-0.337-0.348-0.551-0.633-0.482c-1.539,0.372-3.088,0.697-4.626,1.068
			c0.162,0.279,0.324,0.558,0.486,0.836c1.548-1.266,2.787-2.788,3.993-4.372c0.282-0.37-0.181-0.833-0.564-0.734
			c-1.017,0.262-2.026,0.332-3.07,0.338c0.118,0.284,0.235,0.569,0.354,0.854c1.023-1.13,1.823-2.429,2.847-3.559
			c0.355-0.393,0-0.914-0.486-0.836c-2.224,0.36-4.386,0.617-6.629,0.338c0.118,0.284,0.235,0.569,0.354,0.854
			c2.319-2.22,5.019-3.919,7.728-5.615c0.463-0.29,0.165-1.118-0.385-0.914c-1.487,0.552-2.947,0.387-4.493,0.338
			c0.118,0.284,0.235,0.569,0.354,0.854c1.324-1.111,2.33-2.562,3.813-3.48c0.466-0.288,0.164-1.117-0.385-0.914
			c-1.762,0.652-3.578,1.128-5.339,1.779c0.162,0.279,0.324,0.558,0.486,0.836c2.302-1.922,4.592-3.85,7.017-5.616
			c0.473-0.344,0.181-0.999-0.385-0.914c-2.99,0.45-5.73,1.955-8.765,2.118c0.118,0.284,0.235,0.569,0.354,0.854
			c2.989-2.497,6.515-4.114,10.1-5.565c0.599-0.242,0.376-1.066-0.266-0.965c-2.449,0.389-4.852,0.968-7.34,1.051
			c0.118,0.284,0.235,0.569,0.354,0.854c1.399-1.705,2.921-3.228,4.626-4.627c0.399-0.328-0.03-0.965-0.486-0.836
			c-0.943,0.269-1.903,0.445-2.847,0.712c0.162,0.279,0.324,0.558,0.486,0.836c1.013-1.207,1.437-2.667,2.213-4.016
			c0.192-0.333-0.054-0.744-0.432-0.752c-0.588,0.052-1.137-0.062-1.646-0.339c0.073,0.279,0.147,0.558,0.221,0.836
			c0.593-0.593,1.187-1.187,1.779-1.779C31.717,105.997,31.01,105.29,30.554,105.746L30.554,105.746z"/>
	</g>
</g>
<text transform="matrix(1 0 0 1 17.4004 92.2998)" fill="#B4B4B5" font-family="'SourceSansPro-Semibold'" font-size="10">49 yrs</text>
<text transform="matrix(1 0 0 1 17.4004 192.2998)" fill="#B4B4B5" font-family="'SourceSansPro-Semibold'" font-size="10">49 yrs</text>
</svg>
