<?xml version="1.0" encoding="utf-8"?>
<!-- Generator: Adobe Illustrator 16.0.4, SVG Export Plug-In . SVG Version: 6.00 Build 0)  -->
<!DOCTYPE svg PUBLIC "-//W3C//DTD SVG 1.1//EN" "http://www.w3.org/Graphics/SVG/1.1/DTD/svg11.dtd">
<svg version="1.1" id="Layer_1" xmlns="http://www.w3.org/2000/svg" xmlns:xlink="http://www.w3.org/1999/xlink" x="0px" y="0px"
	 width="60px" height="200px" viewBox="0 0 60 200" enable-background="new 0 0 60 200" xml:space="preserve">
<path fill="none" stroke="#B4B4B5" stroke-miterlimit="10" d="M41.627,32.034c-0.047-0.701-0.094-0.983-0.163-1.188
	s-0.155-0.479-0.256-0.735s-0.086-0.727-0.023-1.205s-0.085-0.684-0.077-0.949c0.007-0.265-0.024-0.709-0.024-0.709
	s0.07-0.479,0.009-0.77c-0.062-0.291-0.055-0.701-0.055-0.701s0.016-1.051-0.062-1.513c-0.077-0.461-0.085-2.077-0.239-2.777
	c-0.155-0.701-0.535-2.427-0.566-3.358s0.085-2.906-0.039-3.359c-0.124-0.453-0.481-0.701-1.637-0.88
	c-1.154-0.18-1.38-0.385-1.892-0.752c-0.513-0.368-1.372-0.658-1.892-0.589c-0.52,0.068-0.846-0.504-1.505-0.992
	c-0.197-0.146-0.336-0.226-0.438-0.271c-0.017-0.018-0.03-0.039-0.048-0.054c-0.056-0.049-0.136-0.097-0.229-0.144
	c0.02-0.418,0.056-1.157,0.099-1.429c0.062-0.388,0.29-1.003,0.269-1.276c0,0,0.187-0.068,0.352-0.25
	c0.165-0.183,0.393-0.889,0.372-1.595c-0.021-0.707-0.186-0.752-0.31-0.775c-0.124-0.023,0.289-1.595-0.165-2.575
	C32.652,2.208,31.99,1,29.923,1c-1.076,0-2.874,0.912-3.082,2.393c-0.206,1.481-0.123,2.484-0.123,2.484s-0.31-0.137-0.352,0.183
	c-0.042,0.319,0.061,1.322,0.145,1.618c0.083,0.296,0.124,0.547,0.228,0.593c0.103,0.045,0.082,0.593,0.289,0.957
	c0.207,0.365,0.228,0.57,0.414,0.866c0.187,0.296,0.078,1.139,0.078,1.139c-0.107,0.062-0.255,0.255-0.415,0.542
	c-0.336,0.264-1.012,0.746-1.956,1.162c-1.371,0.605-3.156,1.361-3.294,1.512c-0.137,0.152-1.098-0.201-1.373,1.009
	c-0.273,1.21,0.046,2.168-0.091,2.924c-0.138,0.756-0.915,6.657-1.052,7.666c-0.139,1.009-0.32,1.513-0.275,2.269
	c0.046,0.757-0.045,1.765-0.412,3.177c-0.365,1.412-0.365,1.765-0.092,2.32c0.275,0.555,0.23,1.765,0.32,2.269
	c0.092,0.504-0.182,2.169,0.275,3.177s0.869,1.412,0.961,1.563c0.092,0.151,0.503,0.554,0.594,1.008
	c0.092,0.454,0.092,2.37,0.321,3.53c0.229,1.16,0.183,3.228,0.274,5.699c0.092,2.471,0.412,4.689,0.457,6.455
	c0.046,1.765,0.138,3.025,0.504,4.236c-0.046,1.865-0.046,3.227-0.229,6.403c-0.184,3.178-0.32,4.64-0.458,5.145
	c-0.137,0.504-0.274,0.857,0.092,1.412c0.366,0.554,0.777,1.159,0.961,1.109c0.183-0.051,0.229,0.454,0.183,1.059
	s-0.549,0.504-0.366,0.807c0.065,0.108,0.109,0.205,0.145,0.292c0.062,0.154,0.084,0.263,0.084,0.263s-2.187,1.013-2.599,1.466
	c0,0-0.209,0.189-0.077,0.556c0,0-0.349,0.163,0.055,0.445s1.796,0.278,2.922,0.278c3.548,0,2.718-0.437,2.888-0.562
	c0-0.021,0.012,0.475,0.283,0.458c0.271-0.018,1.728,0.253,1.89-0.216c0.106-0.303-0.045-2.26-0.09-2.51
	c-0.023-0.138-0.048-0.231-0.048-0.231s0.543-1.051,0.589-1.624c0.047-0.573-1.311-1.418-1.062-2.564
	c0.248-1.145,0.364-1.674,0.442-2.581c0.077-0.906-0.048-2.965-0.598-4.443c-0.551-1.479-0.085-4.009-0.015-4.47
	c0.067-0.461,0.363-1.069,0.309-2.162c-0.055-1.095-0.055-1.667,0.07-2.086c0.124-0.418,0.791-3.794,0.713-4.46
	c-0.077-0.667,0.612-4.111,0.877-4.12c0.263-0.008,0.488,2.188,0.783,3.222s0.201,1.384,0.317,2.068
	c0.116,0.684,0.372,1.837,0.52,2.701s0.465,2.086,0.612,2.872c0.147,0.785,0.396,2.41,0.364,3.888
	c-0.031,1.479-0.107,6.426,0.202,7.17c0.311,0.744,0.705,1.77,0.535,2.12c-0.171,0.35-1.155,0.846-1.155,1.683
	s1.055,0.991,1.108,1.231c0.055,0.24-0.341,0.418-0.247,0.726c0.013,0.045,0.031,0.091,0.051,0.137
	c0.11,0.264,0.287,0.522,0.228,0.675c-0.07,0.179-0.383,2.49-0.259,2.883c0.125,0.394,0.942,0.109,0.942,0.109h0.744
	c0,0,0.012-0.21,0.02-0.345c0.142,0.126,0.766,0.312,3.085,0.312c0,0,2.571,0.284,2.661-0.23c0.063-0.371,0.036-0.667,0.036-0.667
	s0.172-0.12-0.454-0.713c-0.306-0.291-1.562-0.77-2.124-1.035c-0.695-0.328-0.596-0.384-0.774-0.551
	c-0.062-0.058-0.096-0.099-0.077-0.123c0.069-0.094,0.799-0.042,0.822-0.222c0.017-0.126-0.215-0.708-0.307-1.084
	c0-0.018-0.005-0.036-0.015-0.054c-0.029-0.134-0.036-0.236,0.004-0.264c0.146-0.102,0.945-0.598,0.774-1.008
	c-0.17-0.411-0.683-1.316-0.535-2.077c0.147-0.761,0.365-2.428,0.357-3.616c-0.009-1.187-0.194-4.042-0.287-5.238
	c-0.094-1.197-0.278-1.922-0.218-3.222c0.06-1.235,0.277-2.09,0.266-3.462c0.002-0.082,0.002-0.153-0.001-0.211
	c-0.004-0.122-0.001-0.24-0.001-0.358c0.012-0.521,0.08-1.326,0.156-2.115c0.065-0.479,0.138-0.906,0.192-1.253
	c0.141-0.872,0.265-1.948,0.304-2.582c0.038-0.632,0.068-3.786-0.039-4.708c-0.108-0.923-0.009-1.205,0.022-1.376
	c0.031-0.17,0.141-1.436,0.226-1.906c0.009-0.046,0.029-0.085,0.043-0.128c0.123-0.398,0.423-0.688,0.5-0.965
	c0.085-0.308,0.108-0.427,0.108-0.427s0.115,0.076,0.259,0.134c0.137,0.056,0.299,0.095,0.415,0.037
	c0.241-0.12,0.481-0.47,0.481-0.47s0.132,0.752,0.14,0.752c0.007,0,0.085-0.12,0.108-0.12c0.022,0,0.264-1.342,0.388-2.146
	c0.123-0.803,0.714-3.213,0.868-4.247C41.533,34.179,41.673,32.734,41.627,32.034z"/>
<path fill="none" stroke="#B4B4B5" stroke-miterlimit="10" d="M41.627,132.034c-0.047-0.701-0.094-0.983-0.163-1.188
	s-0.155-0.479-0.256-0.735c-0.101-0.256-0.086-0.727-0.023-1.205s-0.085-0.684-0.077-0.948c0.007-0.265-0.024-0.709-0.024-0.709
	s0.07-0.479,0.009-0.77c-0.062-0.29-0.055-0.7-0.055-0.7s0.016-1.051-0.062-1.514c-0.077-0.461-0.085-2.076-0.239-2.777
	c-0.155-0.7-0.535-2.426-0.566-3.357s0.085-2.906-0.039-3.359s-0.481-0.701-1.637-0.88c-1.154-0.18-1.38-0.385-1.892-0.753
	c-0.513-0.367-1.372-0.658-1.892-0.589c-0.52,0.068-0.846-0.505-1.505-0.991c-0.197-0.146-0.336-0.227-0.438-0.271
	c-0.017-0.018-0.03-0.039-0.048-0.054c-0.056-0.05-0.136-0.097-0.229-0.144c0.02-0.418,0.056-1.157,0.099-1.429
	c0.062-0.388,0.29-1.003,0.269-1.276c0,0,0.187-0.068,0.352-0.25c0.165-0.184,0.393-0.89,0.372-1.596s-0.186-0.753-0.31-0.774
	c-0.124-0.023,0.289-1.596-0.165-2.576C32.652,102.208,31.99,101,29.923,101c-1.076,0-2.874,0.912-3.082,2.393
	c-0.206,1.482-0.123,2.484-0.123,2.484s-0.31-0.137-0.352,0.183s0.061,1.322,0.145,1.617c0.083,0.297,0.124,0.547,0.228,0.594
	c0.103,0.045,0.082,0.592,0.289,0.957c0.207,0.364,0.228,0.569,0.414,0.865c0.187,0.297,0.078,1.14,0.078,1.14
	c-0.107,0.062-0.255,0.255-0.415,0.542c-0.336,0.264-1.012,0.746-1.956,1.162c-1.371,0.604-3.156,1.361-3.294,1.512
	c-0.137,0.152-1.098-0.201-1.373,1.01c-0.273,1.209,0.046,2.168-0.091,2.924c-0.138,0.756-0.915,6.656-1.052,7.666
	c-0.139,1.008-0.32,1.512-0.275,2.269c0.046,0.757-0.045,1.765-0.412,3.177c-0.365,1.412-0.365,1.766-0.092,2.32
	c0.275,0.555,0.23,1.766,0.32,2.27c0.092,0.504-0.182,2.168,0.275,3.177s0.869,1.411,0.961,1.563
	c0.092,0.151,0.503,0.555,0.594,1.008c0.092,0.454,0.092,2.37,0.321,3.53c0.229,1.16,0.183,3.229,0.274,5.699
	c0.092,2.472,0.412,4.689,0.457,6.455c0.046,1.766,0.138,3.025,0.504,4.236c-0.046,1.865-0.046,3.227-0.229,6.403
	c-0.184,3.178-0.32,4.64-0.458,5.145c-0.137,0.505-0.274,0.857,0.092,1.412c0.366,0.554,0.777,1.159,0.961,1.109
	c0.183-0.052,0.229,0.454,0.183,1.06c-0.046,0.604-0.549,0.504-0.366,0.807c0.065,0.108,0.109,0.205,0.145,0.291
	c0.062,0.154,0.084,0.264,0.084,0.264s-2.187,1.013-2.599,1.466c0,0-0.209,0.189-0.077,0.556c0,0-0.349,0.162,0.055,0.445
	c0.403,0.281,1.796,0.277,2.922,0.277c3.548,0,2.718-0.436,2.888-0.561c0-0.021,0.012,0.475,0.283,0.457s1.728,0.254,1.89-0.216
	c0.106-0.304-0.045-2.26-0.09-2.51c-0.023-0.138-0.048-0.231-0.048-0.231s0.543-1.051,0.589-1.623
	c0.047-0.573-1.311-1.419-1.062-2.564c0.248-1.145,0.364-1.674,0.442-2.58c0.077-0.906-0.048-2.965-0.598-4.443
	c-0.551-1.479-0.085-4.01-0.015-4.471c0.067-0.461,0.363-1.068,0.309-2.162s-0.055-1.667,0.07-2.086
	c0.124-0.418,0.791-3.793,0.713-4.46c-0.077-0.667,0.612-4.111,0.877-4.12c0.263-0.008,0.488,2.188,0.783,3.223
	s0.201,1.384,0.317,2.068c0.116,0.684,0.372,1.837,0.52,2.7s0.465,2.086,0.612,2.872c0.147,0.785,0.396,2.41,0.364,3.888
	c-0.031,1.479-0.107,6.427,0.202,7.17c0.311,0.743,0.705,1.77,0.535,2.12c-0.171,0.35-1.155,0.846-1.155,1.684
	c0,0.837,1.055,0.99,1.108,1.23c0.055,0.24-0.341,0.418-0.247,0.727c0.013,0.045,0.031,0.091,0.051,0.137
	c0.11,0.264,0.287,0.521,0.228,0.675c-0.07,0.179-0.383,2.49-0.259,2.883c0.125,0.394,0.942,0.109,0.942,0.109h0.744
	c0,0,0.012-0.21,0.02-0.345c0.142,0.126,0.766,0.312,3.085,0.312c0,0,2.571,0.284,2.661-0.23c0.063-0.371,0.036-0.666,0.036-0.666
	s0.172-0.12-0.454-0.714c-0.306-0.29-1.562-0.77-2.124-1.035c-0.695-0.328-0.596-0.384-0.774-0.551
	c-0.062-0.058-0.096-0.099-0.077-0.123c0.069-0.094,0.799-0.042,0.822-0.222c0.017-0.126-0.215-0.708-0.307-1.084
	c0-0.018-0.005-0.035-0.015-0.055c-0.029-0.134-0.036-0.236,0.004-0.264c0.146-0.102,0.945-0.598,0.774-1.008
	c-0.17-0.41-0.683-1.316-0.535-2.076c0.147-0.762,0.365-2.428,0.357-3.615c-0.009-1.188-0.194-4.042-0.287-5.238
	c-0.094-1.197-0.278-1.923-0.218-3.223c0.06-1.234,0.277-2.09,0.266-3.463c0.002-0.081,0.002-0.152-0.001-0.211
	c-0.004-0.122-0.001-0.24-0.001-0.358c0.012-0.521,0.08-1.325,0.156-2.115c0.065-0.479,0.138-0.905,0.192-1.253
	c0.141-0.871,0.265-1.948,0.304-2.582c0.038-0.631,0.068-3.785-0.039-4.708c-0.108-0.923-0.009-1.205,0.022-1.376
	s0.141-1.436,0.226-1.906c0.009-0.047,0.029-0.086,0.043-0.129c0.123-0.397,0.423-0.688,0.5-0.965
	c0.085-0.308,0.108-0.427,0.108-0.427s0.115,0.076,0.259,0.134c0.137,0.056,0.299,0.095,0.415,0.036
	c0.241-0.119,0.481-0.47,0.481-0.47s0.132,0.753,0.14,0.753c0.007,0,0.085-0.12,0.108-0.12c0.022,0,0.264-1.342,0.388-2.146
	c0.123-0.803,0.714-3.213,0.868-4.247C41.533,134.179,41.673,132.734,41.627,132.034z"/>
<g>
	<g>
		<path fill="#B4B4B5" d="M30.27,103.967c-0.649,0.643-1.244,1.216-2.034,1.701c-0.26,0.159-0.351,0.567-0.102,0.785
			c0.241,0.211,0.396,0.418,0.71,0.457c-0.631-0.078-0.527,0.998-0.5,1.325c0.025,0.3,0.211,0.463,0.5,0.5
			c0.713,0.093,1.419,0.263,2.135,0.355c-0.118-0.284-0.235-0.569-0.354-0.854c-0.765,0.902-1.324,1.894-1.857,2.948
			c-0.123,0.242-0.066,0.54,0.18,0.684c0.549,0.32,0.939-0.111,1.543,0.051c-0.073-0.279-0.147-0.558-0.221-0.836
			c-0.773,0.907-1.362,1.94-2.136,2.848c-0.316,0.371-0.022,0.968,0.486,0.836c1.29-0.334,2.625-0.379,3.915-0.712
			c-0.128-0.305-0.257-0.609-0.385-0.914c-3.024,2.014-6.05,4.048-9.489,5.287c-0.422,0.152-0.529,0.867,0,0.965
			c3.362,0.617,6.711,0.074,10.097,0.018c-0.118-0.284-0.235-0.569-0.354-0.854c-2.562,2.416-5.823,3.837-8.541,6.05
			c-0.373,0.304-0.031,0.82,0.354,0.854c2.778,0.238,5.303-0.331,7.962-1.085c-0.128-0.305-0.257-0.609-0.385-0.914
			c-3.187,2.438-6.625,4.574-9.354,7.551c-0.26,0.283-0.113,0.916,0.354,0.854c3.874-0.52,7.352-2.429,11.164-3.22
			c-0.162-0.279-0.324-0.558-0.486-0.836c-2.089,1.991-4.521,3.532-6.761,5.338c-0.377,0.304-0.027,0.817,0.354,0.854
			c2.324,0.219,4.413-0.589,6.538-1.441c-0.162-0.279-0.324-0.558-0.486-0.836c-2.349,2.213-5.277,3.656-7.474,6.05
			c-0.31,0.337-0.08,0.816,0.354,0.854c2.535,0.219,4.931-0.903,7.474-0.712c-0.118-0.284-0.235-0.569-0.354-0.854
			c-1.665,1.904-3.856,3.172-5.948,4.549c-0.5,0.329-0.162,0.993,0.385,0.914c1.778-0.258,3.568-0.049,5.338-0.356
			c-0.162-0.279-0.324-0.558-0.486-0.836c-0.952,0.807-2.053,1.394-3.102,2.058c-0.544,0.344-0.042,1.209,0.504,0.863
			c1.127-0.713,2.285-1.35,3.305-2.214c0.42-0.356-0.044-0.913-0.486-0.836c-1.764,0.308-3.564,0.1-5.338,0.356
			c0.128,0.305,0.257,0.609,0.385,0.914c2.164-1.424,4.43-2.736,6.151-4.705c0.296-0.339,0.091-0.82-0.354-0.854
			c-2.546-0.191-4.946,0.931-7.474,0.712c0.118,0.284,0.235,0.569,0.354,0.854c2.192-2.389,5.127-3.839,7.474-6.05
			c0.346-0.326-0.011-1.026-0.486-0.836c-2.031,0.815-4.041,1.617-6.272,1.406c0.118,0.284,0.235,0.569,0.354,0.854
			c2.243-1.808,4.67-3.344,6.761-5.338c0.383-0.364-0.019-0.933-0.486-0.836c-3.719,0.772-7.123,2.679-10.898,3.185
			c0.118,0.284,0.235,0.569,0.354,0.854c2.671-2.913,6.031-5.008,9.15-7.395c0.424-0.324,0.202-1.08-0.385-0.914
			c-2.555,0.726-5.023,1.279-7.696,1.05c0.118,0.284,0.235,0.569,0.354,0.854c2.72-2.215,5.974-3.629,8.541-6.05
			c0.317-0.299,0.076-0.86-0.354-0.854c-3.286,0.055-6.565,0.618-9.831,0.018c0,0.321,0,0.644,0,0.965
			c3.524-1.271,6.627-3.324,9.728-5.389c0.466-0.31,0.18-1.06-0.385-0.914c-1.29,0.333-2.625,0.378-3.915,0.712
			c0.162,0.279,0.324,0.558,0.486,0.836c0.773-0.907,1.362-1.94,2.136-2.848c0.237-0.278,0.165-0.732-0.221-0.836
			c-0.254-0.067-1.234,0.092-1.305,0.051c0.061,0.228,0.12,0.456,0.18,0.684c0.493-0.975,0.988-1.903,1.701-2.745
			c0.301-0.355,0.084-0.797-0.354-0.854c-0.712-0.092-1.42-0.263-2.135-0.355c0.167,0.167,0.333,0.333,0.5,0.5
			c-0.064-0.764,0.438-1.169,0.338-1.913c-0.032-0.235-0.282-0.342-0.482-0.367c-0.119-0.069-0.239-0.14-0.358-0.209
			c-0.034,0.262-0.067,0.523-0.102,0.785c0.845-0.519,1.533-1.16,2.237-1.857C31.436,104.22,30.729,103.513,30.27,103.967
			L30.27,103.967z"/>
	</g>
</g>
<text transform="matrix(1 0 0 1 17.4004 92.2998)" fill="#B4B4B5" font-family="'SourceSansPro-Semibold'" font-size="10">59 yrs</text>
<text transform="matrix(1 0 0 1 17.4004 192.2998)" fill="#B4B4B5" font-family="'SourceSansPro-Semibold'" font-size="10">59 yrs</text>
</svg>
