<?xml version="1.0" encoding="utf-8"?>
<!-- Generator: Adobe Illustrator 16.0.4, SVG Export Plug-In . SVG Version: 6.00 Build 0)  -->
<!DOCTYPE svg PUBLIC "-//W3C//DTD SVG 1.1//EN" "http://www.w3.org/Graphics/SVG/1.1/DTD/svg11.dtd">
<svg version="1.1" id="Layer_1" xmlns="http://www.w3.org/2000/svg" xmlns:xlink="http://www.w3.org/1999/xlink" x="0px" y="0px"
	 width="60px" height="200px" viewBox="0 0 60 200" enable-background="new 0 0 60 200" xml:space="preserve">
<g id="XMLID_1_">
	<g>
		<path fill="none" d="M41.48,30.15c0.068,0.87-0.53,0.43-1.07,0.87c-0.102,0.08-0.29,0.11-0.521,0.11
			c-0.119,0.66-1.209,3.91-1.51,4.7c-0.13,0.38-0.43,1.04-0.71,1.68c0,0,0,0.01,0.011,0.01c0.029,0.14,0,0.27-0.061,0.39
			c0.08,0.36,0.26,1.15,0.41,1.73c0.199,0.77,0.46,2.75,0.46,2.75s-0.261,1.45-0.312,2.17c-0.05,0.72-0.66,1.54-0.76,2.41
			c-0.1,0.87-0.91,3.47-0.859,4.15C36.609,51.79,35.29,57,35.29,57v1.97l-0.2,1.16c0,0,0.15,0.58,0.2,1.4
			c0.05,0.82,0,0.48,0.05,1.06c0.051,0.58-0.05,6.17-0.05,6.17l-0.3,2.99c0,0-0.36,1.01-0.66,1.78c-0.311,0.77,0.1,1.06,0.199,1.54
			c0.101,0.48-0.25,0.68-0.859,0.82l0.2,0.53c0,0,0.2,0.68,0.409,1.11c0.201,0.43,0.201,0.62,0.451,1.01
			c0.26,0.39,0.408,0.87,1.119,1.25c0.709,0.39-0.149,1.11-0.149,1.11s-3.7,0-4.47,0c-0.75,0-0.451-0.34-0.551-0.87
			c-0.101-0.53,0.051-0.38,0.199-0.91c0.15-0.53,0-0.68-0.1-1.21c-0.102-0.53-0.15-0.19,0.05-0.87c0.14-0.45,0.16-0.82,0.16-1.01
			c-0.11-0.01-0.2-0.03-0.261-0.05c-0.411-0.14-0.311-0.67-0.311-0.67l-0.05-1.25c0,0,0-0.73,0-1.35c0-0.63,0-1.16,0-1.16
			l-0.05-1.35c0,0-0.15-1.59-0.2-2.7c-0.05-1.11,0.35-3.57,0.2-4.29c-0.15-0.72-0.4-1.25-0.4-1.25l0.3-0.92l0.05-0.87
			c0,0-0.15-0.38-0.4-1.11c-0.26-0.72,0-1.25,0-2.07c0-0.82,0.1-1.54,0.1-2.65c0-1.11,0.1-1.64,0.2-2.51
			c0.1-0.86-0.35-1.97-0.2-2.84c0.15-0.87,0-3.66,0.05-3.9c0.03-0.17,0.09-0.77-0.01-1.16c-0.11-0.09-0.03-0.24-0.24-0.34
			c-0.1-0.01-0.16,0.02-0.21,0.06c-0.03,0.09-0.04,0.21-0.14,0.27c-0.02,0.13-0.01,0.25-0.01,0.25l0.1,1.5c0,0-0.1,1.2-0.2,2.6
			s0,0-0.1,1.64c-0.11,1.64,0.15,2.21,0.15,2.21s0.15,1.5,0.3,2.66c0.15,1.15-0.25,4-0.25,4l-0.1,1.68c0,0,0.15,0.68-0.1,1.59
			C28.95,62.97,29,64.99,29,64.99l-0.2,3.96l0.81,2.74c0,0-0.2,1.89-0.3,2.75c-0.1,0.87-0.15,1.54-0.15,1.54s-0.11,0.02-0.28,0.04
			c0.01,0.02,0.02,0.04,0.02,0.06c0,0.53,0.26,0.58,0.41,1.11c0.15,0.53-0.05,0.91,0.15,1.54s-0.15,0.53,0.1,1.06
			c0.25,0.53-0.3,1.21-0.3,1.21s-3.2,0-4.21,0c-1.01,0-0.86-0.39-0.86-0.39c-0.15-0.67,0.66-0.82,0.81-1.49
			c0.15-0.68,0.05-1.02,0.61-1.79c0.45-0.62,0.44-1.16,0.5-1.41c-0.42-0.14-0.62-0.34-0.55-0.51c0.1-0.29-0.21-0.82-0.31-1.45
			S25,73,24.9,72.13s-0.15-1.16-0.15-2.89c0-1.74-0.41-5.4-0.31-6.37c0.1-0.96-0.2-2.12-0.2-2.12v-1.11c0,0,0-0.91,0.05-1.44
			c0.05-0.53,0.05-2.08,0.05-2.08l-0.51-1.58l-0.35-1.6c0,0-0.31-0.82-0.61-1.97c-0.3-1.16-0.2-1.88-0.35-2.17
			c-0.16-0.29-0.41-1.45-0.41-1.45l-0.56-1.11c0,0-0.1-0.77-0.15-1.49c-0.05-0.72-0.46-0.48-0.61-1.5
			c-0.15-1.01-0.15-2.31,0.26-3.18c0.34-0.74,0.39-2.51,0.4-3c-0.2-0.12-0.32-0.2-0.35-0.2c-0.23,0-0.23-0.94-0.16-1.37
			c0.08-0.43-0.06-0.92,0.21-1.82c-0.02-0.04-0.04-0.08-0.05-0.11c-0.35-0.65-1.02-1.99-1.34-2.63c-0.16-0.04-0.26-0.07-0.26-0.07
			s-0.46-0.15-0.76-0.94c-0.31-0.8,0.07-1.59,0.07-1.59s-0.45,0.22-0.23-1.67c0.23-1.88,0,0,0.16-1.66c0.15-1.66,0.38-3.11,0.91-4.7
			c0.53-1.59,0.84-3.98,1.6-4.99c0.76-1.01,2.81-1.3,3.95-1.59c0.61-0.15,1.16-0.72,1.53-1.22c-0.11,0.01-0.2-0.01-0.2-0.01
			c0.64-0.36,0.23-0.54,0.23-0.54c-0.31,0.31-0.95-0.15-0.95-0.15c0.77,0.07,0.64-0.66,0.64-0.66c-0.41,0.38-0.74-0.06-0.74-0.06
			c0.44,0.21,0.54-0.53,0.54-0.53c-0.56,0.28-0.59-0.26-0.59-0.26c0.23,0.33,0.67-0.3,0.67-0.3c-0.34,0.07-0.31-0.36-0.31-0.36
			C26.43,10,26.5,9,26.4,8.98c-0.1-0.03-0.1-0.51-0.31-0.69c-0.2-0.18-0.1-0.49-0.1-0.77s0.18-0.3,0.21-0.58
			c0.02-0.29-0.06-0.46-0.06-0.69s0.31-0.41,0.34-0.72c0.02-0.3,0.17-1.3,0.38-2.14c0.2-0.84,1.2-1.56,1.38-1.63
			c0.18-0.08,0.46-0.26,1.07-0.57c0.61-0.3,1.831-0.17,2.19-0.12c0.359,0.05,1.561,0.56,2.221,1.35c0.659,0.79,0.949,2.02,1.1,2.93
			c0.15,0.92,0,1.41-0.1,1.97c-0.111,0.56-0.23,0.38-0.281,0.53c-0.061,0.16,0.051,0.44-0.08,0.75C34.23,8.9,33.9,9.26,33.9,9.26
			s0.08,0.23,0.199,0.61c0.131,0.38-0.051,0.87,0.029,1.28c0.08,0.41,0.28,0.43,0.561,1.22c0.279,0.79,0.33,1.15,0.33,1.15
			c-0.199,0.1-0.33-0.46-0.33-0.46s-0.029-0.06-0.051-0.1c0.051,0.1-0.148,0.28,0.25,0.89c0.08,0.12,0.16,0.19,0.25,0.25
			c0.291,0.03,0.62,0.05,1.012,0.07c1.369,0.07,2.05,1.01,2.738,1.66c0.682,0.65,0.61,2.89,0.61,2.89
			c-0.08,1.67,0.22,3.98,0.22,3.98l0.99,3.61l0.689,1.88C41.4,28.19,41.4,29.28,41.48,30.15z M37.109,30.39
			c0.011-0.01,0.021-0.02,0.021-0.03c-0.17-0.08-0.33-0.15-0.45-0.21c-0.229-0.12-0.369-0.46-0.449-0.87l0.149,1.37
			c0,0,0.16,0.48,0.261,1.08C36.91,31.29,36.92,30.67,37.109,30.39z M36.221,29.2c-0.181-1.07,0.01-2.6,0.01-2.6
			s-0.311-1.01-0.529-0.43c-0.23,0.58,0,1.52,0,1.95C35.7,28.54,36.17,29.14,36.221,29.2z M30.71,38.6l-0.04-0.43l-0.05,0.44
			C30.65,38.61,30.68,38.6,30.71,38.6z M23.45,29.13c0.1-0.14,0.14-0.46,0.14-0.82c0-0.71-0.13-1.58-0.14-1.63l-0.15,0.5
			c0,0-0.3,0.51-0.23,0.87c0.08,0.36,0,0-0.3,1.88c0.07,0.09,0.16,0.29,0.27,0.54C23.29,29.92,23.22,29.46,23.45,29.13z"/>
	</g>
	<g>
		<path fill="none" stroke="#B4B4B5" stroke-miterlimit="10" d="M41.4,28.19l-0.69-1.88l-0.989-3.61c0,0-0.301-2.31-0.221-3.98
			c0,0,0.07-2.24-0.609-2.89c-0.689-0.65-1.371-1.59-2.74-1.66c-0.391-0.02-0.721-0.04-1.01-0.07c-0.091-0.06-0.17-0.13-0.25-0.25
			c-0.399-0.61-0.199-0.79-0.25-0.89c0.021,0.04,0.051,0.1,0.051,0.1s0.129,0.56,0.328,0.46c0,0-0.049-0.36-0.328-1.15
			c-0.28-0.79-0.48-0.81-0.562-1.22c-0.08-0.41,0.101-0.9-0.03-1.28C33.98,9.49,33.9,9.26,33.9,9.26s0.33-0.36,0.459-0.66
			c0.131-0.31,0.021-0.59,0.08-0.75c0.051-0.15,0.17,0.03,0.279-0.53c0.102-0.56,0.25-1.05,0.102-1.97
			c-0.15-0.91-0.44-2.14-1.102-2.93c-0.66-0.79-1.859-1.3-2.22-1.35c-0.36-0.05-1.58-0.18-2.19,0.12c-0.61,0.31-0.89,0.49-1.07,0.57
			c-0.18,0.07-1.18,0.79-1.38,1.63c-0.21,0.84-0.36,1.84-0.38,2.14c-0.03,0.31-0.34,0.49-0.34,0.72s0.08,0.4,0.06,0.69
			c-0.03,0.28-0.21,0.3-0.21,0.58s-0.1,0.59,0.1,0.77c0.21,0.18,0.21,0.66,0.31,0.69C26.5,9,26.43,10,26.02,9.64
			c0,0-0.03,0.43,0.31,0.36c0,0-0.44,0.63-0.67,0.3c0,0,0.03,0.54,0.59,0.26c0,0-0.1,0.74-0.54,0.53c0,0,0.33,0.44,0.74,0.06
			c0,0,0.13,0.73-0.64,0.66c0,0,0.64,0.46,0.95,0.15c0,0,0.41,0.18-0.23,0.54c0,0,0.09,0.02,0.2,0.01c-0.37,0.5-0.92,1.07-1.53,1.22
			c-1.14,0.29-3.19,0.58-3.95,1.59c-0.76,1.01-1.07,3.4-1.6,4.99c-0.53,1.59-0.76,3.04-0.91,4.7c-0.16,1.66,0.07-0.22-0.16,1.66
			c-0.22,1.89,0.23,1.67,0.23,1.67s-0.38,0.79-0.07,1.59c0.3,0.79,0.76,0.94,0.76,0.94s0.1,0.03,0.26,0.07
			c0.32,0.64,0.99,1.98,1.34,2.63c0.01,0.03,0.03,0.07,0.05,0.11c-0.27,0.9-0.13,1.39-0.21,1.82c-0.07,0.43-0.07,1.37,0.16,1.37
			c0.03,0,0.15,0.08,0.35,0.2c-0.01,0.49-0.06,2.26-0.4,3c-0.41,0.87-0.41,2.17-0.26,3.18c0.15,1.02,0.56,0.78,0.61,1.5
			c0.05,0.72,0.15,1.49,0.15,1.49l0.56,1.11c0,0,0.25,1.16,0.41,1.45c0.15,0.29,0.05,1.01,0.35,2.17c0.3,1.15,0.61,1.97,0.61,1.97
			l0.35,1.6l0.51,1.58c0,0,0,1.55-0.05,2.08c-0.05,0.53-0.05,1.44-0.05,1.44v1.11c0,0,0.3,1.16,0.2,2.12
			c-0.1,0.97,0.31,4.63,0.31,6.37c0,1.73,0.05,2.02,0.15,2.89s0.25,1.2,0.35,1.83s0.41,1.16,0.31,1.45
			c-0.07,0.17,0.13,0.37,0.55,0.51c-0.06,0.25-0.05,0.79-0.5,1.41c-0.56,0.77-0.46,1.11-0.61,1.79c-0.15,0.67-0.96,0.82-0.81,1.49
			c0,0-0.15,0.39,0.86,0.39c1.01,0,4.21,0,4.21,0s0.55-0.68,0.3-1.21c-0.25-0.53,0.1-0.43-0.1-1.06s0-1.01-0.15-1.54
			c-0.15-0.53-0.41-0.58-0.41-1.11c0-0.02-0.01-0.04-0.02-0.06c0.17-0.02,0.28-0.04,0.28-0.04s0.05-0.67,0.15-1.54
			c0.1-0.86,0.3-2.75,0.3-2.75l-0.81-2.74l0.2-3.96c0,0-0.05-2.02,0.21-2.94c0.25-0.91,0.1-1.59,0.1-1.59l0.1-1.68
			c0,0,0.4-2.85,0.25-4c-0.15-1.16-0.3-2.66-0.3-2.66s-0.26-0.57-0.15-2.21c0.1-1.64,0-0.24,0.1-1.64s0.2-2.6,0.2-2.6l-0.1-1.5
			c0,0-0.01-0.12,0.01-0.25c0.1-0.06,0.11-0.18,0.14-0.27c0.05-0.04,0.11-0.07,0.21-0.06c0.21,0.1,0.13,0.25,0.24,0.34
			c0.1,0.39,0.04,0.99,0.01,1.16c-0.05,0.24,0.1,3.03-0.05,3.9c-0.15,0.87,0.3,1.98,0.2,2.84c-0.1,0.87-0.2,1.4-0.2,2.51
			c0,1.11-0.1,1.83-0.1,2.65c0,0.82-0.26,1.35,0,2.07c0.25,0.73,0.4,1.11,0.4,1.11l-0.05,0.87l-0.3,0.92c0,0,0.25,0.53,0.4,1.25
			c0.15,0.72-0.25,3.18-0.2,4.29c0.05,1.11,0.2,2.7,0.2,2.7l0.05,1.35c0,0,0,0.53,0,1.16c0,0.62,0,1.35,0,1.35l0.05,1.25
			c0,0-0.1,0.53,0.311,0.67c0.061,0.02,0.149,0.04,0.261,0.05c0,0.19-0.021,0.56-0.16,1.01c-0.2,0.68-0.149,0.34-0.05,0.87
			c0.1,0.53,0.25,0.68,0.1,1.21c-0.148,0.53-0.3,0.38-0.199,0.91c0.101,0.53-0.201,0.87,0.551,0.87c0.77,0,4.47,0,4.47,0
			s0.858-0.72,0.149-1.11c-0.711-0.38-0.859-0.86-1.119-1.25c-0.25-0.39-0.25-0.58-0.45-1.01c-0.21-0.43-0.41-1.11-0.41-1.11
			l-0.2-0.53c0.61-0.14,0.96-0.34,0.86-0.82c-0.101-0.48-0.511-0.77-0.2-1.54c0.3-0.77,0.66-1.78,0.66-1.78l0.3-2.99
			c0,0,0.101-5.59,0.05-6.17c-0.05-0.58,0-0.24-0.05-1.06c-0.05-0.82-0.2-1.4-0.2-1.4l0.2-1.16V57c0,0,1.319-5.21,1.271-5.88
			c-0.051-0.68,0.761-3.28,0.859-4.15c0.1-0.87,0.71-1.69,0.76-2.41c0.051-0.72,0.312-2.17,0.312-2.17s-0.261-1.98-0.46-2.75
			c-0.15-0.58-0.33-1.37-0.41-1.73c0.061-0.12,0.09-0.25,0.061-0.39c-0.011,0-0.011-0.01-0.011-0.01c0.28-0.64,0.58-1.3,0.71-1.68
			c0.301-0.79,1.391-4.04,1.51-4.7c0.23,0,0.42-0.03,0.521-0.11c0.54-0.44,1.141,0,1.07-0.87C41.4,29.28,41.4,28.19,41.4,28.19z"/>
		<path fill="none" stroke="#B4B4B5" stroke-miterlimit="10" d="M36.221,29.2c-0.051-0.06-0.521-0.66-0.521-1.08
			c0-0.43-0.229-1.37,0-1.95c0.22-0.58,0.53,0.43,0.53,0.43S36.04,28.13,36.221,29.2z"/>
		<path fill="none" stroke="#B4B4B5" stroke-miterlimit="10" d="M22.77,29.93c0.3-1.88,0.38-1.52,0.3-1.88
			c-0.07-0.36,0.23-0.87,0.23-0.87l0.15-0.5c0.01,0.05,0.14,0.92,0.14,1.63c0,0.36-0.04,0.68-0.14,0.82
			c-0.23,0.33-0.16,0.79-0.41,1.34C22.93,30.22,22.84,30.02,22.77,29.93z"/>
		<path fill="none" stroke="#B4B4B5" stroke-miterlimit="10" d="M37.109,30.39c-0.189,0.28-0.199,0.9-0.471,1.34
			c-0.1-0.6-0.26-1.08-0.26-1.08l-0.148-1.37c0.078,0.41,0.22,0.75,0.449,0.87c0.119,0.06,0.279,0.13,0.449,0.21
			C37.13,30.37,37.12,30.38,37.109,30.39z"/>
	</g>
</g>
<path fill="none" stroke="#B4B4B5" stroke-miterlimit="10" d="M41.396,128.195l-0.686-1.881l-0.986-3.613
	c0,0-0.306-2.314-0.229-3.977c0,0,0.075-2.242-0.606-2.895c-0.686-0.648-1.369-1.59-2.738-1.664
	c-0.387-0.021-0.721-0.041-1.012-0.064c-0.084-0.061-0.168-0.137-0.244-0.25c-0.408-0.611-0.205-0.791-0.256-0.895
	c0.021,0.037,0.051,0.104,0.051,0.104s0.127,0.561,0.332,0.459c0,0-0.051-0.357-0.332-1.148c-0.279-0.791-0.483-0.816-0.562-1.225
	c-0.078-0.41,0.103-0.895-0.024-1.275c-0.129-0.382-0.205-0.611-0.205-0.611s0.332-0.357,0.459-0.664
	c0.129-0.307,0.025-0.586,0.076-0.74c0.053-0.15,0.181,0.025,0.281-0.535c0.102-0.559,0.256-1.047,0.102-1.965
	c-0.15-0.918-0.434-2.143-1.096-2.934c-0.664-0.791-1.863-1.301-2.221-1.352s-1.581-0.18-2.193,0.127
	c-0.612,0.307-0.893,0.484-1.072,0.562c-0.178,0.077-1.173,0.791-1.377,1.634c-0.204,0.842-0.357,1.836-0.383,2.145
	c-0.025,0.305-0.332,0.482-0.332,0.713s0.077,0.408,0.052,0.688c-0.025,0.281-0.204,0.309-0.204,0.586
	c0,0.281-0.103,0.588,0.102,0.768c0.205,0.182,0.205,0.664,0.307,0.688c0.102,0.025,0.025,1.021-0.383,0.664
	c0,0-0.025,0.436,0.307,0.355c0,0-0.435,0.639-0.664,0.307c0,0,0.025,0.535,0.587,0.256c0,0-0.103,0.74-0.536,0.535
	c0,0,0.332,0.434,0.74,0.051c0,0,0.128,0.74-0.638,0.664c0,0,0.638,0.459,0.944,0.152c0,0,0.408,0.18-0.23,0.537
	c0,0,0.088,0.02,0.203,0.016c-0.375,0.496-0.919,1.064-1.53,1.219c-1.141,0.289-3.193,0.578-3.954,1.594
	c-0.761,1.012-1.064,3.396-1.598,4.986c-0.532,1.592-0.76,3.037-0.912,4.699c-0.152,1.664,0.076-0.217-0.152,1.664
	c-0.228,1.879,0.229,1.662,0.229,1.662s-0.381,0.795-0.076,1.59c0.305,0.797,0.761,0.941,0.761,0.941s0.1,0.031,0.261,0.07
	c0.32,0.637,0.995,1.979,1.336,2.629c0.018,0.033,0.038,0.074,0.058,0.113c-0.275,0.896-0.136,1.391-0.209,1.812
	c-0.076,0.436-0.076,1.373,0.151,1.373c0.031,0,0.158,0.078,0.354,0.199c-0.007,0.486-0.056,2.262-0.404,3.006
	c-0.405,0.865-0.405,2.17-0.254,3.182c0.153,1.014,0.559,0.771,0.609,1.494c0.05,0.725,0.151,1.494,0.151,1.494l0.559,1.107
	c0,0,0.253,1.156,0.405,1.445c0.151,0.289,0.051,1.014,0.354,2.17c0.305,1.156,0.608,1.979,0.608,1.979l0.354,1.59l0.508,1.59
	c0,0,0,1.545-0.051,2.072c-0.051,0.529-0.051,1.445-0.051,1.445v1.109c0,0,0.304,1.156,0.203,2.121
	c-0.102,0.963,0.304,4.627,0.304,6.361c0,1.736,0.051,2.024,0.152,2.893s0.254,1.205,0.354,1.832
	c0.102,0.627,0.405,1.156,0.305,1.445c-0.063,0.18,0.129,0.377,0.55,0.514c-0.057,0.248-0.051,0.793-0.499,1.414
	c-0.559,0.771-0.456,1.109-0.609,1.783c-0.151,0.676-0.963,0.82-0.811,1.496c0,0-0.152,0.385,0.861,0.385c1.015,0,4.209,0,4.209,0
	s0.558-0.676,0.304-1.205c-0.253-0.531,0.102-0.434-0.102-1.061c-0.202-0.627,0-1.012-0.151-1.543
	c-0.152-0.529-0.406-0.578-0.406-1.109c0-0.021-0.01-0.041-0.017-0.061c0.167-0.021,0.271-0.035,0.271-0.035s0.05-0.674,0.152-1.541
	c0.101-0.867,0.304-2.748,0.304-2.748l-0.812-2.748l0.203-3.953c0,0-0.051-2.023,0.202-2.939c0.254-0.916,0.103-1.59,0.103-1.59
	l0.101-1.688c0,0,0.406-2.844,0.254-4c-0.152-1.158-0.304-2.652-0.304-2.652s-0.254-0.578-0.153-2.217
	c0.103-1.639,0-0.242,0.103-1.639c0.101-1.398,0.202-2.604,0.202-2.604l-0.102-1.494c0,0-0.008-0.12,0.016-0.254
	c0.092-0.06,0.104-0.181,0.132-0.267c0.051-0.043,0.116-0.069,0.208-0.06c0.21,0.101,0.135,0.244,0.249,0.343
	c0.093,0.387,0.038,0.987,0.004,1.151c-0.051,0.24,0.102,3.037-0.051,3.903c-0.151,0.867,0.305,1.978,0.203,2.845
	s-0.203,1.397-0.203,2.506s-0.101,1.832-0.101,2.652c0,0.817-0.254,1.35,0,2.071c0.253,0.724,0.405,1.106,0.405,1.106l-0.051,0.869
	l-0.305,0.916c0,0,0.254,0.528,0.405,1.252c0.153,0.724-0.253,3.183-0.202,4.291c0.051,1.108,0.202,2.698,0.202,2.698l0.052,1.351
	c0,0,0,0.529,0,1.156s0,1.351,0,1.351l0.051,1.254c0,0-0.103,0.528,0.305,0.674c0.059,0.021,0.147,0.035,0.258,0.049
	c0.002,0.188-0.02,0.554-0.155,1.013c-0.203,0.676-0.152,0.338-0.052,0.867c0.103,0.53,0.252,0.676,0.103,1.204
	c-0.151,0.531-0.305,0.388-0.203,0.916c0.103,0.531-0.202,0.867,0.56,0.867c0.761,0,4.461,0,4.461,0s0.863-0.724,0.152-1.106
	c-0.709-0.384-0.861-0.867-1.115-1.254c-0.254-0.386-0.254-0.578-0.457-1.013c-0.202-0.434-0.404-1.108-0.404-1.108l-0.203-0.528
	c0.607-0.146,0.964-0.339,0.861-0.82c-0.102-0.479-0.506-0.771-0.202-1.541c0.305-0.771,0.659-1.782,0.659-1.782l0.304-2.988
	c0,0,0.103-5.594,0.051-6.17c-0.051-0.58,0-0.241-0.051-1.062c-0.051-0.819-0.202-1.397-0.202-1.397l0.202-1.155v-1.978
	c0,0,1.319-5.207,1.269-5.882c-0.052-0.676,0.76-3.276,0.861-4.146c0.102-0.868,0.71-1.688,0.762-2.411
	c0.051-0.724,0.303-2.168,0.303-2.168s-0.252-1.978-0.454-2.748c-0.152-0.578-0.334-1.373-0.414-1.734
	c0.063-0.116,0.089-0.243,0.06-0.387c-0.002-0.004-0.003-0.011-0.004-0.015c0.28-0.644,0.575-1.301,0.713-1.672
	c0.295-0.793,1.391-4.047,1.51-4.705c0.229,0.004,0.412-0.026,0.521-0.115c0.532-0.434,1.142,0,1.063-0.866
	C41.396,129.279,41.396,128.195,41.396,128.195z M36.218,129.197c-0.043-0.055-0.522-0.66-0.522-1.074c0-0.434-0.229-1.373,0-1.951
	c0.229-0.58,0.531,0.434,0.531,0.434S36.041,128.135,36.218,129.197z M22.766,129.93c0.305-1.879,0.381-1.518,0.305-1.879
	c-0.076-0.361,0.229-0.867,0.229-0.867l0.15-0.504c0.001,0.002,0.001,0.002,0.002,0.004c0.011,0.068,0.298,2.025-0.001,2.451
	c-0.231,0.33-0.157,0.787-0.409,1.338C22.932,130.223,22.836,130.021,22.766,129.93z M37.113,130.389
	c-0.193,0.277-0.205,0.904-0.473,1.338c-0.097-0.594-0.264-1.072-0.264-1.072l-0.146-1.371c0.08,0.41,0.217,0.744,0.449,0.865
	c0.12,0.062,0.275,0.137,0.45,0.209C37.127,130.367,37.119,130.379,37.113,130.389z"/>
<text transform="matrix(1 0 0 1 17.4004 92.2998)" fill="#B4B4B5" font-family="'SourceSansPro-Semibold'" font-size="10">49 yrs</text>
<text transform="matrix(1 0 0 1 17.4004 192.2998)" fill="#B4B4B5" font-family="'SourceSansPro-Semibold'" font-size="10">49 yrs</text>
<g>
	<g>
		<path fill="#B4B4B5" d="M31.268,106.633c-0.594,0.593-1.188,1.188-1.781,1.779c-0.289,0.289-0.114,0.699,0.223,0.836
			c0.686,0.275,1.188,0.356,1.912,0.373c-0.145-0.25-0.287-0.502-0.432-0.752c-0.729,1.267-1.103,2.676-2.058,3.812
			c-0.308,0.365-0.026,0.979,0.485,0.836c0.943-0.269,1.904-0.442,2.848-0.712c-0.162-0.277-0.324-0.559-0.486-0.836
			c-1.705,1.398-3.227,2.921-4.625,4.627c-0.259,0.312-0.119,0.869,0.354,0.854c2.576-0.086,5.066-0.685,7.605-1.086
			c-0.09-0.32-0.178-0.645-0.268-0.965c-3.751,1.52-7.413,3.209-10.541,5.822c-0.334,0.279-0.064,0.876,0.354,0.854
			c3.133-0.168,5.947-1.688,9.031-2.151c-0.129-0.306-0.258-0.609-0.385-0.914c-2.495,1.813-4.855,3.796-7.221,5.771
			c-0.379,0.316,0.023,1.008,0.486,0.836c1.762-0.65,3.577-1.127,5.34-1.777c-0.129-0.307-0.258-0.609-0.385-0.914
			c-1.563,0.966-2.623,2.466-4.019,3.637c-0.354,0.299-0.05,0.842,0.354,0.854c1.664,0.053,3.172,0.215,4.758-0.373
			c-0.129-0.305-0.258-0.608-0.385-0.913c-2.785,1.741-5.55,3.491-7.932,5.771c-0.35,0.332-0.049,0.803,0.354,0.854
			c2.326,0.29,4.598-0.003,6.895-0.373c-0.161-0.279-0.323-0.56-0.485-0.836c-1.022,1.13-1.823,2.429-2.847,3.559
			c-0.285,0.315-0.102,0.856,0.354,0.854c1.146-0.006,2.225-0.088,3.336-0.372c-0.188-0.245-0.375-0.49-0.563-0.734
			c-1.159,1.521-2.354,2.955-3.837,4.169c-0.41,0.336,0.035,0.944,0.484,0.836c1.539-0.371,3.088-0.697,4.627-1.068
			c-0.211-0.159-0.422-0.319-0.633-0.48c-0.181,1.521-1.002,2.516-1.988,3.562c-0.441,0.47,0.265,1.179,0.707,0.707
			c1.197-1.271,2.074-2.512,2.281-4.27c0.041-0.337-0.349-0.551-0.634-0.48c-1.539,0.371-3.088,0.695-4.626,1.066
			c0.162,0.279,0.324,0.559,0.486,0.836c1.548-1.266,2.787-2.787,3.994-4.371c0.281-0.369-0.182-0.832-0.564-0.734
			c-1.018,0.263-2.027,0.332-3.07,0.339c0.117,0.284,0.234,0.569,0.354,0.854c1.022-1.132,1.821-2.431,2.847-3.561
			c0.355-0.395,0-0.914-0.486-0.836c-2.224,0.359-4.385,0.615-6.627,0.338c0.117,0.284,0.233,0.568,0.354,0.854
			c2.318-2.221,5.02-3.92,7.729-5.615c0.463-0.291,0.166-1.117-0.386-0.913c-1.487,0.552-2.946,0.387-4.493,0.338
			c0.118,0.282,0.234,0.567,0.354,0.854c1.322-1.111,2.33-2.562,3.812-3.479c0.467-0.288,0.164-1.117-0.385-0.914
			c-1.762,0.651-3.578,1.128-5.339,1.778c0.162,0.279,0.324,0.559,0.485,0.836c2.303-1.922,4.593-3.851,7.018-5.615
			c0.473-0.344,0.182-0.999-0.385-0.914c-2.991,0.449-5.73,1.955-8.766,2.117c0.117,0.285,0.234,0.57,0.354,0.854
			c2.989-2.496,6.515-4.113,10.101-5.564c0.599-0.241,0.375-1.065-0.268-0.965c-2.447,0.39-4.852,0.969-7.339,1.051
			c0.116,0.285,0.233,0.57,0.354,0.854c1.398-1.703,2.922-3.228,4.625-4.627c0.398-0.326-0.029-0.965-0.486-0.836
			c-0.941,0.27-1.902,0.445-2.846,0.712c0.161,0.279,0.323,0.56,0.485,0.837c1.015-1.207,1.437-2.668,2.212-4.017
			c0.193-0.333-0.053-0.744-0.431-0.752c-0.589,0.052-1.138-0.062-1.647-0.341c0.073,0.279,0.147,0.56,0.221,0.838
			c0.595-0.594,1.188-1.188,1.781-1.779C32.43,106.884,31.723,106.177,31.268,106.633L31.268,106.633z"/>
	</g>
</g>
</svg>
