<?xml version="1.0" encoding="utf-8"?>
<!-- Generator: Adobe Illustrator 16.0.4, SVG Export Plug-In . SVG Version: 6.00 Build 0)  -->
<!DOCTYPE svg PUBLIC "-//W3C//DTD SVG 1.1//EN" "http://www.w3.org/Graphics/SVG/1.1/DTD/svg11.dtd">
<svg version="1.1" id="Layer_1" xmlns="http://www.w3.org/2000/svg" xmlns:xlink="http://www.w3.org/1999/xlink" x="0px" y="0px"
	 width="20px" height="10px" viewBox="0 0 20 10" enable-background="new 0 0 20 10" xml:space="preserve">
<g>
	<g>
		<path fill="#B4B4B5" d="M4.874,1.041v7.211c0,0.281,0.255,0.51,0.569,0.51h10.381c0.315,0,0.571-0.229,0.571-0.51V1.041
			c0-0.279-0.256-0.509-0.571-0.509H5.443C5.129,0.532,4.874,0.762,4.874,1.041z M15.726,1.129v7.033H5.542V1.129H15.726z"/>
		<rect x="5.286" y="0.943" fill="#FFFFFF" width="10.697" height="7.407"/>
	</g>
	<g>
		<path fill="#B4B4B5" d="M2.926,1.748v7.211c0,0.279,0.255,0.508,0.569,0.508h10.382c0.313,0,0.568-0.229,0.568-0.508V1.748
			c0-0.279-0.255-0.509-0.568-0.509H3.496C3.181,1.239,2.926,1.468,2.926,1.748z M13.78,1.837v7.03H3.595v-7.03H13.78z"/>
		<rect x="3.337" y="1.649" fill="#FFFFFF" width="10.697" height="7.408"/>
	</g>
	<g>
		<rect x="4.789" y="2.944" fill="#B4B4B5" width="6.889" height="0.582"/>
		<rect x="4.789" y="4.357" fill="#B4B4B5" width="5.846" height="0.579"/>
		<rect x="4.789" y="5.768" fill="#B4B4B5" width="4.098" height="0.582"/>
		<rect x="4.789" y="7.18" fill="#B4B4B5" width="3.396" height="0.582"/>
	</g>
</g>
</svg>
