<?xml version="1.0" encoding="utf-8"?>
<!-- Generator: Adobe Illustrator 16.0.4, SVG Export Plug-In . SVG Version: 6.00 Build 0)  -->
<!DOCTYPE svg PUBLIC "-//W3C//DTD SVG 1.1//EN" "http://www.w3.org/Graphics/SVG/1.1/DTD/svg11.dtd">
<svg version="1.1" id="Layer_1" xmlns="http://www.w3.org/2000/svg" xmlns:xlink="http://www.w3.org/1999/xlink" x="0px" y="0px"
	 width="60px" height="60px" viewBox="0 0 60 60" enable-background="new 0 0 60 60" xml:space="preserve">
<g>
	<g>
		<path fill="#B4B4B5" d="M10.81,18.49v21.506c0,0.838,0.763,1.52,1.701,1.52h30.961c0.938,0,1.701-0.682,1.701-1.52V18.49
			c0-0.837-0.763-1.521-1.701-1.521H12.511C11.573,16.969,10.81,17.653,10.81,18.49z M43.177,18.753v20.979H12.807V18.753H43.177z"
			/>
		<rect x="12.038" y="18.197" fill="#FFFFFF" width="31.909" height="22.092"/>
	</g>
	<g>
		<path fill="#B4B4B5" d="M5,20.597v21.506c0,0.838,0.763,1.52,1.701,1.52h30.961c0.938,0,1.701-0.682,1.701-1.52V20.597
			c0-0.837-0.763-1.521-1.701-1.521H6.701C5.763,19.077,5,19.76,5,20.597z M37.367,20.861V41.84H6.997V20.861H37.367z"/>
		<rect x="6.228" y="20.304" fill="#FFFFFF" width="31.909" height="22.092"/>
	</g>
	<g>
		<rect x="10.558" y="24.166" fill="#B4B4B5" width="20.546" height="1.731"/>
		<rect x="10.558" y="28.376" fill="#B4B4B5" width="17.435" height="1.731"/>
		<rect x="10.558" y="32.586" fill="#B4B4B5" width="12.221" height="1.732"/>
		<rect x="10.558" y="36.799" fill="#B4B4B5" width="10.125" height="1.73"/>
	</g>
</g>
</svg>
