<?xml version="1.0" encoding="utf-8"?>
<!-- Generator: Adobe Illustrator 16.0.4, SVG Export Plug-In . SVG Version: 6.00 Build 0)  -->
<!DOCTYPE svg PUBLIC "-//W3C//DTD SVG 1.1//EN" "http://www.w3.org/Graphics/SVG/1.1/DTD/svg11.dtd">
<svg version="1.1" id="Layer_1" xmlns="http://www.w3.org/2000/svg" xmlns:xlink="http://www.w3.org/1999/xlink" x="0px" y="0px"
	 width="60px" height="60px" viewBox="0 0 60 60" enable-background="new 0 0 60 60" xml:space="preserve">
<g>
	<g>
		<path fill="#B4B4B5" d="M20.954,14.268v21.508c0,0.838,0.764,1.52,1.701,1.52h30.962c0.938,0,1.701-0.682,1.701-1.52V14.268
			c0-0.836-0.763-1.52-1.701-1.52H22.655C21.718,12.748,20.954,13.432,20.954,14.268z M53.321,14.531v20.98h-30.37v-20.98H53.321z"
			/>
		<rect x="22.183" y="13.975" fill="#FFFFFF" width="31.908" height="22.094"/>
	</g>
	<g>
		<path fill="#B4B4B5" d="M18.036,16.167v21.508c0,0.838,0.762,1.52,1.701,1.52h30.961c0.938,0,1.701-0.682,1.701-1.52V16.167
			c0-0.836-0.763-1.52-1.701-1.52H19.737C18.798,14.647,18.036,15.332,18.036,16.167z M50.403,16.431v20.981H20.032V16.431H50.403z"
			/>
		<rect x="19.263" y="15.875" fill="#FFFFFF" width="31.91" height="22.094"/>
	</g>
	<g>
		<path fill="#B4B4B5" d="M14.394,18.459v21.507c0,0.838,0.762,1.52,1.701,1.52h30.961c0.938,0,1.701-0.682,1.701-1.52V18.459
			c0-0.837-0.763-1.521-1.701-1.521H16.095C15.155,16.939,14.394,17.623,14.394,18.459z M46.761,18.723v20.98H16.39v-20.98H46.761z"
			/>
		<rect x="15.62" y="18.167" fill="#FFFFFF" width="31.91" height="22.093"/>
	</g>
	<g>
		<path fill="#B4B4B5" d="M10.81,20.38v21.507c0,0.838,0.764,1.52,1.701,1.52h30.962c0.938,0,1.701-0.682,1.701-1.52V20.38
			c0-0.837-0.763-1.521-1.701-1.521H12.511C11.573,18.859,10.81,19.543,10.81,20.38z M43.177,20.644v20.979h-30.37V20.644H43.177z"
			/>
		<rect x="12.038" y="20.087" fill="#FFFFFF" width="31.908" height="22.093"/>
	</g>
	<g>
		<path fill="#B4B4B5" d="M5,22.487v21.507c0,0.838,0.763,1.52,1.701,1.52h30.962c0.938,0,1.701-0.682,1.701-1.52V22.487
			c0-0.837-0.764-1.521-1.701-1.521H6.701C5.763,20.967,5,21.65,5,22.487z M37.367,22.752V43.73H6.997V22.752H37.367z"/>
		<rect x="6.228" y="22.194" fill="#FFFFFF" width="31.909" height="22.093"/>
	</g>
	<g>
		<rect x="10.558" y="26.057" fill="#B4B4B5" width="20.547" height="1.73"/>
		<rect x="10.558" y="30.268" fill="#B4B4B5" width="17.435" height="1.73"/>
		<rect x="10.558" y="34.477" fill="#B4B4B5" width="12.221" height="1.732"/>
		<rect x="10.558" y="38.689" fill="#B4B4B5" width="10.125" height="1.73"/>
	</g>
</g>
</svg>
