<?xml version="1.0" encoding="utf-8"?>
<!-- Generator: Adobe Illustrator 16.0.4, SVG Export Plug-In . SVG Version: 6.00 Build 0)  -->
<!DOCTYPE svg PUBLIC "-//W3C//DTD SVG 1.1//EN" "http://www.w3.org/Graphics/SVG/1.1/DTD/svg11.dtd">
<svg version="1.1" id="Layer_1" xmlns="http://www.w3.org/2000/svg" xmlns:xlink="http://www.w3.org/1999/xlink" x="0px" y="0px"
	 width="60px" height="60px" viewBox="0 0 60 60" enable-background="new 0 0 60 60" xml:space="preserve">
<g>
	<g>
		<path fill="#B4B4B5" d="M14.393,17.529v21.508c0,0.838,0.763,1.52,1.701,1.52h30.961c0.938,0,1.701-0.682,1.701-1.52V17.529
			c0-0.837-0.763-1.521-1.701-1.521H16.094C15.156,16.009,14.393,16.692,14.393,17.529z M46.76,17.793v20.98H16.39v-20.98H46.76z"/>
		<rect x="15.621" y="17.236" fill="#FFFFFF" width="31.909" height="22.094"/>
	</g>
	<g>
		<path fill="#B4B4B5" d="M10.81,19.45v21.507c0,0.838,0.763,1.52,1.701,1.52h30.961c0.938,0,1.701-0.682,1.701-1.52V19.45
			c0-0.837-0.763-1.521-1.701-1.521H12.511C11.573,17.929,10.81,18.613,10.81,19.45z M43.177,19.713v20.98H12.807v-20.98H43.177z"/>
		<rect x="12.038" y="19.157" fill="#FFFFFF" width="31.909" height="22.093"/>
	</g>
	<g>
		<path fill="#B4B4B5" d="M5,21.557v21.507c0,0.838,0.763,1.52,1.701,1.52h30.961c0.938,0,1.701-0.682,1.701-1.52V21.557
			c0-0.837-0.763-1.521-1.701-1.521H6.701C5.763,20.037,5,20.72,5,21.557z M37.367,21.821v20.979H6.997V21.821H37.367z"/>
		<rect x="6.228" y="21.264" fill="#FFFFFF" width="31.909" height="22.093"/>
	</g>
	<g>
		<rect x="10.558" y="25.126" fill="#B4B4B5" width="20.546" height="1.73"/>
		<rect x="10.558" y="29.337" fill="#B4B4B5" width="17.435" height="1.731"/>
		<rect x="10.558" y="33.547" fill="#B4B4B5" width="12.221" height="1.732"/>
		<rect x="10.558" y="37.76" fill="#B4B4B5" width="10.125" height="1.73"/>
	</g>
</g>
</svg>
