<?xml version="1.0" encoding="utf-8"?>
<!-- Generator: Adobe Illustrator 16.0.4, SVG Export Plug-In . SVG Version: 6.00 Build 0)  -->
<!DOCTYPE svg PUBLIC "-//W3C//DTD SVG 1.1//EN" "http://www.w3.org/Graphics/SVG/1.1/DTD/svg11.dtd">
<svg version="1.1" id="Layer_1" xmlns="http://www.w3.org/2000/svg" xmlns:xlink="http://www.w3.org/1999/xlink" x="0px" y="0px"
	 width="60px" height="60px" viewBox="0 0 60 60" enable-background="new 0 0 60 60" xml:space="preserve">
<g>
	<g>
		<path fill="#B4B4B5" d="M18.035,16.383v21.508c0,0.838,0.764,1.52,1.701,1.52h30.961c0.939,0,1.701-0.682,1.701-1.52V16.383
			c0-0.836-0.762-1.52-1.701-1.52H19.736C18.799,14.863,18.035,15.547,18.035,16.383z M50.402,16.647v20.981H20.031V16.647H50.402z"
			/>
		<rect x="19.264" y="16.09" fill="#FFFFFF" width="31.908" height="22.094"/>
	</g>
	<g>
		<path fill="#B4B4B5" d="M14.393,18.675v21.507c0,0.838,0.764,1.52,1.701,1.52h30.961c0.939,0,1.701-0.682,1.701-1.52V18.675
			c0-0.837-0.762-1.521-1.701-1.521H16.094C15.156,17.155,14.393,17.838,14.393,18.675z M46.76,18.939v20.98H16.389v-20.98H46.76z"
			/>
		<rect x="15.621" y="18.382" fill="#FFFFFF" width="31.908" height="22.093"/>
	</g>
	<g>
		<path fill="#B4B4B5" d="M10.811,20.596v21.507c0,0.838,0.762,1.52,1.701,1.52h30.961c0.938,0,1.701-0.682,1.701-1.52V20.596
			c0-0.837-0.764-1.521-1.701-1.521H12.512C11.572,19.075,10.811,19.759,10.811,20.596z M43.178,20.859v20.979H12.807V20.859H43.178
			z"/>
		<rect x="12.037" y="20.303" fill="#FFFFFF" width="31.91" height="22.093"/>
	</g>
	<g>
		<path fill="#B4B4B5" d="M5,22.703V44.21c0,0.838,0.763,1.52,1.701,1.52h30.961c0.939,0,1.701-0.682,1.701-1.52V22.703
			c0-0.837-0.762-1.521-1.701-1.521H6.701C5.763,21.183,5,21.866,5,22.703z M37.367,22.968v20.979H6.996V22.968H37.367z"/>
		<rect x="6.228" y="22.41" fill="#FFFFFF" width="31.909" height="22.093"/>
	</g>
	<g>
		<rect x="10.557" y="26.272" fill="#B4B4B5" width="20.547" height="1.73"/>
		<rect x="10.557" y="30.483" fill="#B4B4B5" width="17.436" height="1.73"/>
		<rect x="10.557" y="34.692" fill="#B4B4B5" width="12.221" height="1.732"/>
		<rect x="10.557" y="38.905" fill="#B4B4B5" width="10.125" height="1.73"/>
	</g>
</g>
</svg>
