<?xml version="1.0" encoding="utf-8"?>
<!-- Generator: Adobe Illustrator 16.0.4, SVG Export Plug-In . SVG Version: 6.00 Build 0)  -->
<!DOCTYPE svg PUBLIC "-//W3C//DTD SVG 1.1//EN" "http://www.w3.org/Graphics/SVG/1.1/DTD/svg11.dtd">
<svg version="1.1" id="Layer_1" xmlns="http://www.w3.org/2000/svg" xmlns:xlink="http://www.w3.org/1999/xlink" x="0px" y="0px"
	 width="60px" height="60px" viewBox="0 0 60 60" enable-background="new 0 0 60 60" xml:space="preserve">
<g>
	<g>
		<path fill="#B4B4B5" d="M15.017,9.955v27.53c0,1.072,0.977,1.944,2.177,1.944h39.628c1.201,0,2.178-0.872,2.178-1.944V9.955
			c0-1.071-0.977-1.947-2.178-1.947H17.194C15.994,8.009,15.017,8.883,15.017,9.955z M56.445,10.293v26.854H17.573V10.293H56.445z"
			/>
		<rect x="16.589" y="9.58" fill="#FFFFFF" width="40.841" height="28.28"/>
	</g>
	<g>
		<path fill="#B4B4B5" d="M10.431,12.414v27.527c0,1.072,0.977,1.945,2.177,1.945h39.629c1.2,0,2.177-0.873,2.177-1.945V12.414
			c0-1.072-0.977-1.947-2.177-1.947H12.608C11.408,10.467,10.431,11.342,10.431,12.414z M51.858,12.75v26.854H12.987V12.75H51.858z"
			/>
		<rect x="12.003" y="12.039" fill="#FFFFFF" width="40.842" height="28.277"/>
	</g>
	<g>
		<path fill="#B4B4B5" d="M2.994,15.111v27.528c0,1.073,0.977,1.945,2.178,1.945h39.629c1.199,0,2.177-0.872,2.177-1.945V15.111
			c0-1.071-0.978-1.947-2.177-1.947H5.172C3.971,13.165,2.994,14.04,2.994,15.111z M44.423,15.448v26.853H5.55V15.448H44.423z"/>
		<rect x="4.566" y="14.736" fill="#FFFFFF" width="40.842" height="28.278"/>
	</g>
	<g>
		<rect x="10.108" y="19.679" fill="#B4B4B5" width="26.297" height="2.214"/>
		<rect x="10.108" y="25.068" fill="#B4B4B5" width="22.315" height="2.216"/>
		<rect x="10.108" y="30.457" fill="#B4B4B5" width="15.642" height="2.218"/>
		<rect x="10.108" y="35.85" fill="#B4B4B5" width="12.959" height="2.215"/>
	</g>
</g>
</svg>
