<?xml version="1.0" encoding="utf-8"?>
<!-- Generator: Adobe Illustrator 16.0.4, SVG Export Plug-In . SVG Version: 6.00 Build 0)  -->
<!DOCTYPE svg PUBLIC "-//W3C//DTD SVG 1.1//EN" "http://www.w3.org/Graphics/SVG/1.1/DTD/svg11.dtd">
<svg version="1.1" id="Layer_1" xmlns="http://www.w3.org/2000/svg" xmlns:xlink="http://www.w3.org/1999/xlink" x="0px" y="0px"
	 width="60px" height="200px" viewBox="0 0 60 200" enable-background="new 0 0 60 200" xml:space="preserve">
<path fill="none" stroke="#B4B4B5" stroke-miterlimit="10" d="M40.599,23.491c-0.121-0.375,0.075-0.999,0.028-1.69
	c-0.046-0.691-0.056-1.258-0.187-1.68c-0.13-0.422,0.066-0.989,0.019-1.575c-0.047-0.586-0.709-2.304-1.558-2.727
	c-0.466-0.232-1.125-0.48-1.796-0.687c-0.24-0.205-0.72-0.678-0.903-1.32c-0.249-0.871-0.995-4.404-1.244-6.222
	c-0.249-1.818-0.771-4.199-2.388-5.351c-1.617-1.152-1.343-1.28-2.513-1.229c-1.168,0.051-1.243,0.281-1.243,0.281
	s-0.622-0.102-1.219,0.179C27,1.752,25.482,2.75,25.035,5.516c-0.447,2.766-0.821,4.02-0.97,4.711
	c-0.149,0.691-0.348,1.536-0.497,2.048c-0.15,0.512-0.423,0.819-0.374,1.28c0.05,0.461-0.199,0.563-0.547,0.973
	c-0.116,0.136-0.271,0.274-0.426,0.4c-1.372,0.665-2.108,1.876-2.36,4.746c-0.199,2.28,0.04,3.041-0.159,5.241
	c-0.167,1.839-0.289,3.875-0.337,5.104c-0.051,1.229,0.099,2.458,0.397,3.072c0.299,0.615,0,0.615,0.199,0.871
	s0.796,1.229,0.896,1.689c0.1,0.461,0.149,0.512,0.249,0.717c0.099,0.205,0.149,1.229-0.149,2.509c0,0-0.149,2.407-0.497,2.766
	c-0.349,0.358-0.1,0.666,0.547,1.126c0.292,0.208,0.492,0.328,0.666,0.365c-0.092,0.444-0.151,1.016-0.093,1.709
	c0.149,1.792,0.621,2.868,1.318,6.017c0.697,3.15,0.996,4.789,1.045,6.454c0.05,1.664,0.149,1.74,0.174,1.843
	c0.025,0.103,0.025,0.076-0.05,0.358c-0.074,0.281-0.024,0.23,0.075,0.461s0.1,0.333-0.025,0.563
	c-0.125,0.229-0.349,0.384-0.174,0.537s0.224,0.153,0.199,0.462c-0.025,0.307-0.249,0.307-0.125,0.512
	c0.125,0.205,0.149,0.205,0.125,0.588c-0.025,0.385,0.174,3.125,0.746,5.94c0.573,2.817,0.722,3.099,0.871,3.432
	s0.224,0.307,0.249,0.871c0.024,0.563-0.1,0.332-0.1,0.512s-0.149,0.052-0.149,0.052l0.447,1.562c0,0,0.349,0.281,0.522,0.281
	c0.122,0,0.229,0.146,0.309,0.237c0.035,0.038,0.066,0.07,0.089,0.07c0.074,0,0.124,0.255,0.199,0.819
	c0.074,0.563-0.051,0.946-0.051,1.151s-0.895,0.743-0.944,1.102c-0.026,0.186,0.055,0.328,0.172,0.41
	c-0.466,0.134-1.628,0.491-2.034,0.849c0,0-0.769,1.056,0,1.056s6.078,0,6.078,0s0.316-0.915,0.012-1.418
	c0.125-0.563,0.199-0.82,0.174-1.307c-0.025-0.486-0.05-0.716-0.149-1.151c-0.1-0.437-0.249-0.538-0.273-0.947
	c-0.025-0.41,0-0.563-0.025-0.922c-0.014-0.191-0.104-0.302-0.175-0.384c0.073-0.04,0.146-0.078,0.221-0.119
	c0.059-0.089,0.065-0.587,0.127-0.727c0.174-0.384,0.125-1.792,0.075-1.869c-0.05-0.076-0.374-0.333-0.374-0.333
	s-0.248-1.741-0.224-2.483c0.025-0.743-0.049-4.43-0.298-5.198c-0.249-0.768-0.273-1.612-0.249-1.945
	c0.025-0.333,0.224-0.666,0.274-0.999c0.049-0.332-0.1-0.64,0.024-0.998c0.125-0.358,0.174-0.845,0.174-0.948
	c0-0.102,0.05-2.176-0.025-2.766c-0.074-0.588-0.173-1.997-0.124-2.458c0.05-0.46,0.1-0.947,0.149-1.588
	c0.05-0.64-0.025-2.073,0.05-2.509c0.075-0.435,0.148-2.381,0.299-2.407c0.148-0.026,0.348-0.026,0.397,0.41
	c0.05,0.435,0.398,2.483,0.547,2.971c0.149,0.486,0.224,1.844,0.274,2.33c0.049,0.486-0.051,0.768,0.074,1.561
	c0.124,0.795-0.025,3.381,0.199,4.072c0.224,0.691,0.423,0.794,0.348,1.075c-0.075,0.282,0,0.385,0.174,0.743
	s0.273,0.229,0.249,0.819c-0.024,0.588,0,1.869-0.049,3.969c-0.05,2.099,0.199,2.944,0.298,3.609
	c0.099,0.666-0.025,1.153-0.025,2.126s0.075,1.05,0.025,1.28s-0.249,0.282-0.273,0.358c-0.025,0.077-0.175,1.485,0,1.716
	c0.141,0.188,0.478,0.605,0.601,0.759c-0.03,0.194-0.092,0.546-0.178,0.777c-0.124,0.333-0.249,0.333-0.274,0.665
	c-0.024,0.333-0.173,0.333-0.173,0.333s-1.12,0.462-1.02,0.769c0.1,0.308,0.547,0.409,0.796,0.154c0,0-0.075,1.126-0.199,1.843
	c-0.052,0.294-0.157,0.613-0.263,0.911h0.012c-0.024,0.084-0.04,0.166-0.041,0.242h4.769c0,0,0.471-0.844,0.059-1.208
	c-0.074-0.065-0.229-0.122-0.432-0.171c-0.02-0.113-0.033-0.227-0.024-0.338c0.025-0.307,0.149-1.279,0.1-1.74
	c-0.05-0.462-0.323-0.514-0.299-0.922c0.025-0.41,0.025-0.281,0.075-0.691c0.043-0.361-0.08-0.633-0.094-0.747
	c0.068-0.018,0.136-0.032,0.202-0.053c0.126-0.129,0.303-0.521,0.364-0.558c0.125-0.077,0.423-0.871,0.398-1.484
	c-0.025-0.615-0.249-0.718-0.249-0.718s0.448-3.149,0.747-4.788s0.299-1.612,0.224-3.994c-0.074-2.381-0.149-2.381-0.1-2.843
	c0.05-0.461,0-0.537-0.049-0.896c-0.05-0.358,0.249-0.641,0.075-0.819c-0.174-0.18-0.1-0.87-0.1-0.947c0-0.078,0-1.844,0.05-3.406
	c0.05-1.562,0.323-4.481,0.398-5.327c0.074-0.845,0.174-1.894,0.349-2.483c0.173-0.588,0.173-0.026,0.248-1.05
	c0.075-1.024,0.199-2.764,0.199-3.123c0-0.088-0.03-0.24-0.077-0.422c0.009,0.013,0.017,0.025,0.026,0.038
	c0.348,0.46,0.299-0.153,0.697,0s0.697,0.052,0.498-0.563c-0.199-0.614-1.045-4.608-0.796-6.196c0,0,0.448-1.229,0.647-1.742
	c0.199-0.512,0.199-0.871,0.348-1.076c0.149-0.205,0.199-0.87,0.199-1.229s0.049-0.154,0.199-0.717c0,0,0.112-0.433,0.13-1.172
	c0.019-0.74,0.075-5.175,0.075-5.425S40.721,23.865,40.599,23.491z"/>
<path fill="none" stroke="#B4B4B5" stroke-miterlimit="10" d="M40.6,123.491c-0.121-0.375,0.074-0.999,0.027-1.69
	s-0.056-1.258-0.187-1.681c-0.13-0.422,0.065-0.988,0.019-1.574s-0.709-2.305-1.557-2.727c-0.467-0.232-1.125-0.48-1.797-0.688
	c-0.24-0.204-0.719-0.678-0.902-1.32c-0.248-0.87-0.995-4.403-1.244-6.222c-0.248-1.817-0.771-4.198-2.388-5.351
	c-1.616-1.153-1.343-1.281-2.513-1.229c-1.168,0.051-1.243,0.281-1.243,0.281s-0.622-0.104-1.219,0.178
	c-0.597,0.283-2.114,1.282-2.562,4.048c-0.447,2.766-0.821,4.02-0.97,4.711c-0.149,0.691-0.348,1.536-0.497,2.049
	c-0.15,0.512-0.423,0.818-0.374,1.279c0.05,0.461-0.199,0.563-0.547,0.974c-0.116,0.136-0.271,0.274-0.426,0.399
	c-1.372,0.666-2.108,1.877-2.36,4.746c-0.199,2.28,0.04,3.041-0.159,5.241c-0.167,1.839-0.289,3.875-0.337,5.104
	c-0.051,1.229,0.099,2.458,0.397,3.072c0.299,0.614,0,0.614,0.199,0.871c0.199,0.256,0.796,1.229,0.896,1.689
	s0.149,0.512,0.249,0.717c0.099,0.205,0.149,1.229-0.149,2.51c0,0-0.149,2.406-0.497,2.766c-0.349,0.357-0.1,0.666,0.547,1.125
	c0.292,0.209,0.492,0.328,0.666,0.365c-0.092,0.443-0.151,1.016-0.093,1.709c0.149,1.793,0.621,2.869,1.318,6.018
	c0.697,3.15,0.996,4.789,1.045,6.453c0.05,1.664,0.149,1.74,0.174,1.844c0.025,0.102,0.025,0.076-0.05,0.357
	c-0.074,0.281-0.024,0.23,0.075,0.461s0.1,0.334-0.025,0.564c-0.125,0.229-0.349,0.383-0.174,0.537
	c0.174,0.152,0.224,0.152,0.199,0.461c-0.025,0.307-0.249,0.307-0.125,0.512c0.125,0.205,0.149,0.205,0.125,0.588
	c-0.025,0.385,0.174,3.125,0.746,5.941c0.573,2.816,0.722,3.098,0.871,3.432c0.149,0.332,0.224,0.307,0.249,0.871
	c0.024,0.562-0.1,0.332-0.1,0.512s-0.149,0.051-0.149,0.051l0.447,1.562c0,0,0.349,0.281,0.522,0.281
	c0.122,0,0.229,0.146,0.309,0.236c0.035,0.039,0.066,0.07,0.09,0.07c0.074,0,0.123,0.256,0.199,0.82
	c0.073,0.562-0.051,0.945-0.051,1.15s-0.896,0.744-0.945,1.102c-0.026,0.186,0.055,0.328,0.172,0.41
	c-0.466,0.135-1.628,0.492-2.034,0.85c0,0-0.769,1.055,0,1.055s6.078,0,6.078,0s0.316-0.914,0.012-1.418
	c0.125-0.562,0.199-0.82,0.174-1.307s-0.049-0.715-0.148-1.15c-0.1-0.438-0.249-0.539-0.273-0.947c-0.025-0.41,0-0.564-0.025-0.922
	c-0.014-0.191-0.104-0.303-0.175-0.385c0.073-0.039,0.146-0.078,0.222-0.119c0.059-0.088,0.064-0.586,0.127-0.727
	c0.174-0.383,0.125-1.791,0.075-1.869c-0.05-0.076-0.374-0.332-0.374-0.332s-0.248-1.742-0.224-2.484
	c0.025-0.742-0.05-4.43-0.298-5.197c-0.25-0.768-0.273-1.613-0.25-1.945c0.025-0.334,0.225-0.666,0.275-1
	c0.049-0.332-0.1-0.639,0.023-0.998c0.125-0.357,0.175-0.844,0.175-0.947c0-0.102,0.05-2.176-0.025-2.766
	c-0.073-0.588-0.173-1.996-0.124-2.457c0.051-0.461,0.1-0.947,0.149-1.588s-0.025-2.074,0.05-2.51
	c0.074-0.436,0.148-2.381,0.299-2.406c0.148-0.027,0.348-0.027,0.396,0.41c0.051,0.434,0.398,2.482,0.548,2.971
	c0.149,0.486,0.224,1.844,0.274,2.33c0.049,0.486-0.051,0.768,0.074,1.561c0.124,0.795-0.025,3.381,0.199,4.07
	c0.223,0.691,0.422,0.795,0.348,1.076s0,0.385,0.174,0.742c0.175,0.359,0.273,0.23,0.249,0.82c-0.024,0.588,0,1.869-0.05,3.969
	c-0.05,2.098,0.199,2.943,0.299,3.609s-0.025,1.152-0.025,2.125s0.075,1.051,0.025,1.281s-0.249,0.281-0.273,0.357
	c-0.025,0.078-0.175,1.486,0,1.717c0.141,0.188,0.478,0.605,0.601,0.758c-0.03,0.195-0.092,0.547-0.178,0.777
	c-0.124,0.334-0.249,0.334-0.274,0.666c-0.024,0.332-0.174,0.332-0.174,0.332s-1.119,0.463-1.02,0.77s0.547,0.408,0.797,0.154
	c0,0-0.076,1.125-0.199,1.842c-0.053,0.295-0.157,0.613-0.264,0.912h0.012c-0.024,0.084-0.04,0.166-0.041,0.242h4.77
	c0,0,0.471-0.844,0.059-1.209c-0.074-0.064-0.229-0.121-0.432-0.17c-0.021-0.113-0.033-0.227-0.025-0.338
	c0.025-0.307,0.149-1.279,0.1-1.74c-0.05-0.463-0.322-0.514-0.299-0.922c0.025-0.41,0.025-0.281,0.076-0.691
	c0.043-0.361-0.08-0.633-0.095-0.748c0.067-0.018,0.136-0.031,0.202-0.053c0.126-0.129,0.303-0.52,0.364-0.557
	c0.124-0.078,0.423-0.871,0.397-1.484c-0.025-0.615-0.248-0.719-0.248-0.719s0.447-3.148,0.746-4.787s0.299-1.613,0.224-3.994
	c-0.074-2.381-0.149-2.381-0.1-2.844c0.05-0.461,0-0.537-0.05-0.895c-0.05-0.359,0.249-0.641,0.075-0.82
	c-0.175-0.18-0.1-0.869-0.1-0.947s0-1.844,0.05-3.404c0.05-1.562,0.323-4.482,0.398-5.328c0.074-0.844,0.174-1.893,0.348-2.482
	c0.174-0.588,0.174-0.025,0.248-1.051c0.075-1.023,0.199-2.764,0.199-3.123c0-0.088-0.029-0.24-0.076-0.422
	c0.009,0.014,0.018,0.025,0.026,0.039c0.349,0.459,0.299-0.154,0.696,0c0.398,0.152,0.697,0.051,0.498-0.564
	c-0.199-0.613-1.045-4.608-0.796-6.195c0,0,0.448-1.23,0.647-1.742c0.198-0.512,0.198-0.871,0.348-1.076
	c0.148-0.204,0.199-0.869,0.199-1.229c0-0.357,0.049-0.154,0.199-0.717c0,0,0.111-0.432,0.13-1.172
	c0.019-0.739,0.075-5.175,0.075-5.424C40.563,123.942,40.721,123.865,40.6,123.491z"/>
<g>
	<g>
		<path fill="#B4B4B5" d="M29.98,103.314c-1.088,1.161-1.978,2.369-2.745,3.768c-0.139,0.253-0.034,0.688,0.299,0.734
			c1.225,0.172,2.212,0.499,3.466,0.352c-0.084-0.311-0.168-0.621-0.252-0.932c-1.831,0.832-3.328,2.023-4.768,3.411
			c-0.346,0.333-0.05,0.804,0.354,0.854c2.105,0.259,3.908-0.507,5.586-1.735c-0.202-0.262-0.404-0.523-0.606-0.785
			c-2.623,2.271-5.335,4.418-7.667,7c-0.3,0.332-0.088,0.827,0.354,0.854c3.334,0.203,6.416-1.187,9.466-2.351
			c-0.162-0.279-0.324-0.558-0.486-0.836c-4.084,3.37-8.401,6.446-12.333,10c-0.304,0.274-0.084,0.905,0.354,0.854
			c4.439-0.523,8.308-2.891,12.466-4.351c-0.128-0.305-0.257-0.609-0.385-0.914c-2.667,1.983-5.465,3.851-7.512,6.513
			c-0.275,0.357,0.177,0.854,0.564,0.734c2.253-0.692,4.413-1.642,6.667-2.333c-0.162-0.279-0.324-0.558-0.486-0.836
			c-2.465,2.363-5.381,4.155-8,6.333c-0.418,0.348,0.042,0.924,0.486,0.836c3.935-0.778,7.295-2.91,11-4.333
			c-0.188-0.245-0.376-0.49-0.564-0.734c-2.154,3.695-5.579,6.279-8.588,9.231c-0.297,0.291-0.09,0.884,0.354,0.854
			c2.285-0.155,4.226-1.062,6.252-2.068c-0.228-0.228-0.456-0.456-0.684-0.684c-2.117,3.317-5.29,5.69-7.922,8.565
			c-0.246,0.269-0.159,0.741,0.221,0.836c2.07,0.515,3.873,0.056,5.932-0.334c-0.205-0.205-0.41-0.41-0.615-0.615
			c-0.424,1.189-1.137,1.713-2.104,2.368c-0.531,0.359-0.031,1.227,0.505,0.863c1.2-0.812,2.069-1.58,2.563-2.966
			c0.139-0.389-0.272-0.68-0.615-0.615c-1.846,0.35-3.512,0.805-5.401,0.334c0.074,0.279,0.147,0.558,0.221,0.836
			c2.692-2.941,5.913-5.375,8.078-8.769c0.288-0.45-0.261-0.894-0.684-0.684c-1.855,0.922-3.647,1.789-5.748,1.932
			c0.118,0.284,0.236,0.569,0.354,0.854c3.074-3.016,6.546-5.661,8.745-9.435c0.205-0.352-0.138-0.897-0.564-0.734
			c-3.695,1.42-7.077,3.558-11,4.333c0.162,0.279,0.324,0.558,0.486,0.836c2.62-2.179,5.534-3.968,8-6.333
			c0.358-0.344-0.007-0.982-0.486-0.836c-2.254,0.691-4.413,1.641-6.667,2.333c0.188,0.245,0.376,0.49,0.564,0.734
			c1.936-2.517,4.633-4.279,7.154-6.153c0.42-0.312,0.192-1.116-0.385-0.914c-4.059,1.426-7.871,3.805-12.2,4.315
			c0.118,0.284,0.236,0.569,0.354,0.854c3.932-3.554,8.249-6.63,12.333-10c0.38-0.313-0.026-1.012-0.486-0.836
			c-2.96,1.13-5.961,2.513-9.2,2.315c0.118,0.284,0.236,0.569,0.354,0.854c2.332-2.581,5.044-4.729,7.667-7
			c0.427-0.369-0.147-1.121-0.606-0.785c-1.548,1.135-3.128,1.839-5.081,1.599c0.118,0.284,0.236,0.569,0.354,0.854
			c1.376-1.326,2.821-2.462,4.566-3.255c0.441-0.201,0.235-0.989-0.252-0.932c-1.121,0.132-2.106-0.162-3.201-0.316
			c0.1,0.245,0.199,0.49,0.299,0.734c0.72-1.312,1.562-2.469,2.588-3.564C31.127,103.552,30.422,102.843,29.98,103.314
			L29.98,103.314z"/>
	</g>
</g>
<text transform="matrix(1 0 0 1 17.4004 92.2998)" fill="#B4B4B5" font-family="'SourceSansPro-Semibold'" font-size="10">15 yrs</text>
<text transform="matrix(1 0 0 1 17.4004 192.2998)" fill="#B4B4B5" font-family="'SourceSansPro-Semibold'" font-size="10">15 yrs</text>
<line fill="none" x1="-80" y1="100" x2="246" y2="100"/>
</svg>
