<?xml version="1.0" encoding="utf-8"?>
<!-- Generator: Adobe Illustrator 16.0.4, SVG Export Plug-In . SVG Version: 6.00 Build 0)  -->
<!DOCTYPE svg PUBLIC "-//W3C//DTD SVG 1.1//EN" "http://www.w3.org/Graphics/SVG/1.1/DTD/svg11.dtd">
<svg version="1.1" id="Layer_1" xmlns="http://www.w3.org/2000/svg" xmlns:xlink="http://www.w3.org/1999/xlink" x="0px" y="0px"
	 width="60px" height="200px" viewBox="0 0 60 200" enable-background="new 0 0 60 200" xml:space="preserve">
<path fill="none" stroke="#B4B4B5" stroke-miterlimit="10" d="M45.03,27.627c0.036-0.845-0.281-2.815-0.281-2.815
	s-0.239,0.071-0.624,0.173c0.262-0.121,0.508-0.258,0.719-0.421c0,0-0.841-3.489-0.905-4.975c-0.064-1.486-1.615-3.748-2.326-4.329
	s-3.747-2.197-3.747-2.197s-0.646-0.646-0.904-0.646c-0.1,0-0.724-0.057-1.642-0.046c-0.258-0.195-0.463-0.481-0.484-1.032
	C34.8,10.407,34.89,9.026,34.89,8.632c0,0,0.358,0.089,0.483-0.144c0.126-0.233,0.377-0.771,0.431-1.04
	c0.054-0.269,0.144-1.291-0.071-1.524c-0.216-0.233-0.664-0.251-0.771-0.162c-0.107,0.09,0.162-1.972-0.215-2.725
	c-0.377-0.753-1.9-2.331-4.321-1.99s-3.013,3.209-2.94,4.5c0,0,0.18,1.219,0.287,1.578c0.107,0.359-0.18,0.574-0.019,0.789
	s0.358,1.076,0.377,1.327C28.147,9.492,28.381,9.6,28.381,9.6s0.322,1.183,0.556,1.434c0.233,0.251,0.251,0.305,0.466,0.538
	c0.216,0.233,0.358,0.915,0.305,1.793c0,0-0.235,0.079-0.504,0.245c-0.298,0.134-0.726,0.355-1.159,0.68
	c-0.775,0.582-3.618,1.421-4.006,2.391s-0.581,3.295-0.71,4.265c-0.13,0.969,0.258,3.037,0.193,4.07s-0.193,1.357-0.193,1.357
	s0.085,0.042,0.221,0.098c-0.068,0.5-0.347,2.542-0.407,2.88c0,0-0.423,0.387-0.81,3.238c-0.388,2.851-0.317,4.892-0.177,5.807
	c0.114,0.74,0.251,2.125,0.299,2.626c-0.235,0.278-0.434,0.59-0.534,0.93c-0.383,1.291-0.239,4.208-0.191,5.643
	s0.287,5.499,0.239,6.981c-0.048,1.482-0.144,3.682-0.144,3.873c0,0.15,0.413,0.852,0.958,1.197
	c-0.131,0.693-0.302,1.544-0.408,1.863c-0.191,0.573-0.12,3.825-0.264,5.546c-0.143,1.722,0,5.403-0.143,6.503
	c-0.144,1.1-0.144,1.721-0.479,2.056c-0.171,0.171-0.279,0.18-0.345,0.147c-0.062-0.031-0.086-0.1-0.086-0.1
	s-0.238,0.766-0.765,0.957c-0.526,0.19-0.574,0.382-0.669,0.525c-0.097,0.144-0.287,0.383-0.622,0.383s-0.239,0.191-0.479,0.287
	c-0.238,0.096-0.621,0.19-0.908,0.383c-0.287,0.19-0.669,0.573-0.669,0.573s-1.243,0-1.435,0.096s-1.243,1.722,0.048,1.912
	c1.291,0.191,10.423,0,10.423,0s1.053-0.717,0.574-2.008c-0.459-1.238-1.13-1.857-1.185-2.201c-0.003-0.016-0.011-0.032-0.011-0.046
	c0-0.335-0.096-1.004-0.048-1.722c0.048-0.717,0-4.16,0.287-5.307c0.287-1.148,1.482-2.391,1.816-3.777
	c0.291-1.202,0.222-4.663,0.198-5.752c0.213-0.019,0.381-0.044,0.472-0.082c0.574-0.238,0.766-2.199,0.956-2.773
	c0.191-0.573,1.435-4.303,1.435-4.303s0.574,2.39,0.86,3.251c0.287,0.861,0.861,2.706,0.908,3.423
	c0.048,0.717,0.383,0.908,0.383,0.908s0.12,0.154,0.309,0.357c-0.015,0.435-0.03,1.166,0.015,1.663
	c0.067,0.743-0.067,2.23,0.338,4.326s0.946,3.988,0.608,5.205s-0.067,1.622-0.405,2.231c-0.184,0.331-0.294,0.792-0.375,1.171
	c-0.028,0.029-0.062,0.051-0.089,0.082c-0.046,0.21-0.077,0.409-0.077,0.572c0,0.474-0.541,1.758-0.878,3.042
	C31.736,80.324,31.533,81,32.277,81c0.743,0,5.272,0,5.272,0s-0.202-2.231-0.676-3.042c-0.343-0.589-0.366-1.707-0.404-2.613
	c0.011,0.009,0.023,0.015,0.033,0.024c-0.013-0.298-0.069-0.714-0.102-0.928c-0.136-0.879,0.135-2.027,0.405-2.906
	s1.149-5.949,1.149-7.64c0-1.206,0-2.271,0-2.784c0.325-0.305,0.556-0.64,0.556-0.866c0-0.478-0.239-3.374-0.239-4.666
	c0-1.291,1.387-7.22,1.387-8.081c0-0.206-0.012-0.611-0.033-1.117c0.12-0.265,0.22-0.515,0.267-0.702
	c0.176-0.704,0.88-1.091,0.985-1.654s-0.035-1.091,0.634-2.429c0.668-1.337,2.604-6.792,2.851-7.425
	c0.246-0.633,0.668-1.302,0.704-2.146C45.101,31.181,44.995,28.471,45.03,27.627z M41.019,32.308
	c-0.246,0.598-0.739,3.272-0.88,4.328c-0.05,0.372-0.16,0.874-0.295,1.399c-0.017-0.084-0.03-0.177-0.04-0.29
	c-0.064-0.775,0.129-1.034-0.064-1.938c-0.194-0.905-0.13-2.52-0.13-2.52s0.452-2.391,0.388-3.554
	c-0.013-0.23,0.001-0.485,0.029-0.747c0.067,0.148,0.138,0.295,0.218,0.436C41.124,30.97,41.265,31.709,41.019,32.308z"/>
<path fill="none" stroke="#B4B4B5" stroke-miterlimit="10" d="M45.03,127.627c0.036-0.844-0.281-2.814-0.281-2.814
	s-0.239,0.07-0.624,0.173c0.262-0.12,0.508-0.259,0.719-0.421c0,0-0.841-3.489-0.905-4.975c-0.064-1.486-1.615-3.748-2.326-4.33
	c-0.711-0.581-3.747-2.196-3.747-2.196s-0.646-0.646-0.904-0.646c-0.1,0-0.724-0.058-1.642-0.047
	c-0.258-0.195-0.463-0.48-0.484-1.031c-0.035-0.932,0.055-2.312,0.055-2.707c0,0,0.358,0.089,0.483-0.145
	c0.126-0.232,0.377-0.771,0.431-1.039c0.054-0.27,0.144-1.291-0.071-1.524c-0.216-0.233-0.664-0.251-0.771-0.161
	s0.162-1.973-0.215-2.726s-1.9-2.331-4.321-1.99s-3.013,3.21-2.94,4.501c0,0,0.18,1.219,0.287,1.577s-0.18,0.573-0.019,0.789
	s0.358,1.075,0.377,1.327c0.018,0.25,0.251,0.358,0.251,0.358s0.322,1.183,0.556,1.435c0.233,0.251,0.251,0.305,0.466,0.537
	c0.216,0.234,0.358,0.915,0.305,1.794c0,0-0.235,0.079-0.504,0.245c-0.298,0.135-0.726,0.355-1.159,0.68
	c-0.775,0.582-3.618,1.422-4.006,2.391s-0.581,3.295-0.71,4.265c-0.13,0.97,0.258,3.036,0.193,4.07s-0.193,1.356-0.193,1.356
	s0.085,0.042,0.221,0.098c-0.068,0.501-0.347,2.542-0.407,2.881c0,0-0.423,0.387-0.81,3.238c-0.388,2.85-0.317,4.891-0.177,5.807
	c0.114,0.74,0.251,2.123,0.299,2.625c-0.235,0.279-0.434,0.592-0.534,0.932c-0.383,1.291-0.239,4.207-0.191,5.643
	c0.048,1.434,0.287,5.498,0.239,6.98s-0.144,3.682-0.144,3.873c0,0.148,0.413,0.852,0.958,1.197
	c-0.131,0.693-0.302,1.543-0.408,1.863c-0.191,0.572-0.12,3.824-0.264,5.545c-0.143,1.723,0,5.404-0.143,6.504
	c-0.144,1.1-0.144,1.721-0.479,2.055c-0.171,0.172-0.279,0.18-0.345,0.148c-0.062-0.031-0.086-0.1-0.086-0.1
	s-0.238,0.766-0.765,0.957c-0.526,0.189-0.574,0.381-0.669,0.525c-0.097,0.143-0.287,0.383-0.622,0.383s-0.239,0.191-0.479,0.287
	c-0.238,0.096-0.621,0.189-0.908,0.383c-0.287,0.189-0.669,0.572-0.669,0.572s-1.243,0-1.435,0.096s-1.243,1.723,0.048,1.912
	c1.291,0.191,10.423,0,10.423,0s1.053-0.717,0.574-2.008c-0.459-1.238-1.13-1.857-1.185-2.201c-0.003-0.016-0.011-0.031-0.011-0.045
	c0-0.336-0.096-1.004-0.048-1.723c0.048-0.717,0-4.16,0.287-5.307c0.287-1.148,1.482-2.391,1.816-3.777
	c0.291-1.201,0.222-4.662,0.198-5.752c0.213-0.018,0.381-0.043,0.472-0.082c0.574-0.238,0.766-2.199,0.956-2.773
	c0.191-0.572,1.435-4.303,1.435-4.303s0.574,2.391,0.86,3.252c0.287,0.859,0.861,2.705,0.908,3.422
	c0.048,0.717,0.383,0.908,0.383,0.908s0.12,0.154,0.309,0.357c-0.015,0.436-0.03,1.166,0.015,1.664
	c0.067,0.742-0.067,2.23,0.338,4.326s0.946,3.988,0.608,5.205s-0.067,1.621-0.405,2.23c-0.184,0.332-0.294,0.793-0.375,1.172
	c-0.028,0.029-0.062,0.051-0.089,0.082c-0.046,0.209-0.077,0.408-0.077,0.572c0,0.473-0.541,1.758-0.878,3.041
	c-0.339,1.285-0.542,1.961,0.202,1.961c0.743,0,5.272,0,5.272,0s-0.202-2.23-0.676-3.041c-0.343-0.59-0.366-1.707-0.404-2.613
	c0.011,0.008,0.023,0.014,0.033,0.023c-0.013-0.297-0.069-0.713-0.102-0.928c-0.136-0.879,0.135-2.027,0.405-2.906
	s1.149-5.949,1.149-7.639c0-1.207,0-2.271,0-2.785c0.325-0.305,0.556-0.639,0.556-0.865c0-0.479-0.239-3.375-0.239-4.666
	s1.387-7.221,1.387-8.08c0-0.207-0.012-0.611-0.033-1.117c0.12-0.266,0.22-0.516,0.267-0.703c0.176-0.703,0.88-1.09,0.985-1.652
	c0.105-0.564-0.035-1.092,0.634-2.43c0.668-1.336,2.604-6.791,2.851-7.425c0.246-0.634,0.668-1.302,0.704-2.146
	C45.101,131.182,44.995,128.472,45.03,127.627z M41.019,132.309c-0.246,0.598-0.739,3.271-0.88,4.328
	c-0.05,0.371-0.16,0.873-0.295,1.398c-0.017-0.084-0.03-0.177-0.04-0.29c-0.064-0.775,0.129-1.034-0.064-1.938
	c-0.194-0.904-0.13-2.52-0.13-2.52s0.452-2.391,0.388-3.555c-0.013-0.23,0.001-0.484,0.029-0.746
	c0.067,0.148,0.138,0.295,0.218,0.436C41.124,130.971,41.265,131.709,41.019,132.309z"/>
<g>
	<g>
		<path fill="#B4B4B5" d="M31.313,103.647c-0.688,0.761-1.312,1.573-2,2.333c-0.299,0.33-0.089,0.83,0.354,0.854
			c1.195,0.063,2.279,0.182,3.466-0.018c-0.162-0.279-0.324-0.558-0.486-0.836c-1.279,1.079-2.205,2.444-3.333,3.667
			c-0.242,0.263-0.163,0.751,0.221,0.836c0.787,0.175,1.322,0.107,2.133,0.018c-0.167-0.167-0.333-0.333-0.5-0.5
			c0.06,0.715-0.411,1.098-0.315,1.8c0.021,0.153,0.199,0.325,0.35,0.35c0.573,0.093,1.07,0.286,1.547,0.615
			c-0.034-0.262-0.068-0.523-0.102-0.785c-1.123,1.428-2.363,2.598-3.898,3.589c-0.409,0.264-0.262,0.933,0.252,0.932
			c1.882-0.005,3.671-0.08,5.467-0.685c-0.162-0.279-0.324-0.558-0.486-0.836c-2.236,2.125-4.831,3.552-7.565,4.922
			c-0.362,0.182-0.312,0.854,0.119,0.914c3.748,0.522,7.062-1.216,10.385-2.717c-0.201-0.262-0.403-0.523-0.605-0.785
			c-2.982,3.465-7.009,5.354-10.898,7.588c-0.473,0.271-0.208,0.874,0.252,0.932c4.297,0.54,8.364-0.955,12.466-2.018
			c-0.089-0.321-0.177-0.644-0.266-0.965c-4.157,1.436-8.06,3.386-11.785,5.718c-0.412,0.258-0.259,0.938,0.252,0.932
			c2.764-0.038,5.444-0.383,8.133-1.018c-0.162-0.279-0.324-0.558-0.486-0.836c-1.49,1.754-3.203,3.157-5.232,4.255
			c-0.53,0.286-0.145,1.007,0.385,0.914c1.55-0.272,3.117-0.395,4.667-0.666c-0.128-0.305-0.257-0.609-0.385-0.914
			c-3.017,1.413-5.677,3.343-8.333,5.333c-0.365,0.273-0.293,0.952,0.252,0.932c3.769-0.139,7.245-1.849,11-2
			c-0.118-0.284-0.235-0.569-0.354-0.854c-2.836,3.161-5.839,6.164-9,9c-0.404,0.362,0.033,0.918,0.486,0.836
			c2.11-0.385,3.994-1.282,6-2c-0.128-0.305-0.257-0.609-0.385-0.914c-2.473,1.694-5.195,2.972-7.667,4.667
			c-0.39,0.267-0.275,0.944,0.252,0.932c2.775-0.066,5.464-0.611,8.133-1.352c-0.128-0.305-0.257-0.609-0.385-0.914
			c-0.816,0.506-1.518,1.161-2.333,1.667c-0.44,0.272-0.236,0.896,0.252,0.932c1.361,0.098,2.646,0.546,4,0.667
			c-0.118-0.284-0.235-0.569-0.354-0.854c-0.816,0.811-1.632,1.574-2.565,2.255c-0.517,0.375-0.018,1.243,0.504,0.863
			c0.999-0.727,1.893-1.541,2.769-2.411c0.331-0.329,0.063-0.816-0.354-0.854c-1.354-0.121-2.64-0.569-4-0.667
			c0.084,0.311,0.168,0.621,0.252,0.932c0.816-0.506,1.518-1.161,2.333-1.667c0.479-0.297,0.171-1.068-0.385-0.914
			c-2.583,0.717-5.178,1.252-7.867,1.316c0.084,0.311,0.168,0.621,0.252,0.932c2.473-1.694,5.195-2.973,7.667-4.667
			c0.442-0.303,0.179-1.116-0.385-0.914c-2.006,0.719-3.89,1.615-6,2c0.162,0.279,0.324,0.558,0.486,0.836
			c3.161-2.836,6.164-5.839,9-9c0.275-0.308,0.106-0.872-0.354-0.854c-3.762,0.151-7.233,1.861-11,2
			c0.084,0.311,0.168,0.621,0.252,0.932c2.656-1.99,5.316-3.92,8.333-5.333c0.55-0.257,0.134-1.005-0.385-0.914
			c-1.55,0.272-3.117,0.395-4.667,0.666c0.128,0.305,0.257,0.609,0.385,0.914c2.102-1.137,3.887-2.589,5.436-4.411
			c0.32-0.377,0.021-0.956-0.486-0.836c-2.598,0.614-5.198,0.945-7.867,0.982c0.084,0.311,0.168,0.621,0.252,0.932
			c3.653-2.286,7.469-4.208,11.547-5.616c0.604-0.209,0.364-1.128-0.266-0.965c-4.013,1.04-7.995,2.511-12.2,1.982
			c0.084,0.311,0.168,0.621,0.252,0.932c3.969-2.279,8.063-4.216,11.102-7.744c0.383-0.444-0.089-1.019-0.605-0.785
			c-3.035,1.371-6.17,3.097-9.615,2.615c0.04,0.305,0.08,0.609,0.119,0.914c2.816-1.411,5.474-2.896,7.769-5.078
			c0.354-0.337-0.008-0.997-0.486-0.836c-1.702,0.573-3.421,0.645-5.201,0.649c0.084,0.311,0.168,0.621,0.252,0.932
			c1.599-1.031,2.923-2.247,4.102-3.745c0.208-0.265,0.186-0.587-0.102-0.785c-0.457-0.316-0.906-0.494-1.431-0.659
			c0.454,0.144,0.354-1.136,0.346-1.242c-0.021-0.247-0.213-0.532-0.5-0.5c-0.619,0.104-1.241,0.11-1.867,0.018
			c0.073,0.279,0.147,0.558,0.221,0.836c1.129-1.223,2.054-2.588,3.333-3.667c0.423-0.356-0.046-0.91-0.486-0.836
			c-1.113,0.188-2.099,0.041-3.2-0.018c0.118,0.284,0.235,0.569,0.354,0.854c0.689-0.76,1.312-1.572,2-2.333
			C32.452,103.878,31.747,103.169,31.313,103.647L31.313,103.647z"/>
	</g>
</g>
<text transform="matrix(1 0 0 1 17.4004 92.2998)" fill="#B4B4B5" font-family="'SourceSansPro-Semibold'" font-size="10">17 yrs</text>
<text transform="matrix(1 0 0 1 17.4004 192.2998)" fill="#B4B4B5" font-family="'SourceSansPro-Semibold'" font-size="10">17 yrs</text>
<line fill="none" x1="-160" y1="100" x2="166" y2="100"/>
</svg>
