<?xml version="1.0" encoding="utf-8"?>
<!-- Generator: Adobe Illustrator 16.0.4, SVG Export Plug-In . SVG Version: 6.00 Build 0)  -->
<!DOCTYPE svg PUBLIC "-//W3C//DTD SVG 1.1//EN" "http://www.w3.org/Graphics/SVG/1.1/DTD/svg11.dtd">
<svg version="1.1" id="Layer_1" xmlns="http://www.w3.org/2000/svg" xmlns:xlink="http://www.w3.org/1999/xlink" x="0px" y="0px"
	 width="60px" height="200px" viewBox="0 0 60 200" enable-background="new 0 0 60 200" xml:space="preserve">
<path fill="none" stroke="#B4B4B5" stroke-miterlimit="10" d="M40.498,26.925c0.596-0.169,1.189-0.412,1.625-0.76
	c0,0-1.483-5.227-1.927-6.821c-0.445-1.594-1.001-2.336-1.15-2.669c-0.148-0.333-2.668-1.445-3.336-1.816
	c-0.668-0.371-1.52-1.001-1.854-1.111c-0.114-0.039-0.429-0.041-0.81-0.033c-0.173-0.138-0.335-0.346-0.415-0.663
	c-0.214-0.855-0.25-2.21-0.178-2.424c0.071-0.214,0.321-1.248,0.321-1.818c0,0,1.069,0.036,1.069-0.677
	c0-0.713-0.035-1.604-0.213-1.89s-0.535-0.25-0.535-0.25s0.107-2.781-1.034-3.708c-1.141-0.927-1.532-1.497-3.315-1.212
	c-1.236,0.198-2.852,1.96-2.994,2.816c-0.143,0.855,0,2.531,0,3.03c0,0-0.321,0.036-0.214,0.606c0.107,0.57,0.107,0.927,0.178,1.319
	c0.072,0.392-0.213,0.463,0.178,0.713c0.393,0.25,0.429,0.071,0.429,0.071s0.356,0.713,0.534,0.856
	c0.178,0.142,0.321,0.57,0.428,0.819c0.107,0.25,0.392,2.389,0.143,2.638c-0.059,0.059-0.163,0.141-0.289,0.235
	c-0.686,0.296-1.792,0.767-2.142,0.867c-0.519,0.148-1.224,0.704-2.001,1.223c-0.779,0.519-1.78,1.112-2.187,1.631
	c-0.408,0.519-1.075,2.595-1.261,3.707c-0.185,1.112-1.075,5.635-1.372,6.413c-0.297,0.779-0.297,0.779-0.297,0.779
	s1.23,0.495,2.702,0.764c-0.008,0.196-0.051,0.941-0.236,1.352c-0.213,0.476-0.689,2.828-0.999,5.276
	c-0.309,2.448-0.309,2.448-0.309,2.448s-0.333,3.233-0.523,3.731c-0.19,0.499-0.142,0.712-0.166,1.236s-0.166,2.234-0.285,3.161
	c-0.119,0.927,0.119,1.189,0.237,1.521c0.12,0.333,0.238,1.165,0.357,1.379c0.119,0.213,0.261,0.404,0.404,0.594
	c0.142,0.19,0.998,0.166,1.283,0.309s0.808,0.452,1.021,0.357C21.58,50.828,21.58,50.4,21.58,50.4s0.309-0.095,0.094-0.309
	c-0.213-0.214-0.973-0.951-1.188-1.094c-0.214-0.143-0.57-0.784-0.594-0.95c-0.024-0.167,0.19-0.452,0.214-0.522
	c0.024-0.072,0.118,0,0.309,0.023c0.189,0.023,0.237,0.975,0.356,1.212s0.309,0.879,0.761,0.784
	c0.451-0.095,0.142-0.975,0.119-1.331c-0.024-0.357-0.333-1.592-0.452-2.163c-0.119-0.571-0.689-1.426-0.855-1.807
	c-0.167-0.379-0.213-1.782-0.072-2.329c0.126-0.483,1.475-4.299,2.05-5.675c-0.098,1.1,0.079,1.602,0.079,1.602
	s-0.778,1.075-0.778,1.372c0,0.296-0.074,1.41,0.185,1.891c0.26,0.482,0.148,1.668,0.111,2.409
	c-0.037,0.742-0.074,2.374-0.074,2.374s0.097,0.015,0.253,0.033c0.044,0.471,0.102,1.12,0.123,1.498
	c0.036,0.642-0.356,3.565-0.213,4.813c0.142,1.248,0.463,3.03,0.32,4.206c-0.142,1.177-0.036,3.565-0.036,3.565
	s1.334,0.667,2.151,0.808c0.014,0.778,0.037,2.007,0.06,2.829c0.035,1.284,0.962,4.812,1.211,6.703
	c0.25,1.889,0.678,3.422,0.642,3.813c-0.035,0.393-0.143,1.605-0.178,1.783c-0.024,0.119-0.476,1.267-0.901,2.178
	c-0.212,0.455-0.417,0.852-0.561,1.03c-0.427,0.535-0.998,1.819-0.143,1.819c0.856,0,4.457,0,4.457,0s0.285-0.82,0.071-1.497
	c-0.096-0.308-0.128-0.791-0.123-1.16c0.017-0.002,0.03,0.003,0.047,0c0.022-0.285,0.055-0.543,0.04-0.73
	c-0.036-0.428-0.285-2.282-0.463-2.709c-0.179-0.428-0.392-3.066-0.32-4.064c0.071-0.998,0.641-7.665,0.391-8.556
	c-0.21-0.75-0.093-2.152-0.114-2.854c0.136-0.114,0.239-0.232,0.293-0.354c0.391-0.892,0.926-3.815,0.926-3.815
	s0.641,1.961,0.749,2.46c0.106,0.5,0.036,1.461,0.036,1.461s0.187,0.108,0.458,0.26c0.04,0.507,0.102,1.418,0.078,1.915
	c-0.037,0.713-0.429,3.493-0.073,5.49c0.357,1.996,0.464,5.312,0.322,6.666c-0.143,1.354-0.784,2.71-0.749,3.386
	c0.022,0.414,0.096,0.946,0.151,1.381c0.035,0.276,0.062,0.514,0.062,0.651c0,0.358-0.285,1.499-0.285,2.105h4.99
	c0,0-0.071-1.213-0.713-1.997c-0.003-0.005-0.007-0.011-0.011-0.016c-0.635-0.786-1.059-2.197-1.023-2.623
	c0.036-0.428-0.356-2.745-0.213-3.708s1.39-7.309,1.354-8.984c-0.024-1.099,0.015-2.256,0.043-2.925
	c0.65-0.15,1.72-0.708,1.882-1.389c0.178-0.749,0.107-4.955,0.178-6.132c0.044-0.72,0.208-2.19,0.328-3.384
	c0.129-0.066,0.228-0.116,0.255-0.109c0.094,0.024,0.902,0.024,0.902,0.024l0.262-0.214c0,0,0.333-0.166,0.547-0.451
	c0.213-0.285,1.116-1.735,1.141-1.997c0.023-0.261-0.191-2.329-0.214-2.661c-0.024-0.333,0.262-1.641,0.214-2.115
	c-0.047-0.475-0.072-3.327,0.023-4.396c0.095-1.07,0.261-6.655-0.023-7.725C40.169,29.146,40.487,26.994,40.498,26.925z
	 M25.71,77.996c-0.001-0.003-0.001-0.006-0.001-0.009c0.006,0.007,0.009,0.014,0.016,0.02C25.72,78.001,25.715,78,25.71,77.996z
	 M37.646,48.427c-0.035,0.072-0.108,0.106-0.185,0.121c0.012-0.16,0.018-0.292,0.018-0.382c0-0.25-0.031-0.775-0.071-1.349
	c0.118-0.072,0.241-0.092,0.285,0.042C37.788,47.144,37.741,48.238,37.646,48.427z M38.478,42.771
	c-0.152,0.32-0.599,0.957-0.933,1.414c0.069-0.423,0.112-0.832,0.128-1.004c0.037-0.409,0.111-1.15,0.259-2.039
	c0.138-0.826-0.681-3.693-0.592-5.227c0.086-0.529,0.21-1.057,0.21-1.224c0-0.026-0.003-0.089-0.006-0.167
	c0.22-1.547,0.449-3.688,0.537-4.688c0.111-1.26,0.037-2.521,0.037-2.521s0.098,1.555,0.051,2.077
	c-0.048,0.522-0.405,4.943-0.453,5.347c-0.047,0.404,0.453,2.686,0.523,3.588C38.311,39.23,38.692,42.32,38.478,42.771z
	 M38.959,27.235c0.431-0.056,0.975-0.15,1.521-0.305C40.302,27.062,39.565,27.167,38.959,27.235z"/>
<text transform="matrix(1 0 0 1 17.4004 92.2998)" fill="#B4B4B5" font-family="'SourceSansPro-Semibold'" font-size="10">13 yrs</text>
<text transform="matrix(1 0 0 1 17.4004 192.2998)" fill="#B4B4B5" font-family="'SourceSansPro-Semibold'" font-size="10">13 yrs</text>
<path fill="none" stroke="#B4B4B5" stroke-miterlimit="10" d="M40.498,126.925c0.596-0.169,1.189-0.411,1.624-0.76
	c0,0-1.483-5.228-1.927-6.821c-0.445-1.594-1.002-2.336-1.15-2.669s-2.668-1.445-3.336-1.816s-1.52-1.001-1.854-1.111
	c-0.114-0.038-0.43-0.041-0.81-0.032c-0.173-0.139-0.335-0.346-0.415-0.663c-0.214-0.855-0.25-2.21-0.178-2.425
	c0.071-0.213,0.32-1.247,0.32-1.817c0,0,1.069,0.036,1.069-0.677c0-0.714-0.035-1.605-0.214-1.891
	c-0.178-0.285-0.534-0.249-0.534-0.249s0.106-2.78-1.034-3.708c-1.141-0.926-1.532-1.497-3.315-1.211
	c-1.235,0.197-2.852,1.96-2.994,2.816c-0.143,0.855,0,2.531,0,3.029c0,0-0.321,0.035-0.214,0.605c0.107,0.57,0.107,0.928,0.178,1.32
	c0.072,0.391-0.213,0.463,0.178,0.713c0.393,0.249,0.429,0.07,0.429,0.07s0.356,0.713,0.534,0.856
	c0.177,0.142,0.322,0.57,0.427,0.819c0.107,0.25,0.393,2.389,0.143,2.639c-0.059,0.059-0.162,0.141-0.289,0.234
	c-0.685,0.297-1.791,0.767-2.141,0.867c-0.519,0.147-1.224,0.703-2.001,1.223c-0.779,0.52-1.78,1.111-2.187,1.631
	c-0.408,0.519-1.075,2.596-1.261,3.707c-0.185,1.111-1.075,5.635-1.372,6.412c-0.297,0.779-0.297,0.779-0.297,0.779
	s1.23,0.494,2.702,0.764c-0.008,0.195-0.051,0.941-0.236,1.352c-0.213,0.476-0.689,2.828-0.999,5.275
	c-0.309,2.448-0.309,2.448-0.309,2.448s-0.333,3.233-0.523,3.731c-0.19,0.499-0.142,0.713-0.166,1.236s-0.166,2.234-0.285,3.16
	c-0.119,0.927,0.119,1.189,0.237,1.521c0.12,0.332,0.238,1.164,0.357,1.379c0.119,0.213,0.261,0.404,0.404,0.594
	c0.142,0.189,0.998,0.166,1.283,0.309s0.808,0.451,1.021,0.357c0.214-0.096,0.214-0.523,0.214-0.523s0.309-0.096,0.094-0.309
	c-0.213-0.215-0.973-0.951-1.188-1.094c-0.214-0.143-0.57-0.784-0.594-0.951c-0.024-0.166,0.19-0.451,0.214-0.521
	c0.024-0.072,0.118,0,0.309,0.023c0.189,0.023,0.237,0.975,0.356,1.211c0.119,0.238,0.309,0.88,0.761,0.785
	c0.451-0.096,0.142-0.975,0.119-1.331c-0.024-0.356-0.333-1.593-0.452-2.163s-0.689-1.426-0.855-1.807
	c-0.167-0.379-0.213-1.781-0.072-2.328c0.126-0.484,1.475-4.299,2.05-5.676c-0.098,1.1,0.079,1.602,0.079,1.602
	s-0.778,1.074-0.778,1.371s-0.074,1.41,0.185,1.891c0.26,0.482,0.148,1.668,0.111,2.41c-0.037,0.742-0.074,2.373-0.074,2.373
	s0.097,0.015,0.253,0.033c0.044,0.471,0.102,1.119,0.123,1.498c0.036,0.642-0.356,3.564-0.213,4.812
	c0.142,1.248,0.463,3.029,0.32,4.206c-0.142,1.177-0.036,3.565-0.036,3.565s1.334,0.666,2.151,0.807
	c0.014,0.779,0.037,2.008,0.06,2.829c0.035,1.284,0.962,4.812,1.211,6.702c0.25,1.889,0.678,3.422,0.642,3.814
	c-0.035,0.393-0.143,1.604-0.178,1.783c-0.024,0.118-0.476,1.267-0.901,2.178c-0.212,0.455-0.417,0.852-0.561,1.029
	c-0.427,0.535-0.998,1.819-0.143,1.819c0.856,0,4.457,0,4.457,0s0.284-0.82,0.07-1.497c-0.096-0.308-0.127-0.791-0.122-1.16
	c0.017-0.002,0.03,0.003,0.048,0c0.021-0.285,0.055-0.543,0.039-0.73c-0.035-0.428-0.285-2.281-0.463-2.709
	c-0.18-0.428-0.393-3.065-0.32-4.064c0.07-0.998,0.641-7.664,0.391-8.556c-0.211-0.751-0.093-2.151-0.113-2.854
	c0.135-0.113,0.238-0.231,0.293-0.354c0.391-0.891,0.926-3.814,0.926-3.814s0.641,1.961,0.749,2.46
	c0.106,0.499,0.036,1.462,0.036,1.462s0.187,0.107,0.457,0.26c0.04,0.506,0.102,1.418,0.078,1.914
	c-0.037,0.713-0.43,3.494-0.073,5.49s0.464,5.312,0.321,6.666c-0.143,1.355-0.783,2.711-0.748,3.387
	c0.021,0.414,0.096,0.946,0.151,1.381c0.035,0.275,0.062,0.514,0.062,0.65c0,0.358-0.284,1.499-0.284,2.105h4.99
	c0,0-0.071-1.213-0.713-1.997c-0.003-0.005-0.007-0.011-0.011-0.016c-0.635-0.786-1.059-2.197-1.023-2.622
	c0.036-0.428-0.355-2.746-0.213-3.708s1.39-7.309,1.354-8.983c-0.023-1.1,0.016-2.256,0.044-2.926
	c0.649-0.15,1.72-0.707,1.882-1.389c0.178-0.748,0.107-4.955,0.178-6.131c0.045-0.721,0.209-2.19,0.328-3.385
	c0.129-0.066,0.229-0.115,0.256-0.109c0.094,0.024,0.902,0.024,0.902,0.024l0.262-0.214c0,0,0.332-0.166,0.547-0.451
	c0.213-0.285,1.115-1.735,1.141-1.998c0.023-0.261-0.191-2.328-0.215-2.66c-0.023-0.333,0.262-1.641,0.215-2.115
	c-0.048-0.476-0.072-3.328,0.023-4.396c0.094-1.07,0.261-6.656-0.023-7.725C40.17,129.146,40.486,126.994,40.498,126.925z
	 M25.71,177.996c-0.001-0.004-0.001-0.007-0.001-0.01c0.006,0.007,0.009,0.014,0.016,0.02C25.72,178.001,25.715,178,25.71,177.996z
	 M37.646,148.428c-0.035,0.071-0.108,0.105-0.186,0.121c0.012-0.16,0.018-0.292,0.018-0.383c0-0.25-0.031-0.775-0.07-1.35
	c0.117-0.071,0.241-0.092,0.285,0.043C37.788,147.145,37.74,148.238,37.646,148.428z M38.479,142.771
	c-0.152,0.32-0.6,0.957-0.934,1.414c0.07-0.424,0.113-0.832,0.129-1.005c0.037-0.409,0.111-1.149,0.26-2.039
	c0.138-0.826-0.682-3.692-0.592-5.228c0.086-0.528,0.209-1.057,0.209-1.224c0-0.026-0.002-0.089-0.006-0.167
	c0.22-1.547,0.449-3.688,0.537-4.688c0.11-1.26,0.037-2.521,0.037-2.521s0.098,1.555,0.051,2.076
	c-0.049,0.523-0.405,4.943-0.453,5.348c-0.047,0.404,0.453,2.686,0.523,3.588C38.311,139.23,38.691,142.32,38.479,142.771z
	 M38.959,127.234c0.432-0.056,0.976-0.15,1.521-0.305C40.302,127.062,39.565,127.168,38.959,127.234z"/>
<g>
	<g>
		<path fill="#B4B4B5" d="M28.98,103.647c-0.664,0.677-1.232,1.311-1.745,2.102c-0.221,0.34,0.076,0.726,0.432,0.752
			c1.007,0.074,1.991,0.277,3,0.333c-0.118-0.284-0.236-0.569-0.354-0.854c-0.891,1.054-1.378,2.467-2.565,3.256
			c-0.403,0.268-0.265,0.932,0.252,0.932c0.667,0,1.333,0,2,0c-0.161-0.211-0.321-0.422-0.482-0.633
			c-0.225,0.644-0.771,1.011-1,1.666c-0.082,0.235,0.091,0.576,0.349,0.615c0.458,0.068,0.893,0.191,1.333,0.334
			c-0.1-0.245-0.199-0.49-0.299-0.734c-0.955,1.587-1.916,3.163-3,4.666c-0.269,0.372,0.172,0.838,0.564,0.734
			c1.376-0.363,2.632-0.495,3.787-1.384c-0.202-0.262-0.404-0.523-0.606-0.785c-2.348,2.843-5.546,4.647-8.333,7
			c-0.335,0.283-0.063,0.869,0.354,0.854c4.321-0.162,8.161-2.19,12.133-3.685c-0.128-0.305-0.257-0.609-0.385-0.914
			c-4.017,1.771-7.439,4.48-11,7c-0.467,0.33-0.183,1.024,0.385,0.914c3.779-0.733,7.423-1.925,11-3.333
			c-0.162-0.279-0.324-0.558-0.486-0.836c-2.914,2.53-5.911,4.961-8.667,7.667c-0.386,0.379,0.021,0.912,0.486,0.836
			c2.184-0.358,4.188-0.968,6.12-2.051c-0.228-0.228-0.456-0.456-0.684-0.684c-2.61,3.432-6.171,5.929-8.922,9.231
			c-0.37,0.444,0.083,1.027,0.606,0.785c3.07-1.423,5.93-3.244,9-4.667c-0.202-0.262-0.404-0.523-0.606-0.785
			c-1.297,1.384-2.37,2.95-3.667,4.334c-0.361,0.386,0.004,0.92,0.486,0.836c2.476-0.432,4.673-1.374,6.787-2.718
			c-0.202-0.262-0.404-0.523-0.606-0.785c-3.287,2.938-6.68,5.747-9.667,9c-0.276,0.301-0.105,0.881,0.354,0.854
			c2.525-0.151,4.752-1.27,7.133-2.018c-0.188-0.245-0.376-0.49-0.564-0.734c-1.356,1.9-3.091,3.451-4.588,5.231
			c-0.317,0.377-0.023,0.957,0.486,0.836c1.691-0.402,3.309-0.771,4.786-1.717c-0.202-0.262-0.404-0.523-0.606-0.785
			c-0.979,1.152-1.529,2.666-2.667,3.666c-0.346,0.305-0.053,0.836,0.354,0.854c1.403,0.059,2.739,0.217,4.133-0.018
			c-0.188-0.245-0.376-0.49-0.564-0.734c-0.674,1.282-1.464,2.313-2.588,3.232c-0.5,0.408,0.212,1.111,0.707,0.707
			c1.215-0.992,2.019-2.052,2.745-3.436c0.217-0.412-0.135-0.807-0.564-0.734c-1.308,0.22-2.56,0.037-3.867-0.018
			c0.118,0.284,0.236,0.569,0.354,0.854c1.16-1.019,1.676-2.5,2.667-3.666c0.35-0.412-0.1-1.109-0.606-0.785
			c-1.406,0.901-2.948,1.235-4.547,1.615c0.162,0.279,0.324,0.558,0.486,0.836c1.553-1.847,3.339-3.464,4.745-5.435
			c0.258-0.361-0.167-0.859-0.564-0.734c-2.285,0.718-4.441,1.837-6.867,1.982c0.118,0.284,0.236,0.569,0.354,0.854
			c2.987-3.253,6.38-6.062,9.667-9c0.425-0.38-0.128-1.089-0.606-0.785c-2.037,1.296-4.166,2.201-6.547,2.616
			c0.162,0.279,0.324,0.558,0.486,0.836c1.297-1.384,2.37-2.95,3.667-4.334c0.405-0.433-0.101-1.02-0.606-0.785
			c-3.07,1.423-5.93,3.244-9,4.667c0.202,0.262,0.404,0.523,0.606,0.785c2.806-3.369,6.415-5.932,9.078-9.435
			c0.321-0.421-0.281-0.91-0.684-0.684c-1.855,1.04-3.793,1.607-5.88,1.949c0.162,0.279,0.324,0.558,0.486,0.836
			c2.755-2.706,5.753-5.137,8.667-7.667c0.367-0.318-0.021-1.02-0.486-0.836c-3.577,1.408-7.222,2.6-11,3.333
			c0.128,0.305,0.257,0.609,0.385,0.914c3.56-2.52,6.982-5.229,11-7c0.517-0.228,0.144-1.112-0.385-0.914
			c-3.874,1.458-7.65,3.491-11.867,3.649c0.118,0.284,0.236,0.569,0.354,0.854c2.795-2.359,5.978-4.148,8.333-7
			c0.333-0.403-0.124-1.156-0.606-0.785c-1.069,0.823-2.286,0.95-3.547,1.282c0.188,0.245,0.376,0.49,0.564,0.734
			c1.085-1.503,2.045-3.078,3-4.666c0.172-0.286,0.003-0.637-0.299-0.734c-0.44-0.142-0.875-0.266-1.333-0.334
			c0.117,0.205,0.233,0.41,0.349,0.615c0.225-0.644,0.771-1.011,1-1.666c0.108-0.311-0.173-0.633-0.482-0.633c-0.667,0-1.333,0-2,0
			c0.084,0.311,0.168,0.621,0.252,0.932c1.316-0.875,1.771-2.232,2.768-3.412c0.284-0.336,0.1-0.829-0.354-0.854
			c-1.008-0.056-1.995-0.259-3-0.333c0.144,0.251,0.288,0.502,0.432,0.752c0.45-0.701,0.979-1.334,1.588-1.898
			C30.139,103.895,29.432,103.187,28.98,103.647L28.98,103.647z"/>
	</g>
</g>
<line fill="none" x1="0" y1="100" x2="326" y2="100"/>
</svg>
