<?xml version="1.0" encoding="utf-8"?>
<!-- Generator: Adobe Illustrator 16.0.4, SVG Export Plug-In . SVG Version: 6.00 Build 0)  -->
<!DOCTYPE svg PUBLIC "-//W3C//DTD SVG 1.1//EN" "http://www.w3.org/Graphics/SVG/1.1/DTD/svg11.dtd">
<svg version="1.1" id="Layer_1" xmlns="http://www.w3.org/2000/svg" xmlns:xlink="http://www.w3.org/1999/xlink" x="0px" y="0px"
	 width="60px" height="200px" viewBox="0 0 60 200" enable-background="new 0 0 60 200" xml:space="preserve">
<path fill="none" stroke="#B4B4B5" stroke-miterlimit="10" d="M40.491,18.46c-0.153-0.157-0.919-0.865-0.958-1.18
	c-0.038-0.315-0.152-1.574-0.152-1.574l-1.148-1.258c0,0-0.818-0.421-1.562-0.659c-0.086-0.18-0.36-0.805-0.424-1.544
	c-0.074-0.875-0.394-3.969-0.643-4.845c-0.251-0.875-1.251-6.529-4.104-6.379c0,0-0.726-0.125-1.276,0.225c0,0-0.9-0.05-1.876,0.6
	c-0.976,0.651-2.052,2.502-2.401,3.753c-0.351,1.251-1.483,3.919-1.508,4.77c-0.025,0.851-0.125,1.051-0.376,1.276
	c-0.249,0.226-0.375,1.126-0.199,1.376c0.174,0.25,0.55,0.475,0.625,0.775c0.07,0.279-0.144,0.424-0.395,0.484
	c-0.601,0.053-0.96,0.072-1.288,0.207c-0.382,0.157-1.34,0.629-1.607,1.219c-0.268,0.59-0.038,1.022-0.268,1.259
	c-0.229,0.236-1.187,1.927-1.531,2.164c0,0,0.04,0.119,0.144,0.318c-0.067-0.028-0.105-0.043-0.105-0.043
	c0.182,0.465,0.568,0.928,1.019,1.347c-0.033,1.754-0.112,5.846-0.156,7.521c-0.059,2.16-0.145,4.2,0.144,5.383
	s0.748,2.307,0.921,3.52c0.173,1.213,0.402,3.343,0.576,3.756c0.173,0.415,0.315,1.272,0.402,1.864
	c0.03,0.206,0.071,0.326,0.123,0.415c-0.123,0.625-0.204,1.243-0.17,1.683c0.102,1.312,0.612,7.5,0.766,8.55
	c0.153,1.048,0.356,3.565,0.255,4.353c-0.102,0.786,0,1.992,0,1.992s0.562,0.368,0.511,0.944c-0.052,0.577-0.204,0.893-0.103,1.364
	c0.103,0.473,0.051,3.461,0.256,4.562c0.204,1.102,0.969,4.615,1.071,5.35c0.102,0.734,0.408,2.256,0.459,2.622
	c0.033,0.236,0.044,0.492,0.049,0.646l-0.049,0.456l-0.459,0.21c0,0,0.051,0.891,0.153,1.153c0.092,0.236,0.436,0.68,1.429,0.69
	c-0.02,0.146-0.04,0.351-0.015,0.469c0.041,0.197-0.015,0.239-0.15,0.647c-0.137,0.407-0.534,0.449-0.615,0.744
	c-0.083,0.296-1.245,0.155-1.245,0.857c0,0.703,0.438,0.45,0.943,0.45c0.507,0,4.473,0,4.473,0s0.205-0.478,0-0.899
	s-0.26-0.422-0.219-0.76c0.041-0.337,0.055-0.576,0.055-0.576s-0.055-0.352-0.096-0.618c-0.026-0.172-0.073-0.342-0.104-0.447
	c0.19-0.057,0.315-0.15,0.342-0.296c0.103-0.577,0.153-1.312,0.153-1.312l-0.46-0.629c0,0-0.408-1.521-0.408-1.888
	c0-0.368,0-6.451,0-7.028c0-0.576,0-2.098-0.152-2.779c-0.044-0.195-0.112-0.384-0.182-0.562l-0.155-0.923
	c0.012-0.012,0.017-0.026,0.03-0.037c0.307-0.21,0.51-0.524,0.307-1.153c-0.204-0.629,0-1.784,0.152-2.623
	c0.153-0.839,0.153-2.728,0.205-4.144c0.051-1.416,0.357-1.888,0.459-2.36c0.103-0.472,0.612-1.206,0.408-1.678
	s-0.255-1.416-0.255-1.416s0.612,0.839,0.562,1.469c-0.052,0.629-0.052,1.573,0.102,2.413c0.153,0.838-0.051,2.832,0.051,3.67
	c0.103,0.84-0.357,2.571-0.204,3.2s0.103,1.312,0.357,1.678c0.255,0.368,0.204,0.892,0.153,1.26
	c-0.051,0.366,0.051,0.891,0.051,0.891s-0.51,1.26-0.51,2.256s-0.153,4.038-0.103,4.353s0.255,2.675,0.204,2.833
	c-0.051,0.157-0.307,0.523-0.153,1.153c0.153,0.629,0.204,0.839,0.204,0.839l-0.513,1.315c0,0,0.051,0.891,0.203,1.101
	c0.056,0.076,0.214,0.097,0.433,0.099c0.001,0.112-0.003,0.459-0.082,0.83c-0.096,0.451-0.109,0.465-0.014,0.76
	s0.191,0.337,0.068,0.675c-0.124,0.337-0.205,0.281-0.191,0.73c0.014,0.45,0.109,0.633,0.328,0.633s4.076,0,4.076,0
	s0.342-0.464,0.067-0.787c-0.272-0.324-0.52-0.437-0.561-0.576c-0.04-0.141-0.314-0.352-0.342-0.604s0-0.408-0.178-0.59
	c-0.178-0.184-0.328-0.464-0.328-0.464l0.014-0.455c0.407-0.007,0.731-0.048,0.862-0.103c0.256-0.104,0.348-1.556,0.325-1.77
	c-0.028-0.276-0.363-0.285-0.363-0.757c0-0.473,1.043-4.862,1.094-5.911c0.052-1.049,0.052-1.678,0.153-2.675
	c0.103-0.996,0.103-1.888,0.103-1.888s0.408-1.312,0.203-1.888c-0.005-0.017-0.008-0.037-0.013-0.055
	c0.053-0.058,0.055-0.122-0.041-0.17c-0.092-0.589,0.105-1.401,0.105-1.401s0-2.622,0.204-3.357c0.204-0.734,0.356-2.36,0.562-2.989
	c0.204-0.629,0.459-1.731,0.459-1.731s-0.255-2.255-0.103-2.832c0.153-0.578,0.511-1.888,0.511-1.888l0.204-1.731
	c0,0,0-2.902,0-3.089c0.005,0.002,0.013,0.008,0.013,0.008s0.007-0.229,0.014-0.587c0.149-0.482,0.189-1.006,0.293-1.302
	c0.191-0.55,0.497-1.652,0.535-2.399c0.039-0.748-0.025-1.176-0.038-1.928c-0.015-0.899,0.287-3.991,0.345-5.625
	c0.061-1.729-0.038-2.478-0.115-3.107c-0.076-0.629-0.191-1.376-0.076-3.186c0.106-1.683,0.655-5.131,0.731-5.605
	c0.363-0.271,0.634-0.485,0.685-0.57C40.644,18.657,40.644,18.618,40.491,18.46z M23.408,33.271c0-0.68-0.259-3.697-0.287-4.318
	c-0.029-0.622,0.057-1.657,0.057-1.657s0.029-2.13-0.057-2.988c-0.011-0.102-0.023-0.212-0.037-0.328
	c0.011,0.046,0.021,0.083,0.029,0.104c0.076,0.197,0.114,1.219,0.153,1.731c0.038,0.511,0.306,1.062,0.268,1.809
	c-0.038,0.748,0.077,2.518,0.229,2.911c0.153,0.393-0.191,1.298-0.114,1.81c0.076,0.512-0.077,2.124-0.153,2.714
	c-0.006,0.044-0.016,0.099-0.028,0.157C23.435,34.399,23.408,33.594,23.408,33.271z"/>
<path fill="none" stroke="#B4B4B5" stroke-miterlimit="10" d="M40.49,118.461c-0.153-0.157-0.919-0.865-0.958-1.18
	c-0.038-0.314-0.152-1.574-0.152-1.574l-1.148-1.258c0,0-0.818-0.421-1.562-0.658c-0.086-0.18-0.36-0.806-0.424-1.545
	c-0.074-0.875-0.394-3.969-0.643-4.845c-0.251-0.876-1.251-6.529-4.104-6.38c0,0-0.726-0.125-1.276,0.226c0,0-0.9-0.05-1.876,0.601
	s-2.052,2.502-2.401,3.753c-0.351,1.251-1.483,3.919-1.508,4.77c-0.025,0.851-0.125,1.052-0.376,1.276
	c-0.249,0.225-0.375,1.125-0.199,1.375c0.174,0.251,0.55,0.476,0.625,0.775c0.07,0.279-0.144,0.424-0.395,0.484
	c-0.601,0.053-0.96,0.072-1.288,0.207c-0.382,0.157-1.34,0.629-1.607,1.219c-0.268,0.591-0.038,1.023-0.268,1.26
	c-0.229,0.235-1.187,1.927-1.531,2.164c0,0,0.04,0.119,0.144,0.318c-0.067-0.029-0.105-0.044-0.105-0.044
	c0.182,0.465,0.568,0.928,1.019,1.347c-0.033,1.754-0.112,5.847-0.156,7.521c-0.059,2.16-0.145,4.199,0.144,5.383
	s0.748,2.308,0.921,3.52c0.173,1.214,0.402,3.344,0.576,3.756c0.173,0.416,0.315,1.273,0.402,1.865
	c0.03,0.205,0.071,0.326,0.123,0.414c-0.123,0.625-0.204,1.244-0.17,1.684c0.102,1.311,0.612,7.5,0.766,8.549
	s0.356,3.566,0.255,4.354c-0.102,0.785,0,1.992,0,1.992s0.562,0.367,0.511,0.943c-0.052,0.578-0.204,0.893-0.103,1.365
	c0.103,0.473,0.051,3.461,0.256,4.562c0.204,1.102,0.969,4.615,1.071,5.35c0.102,0.734,0.408,2.256,0.459,2.621
	c0.033,0.236,0.044,0.492,0.049,0.646l-0.049,0.457l-0.459,0.209c0,0,0.051,0.891,0.153,1.154c0.092,0.236,0.436,0.68,1.429,0.689
	c-0.02,0.146-0.04,0.352-0.015,0.469c0.041,0.197-0.015,0.24-0.15,0.648c-0.137,0.406-0.534,0.449-0.615,0.744
	c-0.083,0.295-1.245,0.154-1.245,0.857s0.438,0.449,0.943,0.449c0.507,0,4.473,0,4.473,0s0.205-0.477,0-0.898
	s-0.26-0.422-0.219-0.76s0.055-0.576,0.055-0.576s-0.055-0.352-0.096-0.619c-0.026-0.172-0.073-0.342-0.104-0.447
	c0.19-0.057,0.315-0.15,0.342-0.295c0.103-0.578,0.153-1.312,0.153-1.312l-0.46-0.629c0,0-0.408-1.521-0.408-1.887
	c0-0.369,0-6.451,0-7.029c0-0.576,0-2.098-0.152-2.779c-0.044-0.195-0.112-0.383-0.182-0.561l-0.155-0.924
	c0.012-0.012,0.017-0.025,0.03-0.037c0.307-0.209,0.51-0.523,0.307-1.152c-0.204-0.629,0-1.785,0.152-2.623
	c0.153-0.84,0.153-2.729,0.205-4.145c0.051-1.414,0.357-1.887,0.459-2.359c0.103-0.471,0.612-1.205,0.408-1.678
	s-0.255-1.416-0.255-1.416s0.612,0.838,0.562,1.469c-0.052,0.629-0.052,1.572,0.102,2.412c0.153,0.838-0.051,2.832,0.051,3.67
	c0.103,0.84-0.357,2.572-0.204,3.201s0.103,1.311,0.357,1.678s0.204,0.891,0.153,1.26c-0.051,0.365,0.051,0.891,0.051,0.891
	s-0.51,1.26-0.51,2.256s-0.153,4.037-0.103,4.352s0.255,2.676,0.204,2.834c-0.051,0.156-0.307,0.523-0.153,1.152
	s0.204,0.84,0.204,0.84l-0.513,1.314c0,0,0.051,0.891,0.203,1.102c0.056,0.076,0.214,0.096,0.433,0.098
	c0.001,0.113-0.003,0.459-0.082,0.83c-0.096,0.451-0.109,0.465-0.014,0.76s0.191,0.338,0.068,0.676
	c-0.124,0.336-0.205,0.281-0.191,0.73s0.109,0.633,0.328,0.633s4.076,0,4.076,0s0.342-0.465,0.067-0.787
	c-0.272-0.324-0.52-0.438-0.561-0.576c-0.04-0.141-0.314-0.352-0.342-0.605c-0.027-0.252,0-0.408-0.178-0.59
	c-0.178-0.184-0.328-0.463-0.328-0.463l0.014-0.455c0.407-0.008,0.731-0.049,0.862-0.104c0.256-0.104,0.348-1.555,0.325-1.77
	c-0.028-0.275-0.363-0.285-0.363-0.756c0-0.473,1.043-4.863,1.094-5.912c0.052-1.049,0.052-1.678,0.153-2.674
	c0.103-0.996,0.103-1.889,0.103-1.889s0.408-1.311,0.203-1.887c-0.005-0.018-0.008-0.037-0.013-0.055
	c0.053-0.059,0.055-0.123-0.041-0.17c-0.092-0.59,0.105-1.402,0.105-1.402s0-2.621,0.204-3.357c0.204-0.734,0.356-2.359,0.562-2.988
	c0.204-0.629,0.459-1.73,0.459-1.73s-0.255-2.256-0.103-2.832c0.153-0.578,0.511-1.889,0.511-1.889l0.204-1.73c0,0,0-2.902,0-3.09
	c0.005,0.004,0.013,0.01,0.013,0.01s0.007-0.23,0.014-0.588c0.149-0.482,0.189-1.006,0.293-1.303
	c0.191-0.549,0.497-1.652,0.535-2.398c0.039-0.747-0.025-1.176-0.038-1.928c-0.015-0.899,0.287-3.99,0.345-5.625
	c0.061-1.729-0.038-2.478-0.115-3.107c-0.076-0.629-0.191-1.377-0.076-3.186c0.106-1.684,0.655-5.132,0.731-5.605
	c0.363-0.271,0.634-0.486,0.685-0.57C40.643,118.658,40.643,118.618,40.49,118.461z M23.407,133.271c0-0.68-0.259-3.697-0.287-4.317
	c-0.029-0.622,0.057-1.657,0.057-1.657s0.029-2.129-0.057-2.987c-0.011-0.102-0.023-0.212-0.037-0.327
	c0.011,0.045,0.021,0.083,0.029,0.104c0.076,0.197,0.114,1.219,0.153,1.731c0.038,0.511,0.306,1.062,0.268,1.809
	s0.077,2.518,0.229,2.911c0.153,0.393-0.191,1.298-0.114,1.81c0.076,0.512-0.077,2.124-0.153,2.714
	c-0.006,0.045-0.016,0.099-0.028,0.157C23.434,134.399,23.407,133.595,23.407,133.271z"/>
<g>
	<g>
		<path fill="#B4B4B5" d="M32.334,103.168c-2.15,0.095-3.62,0.862-5.021,2.479c-0.342,0.396-0.009,0.918,0.486,0.836
			c1.171-0.194,2.372,0.249,3.534,0.351c-0.118-0.284-0.235-0.569-0.354-0.854c-1.462,1.685-3.254,2.964-5,4.334
			c-0.385,0.302-0.021,0.814,0.354,0.854c2.353,0.244,4.471-0.412,6.585-1.402c-0.168-0.288-0.336-0.575-0.504-0.863
			c-2.296,1.642-4.584,3.29-6.769,5.078c-0.341,0.278-0.06,0.871,0.354,0.854c2.588-0.112,5.075-0.9,7.667-1
			c-0.084-0.311-0.168-0.621-0.252-0.932c-3.441,1.684-7.015,3.072-10.333,5c-0.34,0.197-0.33,0.852,0.119,0.914
			c3.818,0.526,7.308-0.563,10.932-1.666c-0.128-0.305-0.257-0.609-0.385-0.914c-2.806,1.513-5.022,3.69-7.102,6.078
			c-0.307,0.352-0.022,1.005,0.486,0.836c2-0.667,4-1.334,6-2c-0.162-0.279-0.324-0.558-0.486-0.836
			c-2.32,1.987-4.657,3.933-7.231,5.588c-0.486,0.312-0.17,1.029,0.385,0.914c3.383-0.706,6.691-1.675,10-2.666
			c-0.162-0.279-0.324-0.558-0.486-0.836c-2.936,3.259-5.885,6.484-9.565,8.922c-0.492,0.325-0.168,1.006,0.385,0.914
			c2.566-0.428,4.87-1.56,7.334-2.334c-0.162-0.279-0.324-0.558-0.486-0.836c-1.748,1.371-3.536,2.646-5,4.334
			c-0.3,0.346-0.022,1.021,0.486,0.836c1.736-0.632,3.524-0.979,5.333-1.334c-0.128-0.305-0.257-0.609-0.385-0.914
			c-2.923,2.223-6.077,4.111-9,6.334c-0.388,0.294-0.277,0.905,0.252,0.932c3.532,0.175,6.688-1.87,10.133-2.352
			c-0.188-0.245-0.376-0.49-0.564-0.734c-1.483,2.073-3.398,3.715-5.487,5.154c-0.463,0.318-0.184,1.048,0.385,0.914
			c1.687-0.398,3.368-0.74,5-1.334c-0.128-0.305-0.257-0.609-0.385-0.914c-1.925,0.983-3.727,2.088-5.435,3.412
			c-0.509,0.395,0.204,1.097,0.707,0.707c1.642-1.272,3.386-2.312,5.231-3.256c0.502-0.256,0.149-1.108-0.385-0.914
			c-1.632,0.595-3.313,0.936-5,1.334c0.128,0.305,0.257,0.609,0.385,0.914c2.232-1.538,4.263-3.298,5.847-5.514
			c0.289-0.404-0.187-0.787-0.564-0.734c-3.346,0.468-6.442,2.485-9.867,2.316c0.084,0.311,0.168,0.621,0.252,0.932
			c2.923-2.223,6.077-4.111,9-6.334c0.447-0.34,0.196-1.028-0.385-0.914c-1.809,0.355-3.597,0.703-5.333,1.334
			c0.162,0.279,0.324,0.558,0.486,0.836c1.461-1.685,3.254-2.965,5-4.334c0.402-0.315-0.033-0.979-0.486-0.836
			c-2.465,0.775-4.768,1.907-7.334,2.334c0.128,0.305,0.257,0.609,0.385,0.914c3.752-2.483,6.774-5.754,9.769-9.078
			c0.322-0.357,0.016-0.986-0.486-0.836c-3.309,0.992-6.617,1.96-10,2.666c0.128,0.305,0.257,0.609,0.385,0.914
			c2.648-1.702,5.048-3.7,7.435-5.744c0.38-0.325-0.021-0.99-0.486-0.836c-2,0.666-4,1.333-6,2c0.162,0.279,0.324,0.558,0.486,0.836
			c2.02-2.319,4.169-4.449,6.898-5.922c0.5-0.27,0.157-1.079-0.385-0.914c-3.413,1.039-6.78,2.166-10.4,1.666
			c0.04,0.305,0.08,0.609,0.119,0.914c3.319-1.928,6.893-3.315,10.333-5c0.45-0.22,0.231-0.95-0.252-0.932
			c-2.592,0.1-5.081,0.888-7.667,1c0.118,0.284,0.235,0.569,0.354,0.854c2.119-1.734,4.339-3.33,6.565-4.922
			c0.525-0.375,0.082-1.139-0.504-0.863c-1.959,0.917-3.902,1.492-6.081,1.266c0.118,0.284,0.235,0.569,0.354,0.854
			c1.748-1.371,3.536-2.646,5-4.334c0.297-0.343,0.089-0.815-0.354-0.854c-1.315-0.114-2.482-0.533-3.8-0.315
			c0.162,0.279,0.324,0.558,0.486,0.836c1.237-1.429,2.429-2.104,4.313-2.187C32.977,104.14,32.979,103.14,32.334,103.168
			L32.334,103.168z"/>
	</g>
</g>
<text transform="matrix(1 0 0 1 17.4004 92.2998)" fill="#B4B4B5" font-family="'SourceSansPro-Semibold'" font-size="10">19 yrs</text>
<text transform="matrix(1 0 0 1 17.4004 192.2998)" fill="#B4B4B5" font-family="'SourceSansPro-Semibold'" font-size="10">19 yrs</text>
<line fill="none" x1="-240" y1="100" x2="86" y2="100"/>
</svg>
